<?xml version="1.0" encoding="utf-8"?>
<!-- Generator: Adobe Illustrator 19.0.1, SVG Export Plug-In . SVG Version: 6.00 Build 0)  -->
<svg version="1.1" id="Layer_1" xmlns="http://www.w3.org/2000/svg" xmlns:xlink="http://www.w3.org/1999/xlink" x="0px" y="0px"
	 viewBox="0 0 75.8 61.3" style="enable-background:new 0 0 75.8 61.3;" xml:space="preserve">
<style type="text/css">
	.st0{fill:#FFFFFF;}
</style>
<path class="st0" d="M67.8,58h-59c-2.5,0-4.6-2.1-4.6-4.6v0c0-2.5,2.1-4.6,4.6-4.6h59c2.5,0,4.6,2.1,4.6,4.6v0
	C72.3,55.9,70.3,58,67.8,58z M68,44.9c-2.3-14.4-14.7-25.4-29.7-25.4c-15,0-27.5,11-29.7,25.4 M38.7,15.6c2.4,0.1,5.8,0.6,5.8,0.6
	s2.6-3.4,3.7-5.1c1.2-1.7-0.3-3.5-1.1-4.9C46.2,4.8,45.6,4,44.6,4S32.8,4,32,4c-0.9,0-1.6,0.6-2,1.2c-0.5,0.6-1.4,2.4-1.6,2.9
	c-0.3,0.5-0.7,1.5-0.3,2.5c0.4,1,4,5.5,4,5.5S36.3,15.5,38.7,15.6z"/>
</svg>
