<svg xmlns="http://www.w3.org/2000/svg" width="36" height="43" viewBox="0 0 36 43"><g><g><path fill="#85d1f5" d="M5.903 1.939c2.794-.387 4.187 1.596 5.678 3.352 1.195 1.408 2.293 2.894 3.452 4.328.598.728 1.226.517 1.715-.119.36-.47.564-1.064.887-1.572.689-1.083 1.301-2.24 2.143-3.188a34.046 34.046 0 0 1 3.87-3.706C24.31.488 25.252.05 26.092-.01c5.625-.405 11 5.445 9.73 10.775-.46 1.94-1.515 3.83-2.656 5.502-2.42 3.537-5.075 6.922-7.632 10.363-.82 1.103-1.764 2.12-2.45 3.293-1.851 3.177-2.438 6.566-1.59 10.177.353 1.497.001 2.519-.782 2.823-.829.322-1.976-.194-2.754-1.358-1.177-1.75-2.338-3.51-3.427-5.313-1.866-3.09-4.242-5.773-6.6-8.476-1.135-1.304-2.042-2.802-3.043-4.22-.782-1.107-1.481-2.284-2.34-3.328C.537 17.798.121 14.912-.01 11.92c-.027-.643.06-1.286.029-1.928-.133-2.795 1.15-5.001 3.056-6.853.709-.692 1.797-.997 2.709-1.483.04.093.082.19.12.282zM16.95 32.392c.472-.464 1.054-.762 1.153-1.178.66-2.738 2.162-4.993 3.889-7.141 1.709-2.128 3.38-4.289 5.072-6.432.42-.531.87-1.047 1.274-1.604 1-1.375 2.075-2.716 2.948-4.172.809-1.357.765-2.824-.062-4.22-.853-1.435-2.108-2.39-3.636-2.957-1.112-.412-2.262-.18-3.101.625-2.443 2.338-4.196 5.105-4.846 8.464-.422 2.194-.795 4.397-1.2 6.596-.167.904-.805 1.395-1.652 1.508-.835.112-1.487-.325-1.81-1.101a207.34 207.34 0 0 1-2.256-5.675c-.996-2.64-2.197-5.163-4.174-7.221-.707-.736-1.466-1.778-2.7-1.25-1.19.513-1.425 1.774-1.522 2.883-.208 2.337-.007 4.734 1.098 6.772 1.621 2.981 3.5 5.842 5.46 8.615 1.188 1.682 2.77 3.081 4.11 4.662.675.804 1.203 1.727 1.955 2.826z"/></g></g></svg>