<?xml version="1.0" encoding="utf-8"?>
<!-- Generator: Adobe Illustrator 19.0.1, SVG Export Plug-In . SVG Version: 6.00 Build 0)  -->
<svg version="1.1" id="Layer_1" xmlns="http://www.w3.org/2000/svg" xmlns:xlink="http://www.w3.org/1999/xlink" x="0px" y="0px"
	 viewBox="0 0 263.7 263.7" style="enable-background:new 0 0 263.7 263.7;" xml:space="preserve">
<style type="text/css">
	.st0{fill-rule:evenodd;clip-rule:evenodd;fill:#85D1F5;}
	.st1{fill-rule:evenodd;clip-rule:evenodd;fill:#FFFFFF;}
	.st2{fill:#FFFFFF;}
</style>
<path class="st0" d="M261.7,17.8c2.9,16.7,0.8,30.7,1,47.4c0.1,9.6-1.2,19.1-1.3,28.7c-0.3,21.1-0.3,42.2-0.3,63.2
	c0,11.7,0.2,23.4,0.3,35.1c0,3.5-0.2,7.1-0.4,10.6c-0.5,10.7-1.5,21.3-1.5,31.9c-0.1,7.8,0.4,12.8,0.8,20.6c0.3,5.2-9.1,7-14.3,5.6
	c-1.9-0.5-9.1-0.9-11-1c-20.4-0.8-27.7,1-48,0.3c-9.9-0.3-19.8-1.3-29.7-1c-17.8,0.4-35.6,1.8-53.4,2c-19.1,0.3-38.2-0.5-57.3-0.5
	c-10.2,0-20.4,0.9-30.5,1.3c-9.9,0.4-12.3-2.3-11.9-12c0.3-6.1,0.1-12.2,0.1-18.3c-0.1-30.3-0.3-60.6-0.4-90.9
	c0-10.1,0.5-20.3,0.5-30.4c0-8.9-0.3-13.6-0.4-22.6C3.7,71.4,2.2,69.5,2.2,52.7c0-8.4-1.8-18.9-1.5-27.4C0.8,21.2,7,2.2,23.1,2.6
	c9.4,0.2,18.2,1.9,27.6,2.1c18,0.3,24.1-0.8,42.1-1.1c15.9-0.2,31.8-1.9,47.7-2c10.3,0,20.7-0.7,30.9,1.8c1.9,0.5,4,0.3,6.1,0.2
	c10.9-0.2,21.8-0.8,32.7-0.8c11.1,0,16.4,0.5,27.5,0.8c6.3,0.1,14.7,1.8,18.1,4C258.9,10.3,261.1,14.3,261.7,17.8z"/>
<path class="st1" d="M220.2,246.2c-3.5,3.5-5.3-0.3-7.4-1.9c-4.7,2.8-4.7,2.8-10.3-1.4c-3.2,2.1-6.6,4-9.9,0.4
	c-6.2,3.9-6.2,3.9-11.7-0.3c-4.6,2.4-4.6,2.4-9.1,0c-2.9,2.5-6.1,5.5-10.1,0.6c-3.8,5-7.3,2.1-10.6-0.4c-7.7,5.6-8,4.8-11.2,1.9
	c-2.3,0.4-4.5,1.4-6.3,1c-2.9-0.8-5.1-0.6-7.9,0.5c-1.9,0.8-4.8-1-8.2-1.8c-2.5,1.9-6.1,3.2-9.9-0.1c-4,3.9-7.9,4-11.5-0.5
	c-1.9,1.3-3.4,2.3-5.3,3.6c-1.6-0.9-3.3-1.8-5.3-2.9c-3,2.8-5.5,8.6-10.3,1.9c-3.5,1.6-7.1,3.8-10.1-0.9c-3.1,2.8-5.9,3.9-9.2,1.4
	c-0.5-0.4-1.6-0.2-2.4,0c-0.8,0.2-1.7,1.1-2.4,1c-2.2-0.3-4.4-1.4-6.6-1.3c-2,0-4.2,1.7-6.1,1.4c-2-0.4-3.5-0.7-5.5,0.1
	c-2.2,0.9-7.4-2-9.2-4.5c-0.8-1-1.5-2.2-2.5-3c-5.2-4.6-5.2-4.5-0.6-9.8c-1.2-1.9-3.2-3.7-3.5-5.8c-0.2-1.6,1.7-3.6,2.9-6
	c-0.6-1-2.3-2.6-2.4-4.3c-0.1-1.7,1.3-3.4,2.2-5.4c-0.6-0.9-1.4-2.2-2.1-3.5c-0.4-0.8-1.1-2.1-0.8-2.4c4.6-4.3-1-11.9,5.2-15.4
	c-1-4-4.4-7.3-1.2-11.4c0.3-0.4-0.1-1.8-0.6-2.4c-2.7-3.3-2-6.5,0.5-9.7c-2.7-3.2-6.3-6.4-1.2-10.3c-3.4-5.7-3.4-5.7,1.5-10.6
	c-3.5-5.4-3.5-5.4-1-10.5c-3.8-4.6-3.8-4.6,0.3-10.9c-3.5-3.7-4-7.5,0.6-11.1c-1.6-3.8-2.7-7.6,0.9-11.1c-3.2-3.2-5.9-6.5-2.4-10.9
	c0.4-0.5,0-1.7,0-2.5c0.2-2.6,0.4-5.2,0.7-9.2c-1.7-2.1-1.5-5.5,1.2-9c-3.7-3.9-4.4-7.8-0.1-11.8c-3.4-3.3-2.7-6.4-0.3-8.4
	c-0.2-4.1-0.3-7.4-0.6-12c-2.5-2.2-3.4-5.7-0.2-9.9c1.3-1.8-0.9-5.6,3.3-6c0.3,0.9,0.6,1.7,0.9,2.7c1.6-2,3-3.9,4.6-5.5
	c0.5-0.6,1.9-1,2.4-0.7c4.7,2.8,8.9-2.3,13.4-0.7c1.4,0.5,2.5,1.7,4.2,2.8c2.4-3.5,5.4-4,8.3-0.7c5.1-5,5.1-5,11-1.6
	c2.3-0.8,4.6-2.5,6.4-2.1c2.1,0.5,3.7,2.9,5.5,4.4c6.1-4.5,6.1-4.5,11.6-1.1c3.7-3.2,7.6-3.9,11,0.9c3.2-1.4,6.2-4.3,9.7-0.9
	c0.3,0.3,1.7,0,2.3-0.4c3.2-2.2,6.1-2.2,8.4,1.3c5.4-5.6,8-4.4,13.1,1.8c1.7-1.1,3.4-2.9,5.3-3.3c1.6-0.3,3.5,0.9,5.4,1.5
	c5.9-5.7,6-5.7,12.3-0.8c1.1-0.9,2.2-1.9,3.7-3.1c1.8,1.3,3.5,2.5,5.2,3.8c2-1.7,3.8-3.2,5.9-4.9c1.8,1.2,3.4,2.2,4.9,3.2
	c2.3-0.7,4.6-2.2,6.6-1.9c1.9,0.2,3.5,2.3,5.4,3.7c1.4-0.7,3.1-2.1,4.8-2.2c1.5,0,3,1.5,4.6,2.3c5.4-5,5.4-5,10.3,0.4
	c1.7-1.4,3.5-2.9,5.4-4.5c1.7,1.1,3.3,2.2,4.9,3.2c4.5-4.8,5-4.8,9.9,0c1.8-1,3.6-2,6.2-3.5c2.7,3.9,5.4,7.7,7.9,11.6
	c0.5,0.8,0.5,2.5,0,3.1c-1.6,2-0.1,3.7-0.1,5.4c-0.1,5.5-1,10.9-1.8,17.9c2.4,5.4,2.5,5.7-0.1,11.8c0,3.1,0.1,6.3,0,9.4
	c0,0.9-0.5,2-0.2,2.6c2.6,4.3,2.9,8.7,1.9,13.6c-0.5,2.2,0.3,4.8-0.3,6.9c-0.8,2.6-1.8,4.9-0.2,7.5c0.4,0.7,0.4,1.7,0.2,2.6
	c-0.7,4.6-1.5,9.2-2.2,13.8c-0.1,1,0.1,2.2,0.5,3.1c1.3,2.5,0.7,4.9,0.5,7.6c-0.3,4.7,1.3,9.5-1.1,14c2.5,3.2,2.4,6.5,0.1,9.8
	c3.3,3.9-1.2,8.7,1.5,12.9c0.6,0.9,0.3,2.7-0.2,3.8c-1.1,2.6-0.4,4.5,0.9,6.8c0.8,1.6,0.8,3.7,0.8,5.6c-0.1,2.9-0.2,5.9-0.9,8.7
	c-0.7,2.8,0.1,5.9-0.4,8.1c-1.4,5.6,3.7,11.1-0.8,16.6c3.1,2.7,5.3,5.5,1.9,9.4c-0.6,0.7-0.2,2.4,0,3.5c1.1,5.9-3.9,12.9-10,13.6
	c-0.9,0.1-2.2-0.3-2.5,0.1c-3.7,4.5-7.5,1.5-11.2,0.3c0-5.8-0.6-6.2-6.9-3.9C215.1,244,216.2,246.5,220.2,246.2z M237.8,25.2
	c-2.3-0.2-4.3-0.6-6.2-0.6c-13.6,0.1-27.3,0.5-40.9,0.5c-7,0-14.1-0.5-21.1-0.6c-13.6-0.1-27.3-0.1-40.9-0.1
	c-11.2,0-22.4,0.3-33.6,0.4C87.2,25,79.3,25,71.4,25.1c-13.2,0.2-26.4,0.3-39.5,0.7c-1.6,0.1-3.7,1.5-4.5,2.9
	c-0.9,1.6-0.9,3.8-0.8,5.8c0.2,7.2,0.9,14.5,0.8,21.7c-0.2,15.4-0.8,30.8-1,46.2c-0.2,14.3,0,28.6,0,42.9c0,7.5-0.1,15,0,22.5
	c0.1,13.6,0.3,27.2,0.3,40.8c0,8.6-0.3,17.1-0.2,25.7c0,5.6,1,6.5,6.5,6.9c1.1,0.1,2.2,0,3.3,0c17.8,0,35.6,0,53.4-0.1
	c8.7,0,17.4-0.2,26.2-0.5c9.2-0.4,18.3-1.3,27.5-1.5c7.4-0.2,14.8,0.4,22.2,0.3c10.7-0.1,21.4-0.5,32.1-0.8
	c10.5-0.3,21.1-0.8,31.6-1.1c2.7-0.1,5.5,0,8.4,0c0.1-1.7,0.3-2.8,0.2-3.8c-0.6-11.2-0.5-22.3,0.1-33.6c0.8-14.3,0-28.6-0.2-42.9
	c-0.1-9.9-0.6-19.8-0.5-29.7c0.1-19.6,0.8-39.1,0.6-58.7c-0.1-9.6-1.1-19.1,0-28.8C238.2,35.1,237.8,30.3,237.8,25.2z M24.4,190.7
	c-3.9,3.1-3.9,3.1-1,9.7c-1.5,1.1-2.9,2.1-4.4,3.2c2.3,4.1,2.3,4.1,6,5.4c0-4.9,0-9.6,0-14.4C25,193.6,24.7,192.5,24.4,190.7z
	 M169.5,21.9c3.4,0.5,5.9,0.8,9.6,1.3c-2-3.1-3.3-5.1-4.9-7.7C172.5,17.9,171.4,19.4,169.5,21.9z M124.6,20.4
	c3.4,2.3,5.7,3.2,8.5,1.4c0-2.4-0.9-4.2-3.2-4C128.3,18,126.9,19.3,124.6,20.4z M180.9,22.9c2.5-0.2,4.6-0.4,6.6-0.5
	c-0.3-4.2-0.6-4.9-2.1-5C182.4,17.4,181.1,19.1,180.9,22.9z M82.5,22.9c2.9-0.4,5.2-0.7,9.2-1.3c-2.4-2.1-3.5-3.9-4.8-4
	C84.5,17.5,83,19.2,82.5,22.9z M24.8,122.2c-0.4-3.4,1.1-6.1-1.3-8.2C18.8,116.9,18.8,117.3,24.8,122.2z M24.9,133.1
	c-0.2-3.6-0.4-5.6-0.6-9.2c-2.4,2.4-3.6,3.6-5.3,5.2C21,130.4,22.4,131.3,24.9,133.1z M239.8,99.4c4.9-6.1,4.8-6.7-0.5-9.3
	C239.4,93,239.6,95.5,239.8,99.4z M239.9,77.9c0,3.3,0,5.8,0,8.4C245.3,84.2,245.3,83.6,239.9,77.9z M232.2,239.4
	c-3.5,0.2-5.2,0.3-7,0.5c-0.2,0.4-0.4,0.9-0.6,1.3c1.2,1.2,2.4,2.4,3.6,3.5C229.2,243.4,230.2,242,232.2,239.4z M23.3,153.8
	c0.3-0.2,0.7-0.4,1-0.6c0-2.1,0-4.2,0-8c-2.2,1.9-4.4,3.2-4.2,3.8C20.7,150.8,22.2,152.2,23.3,153.8z M24.6,212.7
	c-0.5-0.3-0.9-0.7-1.4-1c-1,1-2.9,2-2.9,3c0,2.4,1.8,3.9,4.3,4.7C24.6,216.9,24.6,214.8,24.6,212.7z M239.7,226.8
	c3.3-0.7,5.2-1.9,4.6-4.5c-0.6-2.5-2.8-2.7-5.4-1.9C239.2,222.6,239.4,224.4,239.7,226.8z M61.2,22.6c1.7-0.1,3.6-0.2,5.5-0.3
	c0.2-0.5,0.4-1,0.6-1.6c-1.3-1.1-2.5-3.2-3.9-3.2C61.1,17.4,60.3,19.4,61.2,22.6z M24.2,163.3c0-3,0-4.9,0-7
	C19.3,158.7,19.3,158.7,24.2,163.3z M24.1,230.2c0-3.5,0-5.5,0-8.3c-2.1,1-3.4,1.7-5.3,2.6C20.6,226.4,21.8,227.7,24.1,230.2z
	 M76.9,21.8c0.3-0.5,0.5-0.9,0.8-1.4c-1.3-1.4-2.6-2.9-4.9-5.3c-0.8,3.1-1.3,4.7-1.8,6.7C73.5,21.8,75.2,21.8,76.9,21.8z M93.7,23
	c2.9-0.4,4.7-0.7,7.1-1.1C96.8,16.4,96.7,16.4,93.7,23z M240,32.2c-0.5,3.3-1.5,5.7,1.1,8C243.8,37.3,244.2,35.1,240,32.2z
	 M226.7,17.2c-0.6,0-1.2-0.1-1.8-0.1c-0.6,1.6-1.2,3.1-2,5.4c2.6-0.2,4.2-0.3,6.5-0.5C228.2,19.9,227.4,18.6,226.7,17.2z M39.5,22.8
	c2.5,0.2,4.9,1.6,6.8-1.3C42.1,17.2,41.3,17.3,39.5,22.8z M121.7,22.6c-3.2-5.3-3.3-5.3-6.8-0.9C117,22,118.8,22.3,121.7,22.6z
	 M25.7,67.3c-0.3-3.1-0.5-5.1-0.8-7.9c-1.7,0.9-3.4,1.3-3.6,2.1C20.6,64.1,22,65.9,25.7,67.3z M149.7,21c0.3,0.5,0.7,1,1,1.5
	c1.7-0.3,3.4-0.6,5.7-1.1c-1.1-2-1.8-3.2-3-5.3C151.8,18.2,150.8,19.6,149.7,21z M205.3,16.2c-1.4,2.8-2.2,4.3-3.4,6.8
	c2.9-0.3,4.7-0.5,7.3-0.8C207.9,20.2,207.1,18.9,205.3,16.2z M25.6,81c-5.3,3.1-5.3,3.3-0.6,7.5C25.3,85.9,25.4,83.7,25.6,81z
	 M240,215.9c2.9-0.7,3.6-2.7,2.9-5.3c-0.1-0.5-1.3-0.8-2-1.1c-0.5,1.7-1.1,3.4-1.6,5.1C239.3,214.9,239.7,215.3,240,215.9z
	 M212.9,21.5c0.3,0.4,0.6,0.8,0.9,1.2c1.6-0.3,3.3-0.6,5.5-1c-0.9-1.7-1.5-2.8-2.5-4.7C215.2,18.9,214,20.2,212.9,21.5z M24.5,166.4
	c-3.9,4.1-3.9,4.1,0,7.4C24.5,171.6,24.5,169.6,24.5,166.4z M240.5,185.3c4.3-3.2,4.3-3.8-0.9-8.3
	C239.9,180.3,240.2,182.7,240.5,185.3z M66.9,242.7c0.9,4.3,2.7,4.6,5,3.1c0.4-0.3,0.4-1.1,0.8-2.2
	C70.8,243.3,69.2,243.1,66.9,242.7z M24.5,27.6c-1.9,2.1-3.3,2.9-3.4,3.9c-0.2,1.7,0.5,3.4,3.4,2.9C24.5,32.7,24.5,31,24.5,27.6z
	 M22.4,239.5c0.8-0.3,1.5-0.6,2.3-0.9c-0.5-1.4-0.9-2.8-1.4-4.2c-0.9,0.3-1.8,0.7-2.7,1C21.2,236.8,21.8,238.2,22.4,239.5z
	 M25.1,71.4c-0.6,0-1.2,0-1.8-0.1c-2.3,2.4-1.9,4.5,1.8,7.1C25.1,75.6,25.1,73.5,25.1,71.4z M104,21.6c3.2,0.2,5.1,1.9,7.2-0.7
	C109.1,17.8,107.2,18.8,104,21.6z M239.6,61.4c3.9-4.2,3.9-4.9,0-8C239.6,56.1,239.6,58.5,239.6,61.4z M19.7,93.5
	c1.8,2.2,2.8,3.5,4.2,5.2C25.2,92.8,25.2,92.8,19.7,93.5z M239.8,108.9c0.4,0.1,0.9,0.2,1.3,0.2c1.1-2.1,2.3-4.2-1.3-7.1
	C239.8,104.8,239.8,106.8,239.8,108.9z M141,241.3c4,4,4,4,6.3,0C145.4,241.3,143.8,241.3,141,241.3z M23.1,141.7
	c0.6-0.1,1.1-0.3,1.7-0.4c-0.4-1.5-0.8-3-1.3-4.5c0-0.1-1.4,0-1.7,0.3C20.2,139.3,21.6,140.5,23.1,141.7z M183.4,240.6
	c2.7,3.4,2.8,3.5,4.5,2.5c0.5-0.3,0.6-1.3,1.1-2.5C187,240.6,185.6,240.6,183.4,240.6z M163.7,18c-1.5,1.7-3.6,2.9-0.9,4.3
	c0.7,0.4,2.1-0.6,3.7-1.1C165.4,20,164.7,19.2,163.7,18z M192.2,23.2c2.9-0.3,4.5-0.4,6.6-0.6C196.1,18.6,196.1,18.6,192.2,23.2z
	 M30,20.1c-0.1,0.6-0.2,1.3-0.3,1.9c1.5,1.9,3,1.8,5.7-1.2C32.9,20.5,31.5,20.3,30,20.1z M63.1,242.9c-2.6,0.3-4.1,0.4-5.6,0.5
	c0.3,0.9,0.3,2.2,0.9,2.7C60.3,247.5,61.5,246.2,63.1,242.9z M239.5,135.6c0,2.3,0,4.5,0,7.3C242.1,140.5,243.3,138.3,239.5,135.6z
	 M24.4,179.2c-3.1,2.8-3.1,2.8,0,5.7C24.4,183,24.4,181.3,24.4,179.2z M83.3,243.9c-2.9,0-4.5,0-7.4,0c1.8,1.8,2.7,3.5,3.7,3.5
	C80.6,247.3,81.5,245.7,83.3,243.9z M52.5,243.7c-1.6-0.1-3.2-0.2-5.7-0.3C49,247.1,50.6,247.4,52.5,243.7z M239.4,125
	c0,2,0,4,0,7.5C242,129.2,242.9,127.2,239.4,125z M194.9,240.4c2.6,2.9,2.6,2.9,5.3,0.2C198.2,240.6,196.8,240.5,194.9,240.4z
	 M51.6,23.6c1.8-0.7,3.1-1.2,4.3-1.7c-0.5-0.8-0.8-2.2-1.5-2.4C52.1,18.8,51.6,20.3,51.6,23.6z M239.9,173.3c2.2-3.6,2.2-3.6,0-6.3
	C239.9,169.2,239.9,170.9,239.9,173.3z M240.3,196.2c2.6-3,4.2-4.8,0.5-8.2C240.6,191,240.5,192.9,240.3,196.2z M239.4,152.6
	c2.8-2.1,3.3-3.9,0-6C239.4,149,239.4,150.8,239.4,152.6z M204.7,240.8c1.7,1.4,3,2.5,4.6,3.9C210.1,239.8,210.1,239.8,204.7,240.8z
	 M239.7,199.3c0.2,2.8,0.3,4.3,0.5,7C242.3,203.5,243.5,202,239.7,199.3z M239.6,157.7c0,1.7,0,3.4,0,5.9
	C241.6,160.5,241.6,160.5,239.6,157.7z M236.4,22.4c0.4-0.3,0.7-0.5,1.1-0.8c-0.4-1-0.7-2-1.1-3.1c-0.9,0.5-1.8,1.1-3.3,1.9
	C234.7,21.4,235.5,21.9,236.4,22.4z M239.6,72.8c2.7-2.1,2.9-4,0-5.9C239.6,69.2,239.6,71,239.6,72.8z M22.7,108.4
	c2.3-1.8,2.4-3.4-0.5-5.9C22.5,105.3,22.6,106.9,22.7,108.4z M154.1,240.8c0.5,2.9,1.5,3.9,3.7,3c0.4-0.2,0.4-1.1,0.6-1.7
	C157.1,241.7,155.8,241.3,154.1,240.8z M240.5,28.8c0.6-0.1,1.3-0.2,1.9-0.3c-0.3-1.2-0.5-2.4-0.8-3.7c-0.4,0.1-0.9,0.1-1.3,0.2
	C240.4,26.3,240.4,27.5,240.5,28.8z M43.6,243.4c-2.6,0.3-4,0.5-5.9,0.7C39.8,247.7,41.2,247.3,43.6,243.4z M242,230.3
	c-0.6,0.2-1.2,0.4-1.9,0.6c-0.4,1.9-0.5,3.6,3.5,4.1C242.9,233,242.5,231.7,242,230.3z M23,44.7c0.6,0,1.2,0,1.8-0.1
	c-0.2-1.3-0.5-2.6-0.7-3.9c-0.5,0.1-0.9,0.1-1.4,0.2C22.8,42.1,22.9,43.4,23,44.7z M239.4,48.2c0.4,0.1,0.8,0.2,1.3,0.3
	c0.5-1.2,1-2.5,1.3-3.7c0.1-0.3-0.8-0.7-1.9-1.8C239.7,45.3,239.5,46.8,239.4,48.2z M25,49.8c-3.5,3.2-3.5,3.2,0,5.3
	C25,53.5,25,52.1,25,49.8z M132.2,241.7c2.4,2.3,2.4,2.3,4.7,0C135.2,241.7,133.9,241.7,132.2,241.7z M168.7,242.9
	c-1.5-0.9-2.2-1.5-3-1.7c-0.4-0.1-0.9,0.5-1.4,0.8c0.6,0.8,1,1.7,1.8,2.2C166.3,244.4,167.2,243.6,168.7,242.9z M140.1,21.5
	c0.2,0.3,0.3,0.7,0.5,1c1-0.5,2.1-0.9,3.1-1.4c-0.3-0.5-0.6-1-0.9-1.4C141.9,20.3,141,20.9,140.1,21.5z M104.2,244.9
	c-0.1-0.6-0.2-1.2-0.4-1.9c-1.3,0.3-2.6,0.6-3.9,0.9c0.1,0.4,0.1,0.9,0.2,1.3C101.5,245.1,102.9,245,104.2,244.9z M114.4,243.8
	c-0.1-0.3-0.1-0.6-0.2-0.9c-0.9,0.1-1.8,0.2-2.6,0.3c0.2,0.5,0.3,1,0.5,1.5C112.8,244.4,113.6,244.1,114.4,243.8z M239.2,118.7
	c0.3,0.1,0.7,0.2,1,0.3c0.5-1.3,1-2.5,1.3-3.8c0.1-0.2-0.8-0.7-1.8-1.6C239.5,115.7,239.4,117.2,239.2,118.7z"/>
<g>
	<path class="st2" d="M174.1,82c-1.5,0.1-2.9,0.3-4.4,0.5c-0.9-3-1.9-5.9-3.5-8.5c-6-9.7-14.9-15-26.1-16.5
		c-10.4-1.4-19.1,1.7-26.1,9.6c-0.6,0.7-1.2,1.4-1.8,2.1c-2.1-1.2-4.4-1.8-6.7-2c-8.4-0.8-16,1.4-23.1,5.8
		c-7.6,4.7-12,11.5-12.9,20.3c-1.4,12.9,2.4,24.2,11.4,33.6c4.8,5.1,10.6,8.8,17.1,11.5c1.6,0.7,3.2,1.6,4.7,2.6
		c0.7,0.5,1.1,1.1,1.1,2c0,0.6,0,1.2,0,1.8c0,3.9,0.1,4,4.1,3.9c0.1,0,0.2,0.1,0.4,0.1c1.5,3.7,2.1,7.4,0.5,11.3
		c-1,2.4-1.9,4.8-3,7.2c-1.4,3.2-2.7,6.5-3.4,9.9c-1.1,4.9-1.5,9.9-0.4,14.8c1.3,5.5,3.8,10.7,4,16.4c1.2,0.3,1.4-0.5,1.6-1.2
		c0.2-1,0.3-2.1,0.1-3.1c-0.6-2.4-1.2-4.8-2-7.1c-1-3-1.9-6-2-9.2c-0.3-6,1.3-11.6,3.6-17c1.3-3.1,2.6-6.2,3.9-9.4
		c1.3-3.1,1.6-6.3,0.6-9.6c-0.3-1.1-0.8-2.2-1.3-3.4c0.4,0,0.7-0.1,1-0.1c2.2-0.3,2.9-1.5,2-3.7c-0.3-0.7-0.8-1.4-1.1-2.1
		c-0.4-0.8-0.3-1.5,0.5-2.1c2.8-2.4,5.5-4.9,7.6-8.1c2.1,2.7,4.4,5.1,6.8,7.2c-1.6,2.6-2.3,5.4-2.8,8.3c-0.2,1.6,0.8,3.2,2.4,3.6
		c0.8,0.2,1.6,0.4,2.6,0.6c-1.8,4.4-3.3,8.8-4.4,13.3c-1.3,5.2-1.8,10.4-1,15.8c0.6,3.9,1.9,7.7,2.9,11.5c1.5,6.3,2.3,12.6,1.7,19.1
		c-0.5,4.7-1.3,9.3-2.8,13.8c-0.2,0.7-0.8,1.5-0.2,2.4c1.1-0.5,1.3-1.5,1.6-2.4c4.7-11.8,4.9-23.7,1.7-35.9
		c-0.8-2.8-1.7-5.6-2.2-8.4c-1-5.8-0.3-11.6,1.2-17.2c1-4,2.2-7.9,3.3-11.9c0.2-0.2,0.5,0,0.8,0c2.8,0,3.8-1.2,3.3-4
		c-0.2-1-0.5-2.1-0.6-3.1c-0.1-1.2-0.5-2.7,0.7-3.6c2.3-1.9,4.7-3.7,7.7-4.9c-0.2,5.1,1.7,9.4,4.9,13.1c2,2.2,3.8,4.5,5.4,7
		c0.8,1.2,1,2.3,0.6,3.8c-1.2,4.1-0.9,5.4,3.3,6.6c0,0,0.1,0.1,0.2,0.3c-1,5.4-2.6,10.7-5.9,15.2c-1.6,2.1-3.3,4.2-5,6.2
		c-2.3,2.7-4.6,5.5-6,8.9c-2.4,5.5-3.2,11.1-1,16.8c0.2,0.5,0.4,1.3,0.9,1.8c0.4,0.4,1,0.1,1-0.5c-0.1-1-0.4-2-0.7-2.8
		c-0.7-1.9-0.4-3.9-0.3-5.9c0.4-6.1,3.2-11,7.2-15.5c2.3-2.6,4.8-5.2,6.8-8c2.6-3.6,4.3-7.6,4.8-12c0.1-1.2,0.2-2.5,0.3-3.8
		c0.3,0,0.5,0.1,0.6,0.1c3,0.7,3.4,0.4,3.5-2.6c0.1-2.4,1.3-4.2,3.7-4.9c2.1-0.7,4.3-1,6.4-1.8c13-4.8,22.4-13.4,27.1-26.7
		c2-5.7,2.9-11.6,2.9-17.6c0-9.8-2.7-18.5-10.2-25.3C187.9,84.2,181.6,81.3,174.1,82z M111.9,137.5c-2.6,2.3-2.8,3.3-1.7,6.7
		c0.2,0.5,0.3,0.9,0.4,1.4c0,0.1,0,0.2-0.1,0.4c-1.4,0.3-2.8,0.9-4.4,0.8c-0.2-1.3,0.2-2.5,0.2-3.7c0-1.3-0.2-2.1-1.5-3.1
		c-3.8-3.1-8.2-5-12.3-7.5c-10.2-6.3-16.8-15.3-19.2-27.1c-0.9-4.2-0.9-8.5-0.3-12.7c1.3-8.1,5.6-14,12.7-17.9
		c5-2.8,10.3-4.7,16.1-5.2c3.3-0.3,6.6,0.2,9,1.3c-8.7,14.2-9.3,28.8-2,43.8c-2.8,2.1-5.8,2.3-8.9,1.4c-1.7-0.5-3.1-1.4-4.6-2.3
		c-0.6-0.4-1.2-0.8-2-0.4c2.5,5.2,11,6.9,16.4,3.3c1.3,2.4,2.6,4.9,4.1,7.2c1.4,2.3,3.1,4.4,4.7,6.6
		C116.8,133.3,114.3,135.3,111.9,137.5z M133.8,139.7c-1.3,1.1-1.9,2.4-1.8,4c0.1,1.8,0.1,3.6,0.1,5.5c-1.7,0.3-3.8,0.2-5.2-0.2
		c1-2.4,1.4-5,2.4-7.4c0.9-2.2,0.6-2.6-1.2-4.2c-0.9-0.8-1.6-1.8-2.4-2.8c-2.2-2.9-4.5-5.9-6.7-8.9c-5.7-7.9-10.4-16.4-11.6-26.1
		c-1.6-12.1,1.4-23.1,10.1-32c7-7.2,15.6-9.2,25.1-7.1c13,2.8,21.5,10.5,25,23.6c2.1,8,2.5,15.9-0.4,23.8c-2.2,5.9-5.9,10.8-10,15.4
		c-3.5,3.9-7.8,6.7-12.3,9.3C141,134.7,137.2,136.8,133.8,139.7z M199.1,127.9c-3.7,14.5-13.2,23.8-27,29c-2.5,0.9-4.9,1.8-7.5,2.4
		c-2.1,0.5-3.2,2.1-3.7,4.2c-0.1,0.6-0.2,1.2-0.3,1.9c-1-0.1-2-0.2-3-0.4c-2-0.4-2.7-1.6-1.6-3.2c1.1-1.6,0.8-3,0.1-4.5
		c-1.5-3.2-3.4-6.1-5.8-8.7c-3.3-3.7-5.3-8-5.1-13.2c2.4-1.5,5.1-2.7,7.3-4.5c9.5-7.6,16.9-16.6,18.8-29.1
		c0.8-5.2,0.2-10.3-0.9-15.4c-0.1-0.4-0.3-0.8-0.1-1.2c13.6-0.9,24.6,6.4,28.5,18.9C201.5,111.9,201.1,119.9,199.1,127.9z"/>
	<path class="st2" d="M179.8,171.6c-1.5,0.7-3.1,1.4-4.7,2.2c-4.2,2.1-7.1,5.1-8,9.9c-0.4,2.3-0.8,3.9-0.6,6.2
		c0.1,1.5,0.4,2.4,1,2.9c2.5,1.9,5,1.3,4.9,1c-0.6-1.6-0.7-4.1-0.5-5.2c0.9-4.4,3.9-6.8,7.9-8.2c2-0.7,3.9-1.4,5.7-2.6
		c2.5-1.7,3.3-5,3.1-7.6c-0.8-5-2.3-4.7-6-4.4c-1.1,0.1-1.5,0.8-1.6,1.7c-0.1,0.5,0,1.1,0.1,1.7
		C181.2,170.3,180.8,171.1,179.8,171.6z M182.8,168.5c-0.1-0.3-0.1-0.6-0.1-1c3.1-0.6,3.9,0,3.9,2.8c0,2.4-0.8,4.3-2.9,5.6
		c-1.7,1.1-3.6,1.8-5.4,2.7c-2.6,1.2-4.8,2.8-6.5,5.1c-1.4,2-1.5,6-1.3,8.5c-0.5,0.2-2.2-1-2.6-1.4c0.1-1.5-0.2-3.9,0.4-5.5
		c1.4-4.5,3.4-8,7.8-9.8c1.4-0.6,2.8-1,4.1-1.6C183,172.6,183.5,171.5,182.8,168.5z"/>
	<path class="st2" d="M75.3,153.4c-0.2-1-0.2-2-0.9-2.9c-0.8-0.1-1.5,0.1-2.2,0.3c-1,0.3-2.1,0.7-3.2,0.7c-2,0-2.6,0.6-2.2,2.6
		c0.5,2.4,1,4.7,1.8,7c1,2.9,2.5,3.6,5.4,2.6c1.3-0.4,2.5-0.8,3.9-1c1.5-0.2,1.8-1.1,0.7-2.3C76.6,158.5,75.7,156,75.3,153.4z
		 M71.4,161.6c-0.9-2.5-1.1-5.2-1.9-7.9c1.3-0.4,2.5-0.7,3.8-1.1c0.1,3.1,0.9,5.8,3,8.4C74.5,161,73.1,161.9,71.4,161.6z"/>
	<path class="st2" d="M195.8,64.4c-2-1.1-2.4-0.9-3.5,1c-1.4,2.6-2.1,5.5-3,8.3c-0.3,0.8,0,1.5,0.7,2.1c1.9,1.7,3.9,3.1,6.3,4.2
		c0.8,0.3,1.6,0.7,2.5,0.2c-0.2-0.8-1-1.1-1.3-1.7c0.1-0.4,0.5-0.6,0.3-1.1c-0.8-3.2,0.1-5.9,2.1-8.4c1-1.2,0.7-2.2-0.8-3
		C198.1,65.4,196.9,65,195.8,64.4z M196.3,77.6c-1.9-1-3.4-2.2-5-3.5c1-2.7,1.6-5.5,3.2-8.1c1.2,0.5,2.3,1,3.5,1.5
		C195.9,70.5,194.8,73.7,196.3,77.6z"/>
	<path class="st2" d="M96.1,172.6c-1,3.2-1.2,6.4-0.6,9.7c0.1,0.4,0.2,0.9,0.4,1.3c0.3,0.6,1.3,0.5,1.4-0.2c0.1-0.6,0.1-1.2,0-1.8
		c-0.1-3.3,0.2-6.5,1.5-9.6c0.8-1.9,1.7-3.8,2.6-5.7c0.8-1.8,1.2-3.8,0.7-5.8c-0.1-0.3-0.1-0.5-0.2-0.8c-0.4-0.9-1.7-0.5-1.5,0.5
		c0.4,2.1-0.5,3.9-1.4,5.7C97.9,168.2,96.9,170.3,96.1,172.6z"/>
	<path class="st2" d="M187.5,160.3c3.9-1.6,7.3-3.9,10-7.1c1.3-1.5,2.5-3.1,3.2-4.9c0.2-0.6,0.4-1.2,0.2-1.8s-1-0.6-1.4-0.1
		c-3.7,5.2-8.2,9.3-13.5,12.8c-0.7,0.5-0.3,1.6,0.6,1.4C186.9,160.5,187.2,160.4,187.5,160.3z"/>
	<path class="st2" d="M60.9,104.3c-0.1,6.4,3,11.5,6.6,16.4l0.1,0.1c0.5,0.7,1.6,0,1.3-0.8c-2.5-5.2-5.2-10.3-6.3-16.2
		c-0.2-1-1.7-0.9-1.7,0.1C60.9,104,60.9,104.1,60.9,104.3z"/>
	<path class="st2" d="M147.5,184.9c0.7-1.1,1.3-2.2,1.7-3.5c0.1-0.3,0.2-0.8,0.2-1.2c0-0.8-1.1-1.2-1.5-0.5
		c-2.5,3.9-6.4,8.7-9.8,12.2c-0.4,0.5,0,1.2,0.6,1c0.7-0.2,1.4-0.6,1.7-0.7C143.3,190.3,145.5,187.7,147.5,184.9z"/>
	<path class="st2" d="M131.8,162.1c-1.8,4.9-2,9.9-1,15c0.1,0.4,0.2,1.3,0.6,2.1c0.3,0.7,1.3,0.5,1.2-0.3c-0.2-5.5-0.4-12.7,0.9-18
		c0.1-0.5-0.5-0.8-0.8-0.5C132.2,160.9,132,161.5,131.8,162.1z"/>
	<path class="st2" d="M60.7,100.2c1-0.1,1.5-0.7,1.5-1.4c-0.1-1.2-0.7-2-1.4-2c-0.6,0-1.6,1.4-1.6,2.2
		C59.3,99.9,59.8,100.3,60.7,100.2z"/>
	<path class="st2" d="M203.9,141.8c0.3-0.2,0.5-0.4,0.6-0.7c0.4-1.3-1.4-2.2-2.2-1.1c-0.3,0.4-0.3,0.7,0,1.2
		C202.5,141.9,203.1,142.2,203.9,141.8z"/>
	<path class="st2" d="M131.8,184.5c0.5,0.4,1.2,0.4,1.7,0c0.3-0.2,0.4-0.6,0.4-1c0-0.9-0.5-1.4-1.4-1.5c-0.8,0-1.2,0.6-1.2,1.4
		C131.4,183.8,131.5,184.2,131.8,184.5z"/>
	<path class="st2" d="M137.8,195.7c-0.3-0.5-0.6-0.8-1.2-0.7c-0.6,0.1-0.9,0.4-0.9,1c0.1,0.6,0.5,1,1.1,0.9
		C137.5,196.8,137.8,196.4,137.8,195.7z"/>
	<path class="st2" d="M97.2,188.3c0.7-0.1,0.9-0.6,0.7-1.2c-0.2-0.6-0.5-0.8-0.9-0.8c-0.7,0-1.2,0.7-1,1.4
		C96.2,188.1,96.5,188.4,97.2,188.3z"/>
	<path class="st2" d="M140,103.4c-2.1,2.1-4.8,1.7-6.2-1c-0.3-0.7-0.6-1.3-0.9-2c-0.3-0.6-0.7-0.9-1.3-0.7c-0.7,0.2-0.7,0.8-0.6,1.4
		c0.2,2.4,2.3,5.2,4.6,5.9c2,0.6,3.8,0.1,5.2-1.3c0.8-0.8,1.3-1.8,0.7-3C140.6,102.4,140.4,103,140,103.4z"/>
	<path class="st2" d="M130.8,88.6c-0.1-1.1-1.1-1.9-2.2-1.8c-1.2,0.1-2.1,1.4-1.8,2.7c0.2,1,0.9,1.6,2,1.5
		C129.9,90.9,130.9,89.6,130.8,88.6z"/>
	<path class="st2" d="M148.5,88.9c-1.2,0-1.9,0.8-1.9,2s0.8,2.1,1.9,2.1c1.1,0,2-0.9,1.9-2C150.3,89.8,149.5,88.9,148.5,88.9z"/>
	<path class="st2" d="M178.4,131.6c-1.4-0.3-2.8-0.6-4.1-1c-3.8-1.1-7.6-2.3-11.3-4.2c-0.7,0.3-1,1-1.2,1.7
		c-0.7,2.4-1.2,4.8-1.4,7.2c-0.1,1.7-0.1,3.4,0.5,5.1c1.3,4.3,5,4.7,8,3c2.7-1.5,4.4-3.9,5.5-6.8c0.4-1.1,0.7-2.2,1-3.3
		c1,0,1.9,0.1,2.8,0.1c0.6,0,1.2-0.1,1.3-0.7C179.7,132,179.1,131.8,178.4,131.6z M169.4,139.6c-0.8,0.8-1.7,1.6-2.8,2
		c-1.5,0.5-2.3,0.2-2.9-1.3c-0.5-1.2-0.6-2.4-0.6-3.6s0.2-2.3,0.3-3.5c0.2-1.2,0.4-2.4,0.6-3.8c3.2,1.3,6.3,2.5,9.5,3.7
		C172.3,135.6,171.2,137.8,169.4,139.6z"/>
	<path class="st2" d="M184.3,117.6c-2.4-0.2-5.1,2.1-5.2,4.3c0,0.3,0.1,0.5,0.3,0.6c0.6,0.1,1.1-0.2,1.5-0.5c3.4-2.3,4.1-2,4.8,2.1
		c1.4,0.1,1.9-0.7,2-1.7C188.2,119.8,186.7,117.8,184.3,117.6z"/>
	<path class="st2" d="M94.3,100c-0.2-1.2-2.2-2.8-3.6-3.1c-1.6-0.3-3.2,0.4-3.9,1.8c-0.8,1.6-1.1,3.2-0.5,4.9c0.9,0.2,1.1-0.4,1.3-1
		c0.3-0.8,0.4-1.7,0.8-2.4c0.6-1.4,1.4-1.7,2.8-1c1,0.5,1.8,1.2,2.3,2.4C94.2,101.1,94.4,100.6,94.3,100z"/>
	<path class="st2" d="M113,44.6c1.2,2.8,1.2,2.8,4,1.6c3.5-1.6,7-2.6,10.9-2.5c2.2,0.1,4.3,0.4,6.4,1c1.1,0.3,1.7,0,2-1.1
		c0.3-1.4,0.5-2.8,0.6-4.2c0.1-1-0.5-1.7-1.4-2.2c-0.8-0.4-1.6-0.6-2.5-0.8c-3.7-0.6-7.4-0.4-11.7,0.1c-2.4,0.1-5.4,0.6-8.2,1.7
		c-1.5,0.6-1.8,1.1-1.4,2.7C112.1,42.2,112.5,43.5,113,44.6z M123.6,38.7c2.8,0,5.7,0,8.5,0.4c2.5,0.4,2.5,0.4,2.8,3.1
		c-7-2.5-13.5-1.7-19.6,2.6c-0.5-1.6-1-3.1-1.4-4.6C117.1,38.8,120.3,38.8,123.6,38.7z"/>
</g>
</svg>
