<?xml version="1.0" encoding="utf-8"?>
<!-- Generator: Adobe Illustrator 19.0.1, SVG Export Plug-In . SVG Version: 6.00 Build 0)  -->
<svg version="1.1" id="Layer_1" xmlns="http://www.w3.org/2000/svg" xmlns:xlink="http://www.w3.org/1999/xlink" x="0px" y="0px"
	 viewBox="0 0 263.7 263.7" style="enable-background:new 0 0 263.7 263.7;" xml:space="preserve">
<style type="text/css">
	.st0{fill-rule:evenodd;clip-rule:evenodd;fill:#85D1F5;}
	.st1{fill-rule:evenodd;clip-rule:evenodd;fill:#FFFFFF;}
	.st2{fill:#FFFFFF;}
</style>
<path class="st0" d="M2.1,245.9c-2.9-16.7-0.8-30.7-1-47.4C1,189,2.3,179.4,2.4,169.8c0.3-21.1,0.3-42.2,0.3-63.2
	c0-11.7-0.2-23.4-0.3-35.1c0-3.5,0.2-7.1,0.4-10.6c0.5-10.7,1.5-21.3,1.5-31.9C4.3,21,3.9,16.1,3.5,8.3c-0.3-5.2,9.1-7,14.3-5.6
	c1.9,0.5,9.1,0.9,11,1c20.4,0.8,27.7-1,48-0.3c9.9,0.3,19.8,1.3,29.7,1c17.8-0.4,35.6-1.8,53.4-2c19.1-0.3,38.2,0.5,57.3,0.5
	c10.2,0,20.4-0.9,30.5-1.3c9.9-0.4,12.3,2.3,11.9,12c-0.3,6.1-0.1,12.2-0.1,18.3c0.1,30.3,0.3,60.6,0.4,90.9
	c0,10.1-0.5,20.3-0.5,30.4c0,8.9,0.3,13.6,0.4,22.6c0.2,16.8,1.6,18.7,1.7,35.5c0,8.4,1.8,18.9,1.5,27.4
	c-0.1,4.1-6.4,23.1-22.4,22.7c-9.4-0.2-18.2-1.9-27.6-2.1c-18-0.3-24.1,0.8-42.1,1.1c-15.9,0.2-31.8,1.9-47.7,2
	c-10.3,0-20.7,0.7-30.9-1.8c-1.9-0.5-4-0.3-6.1-0.2c-10.9,0.2-21.8,0.8-32.7,0.8c-11.1,0-16.4-0.5-27.5-0.8
	c-6.3-0.1-14.7-1.8-18.1-4C4.8,253.4,2.7,249.4,2.1,245.9z"/>
<path class="st1" d="M16.5,18c17.5-3.1,35.4-4,53-2.7c12.2,0.9,24.3,0.8,36.4,1.1c4.9,0.1,9.2-1.2,13.2-3.9c6.6-4.6,13.6-4.2,20.7-2
	c1.1,0.3,2.4,0.6,3.3,1.2c6.9,4.8,14.8,5,22.8,4.7c14.3-0.5,28.5-0.9,42.7-1.7c10.2-0.6,20.4-1.9,30.6-2.7c2-0.2,4,0.7,6.2,1.1
	c0.3,12.9,0.6,25.2,0.9,37.6c0.4,18.7-1.6,37.4,1.4,56c0.3,1.8-0.1,3.7-0.2,5.5c-0.2,3.6,0.7,6.6,3.4,9.5c7,7.6,6.6,20.2-0.8,27.3
	c-2.8,2.7-3.9,5.3-3.9,9.2c0.2,9.6-0.3,19.2-0.2,28.7c0,4.9,1,9.8,0.9,14.7c-0.1,11-0.8,22-0.9,33c-0.1,4.3,0.7,8.7,1,12.6
	c-3.9-0.6-7.5-1.7-11-1.6c-10.1,0.2-20.2,0.4-30.2,1.6c-10.1,1.3-20,0.4-30.1,0c-10.1-0.3-20.1,0-29.9,2.8c-1.1,0.3-2.3,0.5-3.3,1.1
	c-10.1,6-20.1,3.7-30.4,0.4c-3.9-1.3-8.2-2-12.3-2c-21.8,0-43.6,0.2-65.3,0.6c-5.7,0.1-11.4,1.4-18.2,2.4c-0.4-1.1-1.4-2.8-1.4-4.6
	c-0.1-9.8,0.1-19.6,0.3-29.5c0.3-22,0.6-44,1.1-66c0.1-4.6-0.4-8.5-4-12.1c-5.5-5.4-5.5-15-0.1-20.3c2.8-2.7,3.2-5.3,3.2-8.7
	C15,98,14.9,84.7,15,71.3c0-5.6,0.2-11.3,0.7-16.9c0.8-9.4,0.9-18.7-0.8-28C14.2,23.5,14.1,20.5,16.5,18z M17.9,121.8
	c-8.6,4.5-9.9,11.9-3.3,17.9c3.9,3.6,5.1,7.2,4.7,12.3c-1.1,14.5-2.2,29-2.6,43.5c-0.3,11.2,0.5,22.4,0.7,33.6
	c0.1,4.7-0.3,9.4-0.3,14c0,5.6,1.4,6.6,6.7,6.1c10.5-0.9,21-2,31.5-2.2c16.6-0.4,33.2-0.2,49.9-0.5c3.9-0.1,7.4,0.5,10.6,2.8
	c3.2,2.2,6.8,3.1,10.6,1.5c-0.6-2-1.2-3.9-1.8-5.9c6.1-1.3,6.7-0.5,4.8,7.2c2.7-0.6,5.5-0.6,7.5-1.7c5.2-2.8,10-4.8,16.4-4.4
	c10,0.7,20.1-0.3,30.1-0.5c6.6-0.1,13.1,0.2,19.7-0.1c12.1-0.6,24.2-1.4,36.4-2.2c1.1-0.1,2.2-0.3,3.4-0.5
	c0.3-6.5,0.6-12.5,0.9-18.6c0.5-9.4,1.4-18.7,1.3-28.1c-0.1-14-0.9-28.1-1.2-42.1c-0.1-2.6,0.5-5,3.1-6.6c4.5-2.7,5.7-7.1,5.6-12.1
	c-0.1-6.5-2.5-11.8-7.7-14.2c-0.9-4.3-1.6-7.6-2.3-11c-0.2-0.8-0.1-1.7-0.1-2.5c0.4-4.1,1.1-8.3,1.1-12.4c0-8.4-0.4-16.8-0.5-25.2
	c-0.2-17.1-0.2-34.2-0.4-51.3c0-1.4-1-2.9-1.3-3.8c-5.1,0-9.5,0-13.9,0c-0.9,0-1.8-0.5-2.7-0.4c-7.4,0.5-14.9,0.8-22.3,1.6
	c-14.7,1.5-29.3,3.3-44.1,2.3c-4.5-0.3-9.5,1.5-13.6-1.6c-9-6.9-18-6.5-27.3-0.5c-1.9,1.2-4.2,2.5-6.3,2.5c-7.2,0.3-14.5,0.3-21.8,0
	c-15-0.6-29.9-2.7-44.9-1.5c-4.7,0.4-9.3,1-14,1.1c-5,0.1-9.8,0.5-13.6,4.6c0,2.8-0.1,5.8,0,8.8c0.1,3.7,0.6,7.5,0.5,11.2
	c-0.4,14-1.1,28.1-1.4,42.1c-0.2,7.7,0,15.5,0.3,23.2C16.9,112.7,17.4,117.1,17.9,121.8z"/>
<g>
	<path class="st2" d="M181.6,136.3c-0.6-1.8-1.7-3.3-3.3-4.5c-1.4-0.9-2.8-1.9-4.4-2.8c-0.7-0.4-1.1-0.8-1.2-1.6
		c-0.6-4.3-2.8-7.9-5.6-11.2c-3.3-4-11.8-4.6-14.6,2.3c-0.2,0.5-0.2,1.1-0.8,1.5c-0.4-2.9,0.1-5.9-0.3-8.8c-0.4-2.8-1.1-3.7-3.9-3.9
		c-0.2-0.8-0.2-1.5-0.1-2.4c0.4,0,0.8-0.1,1.2-0.1c2.6-0.3,3.4-1.9,3.1-4.6c-0.1-1.1-0.3-1.9-0.8-2.9c-1.5-2.9-3.3-5.8-3.8-9.2
		c-0.1-0.7-0.3-1.6-1.3-1.8c-0.9-0.1-1.4,0.6-1.8,1.3c-1.7,2.7-2,5.9-2,8.9c0,2.7-0.1,5.6,1.6,7.8c0.6,0.7,1.3,0.8,2.7,0.6
		c0.3,0.5,0.1,1.8,0.1,2.4c-3.3,0.5-4.7,1.1-4.4,4.4c0.1,0.7,0.7,5.7,0.3,7.5l-2.9,0.3c-1.4-3.7-2.8-7.1-5.8-9.6
		c0.3-1.8,0.6-3.5,0.9-5.4c0.4-2-0.1-3-2.1-3.7c-0.6-0.2-1.2-0.3-1.9-0.4c-0.2-0.9-0.5-1.7-0.2-2.4c4.2,0.4,6.3-1.4,6-5.6
		c-0.1-2.1-0.7-3.7-1.6-5.5c-1.2-2.6-2.9-5.1-2.8-8.2c0-0.9-1-1.3-1.7-0.7c-0.4,0.3-0.6,0.8-0.8,1.2c-1.9,3.5-3,7.3-3.5,11.4
		c-0.7,5.6,1.3,6.8,3.8,7.3c0,0.9,0,1.3-0.1,2.4c-3.1,0.2-4.5,0.9-4.3,4.1c0.1,1.1,0.2,2.3,0.3,3.5c-5.9,1.8-6.8,7.3-8.8,12
		c-1.2-0.1-1.7,0-1.7,0c0.2-1.9,0-5.6-0.3-7.5s-0.4-3.3-2.5-3.5c-0.2,0-1,0.1-1.4-0.2c-0.4-0.3-0.3-1.1-0.3-1.5
		c3.7-0.9,5-1.5,4.7-5.3c-0.2-1.8-0.9-3.4-1.7-5.1c-1.1-2.3-2.4-4.6-2.9-7.2c-0.1-0.7-0.1-1.5-1-1.7c-1-0.2-1.4,0.6-1.7,1.3
		c-1.2,2.9-2,6-2.3,9.2c-0.3,3.9-0.4,7.8,4.1,8.7c0.1,0.1-0.1,1.4-0.1,1.6c-0.3,0-4.2,0.2-4.6,2.7c-0.3,1.8,0.3,3.8-0.1,5.6
		c-1.7-2.6-4.8-3.3-6.9-2.9c-4.2,0.8-6.4,2.9-8.2,6.4c-1.3,2.3-1.9,2.7-2.5,4.5c-0.3-0.2-4.6,1.9-6.6,3.8
		c-7.2,6.2-9.1,13.3-7.1,22.5c0.7,2.3,1.5,3.2,2.8,4.2c-0.4,4.5,0.4,12.8-0.1,17.2c-0.9,8.2,3,11.8,9.3,16.1
		c7.9,5.4,16.7,8.2,26.1,9.7c4,0.6,28.8,3.8,47-2.1c5.7-1.8,11.3-3.9,16.2-7.3c3.2-2.2,5.5-5.2,6.1-9.1c0.4-2.4,0.9-4.9,1-7.3
		c0.1-3.2-0.1-6.4,0.7-9.2c2-1.9,3-3.5,3.7-5.9C187.8,150.9,184,142.7,181.6,136.3z M152.6,130.9c0-3,0.5-6.3,1.5-9.2
		c0.3-1,0.7-2,1.3-2.9c2.5-3.7,6.6-4.2,9.7-0.9c2.6,2.6,4.4,5.9,5.2,9.6c0.2,1,0.6,1.9,0.6,2.9c-0.1,4.7-2.1,6.7-6.3,7.3
		c-2.8,0.2-5.3,0.4-7.6-0.6C154.6,136.1,152.6,133.8,152.6,130.9z M145.4,89.9c1.1,2.9,2.2,5.8,3.8,8.6c1.5,2.9,0,5.3-2.7,4.9
		c-0.5-0.1-1.5-1.3-1.6-1.8C143.9,97.4,144.2,94.2,145.4,89.9z M144.8,110.7l4.8-0.4c0.1,2.5,0.2,4.9,0.2,7.2c0,4.5,1.1,22.6,1,27.7
		c0,0.7-0.6,1.3-1.3,1.4c-1.5,0.3-3.8,0.6-4.1-0.7c-0.9-3.7-0.7-7.5-0.8-11.5C144.4,126.6,144.6,118.3,144.8,110.7z M140.4,122.4
		c0.8-0.2,1.5-0.2,2.1-0.3c-0.1,5.4-0.5,11.3-0.4,16.7c-0.8-3.5-2-6-4.8-8.7C140.2,129.2,140.7,125.2,140.4,122.4z M135,130.7
		c3.1,2.2,4.2,5.6,5.1,9c0.3,1.3,0.3,2.7,0.4,4.2c0.1,2.7-0.9,4.2-3.5,5.1c-1.4,0.5-2.9,1.2-4.6,1.3c-1.9,0.3-4-0.3-5.9-0.8
		c-2.2-0.6-3.5-2.1-3.9-4.5c-0.5-5.1,0.6-9.3,3.2-13.4C128.1,128.4,131.8,128.5,135,130.7z M130.7,82.1c1.2,3.9,3.1,7.1,3.7,10.8
		c0.4,2.7-1.3,3.9-4.4,3.4c-1.2-0.2-1.7-1.2-1.8-2.4C127.8,90,129.3,86.2,130.7,82.1z M127.6,102.6c1.3,0.1,3.9-0.1,5.1,0.4
		c0.6,1.6-0.6,4.4-0.3,6c-1.4-0.3-3.3-1-4.8-1C127.5,106.9,127.2,104.1,127.6,102.6z M122.6,112.9c1.8-2.5,8.1-2.6,10.4-0.2
		c4.2,4.3,4.4,8,4.9,12.8c0.2,1.6-0.8,2.8-1.7,3.4c-2.3-1.3-4.5-1.8-6.2-1.6c0.2,0,0.2-1.5,0.1-1.6c-0.1-0.5-0.4-1.3-1-1.2
		c-0.6,0.1-0.8,0.7-0.8,1.2c0,0.3,0,0.5,0.1,0.8c0,0.1,0.3,0.8,0.4,0.7c-1.6,0.6-3.5,2.2-5.1,5c-0.6-0.1-2.2-0.6-2.9-1
		c-1.1-0.7-1.6-1.5-1.9-2.7C117.3,123.1,119.5,117.2,122.6,112.9z M109.3,92.5c0.9,2.3,1.8,6.1,2.6,8.4c1,3,0.9,3.9-1.7,4.5
		c-0.7,0.2-1.5-0.3-1.7-1C107.4,100.9,108,96,109.3,92.5z M107.7,144.2c-0.2-7.7-0.4-16.3-0.2-24c0.1-2.6-0.4-4.2-0.3-7.2
		c0-0.8,0.7-1.5,1.5-1.6c1-0.1,1.9,0,2.8,0c0.8,0,1,0.8,1.1,1.6c0.2,2.3-0.2,4.7-0.4,7c-0.5,6.3,0.3,19.8,0.5,24.3
		c0,0.8-0.6,1.4-1.3,1.5C109.3,145.9,107.7,146.2,107.7,144.2z M88.8,129.7c1-4.2,2.5-8.2,6.1-11.1c0.2-0.2,0.4-0.4,0.6-0.6
		c1.4-0.8,3.1-1.5,4.6-1.2c2,0.4,3.2,2.4,3.9,4.5c0.6,2.1,0.5,2.9,0.8,5.5c0.2,2.4,0.5,5,0.1,6.9c-0.5,2.5-1.6,3.9-4.2,4
		c-2.8,0.1-5.7-0.2-8.3-1.2C89.5,135.3,88.1,132.8,88.8,129.7z M178.6,174.1c-0.7,7.5-4.9,12.2-11.7,15.1c-5.2,2.2-10.4,4-15.7,5.7
		c-3.8,1.2-7.6,1.3-11.4,1.4c-7.4,0.2-14.8,0.1-22.1-0.5c-11.2-0.9-21.4-4.6-30.5-11.1c-4.2-2.9-7-6.7-7.7-12.1
		c-0.7-5.8-0.7-11.6-0.5-17.4c1.2-0.2,2.1-0.8,2.9-1.3c1.3-0.9,2.5-1.8,3.9-2.7c2.3-1.6,3.4-1.1,3.5,1.7s0.5,5.6,1.5,8.3
		c0.4,0.9,0.8,1.7,1.3,2.4c3.1,4.2,6.4,4.5,10.3,1c1.1-1,2-2.2,3-3.4c0.7-0.8,1.3-1.7,2.4-2c1.2,0.5,1.6,1.5,2.2,2.5
		c1.1,1.8,2.1,3.8,3.2,5.6c0.4,0.7,0.9,1.3,1.3,1.9c4.5,6.1,11.1,6.8,16.6,1.7c1.8-1.6,3.4-3.5,5.2-5.3c1.3-1.3,2.6-2.7,4.4-3.7
		c2-1.1,3.1-0.8,4.5,1c0.5,0.7,1,1.6,1.5,2.4c1,1.6,2,3.1,3.5,4.4c5,4.3,9.2,3.5,12.6-2c0.8-1.3,1.5-2.6,2.2-4
		c0.7-1.2,1.5-2.4,2.8-3.2c1,0.1,1.5,0.9,2.1,1.6c0.9,1.1,1.9,2.2,3.2,2.8c1.7,0.8,2.7,0.8,5.8-0.5
		C179.2,167.8,178.9,171,178.6,174.1z M183.6,156.1c-0.3,2.2-1.4,3.7-3.1,5.3c-1.8,1.8-5.3,2.3-7.1,0.4c-0.5-0.6-1-1.2-1.5-1.8
		c-2.2-2.7-4.8-2.8-7.2-0.2c-1.4,1.5-2.3,3.3-3.2,5.2c-0.7,1.4-1.3,2.7-2.4,3.9c-1.4,1.5-2.8,1.7-4.8,0.8c-2.3-1.1-3.9-2.9-5.2-5.2
		c-0.7-1.2-1.3-2.4-2.2-3.4c-1.7-2-3.8-2.5-6.2-1.6c-1.8,0.7-3.3,1.8-4.7,3.1c-1.7,1.7-3.3,3.4-5.1,5.1c-0.9,0.9-1.9,1.7-3,2.5
		c-4.2,3.1-7.8,1.5-10.6-1.8c-1.9-2.3-3.3-5.1-5-7.6c-3-5.2-5.7-5.4-9.7-0.9c-1.1,1.2-2.1,2.3-3.3,3.3c-1.7,1.5-2.6,1.4-4.3-0.2
		c-2-2.1-2.5-4.8-2.9-7.5c-0.2-1.3-0.1-2.7-0.4-4.2c-0.6-2.9-3-4.2-5.8-2.8c-2,1-3.8,2.4-5.7,3.7c-1.8,1.1-3.3,1.2-3.8-0.9
		c-1.9-8,0.5-14.6,5.8-20.6c0.7-0.8,2.9-1.7,4.2-2.2c-0.1,1.3-0.3,2.5-0.1,3.8c0.3,2.1,2.1,4.4,4,5.5c3.7,2.1,6.7,2.7,11,2.5
		c1.4-0.1,2.7-0.4,4.1-1.2c0.1,2,0.2,3.9,0.2,5.7c0,1.1,0.2,2.3,1.4,2.7c1.7,0.5,7.3,1,7.7-1.5c0.5-3-0.2-18.5,0.3-23.1
		c0.6-0.2,1-0.3,1.3-0.1c0,1.6-0.2,3.2-0.1,4.8c0.3,3.9,2.6,6.5,6.7,6.5c-0.8,1.8-1.6,3.1-2,5.3c-0.4,2.4-0.8,5,0,7.5
		c0.5,1.7,1.7,3.2,3.2,4c5,2.6,9.5,1.9,14.4,0.4c2.2-0.7,4.2-3.9,4.5-6.6c0.7,3.7,1.6,4.7,3.5,4.5c1.4-0.1,4.6,0.1,5.7-0.9
		c1.5-1.3-0.1-8.7,0-11.7c1.2,1.3,2.4,2.1,3.5,2.5c3.9,1.5,7.3,1,11.3,0.1c3.9-0.8,5.9-3.4,6.3-7.5c2.7,1.7,5.1,3.5,6.1,7
		C180.8,144.2,184.3,150.1,183.6,156.1z"/>
	<path class="st2" d="M157,132c0.1-0.4,0-0.7-0.1-1c-0.1-0.1-0.2-0.2-0.3-0.2c-0.2-0.2-0.7-0.2-0.7,0.2c-0.1,0.5-0.3,1.3,0,1.7
		c0.3,0.5,0.9,0.3,1.1-0.2l0,0c0,0,0,0,0-0.1C156.9,132.3,156.9,132.1,157,132z"/>
	<path class="st2" d="M162.6,130.8c-0.2,0.1-0.2,0.2-0.3,0.3l0,0l0,0v0.1c-0.1,0.5-0.2,1.5,0.4,1.8c0.7,0.4,0.9-0.6,0.9-1.1
		C163.5,131.6,163.3,130.5,162.6,130.8z"/>
	<path class="st2" d="M168.5,129.4c-0.2-0.1-0.4-0.1-0.5,0c-0.1,0-0.3,0.1-0.3,0.3c-0.1,0.7,0.3,2.1,1.2,1.7
		C170,131.1,169.2,129.8,168.5,129.4z"/>
	<path class="st2" d="M165,125.2c-0.4-0.5-1,0.2-0.9,0.6c0,0.4,0.2,0.8,0.5,1.2c0.1,0.1,0.2,0.2,0.3,0.2c0.2,0.1,0.4-0.1,0.5-0.3
		c0.1-0.4,0.1-0.9-0.1-1.3C165.2,125.5,165.1,125.3,165,125.2z"/>
	<path class="st2" d="M159.8,125.9c-0.1-0.3-0.5-0.3-0.7-0.1c-0.2,0-0.4,0.2-0.4,0.4c0,0.5-0.2,2,0.7,1.6
		C160.2,127.6,160,126.5,159.8,125.9z"/>
	<path class="st2" d="M161.4,120.4l-0.1-0.1c-0.1-0.1-0.3-0.1-0.5,0c-0.2,0-0.4,0.1-0.4,0.3c0,0.5,0,1,0.2,1.5
		c0.2,0.4,0.7,0.6,1,0.3c0.4-0.5,0.1-1.4-0.2-1.8C161.5,120.5,161.5,120.4,161.4,120.4z"/>
	<path class="st2" d="M155.5,123c-0.1-0.1-0.3-0.1-0.4-0.1c-0.7,0.1-0.3,1.7-0.2,2.1c0.1,0.3,0.5,0.3,0.7,0.1c0.3-0.4,0.2-1,0.2-1.5
		C155.9,123.3,155.8,123.2,155.5,123z"/>
	<path class="st2" d="M167.1,121.9c-0.3-0.2-0.6,0-0.6,0.3c-0.1,0.1-0.1,0.2-0.1,0.3c0,0.6,0.5,1.8,1.3,1.4
		C168.5,123.4,167.5,122.2,167.1,121.9z"/>
	<path class="st2" d="M131.9,144.4c-0.3-0.3-0.8-0.3-0.9,0.2c-0.1,0.4-0.1,0.8,0,1.2c0.1,0.3,0.5,1,0.8,0.9c0.7-0.2,0.5-1.6,0.2-2.1
		C132,144.5,131.9,144.5,131.9,144.4z"/>
	<path class="st2" d="M126.4,144.7c-0.1-0.1-0.3-0.2-0.5-0.2c-0.1,0-0.3,0-0.4,0.2l0,0l0,0l0,0l0,0c-0.1,0.1-0.2,0.2-0.2,0.4
		c-0.2,0.5-0.3,1.3,0.3,1.4c0.5,0.1,0.7-0.3,0.8-0.7C126.6,145.5,126.7,145,126.4,144.7z"/>
	<path class="st2" d="M137.7,143.6h-0.1c-0.4-0.1-0.6,0.5-0.6,0.8s0.1,0.6,0.3,0.9c0.5,0.7,1.3,0,1.1-0.7c-0.1-0.3-0.3-0.6-0.5-0.8
		C137.8,143.7,137.8,143.6,137.7,143.6z"/>
	<path class="st2" d="M133.9,138.6c-0.2-0.3-0.7-0.2-0.7,0.2l0,0c-0.1,0.1-0.1,0.1-0.1,0.2c-0.1,0.5,0.2,2.2,1.1,1.8
		C134.9,140.6,134.2,139,133.9,138.6z"/>
	<path class="st2" d="M127.2,138c-0.1-0.2-0.2-0.3-0.3-0.5c-0.2-0.3-0.6-0.2-0.7,0.1c-0.2,0.4-0.3,0.8-0.3,1.2
		c0,0.6,0.8,1.3,1.2,0.5c0.1-0.2,0.1-0.4,0.1-0.6C127.3,138.4,127.3,138.2,127.2,138z"/>
	<path class="st2" d="M131.2,133.5c0-0.2,0-0.3-0.1-0.5c0-0.2-0.1-0.2-0.2-0.2c-0.1-0.1-0.4-0.2-0.5,0c-0.2,0-0.3,0.1-0.4,0.3
		c-0.1,0.6,0,1.2,0.4,1.7c0.2,0.2,0.6,0.2,0.7-0.1C131.2,134.2,131.2,133.9,131.2,133.5z"/>
	<path class="st2" d="M136.6,134.4c-0.2-0.2-0.6-0.1-0.6,0.2c0,0.1-0.1,0.1-0.1,0.2c-0.1,0.4,0,0.8,0.2,1.2c0.2,0.3,0.6,0.5,1,0.3
		C137.7,135.7,137.1,134.7,136.6,134.4z"/>
	<path class="st2" d="M123.2,125.1c-0.1-0.3-0.3-0.5-0.5-0.5c-0.3,0-0.4,0.2-0.5,0.5c-0.1,0.4-0.2,0.8-0.2,1.2c0,0.1,0,0.3,0,0.4
		c0.2,0.6,0.9,0.5,1.2,0c0.2-0.4,0.2-0.9,0.1-1.3C123.2,125.3,123.2,125.2,123.2,125.1z"/>
	<path class="st2" d="M135.3,124.2c-0.4-0.2-0.8-0.2-1,0.4s0.3,1.2,0.5,1.7c0.1,0.1,0.1,0.3,0.3,0.4c0.4,0.3,0.6-0.3,0.7-0.6
		c0.1-0.4,0.1-0.9-0.1-1.4C135.7,124.5,135.5,124.3,135.3,124.2z"/>
	<path class="st2" d="M132.5,120.5c-0.1-0.1-0.1-0.3-0.2-0.4c-0.1-0.1-0.1-0.3-0.3-0.4c-0.4-0.4-0.8,0.1-0.8,0.5
		c0,0.4,0,0.9,0.1,1.3c0.2,0.5,0.6,0.7,1,0.3c0.2-0.2,0.3-0.6,0.2-0.9C132.6,120.8,132.5,120.7,132.5,120.5z"/>
	<path class="st2" d="M126.4,120.1c-0.3-0.1-0.6-0.1-0.8,0.1c-0.2,0.2-0.3,0.5-0.3,0.8c0,0.5,0,1.1,0.2,1.6c0.1,0.2,0.4,0.3,0.6,0.2
		c0.2-0.1,0.3-0.4,0.4-0.6c0.1-0.2,0.2-0.5,0.2-0.8C126.8,120.9,126.9,120.3,126.4,120.1z"/>
	<path class="st2" d="M130.5,114.9c-0.2-0.1-0.4-0.1-0.6,0.1c-0.1,0.1-0.2,0.4-0.2,0.6c0,0.3,0.1,0.7,0.2,1c0.2,0.4,0.5,1.1,0.9,0.5
		c0.3-0.4,0.3-0.9,0.1-1.4C130.9,115.4,130.7,115.1,130.5,114.9z"/>
	<path class="st2" d="M124.9,115.7C124.9,115.7,124.8,115.7,124.9,115.7c-0.2-0.4-0.9-0.8-1.1-0.4c-0.3,0.5-0.7,1.2-0.4,1.8
		c0.1,0.3,0.4,0.4,0.7,0.3C124.6,117.3,125.1,116.3,124.9,115.7z"/>
	<path class="st2" d="M91.5,132.3c0.2-0.4,0.3-0.8,0.1-1.2c-0.3-0.5-0.6-0.3-0.9,0.1c-0.2,0.4-0.5,0.9-0.4,1.4
		c0,0.2,0.2,0.4,0.4,0.4c0.1,0,0.2-0.1,0.3-0.1C91.2,132.7,91.3,132.5,91.5,132.3z"/>
	<path class="st2" d="M96.6,133c-0.1-0.3-0.3-0.6-0.6-0.6c-0.2,0-0.4,0.2-0.5,0.5c-0.1,0.3-0.2,0.6-0.2,0.9s0.3,0.6,0.6,0.6
		c0.4,0,0.7-0.4,0.7-0.7C96.8,133.6,96.7,133.2,96.6,133z"/>
	<path class="st2" d="M102.5,133c-0.3,0-0.6,0.1-0.7,0.4s0,0.5,0,0.8c0.1,0.3,0.2,0.7,0.4,0.9c0.2,0.2,0.5,0.1,0.7-0.1
		c0.3-0.4,0.4-1.5,0-1.8C102.9,133.1,102.7,133,102.5,133z"/>
	<path class="st2" d="M100.1,128.4c-0.2-0.4-0.5-0.2-0.7,0.1c-0.3,0.4-0.7,2.1,0.3,2C100.5,130.3,100.3,128.9,100.1,128.4z"/>
	<path class="st2" d="M94.3,127.3c-0.5,0.1-0.7,0.6-0.8,1c-0.1,0.4-0.2,1.1,0.3,1.2c0.7,0.1,0.9-1,1.1-1.5c0-0.1,0.1-0.2,0-0.4
		C94.8,127.4,94.6,127.2,94.3,127.3z"/>
	<path class="st2" d="M98.8,121.2c0-0.1-0.1-0.2-0.3-0.2c-0.3-0.1-0.6,0.1-0.7,0.4c-0.1,0.4-0.3,1.6,0.4,1.6
		C99.1,123,99,121.7,98.8,121.2z"/>
	<path class="st2" d="M102.3,124L102.3,124c-0.2-0.2-0.6-0.3-0.8-0.1c-0.3,0.4-0.2,1.7,0.5,1.6c0.3,0,0.4-0.3,0.5-0.6
		C102.5,124.7,102.5,124.3,102.3,124z"/>
	<path class="st2" d="M93.7,123c0-0.1,0-0.2,0-0.2c0-0.1,0-0.1-0.1-0.2c-0.2-0.3-0.8,0.5-0.8,0.6c-0.1,0.3-0.4,1.1,0.1,1.3
		C93.6,125,93.7,123.7,93.7,123z"/>
	<path class="st2" d="M109.2,209.4c-8.9,1-16.4-2.7-23.7-7c-0.1,0-0.1-0.1-0.2-0.1c-1-0.6-0.3-2.2,0.9-1.8
		c7.6,2.7,15.1,5.8,23.5,6.5c1.4,0.1,1.4,2.2,0,2.4C109.6,209.4,109.4,209.4,109.2,209.4z"/>
	<path class="st2" d="M114.9,209.2c0-1.4,0.7-2.1,1.7-2.2c1.6,0,2.8,0.8,2.9,1.7c0.1,0.8-1.7,2.4-2.8,2.4
		C115.5,211.1,114.9,210.4,114.9,209.2z"/>
	<path class="st2" d="M36.1,136.4c-0.1,2.8,2.1,5,5.2,5c3.2,0,6.1-2.4,6.1-5.2c0.1-2.7-2.7-5.7-5.4-5.8
		C39.1,130.4,36.1,133.4,36.1,136.4z M42.2,139c-2,0.7-3.2-0.3-2.9-2.4c0.2-1.3,0.8-2.2,1.7-2.9c1-0.8,2.4-0.4,3,0.6
		C45.2,136.3,44.6,138.1,42.2,139z"/>
	<path class="st2" d="M69.5,95.2c0.8,0.5,1.6,0.9,2.4,1.2c1.3,0.5,3.4,1,4.9,1.3c-0.3,1.2-1.7,2.3-2.2,3.3c-0.3,0.8-0.8,1.3,0,1.9
		c1,0.7,2.1,1.4,3.4,1.7c0.8,0.2,1.5-0.2,2-0.8c1.7-2.1,3.3-4.3,3.9-7c2.3-0.9,4.5-2.2,6.3-3.8c1.3-1.1,2.3-2.4,2.8-4.1
		c0.6-2.1,1.1-3.4-0.8-5.1c-0.8-0.7-1.9-2.1-2.7-2.9c-0.5-0.4-1-0.7-1.6-0.1c0.3,3.8-0.7,5.9-3.5,7.5c0.2-1.4,0.1-2.7-0.2-4
		c-1.7-7-9.1-7.6-12.8-5.2c-3.4,2.2-5.5,7.2-4.9,11.3C66.7,92.7,67.7,94.1,69.5,95.2z M79.3,102.1c-0.9,1.4-1.7,0.5-3.4-0.2
		c0.7-1.3,2.1-2.6,2.4-4.1c1.2-0.1,2.7,0,4.1-0.3C81.5,98.8,80.1,100.9,79.3,102.1z M68.6,85.4c1.6-4.6,6.6-6.6,10.4-4
		c1.9,1.3,3.7,4.7,3.4,7.6c-0.6,0.2-1.6,0.6-2.3,0.5c-0.2-2.1-1.1-2.9-2.5-4.3c-1.6-1.4-2.5-1.7-4.7-0.9c-1.1,0.4-1.8,1.3-1.5,2.7
		c0.3,1.4,1,2.2,2.2,2.8c3.9,1.8,6.9,1.8,10.9,0.5c2.7-0.9,4.2-3.9,4.8-6.7c0.1-0.2,2.6,2.5,2.5,3.2c-0.3,1.4-1.1,3-2.2,4.1
		c-4.5,4.1-10.2,5.4-16.3,4C68.1,93.8,66.9,90.3,68.6,85.4z M79.1,89.5c-2.8,0-4.9-0.8-5.8-2.3c-0.3-0.5,0-1.1,0.5-1.2
		C75.5,85.5,78.1,87,79.1,89.5z"/>
	<path class="st2" d="M225.1,142.6c-1.7-0.4-3.4-0.8-5.1-1.5c-1.9-0.8-3.8-1.9-4.2-4.2c4.7-2.5,6.3-5.2,5.6-9c-0.4-2-1.8-4-3.7-5.1
		c-2.2-1.4-5.7-1.2-7.9,0.4c-1.4,1.1-2.2,2.6-2.9,4.6c-1.5-2.7-1.8-5.4-1.8-8.1c0-1.3-1.1-2.2-2.4-2c-1.6,0.3-3.2,0.9-4.9,2
		c-0.3,0.2-0.4,0.6-0.3,1c0.4,0.8,0.3,1.6,0.3,2.5c0.3,6.1,2.3,11.1,8.3,13.6c0.8,0.3,1.2,0.9,1.5,1.7c2.8,7.3,8.5,11.1,16,12.3
		c0.9,0.1,1.8-0.4,1.9-1c0.3-1.3,1-2.2,1.4-3.4C228.1,144,227.7,143.2,225.1,142.6z M205.9,134.6c-5.4-2-5-8.7-6.5-12.7
		c-0.5-1.3,1.3-1.1,3-1.9c-0.3,1.9,1.7,8.6,3.2,10c1.8,1.5,3.8,1,6.1,0.9c2-0.1,3.5-1.1,2.7-3.1c-0.4-0.9-0.6-0.7-1.5-0.6
		c-0.9,0.5-1.2,1-1.7,2.5c-0.7,0.1-2.4-0.4-2.9-0.8c0.2-2.2,1.3-4,3.1-4.8c1.7-0.8,3.9-0.3,5.4,1c2.6,2.3,3.2,6.2-0.3,8.5
		C213.4,135.9,209.7,136,205.9,134.6z M223.8,148.5c-5.6,0.1-12.4-6.1-13.6-10.6c0.5,0,1.1-0.1,1.6-0.1s1-0.1,1.7-0.1
		c1.8,5.5,6.6,6.4,11.3,7.7C224.4,146.3,224.1,147.4,223.8,148.5z"/>
	<path class="st2" d="M152.5,59.6c0.6,8.4,4.3,15.3,11.1,20.4c0.5,0.4,1.2,0.6,1.8,0.9c0.7,0.4,1.3,0.2,1.9-0.3
		c1.8-1.5,3.3-3.2,4.7-5.2c0.3-0.4,0.5-0.9,0.2-1.4c-0.3-0.5-0.8-0.4-1.4-0.3c-0.9,0.3-1.7,0-2.5-0.5c-4.2-2.5-6.6-6.4-7.7-11.1
		c-0.6-2.5-0.6-5.1-0.7-7.7c0-1.7-0.5-2.1-2.1-1.8c-1,0.2-2,0.5-3,0.6c-0.8,0.1-1.4,0.3-1.6,0.9C152.4,55.8,152.4,57.9,152.5,59.6z
		 M157.7,54.2c0.1,0,0.2,0.1,0.3,0.1c-0.5,4.4,0,8.6,1.9,12.6c1.9,4.1,5.2,6.7,9.4,8.4c-1,1.6-2.5,2.8-3.8,4.6
		c-6.9-5.8-10.6-13-11-21.9C154.6,54.8,154.7,54.8,157.7,54.2z"/>
</g>
</svg>
