<svg xmlns="http://www.w3.org/2000/svg" width="1862" height="593" viewBox="0 0 1862 593"><g><g opacity=".18"><path fill="#85d1f5" d="M1833.437 371.32c5.668 3.709 1.19 10.834-8.563 13.033-20.965 4.711-37.844 15.532-61.267 16.742-13.487.696-23.632 5.837-27.956 15.083-3.572 7.626-10.316 14.27-20.032 19.585-3.39 1.855-6.306 4.392-5.382 7.184 1.382 4.151 7.811 3.364 12.345 3.436 14.23.234 28.452-.124 42.483 1.744 7.706 1.034 14.86 2.791 22.232 4.313 18.364 3.8 21.517 10.678 17.469 23.776-2.448 7.906-10.878 14.022-17.984 20.49-4.848 4.405-11.497 8.192-8.64 14.816 2.02 4.704-4.266 8.55-8.638 12.246-21.051 17.816-48.674 25.533-82.642 24.4-24.041-.8-48.216-.56-72.268-1.353-28.299-.93-55.494 3.189-82.05 9.116-32.738 7.314-66.963 10.73-99.51 18.193-28.757 6.592-59 7.692-87.928 13.34-.676.13-1.429.24-2.114.207-32.844-1.698-65.067 5.05-97.758 5.33-9.944.084-19.698-.242-29.51-1.855-12.134-1.991-24.355-2.694-37.757-.814-14.402 2.011-29.757 1.204-43.75-3.006-14.392-4.307-28.566-8.465-45.902-7.509-17.364.963-32.7-4.638-48.112-8.7-10.163-2.68-20.489-3.597-31.167-3.012-41.396 2.265-82.422-.683-123.656-.37-30.605.234-61.419 2.537-91.795.885-44.645-2.427-89.48.618-134.125-.417-10.564-.24-21.308 1.269-31.967 1.51-56.875 1.269-113.779 2.993-170.616 3.33-29.89.17-59.6 2.018-89.385 3.033-26.375.892-52.884 2.362-79.117 1.724-29.061-.716-57.999-3.806-84.565-11.217-26.632-7.425-55.018-7.789-83.298-8.53-24.26-.645-48.655-1.485-71.62-5.623-20.67-3.728-39.997-10.437-48.893-25.617 89.575-15.291 177.607-30.302 267.478-45.645-5.82-5.7-12.907-5.505-18.498-4.802-9.782 1.236-15.593-1.777-22.803-4.906-20.756-9.032-42.521-17.347-69.201-17.165-12.955.09-25.128-2.22-37.835-2.798-5.315-.248-10.944-1.497-15.164-5.303 10.526-6.22 24.7-4.88 36.787-9.37-4.325-2.486-9.24-1.295-13.574-1.587-5.62-.372-13.964-.189-15.345-3.351-4.43-10.216-17.317-9.95-29.595-11.654-5.934-.833-11.22-3.631-16.46-5.863-5.658-2.401-7.715-5.342-.514-8.524 4.239-1.874 8.344-3.897 9.916-7.177 2.276-4.73 3.22-5.147 10.992-2.232 6.296 2.363 15.793-3.728 24.928-4.99 33.805-4.653 66.6-12.852 101.205-14.797 19.165-1.06 36.672-7.594 56.57-7.398-3.571-4.035-7.648-6.103-13.63-6.793-20.184-2.317-40.32-4.815-60.352-7.555-5.067-.696-9.754-.37-14.745.078-22.26 1.992-34.367-1.9-40.244-15.2-6.468-14.633-15.279-29.755 2.029-44.727 2.495-20.711 28.918-21.407 50.998-24.837 9.601-1.496 19.68-.924 28.461-5.094 4.144-1.965 9.62-1.62 14.64-1.432 19.86.729 39.53-3.657 59.495-2.27 5.506.377 11.307-.957 16.889-3.489-1.562-4.483-78.602-8.198-75.087-14.236 16.174-2.07 33.443-1.953 51.98-5.798-14.927-7.268-30.605-12.018-40.93-21.48-16.194-14.828-21.27-30.1-9.726-47.57 5.058-7.659 7.354-16.085 15.279-22.937 7-6.064-.381-10.69-3.087-15.167-7.458-12.272-5.353-15.818 14.65-18.642 18.222-2.564 36.434-5.16 54.732-7.503 7.735-.988 15.27-2.133 22.242-4.34.619-3.695-3.525-3.787-6.687-3.988-15.116-1.002-28.233-5.349-41.968-8.817-8.649-2.186-14.183-5.368-16.917-10.984-2.315-4.75-5.582-9.298-7.658-14.086-1.886-4.308-3.906-8.83 3.248-12.663 2.038-1.087 4.143-3.214 4-4.724-1.295-13.397 14.965-16.124 29.053-18.147 49.645-7.138 169.738-12.454 220.432-12.87 9.373-.072 18.183-.463 27.375-2.122 12.04-2.187 24.242-6.384 37.11-1.438 2.668 1.028 8.392-.377 12.26-1.418 23.394-6.273 47.816-4.861 71.62-4.75 25.423.13 50.579-.176 75.84-2.766 6.306-.657 13.23-1.4 19.089-.416 20.87 3.52 42.825-1.484 63.533 2.316.667.124 1.581.287 2.086.097 21.794-8.237 42.282.71 63.457.768 13.65.046 26.3-3.2 40.187-2.888 18.155.396 36.644-2.239 54.485 1.45.638.13 1.428.033 2.133-.02 35.091-2.784 69.03 3.072 103.702 3.215 20.67.091 41.396-.644 61.99.45.695.032 1.533.116 2.095-.066 25.29-8.504 46.417-.039 67.23 6.169 11.82 3.526 19.298-5.095 27.642-2.994 7.668 1.94 11.516 9.052 23.327 5.616 7.706-2.238 15.098-3.195 23.185 1.008 5.2 2.7 13.706 3.221 19.24-2.999 2.134-2.382 10.316-3.254 12.993.123 5 6.286 12.392 4.686 20.041 3.306 10.916-1.965 20.47-.728 30.862 1.959 21.146 5.465 44.407 4.027 66.953 4.639 10.887.293 23.07-2.342 30.29 5.42 1.267 1.34 3.163 1.151 5.391.95 12.85-1.178 26.195-3.937 36.71 3.331 14.222-4.502 22.509 4.744 34.625 5.48 6.23.377 11.84 2.316 18.546.24 8.84-2.746 17.85-3.976 25.023 1.757.41.331 1.352.728 1.81.618 23.517-5.583 36.329 9.682 56.789 10.742 18.326.95 35.577 8.44 55.113 1.224 4.62-1.705 9.201.742 13.192 2.882 7.811 4.198 13.774 8.153 27.357 3.072 7.83-2.935 23.108 1.483 30.614 7.97 2.934 2.545 4.363 3.833 9.802 2.35 21.04-5.746 27.404-4.445 41.015 6.689 4.915 4.027 7.41 9.936 18.241 10.586-17.412 3.358-36.405-7.56-50.17 5.518-4.305-2.72-5.62-5.427-3.98-7.093 2.238-2.284 7.305-3.864.6-5.914-3.401-1.035-7.05-.501-9.707 1.503-4.048 3.032-4.477 8.062-12.621 8.81-11.078 1.008-20.48-2.753-30.862-3.84-7.601-.793 1.124-5.191-1.162-9.817-5.706 9.493-14.821 12.55-28.004 9.863-3.01-.605-8.01-.338-10.259.905-15.602 8.687-30.652 3.97-45.76.761-4.695-.995-9.105-2.563-17.716 1.093 13.84 1.504 24.794 3.013 35.92 3.807 12.65.91 21.603 3.755 21.24 13.098-3.733.605-8.124.378-10.039-1.243-10.601-8.96-26.908-2.778-39.701-5.648-17.24 7.523-33.205.872-49.122-1.301-7.496-1.028-13.24-2.629-18.85 1.907-3.715 3.006-6.877 1.6-10.964.305-7.058-2.238-15.45-1.99-17.374 3.67-1.657 4.906 3.8 9.8 10.792 11.862 7.62 2.232 11.812-1.086 12.917-6.123.133-.625 1.952-1.139 2.99-1.698 8.43 10.528 8.43 11.224 29.729 10.639 24.908-.696 48.617 2.361 72.563 5.225 8.125.976 16.44 3.234 25.061.722 2.886-.84 5.182-1.1 7.658.39 8.411 5.07 18.356 6.058 29.548 3.8 3.772-.761 7.306-.085 9.325 1.998 4.467 4.607 12.078 5.72 19.212 7.652 14.736 3.982 18.136 11.62 7.097 19.455-12.478 8.876-22.88 19.325-40.473 24.902-3.753 1.19-8.077 3.149-7.773 6.213.4 4.06 6.41 4.445 11.078 4.952 19.489 2.122 39.092 3.924 58.619 5.954 19.06 1.978 24.26 6.917 17.85 19.058-11.192 21.232-28.185 39.49-63.876 47.722-8.544 1.971-16.155 5.777-23.985 8.667 1.581 4.847 7.344 4.28 11.887 4.828 31.129 3.741 62.257 7.534 93.49 11.002 8.06.898 11.412 3.19 13.64 8.407 9.936 23.405 2.535 44.208-23.44 62.726-4.668 3.325-7.62 5.622-.877 10.053zm-292.873-259.042c-6.172-2.115-5.877-6.508-13.164-6.605-14.907-.196-25.746-3.403-22.527-15.245.648-2.395-4.858-4.77-6.477-2.642-6.306 8.238-18.517 11.654-30.757 15.98 9.735 5.05 21.08 5.668 28.261 10.717 2.124 1.497 4.944 1.23 7.668.248 11.192-4.034 23.147-2.837 36.996-2.453z"/></g></g></svg>