<svg xmlns="http://www.w3.org/2000/svg" width="52" height="30" viewBox="0 0 52 30"><g><g><path fill="#fff" d="M5.097 23.535a.594.594 0 0 1-.764.336.584.584 0 0 1-.348-.753l.232-.607c.158-.395.356-.98.654-1.72l.573-1.221c.209-.444.416-.935.707-1.415l.877-1.56 1.105-1.65c.799-1.128 1.713-2.324 2.803-3.483.513-.61 1.13-1.152 1.727-1.737.58-.606 1.264-1.126 1.924-1.696l.503-.423.536-.39 1.08-.796c.355-.28.75-.505 1.133-.753l1.165-.736a66.335 66.335 0 0 1 2.46-1.33l1.289-.578c.43-.195.86-.396 1.31-.544.896-.314 1.778-.677 2.704-.897l1.374-.374c.46-.114.93-.179 1.394-.27C30 .86 30.46.758 30.925.7L32.32.565l.693-.06.173-.015.086-.008.117-.003.33-.007c.442-.007.858-.029 1.34-.006 1.869.041 3.591.294 5.239.675 1.635.392 3.14.964 4.451 1.65 1.307.692 2.445 1.454 3.33 2.275l.33.295.3.31.557.587c.343.39.614.784.878 1.118.468.72.798 1.296.97 1.718l.28.63a.574.574 0 0 1-.163.68.603.603 0 0 1-.837-.078l-.043-.051-.41-.484c-.14-.151-.273-.363-.486-.57-.21-.21-.443-.454-.698-.727l-.93-.822a280.18 280.18 0 0 1-.85-.655l-.324-.21c-.842-.603-1.886-1.157-3.056-1.678-1.173-.52-2.5-.979-3.951-1.316-1.435-.358-3.038-.577-4.623-.664-.38-.036-.836-.03-1.27-.036l-.33-.004h-.042l-.015-.001-.07.004-.158.008-.632.036-1.28.057c-.428.029-.854.101-1.286.15-.43.058-.865.098-1.296.171l-1.292.258c-.874.14-1.714.424-2.573.651-.433.106-.847.265-1.265.417l-1.252.453c-.816.343-1.623.708-2.419 1.08l-1.15.63c-.379.213-.771.404-1.124.65l-1.078.699-.531.35-.5.383a27.95 27.95 0 0 0-3.628 3.174c-1.08 1.091-1.99 2.223-2.788 3.293L7.97 17.16l-.849 1.503c-.283.466-.482.924-.673 1.347l-.522 1.161c-.276.734-.475 1.329-.612 1.728l-.21.615c-.001.006-.004.015-.007.02zM.543 21.899a.576.576 0 0 1 .187-.804.605.605 0 0 1 .822.189c.087.137.177.273.27.407l.283.442c.18.29.35.586.517.883.157.302.315.604.458.913.138.312.278.624.399.945l.176.484.162.49.146.481c.32-.333.657-.65 1.012-.947.47-.401.989-.75 1.557-1.022a6.1 6.1 0 0 1 .889-.351c.158-.042.314-.086.477-.12.052-.011.049.003.187-.058.11-.03.236-.098.537-.07a.815.815 0 0 1 .451.22c.144.146.04.042.072.075v.002l.002.004v.005l.027.035a.69.69 0 0 1 .126.343.655.655 0 0 1-.099.404.704.704 0 0 1-.372.29c-.036.007-.077.022-.128.033.076-.005.108-.02.136-.018.073-.024.011.035 0 .063-.08.136-.17.256-.253.385-.174.246-.36.472-.55.69-.381.434-.79.821-1.223 1.182-.43.365-.867.72-1.31 1.074l-1.35 1.059-.27.21a1.048 1.048 0 0 1-.877.192 1.028 1.028 0 0 1-.785-1.225c.065-.284.121-.571.165-.865.037-.293.07-.59.077-.89 0-.3-.003-.602-.034-.904a7.87 7.87 0 0 0-.152-.898 9.525 9.525 0 0 0-.261-.879 8.594 8.594 0 0 0-.365-.845 8.076 8.076 0 0 0-.467-.796l-.265-.362a12.52 12.52 0 0 0-.318-.371.63.63 0 0 1-.056-.075zm7.452 2.427a.583.583 0 0 1 .265-.291.494.494 0 0 0-.265.29zm.844-.284a.587.587 0 0 1 .3.52.49.49 0 0 0 0-.09c-.005-.033-.005-.049-.027-.116a.579.579 0 0 0-.273-.313z"/></g></g></svg>