<svg xmlns="http://www.w3.org/2000/svg" width="56" height="33" viewBox="0 0 56 33"><g><g><path fill="#fff" d="M50.446 25.685l-.224-.662c-.148-.43-.36-1.07-.657-1.859l-.56-1.25c-.204-.455-.419-.948-.722-1.45l-.91-1.617c-.367-.542-.751-1.113-1.152-1.709-.858-1.151-1.833-2.369-2.992-3.543a30.026 30.026 0 0 0-3.891-3.416l-.536-.413-.57-.376-1.156-.751c-.379-.265-.8-.47-1.207-.7l-1.233-.677c-.854-.4-1.72-.794-2.594-1.164l-1.344-.487c-.448-.163-.892-.334-1.357-.448-.922-.244-1.823-.55-2.76-.701l-1.386-.278c-.462-.078-.93-.12-1.39-.184-.463-.052-.92-.13-1.38-.161l-1.372-.062-.679-.038-.169-.009-.075-.004h-.061l-.353.005c-.467.008-.955 0-1.364.04-1.7.093-3.42.328-4.959.714-1.556.363-2.98.856-4.238 1.416-1.255.56-2.376 1.157-3.279 1.806l-.347.225-.314.243-.597.462-.999.885c-.274.294-.523.557-.748.782-.23.224-.371.45-.522.614l-.44.52-.046.055a.646.646 0 0 1-.898.084.62.62 0 0 1-.175-.731l.3-.679c.185-.454.539-1.074 1.042-1.848.282-.36.574-.784.941-1.203l.599-.632.32-.333.355-.318c.949-.884 2.17-1.703 3.571-2.448a20.79 20.79 0 0 1 4.776-1.776 27.206 27.206 0 0 1 5.62-.726c.517-.025.963-.001 1.438.007l.353.007.126.003.092.008.185.016.743.065 1.497.146c.499.061.993.171 1.492.256.496.098 1 .168 1.494.29l1.474.403c.994.237 1.94.628 2.9.965.484.16.945.376 1.407.585l1.383.623c.897.46 1.776.942 2.638 1.43l1.25.793c.41.266.834.509 1.215.81l1.158.857.576.42.54.454c.707.614 1.44 1.173 2.063 1.825.64.63 1.302 1.213 1.852 1.87 1.17 1.247 2.15 2.534 3.008 3.749l1.185 1.774.94 1.68c.313.515.535 1.044.759 1.522l.615 1.314c.32.796.531 1.426.702 1.85l.249.654a.629.629 0 0 1-.374.81.636.636 0 0 1-.82-.362l-.008-.022zm4.834-1.657c-.116.131-.23.263-.341.4l-.285.389a8.66 8.66 0 0 0-.5.856c-.15.296-.276.601-.392.91-.113.31-.198.628-.28.945-.072.32-.128.643-.163.967-.034.324-.036.65-.037.972a9.293 9.293 0 0 0 .26 1.889c.135.59-.242 1.18-.843 1.318a1.12 1.12 0 0 1-.94-.206l-.29-.226-1.448-1.14c-.475-.38-.945-.763-1.405-1.155a11.648 11.648 0 0 1-1.312-1.273 9.328 9.328 0 0 1-.59-.742c-.089-.14-.186-.268-.272-.414-.011-.03-.078-.094 0-.068.03-.002.064.013.144.019-.054-.012-.097-.028-.135-.036a.753.753 0 0 1-.4-.311.708.708 0 0 1-.105-.435c0-.077.046-.25.135-.37l.028-.037v-.002l.001-.004.001-.004v-.002l.078-.08a.874.874 0 0 1 .484-.237c.323-.03.459.042.576.076.148.064.145.05.2.063.175.035.342.083.513.128.333.1.65.23.953.377a7.77 7.77 0 0 1 1.67 1.1c.381.32.743.661 1.086 1.02l.156-.518.175-.528.189-.52c.129-.346.279-.682.427-1.017.154-.333.323-.658.492-.983.179-.32.36-.637.554-.95l.304-.476c.1-.144.196-.29.29-.438a.648.648 0 0 1 .88-.204.621.621 0 0 1 .142.947zm-7.991 2.416a.533.533 0 0 0-.23-.2c.13.069.232.18.288.316a.651.651 0 0 0-.058-.116zm-.846-.191a.623.623 0 0 0-.295.338c-.024.072-.024.09-.029.124a.53.53 0 0 0-.001.097.631.631 0 0 1 .327-.56h-.002z"/></g></g></svg>