<svg xmlns="http://www.w3.org/2000/svg" width="69" height="55" viewBox="0 0 69 55"><g><g><path fill="#fff" d="M61.523 7.403c.06-.347.496-.728.973-.852.476-.125.814.056.753.402l-.123.7c-.09.46-.17 1.115-.34 1.98l-.398 1.484c-.145.54-.271 1.12-.52 1.752-.224.628-.463 1.297-.713 2.003l-1.008 2.247c-.75 1.569-1.64 3.28-2.794 5.09-.52.908-1.212 1.831-1.862 2.779-.617.953-1.412 1.906-2.155 2.886l-.571.737-.63.732-1.263 1.485c-.409.503-.894.989-1.354 1.485l-1.404 1.494c-.988.983-2 1.975-3.044 2.958l-1.636 1.448c-.546.485-1.088.974-1.679 1.433-1.165.928-2.296 1.89-3.539 2.759l-1.826 1.331c-.615.436-1.262.836-1.89 1.254-.635.409-1.255.835-1.897 1.225l-1.938 1.137-.965.56-.24.139-.12.07-.166.087-.466.247c-.627.33-1.212.653-1.906.986a67.031 67.031 0 0 1-7.684 3.24c-2.46.853-4.798 1.454-6.898 1.814-2.096.35-3.976.518-5.517.447l-.571-.015-.53-.052-.996-.105c-.62-.09-1.143-.235-1.631-.335-.914-.284-1.58-.546-1.97-.79L.39 53.3c-.225-.127-.237-.414 0-.712.287-.363.833-.607 1.218-.544l.078.013.749.122c.252.03.513.117.888.142.37.03.784.074 1.24.125l1.607.037a617.663 617.663 0 0 1 1.433-.049l.532-.054c1.405-.088 3.08-.369 4.924-.769a51.534 51.534 0 0 0 6.071-1.74c2.164-.735 4.52-1.717 6.804-2.8.554-.246 1.2-.585 1.821-.896l.47-.238.06-.03.018-.009.102-.056.22-.122.889-.494 1.8-.985c.6-.338 1.181-.713 1.778-1.07.591-.366 1.197-.72 1.786-1.098l1.75-1.17c1.194-.76 2.292-1.623 3.437-2.45.58-.408 1.114-.85 1.656-1.287l1.627-1.311a163.721 163.721 0 0 0 3.07-2.711l1.42-1.39c.467-.464.96-.917 1.378-1.39l1.293-1.397.637-.694.579-.7c1.574-1.853 2.951-3.681 4.073-5.422 1.162-1.742 2.069-3.395 2.839-4.913l.983-2.17.693-1.933c.243-.614.37-1.16.496-1.668l.345-1.396c.142-.842.22-1.506.279-1.955a6838.212 6838.212 0 0 0 .09-.713zm-33.21 38.49zm40.25-40.392c.343.112.347.487.009.84-.338.351-.89.546-1.234.434-.171-.055-.345-.109-.522-.157l-.556-.18a19.325 19.325 0 0 1-1.037-.393c-.328-.148-.656-.296-.966-.461-.303-.171-.609-.342-.89-.533l-.416-.294-.4-.31-.371-.313c-.341.525-.712 1.048-1.116 1.567a15.757 15.757 0 0 1-1.864 2.03c-.357.327-.736.647-1.145.956-.211.153-.418.305-.639.453-.069.049-.07.034-.246.188-.144.107-.3.258-.739.454-.215.092-.515.157-.718.137-.253-.022-.07-.007-.128-.012v-.001l-.003-.003-.003-.003h-.001l-.05-.013c-.155-.035-.271-.144-.296-.206-.085-.163-.043-.308.002-.426.104-.22.207-.336.43-.524.049-.033.1-.075.168-.12-.104.058-.144.094-.184.112-.095.075-.028-.023-.023-.055.068-.177.156-.348.229-.52.164-.343.35-.677.547-1.005.393-.658.842-1.295 1.334-1.926.486-.632.986-1.263 1.496-1.896l1.558-1.91.31-.381a2.76 2.76 0 0 1 1.183-.808c.84-.298 1.529-.076 1.537.495.004.295.023.587.062.875.048.283.102.568.196.834.102.26.21.524.358.764.15.238.326.462.524.673.21.201.424.4.672.576.253.17.516.333.809.471.291.138.607.253.936.354l.502.121c.19.035.384.065.58.092a.682.682 0 0 1 .105.024zM57.13 8.83c-.03.147-.13.307-.28.45.112-.1.17-.175.24-.318a.627.627 0 0 0 .04-.132zm-1.095.863c-.3.046-.543-.034-.615-.23a.272.272 0 0 0 .033.076c.018.025.023.039.078.082.049.034.103.058.179.074a.888.888 0 0 0 .325-.002z"/></g></g></svg>