<svg preserveAspectRatio="none" xmlns="http://www.w3.org/2000/svg" width="2276" height="1118" viewBox="0 0 2276 1118"><g><g opacity=".3"><path fill="#85d1f5" d="M2241.086 700.061c6.928 6.993 1.456 20.425-10.467 24.572-25.626 8.881-46.258 29.282-74.888 31.564-16.487 1.313-28.887 11.004-34.173 28.436-4.366 14.378-12.61 26.903-24.485 36.925-4.145 3.496-7.708 8.28-6.579 13.544 1.689 7.826 9.548 6.342 15.09 6.476 17.395.442 34.778-.232 51.928 3.289 9.42 1.95 18.163 5.262 27.175 8.133 22.448 7.164 26.302 20.13 21.354 44.825-2.993 14.905-13.297 26.436-21.983 38.63-5.926 8.306-14.053 15.445-10.56 27.933 2.469 8.87-5.216 16.12-10.56 23.088-25.731 33.588-59.496 48.138-101.016 46.003-29.387-1.51-58.937-1.055-88.336-2.552-34.592-1.754-67.833 6.01-100.294 17.187-40.017 13.788-81.85 20.229-121.635 34.3-35.15 12.427-72.118 14.5-107.478 25.148-.826.245-1.746.453-2.584.393-40.146-3.202-79.535 9.52-119.494 10.047-12.155.16-24.078-.454-36.07-3.496-14.833-3.755-29.771-5.08-46.153-1.534-17.605 3.79-36.373 2.27-53.477-5.667-17.593-8.122-34.918-15.96-56.108-14.158-21.225 1.816-39.97-8.746-58.81-16.401-12.423-5.054-25.044-6.784-38.096-5.68-50.6 4.269-100.747-1.288-151.15-.699-37.41.442-75.075 4.784-112.205 1.668-54.571-4.575-109.375 1.166-163.947-.785-12.912-.454-26.045 2.392-39.074 2.847-69.52 2.391-139.077 5.642-208.551 6.28-36.536.32-72.851 3.803-109.26 5.717-32.239 1.68-64.642 4.453-96.707 3.25-35.523-1.348-70.895-7.176-103.367-21.148-32.554-13.998-67.25-14.685-101.82-16.083-29.654-1.214-59.472-2.797-87.544-10.599-25.265-7.03-48.889-19.677-59.764-48.297 109.492-28.83 217.098-57.13 326.95-86.056-7.114-10.747-15.776-10.379-22.61-9.054-11.958 2.331-19.06-3.349-27.874-9.25-25.37-17.027-51.975-32.705-84.587-32.361-15.835.172-30.715-4.183-46.247-5.275-6.497-.466-13.378-2.822-18.536-9.998 12.866-11.727 30.191-9.201 44.966-17.665-5.286-4.686-11.294-2.442-16.591-2.993-6.87-.7-17.069-.356-18.757-6.318-5.414-19.26-21.167-18.757-36.175-21.971-7.254-1.57-13.716-6.845-20.12-11.053-6.916-4.527-9.43-10.072-.629-16.07 5.182-3.534 10.2-7.349 12.121-13.532 2.783-8.918 3.935-9.703 13.436-4.207 7.696 4.453 19.304-7.03 30.47-9.41 41.321-8.77 81.409-24.228 123.708-27.895 23.426-2 44.826-14.317 69.148-13.95-4.366-7.605-9.349-11.505-16.66-12.806-24.672-4.367-49.286-9.078-73.772-14.243-6.194-1.313-11.922-.699-18.023.148-27.21 3.753-42.008-3.583-49.192-28.657-7.906-27.59-18.676-56.1 2.48-84.326 3.05-39.048 35.348-40.36 62.337-46.826 11.736-2.821 24.055-1.742 34.79-9.605 5.064-3.705 11.76-3.055 17.895-2.7 24.276 1.375 48.319-6.893 72.723-4.28 6.73.711 13.82-1.804 20.643-6.576-1.91-8.452-10.514-15.457-6.217-26.841 19.77-3.901 40.879-3.68 63.536-10.93-18.245-13.703-37.41-22.659-50.03-40.495-19.794-27.958-26-56.75-11.888-89.688 6.183-14.438 8.989-30.325 18.676-43.242 8.557-11.434-.466-20.156-3.773-28.596-9.116-23.136-6.543-29.822 17.907-35.146 22.274-4.834 44.535-9.728 66.902-14.145 9.454-1.864 18.664-4.023 27.186-8.182.757-6.968-4.308-7.14-8.173-7.52-18.478-1.89-34.51-10.084-51.3-16.623-10.572-4.121-17.336-10.12-20.678-20.707-2.83-8.955-6.823-17.53-9.36-26.56-2.306-8.12-4.775-16.646 3.97-23.872 2.491-2.048 5.064-6.06 4.89-8.906-1.584-25.259 18.29-30.398 35.511-34.213 60.684-13.458 121.915-23.48 183.88-24.266 11.456-.134 22.226-.87 33.462-3.999 14.717-4.122 29.632-12.034 45.361-2.71 3.26 1.937 10.258-.713 14.985-2.676 28.596-11.825 58.448-9.163 87.545-8.955 31.075.246 61.824-.33 92.702-5.213 7.708-1.24 16.172-2.638 23.333-.785 25.51 6.636 52.347-2.797 77.66 4.367.814.233 1.932.54 2.55.184 26.639-15.53 51.683 1.337 77.565 1.447 16.685.086 32.147-6.035 49.123-5.446 22.191.748 44.79-4.22 66.598 2.735.78.246 1.747.062 2.608-.037 42.893-5.25 84.378 5.79 126.759 6.06 25.265.173 50.6-1.213 75.773.847.85.062 1.875.221 2.562-.122 30.912-16.034 56.736-.074 82.177 11.629 14.449 6.649 23.589-9.605 33.788-5.643 9.373 3.656 14.076 17.064 28.514 10.587 9.42-4.22 18.454-6.023 28.34 1.901 6.356 5.091 16.754 6.073 23.518-5.655 2.608-4.49 12.61-6.134 15.881.233 6.113 11.85 15.148 8.832 24.498 6.232 13.342-3.705 25.02-1.374 37.723 3.693 25.848 10.304 54.28 7.592 81.84 8.746 13.308.552 28.2-4.416 37.025 10.22 1.548 2.526 3.865 2.17 6.59 1.79 15.706-2.22 32.018-7.422 44.872 6.28 17.383-8.488 27.513 8.944 42.323 10.33 7.614.712 14.472 4.367 22.669.454 10.805-5.177 21.82-7.495 30.586 3.312.501.626 1.654 1.374 2.213 1.165 28.746-10.525 44.406 18.255 69.416 20.254 22.401 1.791 43.487 15.911 67.367 2.306 5.647-3.213 11.247 1.4 16.126 5.435 9.547 7.912 16.835 15.37 33.438 5.79 9.571-5.532 28.247 2.797 37.421 15.028 3.586 4.796 5.333 7.226 11.981 4.428 25.72-10.832 33.497-8.378 50.135 12.611 6.008 7.594 9.059 18.733 22.297 19.96-21.284 6.33-44.5-14.255-61.324 10.402-5.263-5.127-6.87-10.23-4.867-13.371 2.736-4.306 8.93-7.287.733-11.151-4.156-1.95-8.615-.945-11.864 2.834-4.948 5.716-5.472 15.199-15.427 16.61-13.541 1.9-25.033-5.19-37.724-7.238-9.29-1.497 1.374-9.79-1.42-18.512-6.974 17.898-18.117 23.664-34.23 18.597-3.68-1.14-9.793-.637-12.54 1.706-19.072 16.377-37.468 7.483-55.934 1.435-5.74-1.877-11.13-4.833-21.656 2.061 16.917 2.834 30.307 5.68 43.906 7.177 15.462 1.717 26.407 7.078 25.964 24.694-4.564 1.141-9.931.712-12.272-2.343-12.958-16.893-32.891-5.238-48.528-10.648-21.074 14.181-40.588 1.644-60.044-2.454-9.163-1.938-16.184-4.956-23.041 3.595-4.541 5.667-8.407 3.017-13.402.576-8.627-4.22-18.885-3.754-21.237 6.92-2.025 9.248 4.646 18.474 13.192 22.362 9.315 4.209 14.437-2.048 15.788-11.543.163-1.178 2.387-2.147 3.656-3.202 10.304 19.849 10.304 21.161 36.338 20.057 30.447-1.312 59.427 4.453 88.697 9.851 9.932 1.84 20.096 6.097 30.633 1.362 3.528-1.583 6.334-2.073 9.361.736 10.281 9.556 22.437 11.42 36.117 7.164 4.61-1.435 8.93-.16 11.399 3.767 5.46 8.685 14.763 10.782 23.484 14.426 18.012 7.508 22.169 21.91 8.674 36.68-15.252 16.732-27.967 36.434-49.471 46.947-4.588 2.245-9.874 5.937-9.501 11.715.489 7.655 7.836 8.38 13.54 9.336 23.823 4 47.784 7.397 71.652 11.225 23.298 3.73 29.655 13.04 21.82 35.93-13.681 40.03-34.452 74.453-78.08 89.97-10.443 3.718-19.746 10.895-29.316 16.341 1.932 9.14 8.976 8.072 14.53 9.103 38.05 7.053 76.1 14.205 114.277 20.744 9.85 1.693 13.949 6.01 16.673 15.85 12.144 44.126 3.097 83.345-28.654 118.258-5.705 6.269-9.314 10.599-1.07 18.953zm-357.99-488.38c-7.545-3.987-7.184-12.268-16.09-12.452-18.222-.368-31.472-6.415-27.537-28.742.792-4.515-5.938-8.993-7.917-4.98-7.708 15.53-22.634 21.97-37.596 30.128 11.9 9.52 25.766 10.685 34.545 20.205 2.597 2.821 6.043 2.318 9.373.466 13.68-7.606 28.293-5.349 45.222-4.625z"/></g></g></svg>