<svg xmlns="http://www.w3.org/2000/svg" width="100%" height="100%" viewBox="0 0 1022 203"><g><g opacity=".7"><path fill="#85d1f5" d="M989.561 132.334c2.773 1.29-.1 3.663-5.455 4.339-11.507 1.446-21.25 4.98-33.831 5.229-7.245.143-13.008 1.807-15.944 4.897-2.424 2.547-6.474 4.743-12.02 6.47-1.935.601-3.663 1.438-3.36 2.386.456 1.41 3.94 1.187 6.355 1.243 7.578.176 15.191.152 22.552.878 4.042.401 7.74 1.043 11.57 1.606 9.543 1.407 10.758 3.749 7.709 8.14-1.844 2.65-6.758 4.655-10.99 6.788-2.886 1.453-6.69 2.685-5.616 4.938.758 1.6-2.858 2.855-5.442 4.072-12.444 5.866-27.709 8.28-45.758 7.667-12.776-.434-25.693-.518-38.474-.95-15.039-.506-29.83.697-44.405 2.516-17.967 2.243-36.463 3.162-54.339 5.458-15.793 2.026-32.007 2.191-47.828 3.9-.37.038-.779.07-1.142.055-17.412-.797-35.066 1.259-52.53 1.13-5.313-.039-10.496-.215-15.622-.826-6.34-.755-12.814-1.075-20.094-.532-7.822.58-15.961.203-23.142-1.312-7.388-1.552-14.67-3.05-23.986-2.846-9.332.206-17.135-1.788-25.084-3.263-5.241-.973-10.689-1.354-16.427-1.229-22.245.482-43.938-.792-65.964-.968-16.347-.13-32.948.437-49.045-.328-23.66-1.123-47.793-.402-71.547-1.055-5.621-.154-11.457.283-17.162.291-30.437.04-60.92.233-91.274-.04-15.963-.147-31.942.274-47.906.413-14.136.121-28.382.436-42.338.041-15.46-.439-30.692-1.679-44.365-4.36-13.708-2.686-28.831-3.002-43.873-3.445-12.903-.383-25.863-.833-37.838-2.385-10.777-1.398-20.635-3.794-24.351-8.974 48.84-4.547 96.837-9.01 145.839-13.572-2.719-1.963-6.514-1.946-9.546-1.746-5.304.35-8.2-.706-11.835-1.81-10.463-3.189-21.513-6.142-35.763-6.262-6.92-.058-13.259-.92-20-1.203-2.82-.119-5.74-.579-7.732-1.891 6.039-2.026 13.512-1.478 20.267-2.91-2.139-.868-4.843-.5-7.136-.628-2.973-.164-7.439-.16-7.96-1.235-1.67-3.476-8.566-3.474-15.002-4.133-3.11-.321-5.742-1.302-8.386-2.09-2.856-.848-3.754-1.854.305-2.879 2.389-.603 4.717-1.257 5.779-2.353 1.536-1.58 2.067-1.713 6.017-.677 3.2.84 8.681-1.15 13.642-1.514 18.355-1.338 36.413-3.88 55.012-4.3 10.3-.227 20.086-2.311 30.691-2.11-1.632-1.385-3.667-2.11-6.812-2.385a2231.404 2231.404 0 0 1-31.693-2.959c-2.657-.27-5.18-.192-7.874-.074-12.015.52-18.211-.875-20.444-5.402-2.457-4.98-6.132-10.14 4.12-15.073 2.74-6.969 16.887-7.023 28.903-8.03 5.225-.439 10.564-.177 15.534-1.524 2.345-.635 5.244-.481 7.91-.383 10.549.381 21.343-.964 31.903-.36 2.912.165 6.099-.245 9.25-1.061-.53-1.523-4.034-2.824-1.748-4.837 8.772-.588 17.98-.43 28.132-1.601-7.471-2.554-15.515-4.263-20.383-7.525-7.634-5.112-9.306-10.297-1.959-16.112 3.22-2.549 5.017-5.375 9.711-7.632 4.149-1.998.523-3.609-.616-5.138-3.147-4.19-1.783-5.37 9.084-6.187 9.898-.74 19.793-1.492 29.717-2.157 4.195-.282 8.293-.616 12.164-1.313.581-1.242-1.624-1.301-3.298-1.39-7.999-.442-14.703-1.998-21.797-3.261-4.467-.796-7.204-1.908-8.282-3.82-.912-1.618-2.347-3.175-3.13-4.804-.713-1.466-1.484-3.005 2.594-4.249 1.161-.353 2.43-1.056 2.456-1.566.218-4.528 9.08-5.337 16.736-5.923 26.978-2.069 54.07-3.52 81.151-3.315 5.007.04 9.735-.032 14.753-.53 6.574-.655 13.37-1.987 19.902-.231 1.353.365 4.503-.07 6.638-.395C370.319-.228 383.256.415 395.95.614 409.51.832 422.954.9 436.611.2c3.41-.179 7.155-.382 10.215-.01 10.898 1.33 22.954-.209 33.747 1.214.347.047.824.107 1.106.048 12.19-2.63 22.516.527 33.812.691 7.28.109 14.251-.9 21.641-.7 9.662.258 19.707-.505 28.977.86.332.05.76.022 1.14.009 18.915-.7 36.629 1.507 55.121 1.792 11.025.171 22.135.065 33.05.574.37.015.811.05 1.123-.008 14.074-2.696 24.773.304 35.458 2.54 6.069 1.27 10.644-1.587 14.954-.822 3.96.707 5.531 3.132 12.068 2.053 4.264-.701 8.273-.974 12.303.499 2.592.947 7.096 1.18 10.472-.88 1.3-.79 5.726-1.028 6.925.13 2.242 2.154 6.295 1.665 10.47 1.252 5.959-.59 10.973-.106 16.336.87 10.914 1.988 23.424 1.662 35.414 2.022 5.79.173 12.47-.632 15.797 2.035.585.46 1.609.41 2.812.357 6.937-.31 14.246-1.149 19.364 1.374 7.895-1.421 11.69 1.754 18.105 2.084 3.299.17 6.16.862 9.88.208 4.904-.865 9.796-1.22 13.234.763.196.115.673.256.924.222 12.93-1.724 18.73 3.513 29.576 4.01 9.715.445 18.412 3.09 29.328.789 2.58-.543 4.86.313 6.844 1.062 3.883 1.469 6.796 2.845 14.39 1.223 4.378-.937 12.23.657 15.796 2.897 1.392.878 2.067 1.323 5.07.86 11.62-1.796 14.927-1.313 21.434 2.535 2.35 1.392 3.28 3.403 9.015 3.696-9.52 1.014-18.914-2.799-27.147 1.519-2.113-.947-2.63-1.87-1.643-2.42 1.35-.755 4.161-1.254.722-1.991-1.745-.372-3.728-.217-5.282.44-2.366.996-2.937 2.69-7.334 2.886-5.98.265-10.741-1.068-16.208-1.505-4.002-.32.952-1.743.047-3.32-3.69 3.163-8.762 4.133-15.615 3.137-1.565-.226-4.251-.17-5.535.235-8.917 2.823-16.627 1.13-24.471-.056-2.439-.368-4.686-.926-9.53.248 7.285.602 13.028 1.186 18.91 1.529 6.69.394 11.274 1.414 10.446 4.563-2.033.179-4.361.072-5.273-.488-5.049-3.095-14.17-1.12-20.803-2.176-9.71 2.42-17.779.068-26.125-.773-3.93-.398-6.887-.978-10.189.514-2.186.989-3.778.493-5.871.028-3.615-.803-8.11-.776-9.521 1.12-1.218 1.643 1.363 3.331 4.953 4.075 3.915.804 6.377-.287 7.31-1.977.113-.21 1.118-.371 1.71-.553 3.784 3.609 3.737 3.843 15.142 3.79 13.34-.064 25.784 1.129 38.368 2.258 4.27.385 8.554 1.203 13.325.415 1.597-.263 2.84-.335 4.06.184 4.144 1.767 9.384 2.168 15.51 1.483 2.065-.23 3.904.022 4.84.737 2.072 1.585 6.057 2.012 9.734 2.712 7.593 1.444 8.888 4.044 2.465 6.612-7.262 2.908-13.522 6.362-23.29 8.123-2.083.376-4.524 1.007-4.57 2.043-.062 1.372 3.12 1.543 5.576 1.746 10.256.848 20.594 1.59 30.877 2.407 10.037.798 12.477 2.5 8.231 6.55-7.414 7.086-17.723 13.129-37.328 15.662-4.694.606-9.014 1.839-13.388 2.76.514 1.645 3.628 1.494 6.016 1.71 16.357 1.473 32.71 2.966 49.143 4.348 4.24.358 5.873 1.153 6.708 2.929 3.712 7.962-1.65 14.928-16.77 20.998-2.717 1.09-4.449 1.844-1.15 3.384zM850.866 42.961c-3.15-.756-2.694-2.235-6.576-2.318-7.942-.167-13.509-1.323-10.986-5.296.508-.803-2.269-1.642-3.277-.935-3.925 2.735-10.673 3.804-17.5 5.18 4.853 1.77 10.865 2.056 14.354 3.808 1.032.52 2.555.448 4.076.136 6.246-1.285 12.544-.799 19.909-.575z"/></g></g></svg>