<svg xmlns="http://www.w3.org/2000/svg" width="39" height="40" viewBox="0 0 39 40"><defs><mask id="ld57b" width="2" height="2" x="-1" y="-1"><path fill="#fff" d="M0 0h37v37H0z"/><path d="M35.156 22.837a6.063 6.063 0 0 0-1.818 4.348 6.17 6.17 0 0 1-6.166 6.169c-1.615 0-3.2.672-4.347 1.82a6.16 6.16 0 0 1-8.716 0 6.058 6.058 0 0 0-4.346-1.82 6.17 6.17 0 0 1-6.166-6.169 6.21 6.21 0 0 0-1.819-4.348 6.168 6.168 0 0 1 0-8.72 6.064 6.064 0 0 0 1.82-4.35A6.169 6.169 0 0 1 9.762 3.6c1.615 0 3.2-.672 4.346-1.82 2.408-2.408 6.31-2.408 8.709-.007a6.058 6.058 0 0 0 4.347 1.82A6.17 6.17 0 0 1 33.33 9.76a6.21 6.21 0 0 0 1.819 4.349c2.437 2.408 2.437 6.29.007 8.728zM9.974 15.58c0-.702-.589-1.291-1.29-1.291-.702 0-1.291.589-1.291 1.291s.589 1.291 1.29 1.291c.702 0 1.26-.589 1.29-1.29zm6.392 12.065a2.15 2.15 0 0 0-2.136-2.144 2.152 2.152 0 0 0-2.143 2.144c0 1.178.966 2.144 2.143 2.144 1.2 0 2.136-.936 2.136-2.144zm4.845-9.188c0-.884-.702-1.586-1.585-1.586s-1.585.702-1.585 1.586c0 .883.702 1.585 1.585 1.585s1.585-.702 1.585-1.585zM22.5 8.182c0-.702-.589-1.29-1.29-1.29-.702 0-1.29.588-1.29 1.29 0 .702.588 1.29 1.29 1.29.701 0 1.29-.588 1.29-1.29zm8.716 12.978c0-.883-.702-1.615-1.615-1.615-.883 0-1.615.702-1.615 1.615 0 .884.702 1.616 1.615 1.616s1.615-.71 1.615-1.616z"/></mask><filter id="ld57a" width="59.4" height="60.2" x="-10" y="-10" filterUnits="userSpaceOnUse"><feOffset dx="2.4" dy="3.2" in="SourceGraphic" result="FeOffset1023Out"/><feGaussianBlur in="FeOffset1023Out" result="FeGaussianBlur1024Out" stdDeviation="0 0"/></filter></defs><g><g><g filter="url(#ld57a)"><path fill="none" d="M35.156 22.837a6.063 6.063 0 0 0-1.818 4.348 6.17 6.17 0 0 1-6.166 6.169c-1.615 0-3.2.672-4.347 1.82a6.16 6.16 0 0 1-8.716 0 6.058 6.058 0 0 0-4.346-1.82 6.17 6.17 0 0 1-6.166-6.169 6.21 6.21 0 0 0-1.819-4.348 6.168 6.168 0 0 1 0-8.72 6.064 6.064 0 0 0 1.82-4.35A6.169 6.169 0 0 1 9.762 3.6c1.615 0 3.2-.672 4.346-1.82 2.408-2.408 6.31-2.408 8.709-.007a6.058 6.058 0 0 0 4.347 1.82A6.17 6.17 0 0 1 33.33 9.76a6.21 6.21 0 0 0 1.819 4.349c2.437 2.408 2.437 6.29.007 8.728zM9.974 15.58c0-.702-.589-1.291-1.29-1.291-.702 0-1.291.589-1.291 1.291s.589 1.291 1.29 1.291c.702 0 1.26-.589 1.29-1.29zm6.392 12.065a2.15 2.15 0 0 0-2.136-2.144 2.152 2.152 0 0 0-2.143 2.144c0 1.178.966 2.144 2.143 2.144 1.2 0 2.136-.936 2.136-2.144zm4.845-9.188c0-.884-.702-1.586-1.585-1.586s-1.585.702-1.585 1.586c0 .883.702 1.585 1.585 1.585s1.585-.702 1.585-1.585zM22.5 8.182c0-.702-.589-1.29-1.29-1.29-.702 0-1.29.588-1.29 1.29 0 .702.588 1.29 1.29 1.29.701 0 1.29-.588 1.29-1.29zm8.716 12.978c0-.883-.702-1.615-1.615-1.615-.883 0-1.615.702-1.615 1.615 0 .884.702 1.616 1.615 1.616s1.615-.71 1.615-1.616z" mask="url(&quot;#ld57b&quot;)"/><path fill="#238bbb" fill-opacity="1" d="M35.156 22.837a6.063 6.063 0 0 0-1.818 4.348 6.17 6.17 0 0 1-6.166 6.169c-1.615 0-3.2.672-4.347 1.82a6.16 6.16 0 0 1-8.716 0 6.058 6.058 0 0 0-4.346-1.82 6.17 6.17 0 0 1-6.166-6.169 6.21 6.21 0 0 0-1.819-4.348 6.168 6.168 0 0 1 0-8.72 6.064 6.064 0 0 0 1.82-4.35A6.169 6.169 0 0 1 9.762 3.6c1.615 0 3.2-.672 4.346-1.82 2.408-2.408 6.31-2.408 8.709-.007a6.058 6.058 0 0 0 4.347 1.82A6.17 6.17 0 0 1 33.33 9.76a6.21 6.21 0 0 0 1.819 4.349c2.437 2.408 2.437 6.29.007 8.728zM9.974 15.58c0-.702-.589-1.291-1.29-1.291-.702 0-1.291.589-1.291 1.291s.589 1.291 1.29 1.291c.702 0 1.26-.589 1.29-1.29zm6.392 12.065a2.15 2.15 0 0 0-2.136-2.144 2.152 2.152 0 0 0-2.143 2.144c0 1.178.966 2.144 2.143 2.144 1.2 0 2.136-.936 2.136-2.144zm4.845-9.188c0-.884-.702-1.586-1.585-1.586s-1.585.702-1.585 1.586c0 .883.702 1.585 1.585 1.585s1.585-.702 1.585-1.585zM22.5 8.182c0-.702-.589-1.29-1.29-1.29-.702 0-1.29.588-1.29 1.29 0 .702.588 1.29 1.29 1.29.701 0 1.29-.588 1.29-1.29zm8.716 12.978c0-.883-.702-1.615-1.615-1.615-.883 0-1.615.702-1.615 1.615 0 .884.702 1.616 1.615 1.616s1.615-.71 1.615-1.616z"/></g><path fill="#7dccf3" d="M35.156 22.837a6.063 6.063 0 0 0-1.818 4.348 6.17 6.17 0 0 1-6.166 6.169c-1.615 0-3.2.672-4.347 1.82a6.16 6.16 0 0 1-8.716 0 6.058 6.058 0 0 0-4.346-1.82 6.17 6.17 0 0 1-6.166-6.169 6.21 6.21 0 0 0-1.819-4.348 6.168 6.168 0 0 1 0-8.72 6.064 6.064 0 0 0 1.82-4.35A6.169 6.169 0 0 1 9.762 3.6c1.615 0 3.2-.672 4.346-1.82 2.408-2.408 6.31-2.408 8.709-.007a6.058 6.058 0 0 0 4.347 1.82A6.17 6.17 0 0 1 33.33 9.76a6.21 6.21 0 0 0 1.819 4.349c2.437 2.408 2.437 6.29.007 8.728zM9.974 15.58c0-.702-.589-1.291-1.29-1.291-.702 0-1.291.589-1.291 1.291s.589 1.291 1.29 1.291c.702 0 1.26-.589 1.29-1.29zm6.392 12.065a2.15 2.15 0 0 0-2.136-2.144 2.152 2.152 0 0 0-2.143 2.144c0 1.178.966 2.144 2.143 2.144 1.2 0 2.136-.936 2.136-2.144zm4.845-9.188c0-.884-.702-1.586-1.585-1.586s-1.585.702-1.585 1.586c0 .883.702 1.585 1.585 1.585s1.585-.702 1.585-1.585zM22.5 8.182c0-.702-.589-1.29-1.29-1.29-.702 0-1.29.588-1.29 1.29 0 .702.588 1.29 1.29 1.29.701 0 1.29-.588 1.29-1.29zm8.716 12.978c0-.883-.702-1.615-1.615-1.615-.883 0-1.615.702-1.615 1.615 0 .884.702 1.616 1.615 1.616s1.615-.71 1.615-1.616z"/></g></g></svg>