<svg xmlns="http://www.w3.org/2000/svg" width="335" height="97" viewBox="0 0 335 97"><g><g><path fill="#fff" d="M330.4 83.692L11.543 96.995c-.067-.054-.068-.114-.099-.173.017-.452.716-.407 1.349-.565.86-2.27-2.805-2.994-1.984-5.485l.834.33c.178-.519.42-.966-.697-1.183 2.613-.752-1.671-2.12 1.125-3.056.478-1.101-1.77-1.067-2.237-1.894.603-.025 1.719.191 1.99-.256-.99-2.75-1.243-5.24-1.8-8.283.225.018.417.172.513.24.172-1.995-2.41-3.844-1.634-5.527-.387-.29-.917-1.189-1.953-.867-.149.4-1.477.498-2.301.52-1.18-1.428 1.913-.812 1.505-1.773 2.019-.39 1.378.555 3.152.481l-1.302-1.36c.612-.816-.55-1.573.382-2.312-.212.333 1.523.038.746.597-.097-.082-.222-.02-.321-.102-.145 1.105.82.699 1.344 1.427-.486-.873-.914-1.992-.554-2.762-1.358.233-.618-.644-1.512-.84l.157-.067c-.603.025-1.028-.47-1.22-.62l1.736-.278c-.23-.341-.883.154-1.116-.202-.425-.494-.66-2.325 1.172-2.517-.143-.623-1.16-.757-.956-1.406.475.023.67.176.892.197.314-1.387-.3-3.042.71-4.369-.5-1.032-.81-1.926-2.03-2.532.167.27-.223 1.106-1.252.638-.766-.246-.492-.695-.82-1.12.92.063.826-1.146 1.514-.298 1.988-.301-.46-1.865 1.534-1.933-.609-.179-.291-1.448-1.38-1.858.883-.153.618.648 1.22.607l-.3-.543.604-.026c.477-1.114-1.966-1.202-2.363-1.843l.254.02-.329-.427 1.628.444c-.27-.674-1.704-.979-2.042-1.74l.504-.096-.566-.43c.11.073.343.072.462.028-1.532-.376-.955-1.408-2.266-1.761.216-.318 2.109-.66.798-1.014L6.535 41c.25 1.028-1.32.436-.594 1.5 2.385-.9 2.074-3.138 1.844-4.619-1.296-1.16.678-3.229-2.153-3.622l1.175.082.897-2.065c-.522-1.705.32-3.52-1.267-4.771l.94-.404c-3.264-1.223-1.449-4.571-5.366-5.312.864-.81 1.494.172 2.193.214.3-.566-2.257-1.426-.53-2.036.603-.025.591.777.932.398 1.095-.456-1.124-.537.099-1.055-1.136.25-2.49-.644-2.761-1.333-.03.133-.03.133-.154.199-.886.138-.708-.396-.874-.668 0 0 .253.02.352.088-.57-1.218-.954-2.516-1.275-3.846L329.935-.014c.098.127.356.203.862.197l-1.186.708c1.125.551 3.414-.29 3.635.853-.701 1.097-3.326.037-4.357.709l1.116.202-.778.558-.047-.04c.31.3.007.832-.565.856-.477-.025-.486-.36-.932-.4.996.47-2.7 2.158.353 2.569-.531.316-.515.943-1.467.911 1.34.22-.405 1.39.458 1.762-.442-.039-1.161.386-.806.676.498-.442 1.01-.204 1.747.045-.94.404-.093 1.407-1.704 1.62.903.53 2.036.28 3.213.363-.973.39-.752 1.551-2.595 1.421.215-.314.576-1.032-.656-.85-.681.616.513.228.684.718-.318-.03-1.1.384-1.64.302.198.284.176.68-.098 1.117.807-.677 1.278.353 2.027-.073l-1.378-.556c-.113-.74 1.01-.2 1.477-.498.413 1.296 2.277.955 3.195 2.162-.312.245-.807.673-.865.807-.108-.402-1.783-.26-2.094-.014 1.441.628-.886 1.279-1.221 1.85.431-.5 1.514-.298 1.93-.127 1.047 1.142-.62.493-1.368 1.036.239 1.818-1.949 3.077-.77 4.487l1.565-.765-1.495-.17c1.128-.59 3.33-.039 4.288.245-.507.092-.198.986-1.031.656l.658.85c.661-.16.361-.719 1.069-.338-.469.312-.76 1.228-1.663.698-.02.467.504 1.029 1.386.89.084.742-1.902.008-2.51-.303-.082.588-1.349.566-1.798.41l.21.809c-.413-.156-1.016-.131-1.433-.29-.524.564 1.133.874-.09 1.392l1.24.151c-.976 1.532-1.135 1.394-1.258 2.785l.911-.271c1.704.981-1.435.835-.701 2.222.559.778.98 1.272 2.466 1.109.55.428-.3.569-.865.81.865.315 2.403 1.026 1.5 1.632-.483-.36-.87-.65-1.104-1.004-1.453.161-.282 1.238-.964 1.865.708.38 2.545 1.647 3.833 2.338 1.194-.385 2.97-.327 4.19.277-.952-.061-.926.945-1.546 1.438-.862-.197-2.126 1.127-2.534.165.47-.312 1.701-.495 1.247-.856-.944.272-1.972.928-2.779 1.606-.478-.022-1.086-.335-1.095-.67.417.175.699.043 1.078.015-1.108-1.153-2.114.336-3.26.207.302.274.147.875.795.693-1.866.709 1.44 1.777-.3 2.5.222.021.94-.403 1.524.054.238.678-.807.677-1.276.975.67.176 1.141 1.209.82 1.12.551.444 2.206-.574 3.205.025 1.5.378.247 1.013.673 1.522-.171.106-.306.162-.415.181.309.741-.072 2.353-.873 3.156.09.03.18.071.268.126a6.16 6.16 0 0 0-.616.152 1.324 1.324 0 0 1-.498.184c-.755.335-1.147.81-1.312 1.357 1.636-.347 1.487 1.18 2.84.742-.866-.329.523-.578.649-.624.113.74 1.523.037 1.628.443-.315 1.386-1.046-.001-1.614 1.351-.737-.248-2.432-.893-3.148-1.607-.686.071.049.663-.57 1.019.816-.344 1.478.283 1.799-.077.725 1.065 2.467 2.249 2.88 3.548-2.444-.105-1.893-2.141-4.794-1.613.396.641 1.567.578 1.421 1.11-1.476.499-.148 1.527-.096 2.401l.751-.426c.609.31.152.941.035 1.343l-.352-.088.486.36c-.063.058-.125.077-.219.08.77.394.068 1.488.533 2.273 1.17-.049.012-.79.129-1.175.282-.128.769-.894 1.602-.564.025.993 1.467 1.636 1.468 2.775l.37-.383c.833.333.433.832.476 1.369-.795 1.011-1.662-.647-2.344-.02-1.054-.35.132-1.07-1.392-1.108l-1.663.697c1.028.47-.478 1.1-.248 1.44l.752-.41c1.299.02.326.426.142.607l1.893-.342c.3-.566-1.354-.893-.288-1.346.626.981 2.14.685 2.237 1.893-.728.075-.291-.222-.833-.33-.498.43 1.034.804.452 1.5-.487-.359-1.233-.956-2.232-.418l1.433.305c-.212.317-.786.21-.812.343-.274.447 1.485-.165 1.12.536-.282.114-.59.36-.91.271-.041.807.454.376 1.17 1.091-.017-.672 2.135-.789 2.406-.1-.195.987.993 1.595-.764 2.342l.93.397c-1.337-.221-.458.649-.673.965-1.454.163.026-1.464-2.38-1.363-.207.637-.94.389-1.61.214.238.69 1.715.191 2.706.458-.603.025-.16 1.188-1.469.833-.081.602 1.442.643 1.168 1.077-.572-.033-1.333-.076-2.09 0 .506.024-.082.602-.14.721.282-.113 1.272.153.815-.34 1.173.068.092 1.193 1.042 1.124-1.328.116-.224 1.12-.78 1.7 3.133-.191-1.197-.959 1.363-1.254 1.095.684.157 2.417 1.58 3.512-.573 1.033-1.202.05-2.338.316-.562-.91.382-1.186-.207-1.963-.515.914-.163 2.329.836 2.93.115.8-2.127 1.097-2.36 1.852zm-2.373-31.941c-.42-.24-.873-.697-1.348-1.448.132-1.055 1.687.325 1.981-.594 0 0 .392-.943-2.91.211l1.856 1.923c.126-.006.267-.042.42-.092zm2.036-3.808a.65.65 0 0 1 .114 0c-.088-.244-.157-.53-.375-.633zm-3.476-6.05a1.7 1.7 0 0 1-.172.06c.053-.02.11-.04.172-.06zM5.622 43.74l.017.013a.176.176 0 0 1-.017-.013z"/></g></g></svg>