<svg xmlns="http://www.w3.org/2000/svg" width="200" height="13" viewBox="0 0 200 13"><g><g><path fill="#b6e4f2" d="M162.75 9.209c-.176-3.822 1.238-6.323 3.567-8.18.664-.53 2.364-.506 3.01.027.626.514 1.029 2.562.62 2.981-1.946 2-3.253 5.064-7.197 5.172zm-63.97-6.48c1.141 5.684-3.5 5.988-6.47 8.288m88.013-7.99c-1.603 2.231-2.825 4.575-4.632 6.224-1.2 1.092-3.008-.161-2.6-1.747.614-2.384 1.97-4.583 3.192-6.75.192-.338 1.511-.355 2.036-.034.733.448 1.21 1.352 2.004 2.306zm-52.188 7.46c-.845-1.641-1.77-2.639-1.569-3.205.643-1.814 1.531-3.6 2.643-5.15 1.563-2.179 3.178-1.767 4.816.921l-5.89 7.433zm-13.227-.876c-1.8-3.956.82-5.897 2.696-7.902 1.346-1.442 2.81-.884 4.058 1.035-1.31 3.012-3.274 5.403-6.754 6.867zm78.341-1.369c-.325-3.637.754-6.022 3.204-7.605.592-.38 1.8-.196 2.483.19.513.287 1.085 1.66.87 1.962-1.579 2.21-2.265 5.632-6.557 5.453zm-53.254 1.831c-1.853-4.734.444-6.827 2.307-8.754.552-.57 2.423.24 4.942.594l-7.25 8.16zm14.498-.614c-2.933-1.348-2.647-3.106-1.467-4.654 1.123-1.477 2.462-3.166 4.048-3.756 1.454-.54 2.555 1.247 1.73 2.695-1.205 2.122-2.926 3.927-4.311 5.715zm-89.166-6.52c-3.24 1.95-3.099 7.59-8.354 5.801M190.79 2.873c-3.371 1.873-4.342 4.975-7.87 3.827.107-2.892 1.444-4.978 3.725-6.106.626-.31 2.016 1.055 4.145 2.28zm-87.83 5.013c3.362-5.796 3.362-5.796 6.649-4.367m-64.5 5.33c2.427-6.51 2.913-6.949 6.477-5.843m16.418 4.748c2.223-2.712 3.569-4.515 5.107-6.116.36-.374 1.543-.339 2.044-.003.515.35.98 1.328.915 1.967-.209 2.044-3.483 4.052-8.066 4.152zm-45.928.416c1.153-1.916 2.164-3.962 3.561-5.664.336-.41 1.945.312 3.075.535-2.295 5.043-2.295 5.043-6.636 5.129zm17.458-4.921c-1.929 2.582-3.274 4.39-4.518 6.053-2.62-.529-2.7-2.008-2.07-3.676.871-2.302 2.048-2.794 6.588-2.377zM.417 10.069c1.35-1.912 2.75-3.889 4.263-6.028 1.828 2.615 1.759 5.76-.03 7.393-1.607 1.462-3.074 1.01-4.233-1.365zm80.572-2.398c.178-1.046.137-1.69.391-2.16.877-1.626 1.264-4.121 3.909-3.192.533.187 1.07 1.593.958 2.326-.37 2.396-1.771 3.182-5.258 3.026zM12.886 9.747c-1.493-3.378-1.395-5.347.557-6.492.838-.493 2.244.063 4.716.239-2.176 2.578-3.444 4.083-5.273 6.253z"/></g></g></svg>