<svg xmlns="http://www.w3.org/2000/svg" width="297" height="7" viewBox="0 0 297 7"><g><g><path fill="#b6e4f2" d="M160.327 4.716c1.15-.272 2.298-.758 3.46-.774a880.95 880.95 0 0 1 17.977-.081c10.774.052 21.56.523 32.326.103 8.65-.33 17.245-1.88 25.896-2.583 7.52-.614 15.084-.87 22.63-1.15 5.55-.196 11.087-.229 16.63-.235 4.639-.002 9.281.106 13.913.25 1.26.03 2.507.321 3.755.496.03.282.061.567.086.848-.838.296-1.679.874-2.502.85-6.553-.248-13.107-.922-19.644-.845-11.076.125-22.172.447-33.228 1.177-8.19.547-16.306 2.111-24.499 2.757-5.743.452-11.6.655-17.298.02-7.908-.876-15.724-.103-23.582.04-4.936.087-9.881.18-14.815.246-.331 0-.674-.216-1.001-.333-.036-.266-.073-.525-.104-.786zm-24.294-.64c-5.305.076-10.62.256-15.933.203-6.061-.05-12.13-.307-18.195-.461-4.64-.117-9.288-.297-13.924-.315-9.96-.04-19.91.045-29.858-.01-2.69-.014-5.377-.561-8.052-.519-10.48.17-20.953.35-31.422.78-5.516.229-11.007 1.023-16.513 1.44C1.453 5.248.718 4.587 0 4.255c.59-.335 1.144-.92 1.745-.964 5.143-.38 10.286-.763 15.442-.949 5.61-.194 11.223-.127 16.838-.28 3.52-.093 7.028-.408 10.543-.54 2.616-.099 5.228-.09 7.848-.068 11.752.126 23.512.21 35.271.435 12.436.237 24.872.644 37.302.917 3.131.07 6.263-.123 9.397-.103.676.006 1.328.41 2.003.627-.115.245-.229.502-.356.747zm11.446 2.926c-.9-.991-2.289-1.868-2.569-3.002-.404-1.65 1.86-3.832 3.297-3.723 1.379.104 3.168 2.045 3.039 3.309-.152 1.47-1.935 3.105-3.767 3.416z"/></g></g></svg>