<svg xmlns="http://www.w3.org/2000/svg" width="204" height="9" viewBox="0 0 204 9"><g><g><path fill="#b6e4f2" d="M191.558 8.15c-1.274-.604-3.381-1.066-4.701-2.322-3.996-3.78-7.978-3.099-12.346-.87-2.153 1.094-4.527 1.83-6.865 2.503-2.838.815-5.402-.235-7.776-1.662-4.505-2.7-8.902-2.494-13.28.247-4.222 2.634-8.512 3.483-13.008.564-.958-.621-2.132-.935-3.08-1.578-3.785-2.572-7.152-1.678-10.476.92-1.215.939-2.627 1.738-4.08 2.256-1.745.621-3.584.697-5.312-.397-1.598-1.017-3.39-1.764-4.904-2.885-3.56-2.65-6.978-1.901-10.485.036-2.07 1.14-4.209 2.162-6.322 3.23-1.981 1.004-3.85.654-5.593-.55-1.172-.805-2.26-1.729-3.418-2.55-4.04-2.853-6.694-2.691-10.393.599-3.32 2.955-8.593 3.696-12.561 1.628-2.043-1.065-4-2.304-5.91-3.583-1.68-1.118-3.244-1.615-5.045-.236-.902.696-2.133 1.028-2.923 1.803-3.576 3.49-7.628 2.976-11.795 1.51-2.115-.745-4.163-1.645-6.236-2.497-1.58-.65-3.06-.53-4.45.477-.548.398-1.141.758-1.62 1.219-3.304 3.184-7.207 3.606-11.375 2.203-2.253-.754-4.403-1.806-6.51-2.895C.532 5.028-.153 3.83.035 3.529c.38-.616 1.322-1.26 2.021-1.25.948.016 1.888.627 2.824.998 1.885.75 3.721 1.659 5.66 2.22 2.328.666 4.588.01 6.275-1.59C20.48.419 24.353.149 28.731 2.46c1.73.908 3.635 1.544 5.52 2.113 2.128.641 4.18.271 6.01-1.034.167-.115.352-.22.507-.344 4.79-3.89 9.265-4.542 14.585-.258 4.94 3.981 8.057 3.475 13.332-.067 1.347-.9 2.812-1.671 4.292-2.339C75.514-.604 79.278.468 81.68 2.89c.57.576 1.08 1.21 1.693 1.735 1.389 1.186 2.912 1.668 4.707.809 2.2-1.057 4.493-1.947 6.64-3.094 4.596-2.458 8.836-2.874 13.251.67 4.475 3.588 5.938 3.383 11.008.492 1.629-.927 3.402-1.661 5.192-2.251 3.525-1.154 6.637.553 9.16 2.375 4.171 3.007 8.023 2.425 12.017.26 5.714-3.098 11.35-3.088 16.918.156 2.775 1.611 5.362 1.258 8.211.195 3.669-1.37 7.114-3.43 11.27-3.418 2.299.01 4.246.613 6.075 1.945 2.692 1.962 5.593 3.136 8.924 1.495.894-.442 1.695-1.054 2.545-1.579.737-.453 1.433-1.112 2.237-1.276.765-.16 1.646.205 2.478.34-.358.625-.616 1.345-1.095 1.863-2.845 3.095-6.686 3.923-11.352 4.544z"/></g></g></svg>