<svg xmlns="http://www.w3.org/2000/svg" width="70" height="44" viewBox="0 0 70 44"><g><g><path fill="#daf1f8" d="M11.077 39.513c-.867-.319-.902-.783-.756-1.69.21-1.356 1.368-2.52.853-4.01-.08-.219-.166-.455-.33-.847-.46.383-.899.601-1.15.938-.56.809-1.017 1.69-1.544 2.527-1.04 1.608-1.888 3.28-2.472 5.11-.119.382-.721.789-1.16.861-.296.028-.666-.517-.983-.836a.858.858 0 0 1-.17-.27c-.636.226-1.144.589-1.62.534-.718-.073-1.3-.435-1.532-1.345-.479-2.036-.071-3.9.999-5.637.853-1.409 1.783-2.753 2.682-4.117.097-.164.233-.327.383-.437 1.519-1.063 2.814-2.317 3.808-3.907.439-.683 1.323-1.128 2.062-1.573 1.244-.764 2.526-1.429 3.786-2.146.15-.092.227-.273.373-.418.533-.546 1.004-1.227 1.64-1.609 1.014-.618 2.164-.992 3.23-1.555 1.629-.846 3.257-1.718 4.818-2.663.884-.545 1.587-1.402 2.503-1.874 1.882-1 3.844-1.864 5.8-2.745 1.314-.591 2.778-.935 3.964-1.708.854-.574 1.707-.764 2.973-.89-.465-.61-.785-1.028-1.203-1.61 1.888.346 3.462-.227 5.158-.737a33.433 33.433 0 0 0 3.314-1.263c.038-.01.093-.063.101-.045 1.017.646 1.798.309 2.428-.591.209.153.41.309.616.472.778-1.373 1.039-1.454 1.86-.763.624-.181 1.062-.264 1.499-.455.658-.31 1.26-.673 1.908-1.01 1.258-.69 1.868-.709 2.909-.281.592-.254.993-.482 1.41-.609 1.125-.391 2.22-.773 3.351-1.082.648-.174 1.332-.227 2.003-.281.687-.063 1.565.417 1.783-.9.12-.028.24-.028.373-.045.102.317.21.626.338.99.405-.31.701-.51.939-.69.562.272 1.11.436 1.546.752.219.164.369.619.343.902-.1.48-.383.927-.574 1.4-.23.545-.285 1.225-1.215 1.072-.153-.027-.436.563-.62.89a2.82 2.82 0 0 0-.273.718c-.529 1.555-1.022 3.146-1.532 4.71.08.047.174.091.272.136.164-.162.338-.29.644-.545-.032.455.078.872-.097 1.063-.91 1.11-.81 1.5.713 1.874.054 1.008.11 2.035.164 3.072 0 .081.008.154.027.227.43.964.945 1.918 1.287 2.927.181.564.063 1.218.173 1.828.182 1.146.437 2.264.775 3.372-.174.764-.548 1.518.274 2.28.154.129.046.81-.156.983-.93.754-.729 1.254.233 1.59-.478 1.2-.843 2.374-1.4 3.447-.352.636-.94 1.226-1.554 1.646-.822.553-1.219-.355-1.493-.83-.402-.708-.547-1.562-.903-2.662-.45.318-.92.537-1.24.909-1.017 1.174-1.77 2.583-3.411 3.146.056.28.109.573.174.972-4.51-.563-7.262-3.045-8.575-7.326a5.446 5.446 0 0 1-.411.072c-.437 1.008-.792 2.046-1.314 3-.473.864-1.12 1.628-1.741 2.51-.255-.1-.53-.211-.885-.364-.233.608-.438 1.163-.656 1.726a4.552 4.552 0 0 1-.212-.264c-.382.236-.843.41-1.115.736-.351.437-.526.792-1.274.593-.71-.201-1.55.073-2.307-.073-1.104-.2-2.354-.364-3.207-.992-.906-.653-1.446-1.844-2.132-2.799-.15-.228-.261-.482-.425-.683-.147-.17-.373-.407-.492-.362-.22.063-.508.271-.539.472-.178.653-.255 1.345-.373 2.01-.275.08-.58.153-.909.254.087.055.187.09.275.153-.526 1.228-1.055 2.475-1.644 3.856-.077.018-.349.018-.624.018-.128.982-.274 1.854-.962 2.562-.414.437-.67 1.038-.999 1.538-.128.209-.283.5-.478.573-1.04.354-2.079 1.027-3.207.236-.091-.073-.228-.038-.352-.028-1.188.046-2.1-.155-2.832-1.382-.655-1.082-1.084-1.999-.724-3.235.097-.31-.15-.692-.252-1.073-.787.563-1.54 1.008-2.188 1.573-1.313 1.208-2.65 2.399-3.84 3.718-.858.935-2.736 1.072-3.704.236-1.236-1.09-1.523-2.364-1.003-3.927zm27.035-9.383c.438.628.918 1.329 1.397 2.02.121-.028.246-.055.364-.083.032-.653.088-1.281.11-1.763.274-.319.483-.581.702-.827-.333-.055-.647-.1-1.055-.136-.094-.364-.24-.82-.36-1.264-.117-.009-.253-.037-.372-.037-.229.618-.47 1.264-.786 2.09zm2.152-12.071c-.031-.729-.045-1.063-.072-1.537-.562.137-.984.238-1.437.336-.013.11-.023.21-.04.31.424.235.839.491 1.55.89zm12.843 3.708c-.108-.736-.209-1.208-.318-1.844-.995.917-.94 1.208.318 1.844z"/></g></g></svg>