<svg xmlns="http://www.w3.org/2000/svg" width="65" height="42" viewBox="0 0 65 42"><g><g><path fill="#daf1f8" d="M63.42 33.836c.275-.113.454-.2.622-.288.284.327.567.656.964 1.091-.306.113-.557.206-.898.33.334.28.645.518.76.626-.134.689-.24 1.26-.37 1.83-.08.318-.148.669-.332.931-.407.555-.869 1.042-1.468 1.756-.83-.804-1.739-1.672-2.748-2.636-1.128.418-1.106.424-1.045 1.93.015.265-.13.578-.307.79-.487.547-1.027 1.052-1.755 1.802-.268-.545-.454-.993-.68-1.427a4.363 4.363 0 0 0-.425-.665c-.376-.44-.764-.87-1.302-1.48.51-.077.723-.092.796-.107-.31-.349-.65-1.081-1.03-1.097-.838-.05-1.066-.51-1.33-1.134-.139-.358-.39-.676-.787-.948.022.225.078.447.068.682.014.529-.048 1.067.016 1.595.13 1.074.057 2.029-.966 2.688-.11.072.004.499.016.738-1.828.57-3.826-.788-3.751-2.483-.151.053-.326.099-.48.143.07-.305.153-.618.243-1.008-.28.026-.586.058-.94.082-.138-.633-.244-1.272-.357-1.918-.061.043-.11.09-.164.13-.342-.466-.751-.894-1-1.416-.52-1.047-.936-2.13-1.41-3.276-.566.475-.53.781-.269 1.351.268.593.158 1.368.14 2.054-.013.126-.411.211-.623.317.522.954.486 1.049-.299 2.48-.114.203.118.607.201.915.063.227.167.44.172.674-.701-.65-1.062-.495-1.553.703-.43-.555-.803-1.04-1.33-1.701-.453-.11-1.219-.02-1.629-1.05-.42-1.09-1.195-2.043-1.872-2.99-.194-.28-.75-.64-.883-.564-.432.288-1.046.736-1.065 1.148-.088 1.43-.469 2.846-.08 4.324.18.644-.196 1.501-.503 2.18-.291.626-1.198.644-1.68.183-.652-.642-1.374-1.234-2.026-1.896-.365-.363-.74-.775-.969-1.225a53.235 53.235 0 0 1-1.709-3.723c-.663-1.566-1.262-3.171-1.887-4.743-.024-.066-.103-.093-.402-.33.31 1.698-.526 2.831-1.483 3.927.084.05.172.09.255.142.22-.09.439-.182.626-.253.1.095.205.145.197.185-.104 1.046-.315 2.099-.265 3.146.057 1.254-1.011.909-1.553 1.223-.857.526-1.764.122-2.529-.447-.419-.296-.931-.635-.396-1.312.06-.07-.234-.61-.322-.597-1.702.16-1.776-1.386-2.156-2.304-1-2.585-1.78-5.26-2.646-7.896-.273-.817-.511-1.627-.792-2.505-.106.145-.216.219-.21.296.165 1.848.322 3.69.49 5.519.029.147.14.291.21.432.275.571.668 1.117.8 1.726.225 1.026.365 2.087.344 3.13-.03 1.056-.268 2.124-.48 3.17-.033.202-.362.428-.584.475-.128.02-.342-.256-.49-.418-.38-.406-.735-.859-1.119-1.266a13.88 13.88 0 0 0-.847-.856c-.953.17-.923-.532-.985-1.142-.059-.624-.136-1.245-.404-1.883-.047.439-.085.861-.145 1.308-.113-.008-.237-.02-.36-.028.066-.77.184-1.531.167-2.288.01-.271-.271-.663-.516-.757-.542-.214-.717-.488-.618-1.073.054-.26-.13-.582-.237-.858-.73-1.592-1.684-3.09-1.907-4.894-.072-.66-.624-1.334-.576-1.944.143-1.472-.63-2.745-.708-4.124-.06-1.251-.772-2.314-.89-3.486-.148-1.447-.949-2.898-.176-4.405.07-.124-.29-.535-.503-.74-.201-.182-.659-.199-.726-.407-.366-1.055-1.104-1.676-2.073-2.16-.28-.158-.4-.664-.66-1.097-.1.131-.306.38-.505.631-.653-.677-.146-1.228.133-1.892C1.154 1.908 2.26.792 3.775.086c.346-.156.85-.057 1.264.039.8.192 1.584.421 2.359.71.896.329 1.759.757 2.645 1.1 1.675.623 3.36 1.203 5.021 1.862 1.496.59 2.942 1.31 4.444 1.897 1.329.514 2.728.896 4.065 1.423 1.634.648 3.24 1.374 4.85 2.062.188.057.377.084.552.091.845.002 1.335.383 1.538 1.133.462.104.9.187 1.356.278-.306.907.202.768.741.91 1.148.291 2.28.746 3.344 1.25 1.73.829 3.409 1.76 5.135 2.608.658.33 1.4.5 2.056.831.338.167.568.536 1.009.955 1.425.194 2.554 1.097 3.104 2.731.108.31.28.768.522.864.685.268 1.411.375 2.122.527.505.108 1.028.197 1.597.304.52-1.523.683-1.664 1.628-1.275-1.274 1.983-1.273 2-.288 2.577-.233.39-.469.774-.699 1.162.057.05.125.091.188.138.1-.086.235-.174.318-.275.32-.443.317-.431.747.047.138.167.416.18.605.296 1.015.651 1.993 1.35 3.015 1.99.272.17.604.213.705.483.135.205.258.543.45.578 1.182.218 1.184.197.529 1.253 1.503.44 2.123 1.703 2.669 2.992 1.017-.18 2.098.943 2.054 2.21zM30.69 14.15c.11-.203.217-.419.333-.616-.463-.287-.922-.613-1.417-.855-.042-.028-.297.356-.44.559.515.293 1.013.605 1.523.912zm19.44 26.377c.083-.03.17-.053.252-.074.145-.338.275-.679.415-1.017l-.149-.259c-.264.143-.72.228-.785.446-.084.233.164.59.267.904z"/></g></g></svg>