<?xml version="1.0" encoding="utf-8"?>
<!-- Generator: Adobe Illustrator 19.0.1, SVG Export Plug-In . SVG Version: 6.00 Build 0)  -->
<svg version="1.1" id="Capa_1" xmlns="http://www.w3.org/2000/svg" xmlns:xlink="http://www.w3.org/1999/xlink" x="0px" y="0px"
	 viewBox="224 -224.6 512 512" style="enable-background:new 224 -224.6 512 512;" xml:space="preserve">
<style type="text/css">
	.st0{fill:#B7E4F1;}
</style>
<g>
	<g>
		<path class="st0" d="M691-163.6H269c-24.8,0-45,20.2-45,45v300c0,24.7,20.1,45,45,45h422c24.7,0,45-20.1,45-45v-300
			C736-143.4,715.9-163.6,691-163.6z M684.8-133.6L481,70.2L275.4-133.6H684.8z M254,175.1v-287.7L398.5,30.7L254,175.1z
			 M275.2,196.4L419.8,51.8l50.7,50.2c5.9,5.8,15.3,5.8,21.2,0L541,52.6l143.8,143.8H275.2z M706,175.1L562.2,31.4L706-112.4V175.1z
			"/>
	</g>
</g>
</svg>
