<svg xmlns="http://www.w3.org/2000/svg" xmlns:xlink="http://www.w3.org/1999/xlink" version="1.1" style="" xml:space="preserve" width="3743" height="3743"><rect id="backgroundrect" width="100%" height="100%" x="0" y="0" fill="none" stroke="none" class="" style=""/>
<style type="text/css">
	.st0{fill:#FFFFFF;}
	.st1{fill:#FFFFFF;stroke:#000000;stroke-miterlimit:10;}
	.st2{clip-path:url(#SVGID_2_);}
	.st3{clip-path:url(#SVGID_2_);fill:#6DCFF6;}
	.st4{clip-path:url(#SVGID_2_);fill:#7ECBEF;}
</style>


<g class="currentLayer" style=""><title>Layer 1</title><g id="Layer_1" class="">
	<g id="svg_2">
		<circle class="st1" cx="1871.3001708984375" cy="1871.3001289367676" r="1871.3001708984375" id="svg_3"/>
		<g id="svg_4">
			<defs transform="translate(-0.533203125,-4.1998291015625) translate(0,-3.3333332538604736) translate(0,-3.3333332538604736) translate(0,6.666666507720947) translate(0,-6.666666507720947) translate(0,-6.666666507720947) translate(0,-6.666666507720947) translate(0,-6.666666507720947) translate(0,6.666666507720947) translate(0,6.666666507720947) translate(0,6.666666507720947) translate(0,6.666666507720947) translate(0,6.666666507720947) translate(0,6.666666507720947) translate(0,6.666666507720947) translate(0,6.666666507720947) translate(0,6.666666507720947) translate(0,6.666666507720947) translate(0,6.666666507720947) translate(0,6.666666507720947) translate(0,-50) translate(-250,-150) translate(-126,-99) translate(146.66665649414062,226.66665649414062) translate(0,-80) translate(20,-99.99999237060547) translate(6.666666507720947,0) ">
				<rect id="SVGID_1_" x="156.89999389648438" y="156.8000030517578" width="3835.5" height="3835.5"/>
			</defs>
			<clipPath id="SVGID_2_" transform="translate(-0.533203125,-4.1998291015625) translate(0,-3.3333332538604736) translate(0,-3.3333332538604736) translate(0,6.666666507720947) translate(0,-6.666666507720947) translate(0,-6.666666507720947) translate(0,-6.666666507720947) translate(0,-6.666666507720947) translate(0,6.666666507720947) translate(0,6.666666507720947) translate(0,6.666666507720947) translate(0,6.666666507720947) translate(0,6.666666507720947) translate(0,6.666666507720947) translate(0,6.666666507720947) translate(0,6.666666507720947) translate(0,6.666666507720947) translate(0,6.666666507720947) translate(0,6.666666507720947) translate(0,6.666666507720947) translate(0,-50) translate(-250,-150) translate(-126,-99) translate(146.66665649414062,226.66665649414062) translate(0,-80) translate(20,-99.99999237060547) translate(6.666666507720947,0) ">
				<use xlink:href="#SVGID_1_" style="overflow:visible;" id="svg_5"/>
			</clipPath>
			<path class="st2" d="M2917.7001198768617,319.6001670837402 c-149.3,-100.9 -314,-180.8 -489.9,-235.5 c-175.8,-54.7 -362.8,-84.1 -556.5,-84.1 c-258.3,0 -504.5,52.4 -728.4,147.1 c-335.9,142.1 -621.5,379.3 -823.3,678 c-100.9,149.3 -180.8,314 -235.5,489.9 c-54.7,175.8 -84.1,362.8 -84.1,556.5 c0,258.3 52.4,504.5 147.1,728.4 c142.1,335.9 379.3,621.5 678,823.3 c149.3,100.9 314,180.8 489.9,235.5 c175.8,54.7 362.8,84.1 556.5,84.1 c258.3,0 504.5,-52.4 728.4,-147.1 c335.9,-142.1 621.5,-379.3 823.3,-678 c100.9,-149.3 180.8,-314 235.5,-489.9 c54.7,-175.8 84.1,-362.8 84.1,-556.5 c0,-258.3 -52.4,-504.5 -147.1,-728.4 C3453.6001198768618,807.0001670837403 3216.4001198768615,521.3001670837402 2917.7001198768617,319.6001670837402 M3702.2001198768617,1871.3001670837402 h-40.6 c0,247.3 -50.1,482.7 -140.7,696.8 c-135.9,321.2 -362.9,594.6 -648.6,787.7 c-142.9,96.5 -300.4,172.9 -468.5,225.2 c-168.1,52.3 -346.9,80.5 -532.4,80.5 c-247.3,0 -482.7,-50.1 -696.8,-140.7 c-321.2,-135.9 -594.6,-362.9 -787.7,-648.6 c-96.5,-142.9 -172.9,-300.4 -225.2,-468.5 c-52.3,-168.1 -80.5,-346.9 -80.5,-532.4 c0,-247.3 50.1,-482.7 140.7,-696.8 C357.70011987686155,853.3001670837402 584.8001198768616,579.9001670837403 870.5001198768616,386.80016708374023 c142.9,-96.5 300.4,-172.9 468.5,-225.2 c168.1,-52.3 346.9,-80.5 532.4,-80.5 c247.3,0 482.7,50.1 696.8,140.7 c321.2,135.9 594.6,362.9 787.7,648.6 c96.5,142.9 172.9,300.4 225.2,468.5 c52.3,168.1 80.5,346.9 80.5,532.4 H3702.2001198768617 z" id="svg_6"/>
			<path class="st2" d="M3158.6001198768618,2088.90016708374 c0,-0.1 0,-0.3000000000000003 0.1,-0.6000000000000006 c0,-0.5 0.1,-1.3 0.2,-2.3 c0.1,-2 0.2,-4.9 0.2,-8.6 c0,-8.1 -0.6000000000000006,-19.6 -3.3,-31.9 c-2.7,-12.3 -7.3,-25.3 -15.3,-36.6 c-5.3,-7.5 -12.1,-14.2 -20.8,-19.5 c-11.6,-7 -26.6,-11.4 -46.4,-11.4 c-2.1,0 -4.2,0 -6.4,0.2 c-16.7,0.8 -30,4.6 -40.9,10.8 c-10.8,6.2 -19.3,14.9 -26,25.6 c-4.5,7.2 -8.3,15.2 -11.5,24.1 c-4.3,11.8 -7.5,25 -10.2,39.1 c-3.6,18.8 -6.3,39.4 -9.2,60.7 c-3.8,28.4 -8.1,58.1 -15.6,87 c-7.4,28.5 -16.6,76 -36,134.7 c-19.4,58.7 -48.8,128.7 -96.8,202.4 c-96,147.3 -266,309.4 -576.4,425.9 c-144,54 -282.2,77.7 -412.7,77.7 c-222.6,0 -423,-68.8 -592,-173.3 c-169,-104.4 -306.7,-244.5 -404.1,-387.1 l0,0 l0,0 c-46.7,-71.6 -88.1,-166.8 -117.8,-276.4 c-29.7,-109.7 -47.8,-233.8 -47.8,-363.5 c0,-149.5 24,-306.3 81.9,-456.5 c57.9,-150.2 149.6,-293.9 285,-417 l0,0 l0,0 c146.8,-126.4 291.3,-212.7 432.4,-267.4 c141.1,-54.7 278.8,-77.8 411.9,-77.8 c194.6,0 468.7,80 590.9,155.1 c122.2,75.1 244,147.7 346.2,276.4 c102.2,128.7 168.2,261.2 212.3,380.2 c29.4,79.4 45.9,149.1 48.9,198.9 v0 c0.4,5.8 0.5,11.4 0.5,16.9 c0,35.4 -7.3,63.7 -20,86 c-12.7,22.3 -30.8,38.5 -52.1,49.9 c-14.2,7.6 -29.8,13.1 -46.2,16.8 c-21.9,5 -45.2,7.1 -68.6,7.1 c-38.3,0 -76.9,-5.4 -109.6,-12.1 c-32.7,-6.7 -59.5,-14.7 -74.5,-19.8 c-4.3,-1.5 -7.6,-2.7 -9.8,-3.6 l-2.1,-0.9 l0.2,-2.2 c14.9,-134.6 21.6,-264.9 24.4,-374.5 v0 c0.4,-16.5 0.6000000000000006,-32.7 0.6000000000000006,-48.4 c0,-76 -4.8,-142.4 -15.7,-198.5 c-10.8,-56.1 -27.6,-101.9 -51.3,-136.7 c-15.8,-23.2 -34.7,-41.6 -57.1,-55.1 c-29.8,-18 -65.8,-27.2 -109.1,-27.2 c-16.4,0 -33.9,1.3 -52.5,4 l0,0 c-31.8,4.5 -58.5,13 -81,24.3 c-22.5,11.3 -40.7,25.5 -55.5,41.6 c-29.6,32.1 -45.5,71.8 -53.4,110.9 c-5.3,26.1 -7.1,51.9 -7.1,74.9 c0,30.5 3.1,56.1 5.2,71.2 l0,0 c11.9,86.8 48.7,190.3 103.2,285.1 c54.4,94.8 126.5,181 208.5,233.4 c13,8 25.2,17.6 38.8,25.1 l1.9,1.1 l-0.4,2.1 c-12.5,62.9 -28.2,125.5 -49.8,192.3 l0,0 c-27.9,84.5 -61.2,151.8 -98.9,203 c-37.7,51.2 -79.7,86.3 -124.9,106.2 c-30.1,13.3 -61.6,19.7 -93.9,19.7 c-34.8,0 -70.7,-7.5 -107.1,-22 h0 l0,0 c0,0 0,0 0,0 c-23,-9.1 -43.5,-23.2 -61.3,-41.6 c-17.8,-18.4 -32.9,-41.1 -45.1,-67.4 c-24.4,-52.7 -37.3,-119.8 -37.3,-196.2 c0,-52.1 6,-108.6 18.5,-167.8 l0,0 c10.7,-49.8 23.6,-94.3 35.6,-133.2 c12,-38.9 23.1,-72.3 29.9,-100.1 c4.6,-18.5 7.3,-34.4 7.3,-47.6 c0,-7.5 -0.9,-14.1 -2.7,-19.9 c-1.9,-5.7 -4.6,-10.6 -8.6,-14.8 c-2.6,-2.8 -5.8,-5.2 -9.6,-7.4 c-5,-2.9 -11.2,-5.2 -18.6,-6.8 c-9.9,-2.3 -21.9,-3.4 -36.5,-3.4 c-4.1,0 -8.3,0.1 -12.8,0.3000000000000003 h0 c-17.1,0.7000000000000006 -31.8,5.8 -44.7,14.7 c-12.9,8.9 -23.9,21.5 -33.3,37.2 c-18.8,31.2 -31,74.4 -38.8,121.9 c-5.2,31.7 -8.4,65.4 -10.5,98.9 c-2.7,44.7 -3.2,89.1 -3.2,128 c0,18.9 0.1,36.5 0.1,52.3 v0 c0,0.2 0,0.4 0,0.7000000000000006 c0,55.1 -2.3,119.6 -12.8,184.8 c-10.5,65.2 -29.3,131.1 -62.4,189 c-22.1,38.6 -50.5,73.6 -87,102.3 l0,0 c-41.1,32.4 -88.1,47.3 -133.8,47.3 c-53.7,0 -105.5,-20.6 -143.9,-57.3 c-38.4,-36.7 -63.4,-89.7 -63.4,-154.2 c0,-11.7 0.8,-23.8 2.5,-36.2 l0,0 c14.3,-102.6 41.5,-196.8 74.1,-289.3 c32.6,-92.5 70.4,-183.4 106.1,-279.4 l0,0 c23,-61.3 56.7,-146.6 84.7,-236.4 c28,-89.7 50.2,-183.9 50.2,-262.8 c0,-29.8 -3.2,-57.5 -10.4,-81.8 c-7.2,-24.3 -18.3,-45.4 -34.3,-62.2 c-10.7,-11.2 -23.5,-20.6 -38.8,-27.8 c-40.4,-19.1 -79,-27.2 -115.9,-27.2 c-32.7,0 -64.1,6.4 -94.2,17.5 c-30,11.1 -58.7,26.7 -86.1,45.2 c-54.6,36.9 -103.7,84.8 -147,128.8 l0,0 c-33.1,33.8 -65.6,68.4 -93.1,103.8 c-27.6,35.4 -50.3,71.5 -64,108.2 c-9.1,24.4 -14.3,49.1 -14.3,74 c0,25.4 5.3,51 17.4,77.1 l0,0 c9.4,20.5 18.7,36 27.9,47.2 c9.2,11.3 18.1,18.3 26.8,22.1 c5.8,2.5 11.5,3.7 17.1,3.7 c7.8,0 15.6,-2.2 23.5,-6.1 c7.8,-3.9 15.7,-9.5 23.4,-16.1 c15.5,-13.3 30.6,-30.9 45,-47.5 c59.8,-70 186.3,-216.6 186.3,-216.6 l0,0 c23.1,-27.1 46,-50.1 67.6,-68.4 c21.6,-18.3 41.7,-31.7 59.4,-39.7 c11.8,-5.3 22.4,-8.1 31.8,-8.1 c5.7,0 11,1.1 15.6,3.4 c4.6,2.3 8.4,5.9 11.3,10.6 c1.9,3.1 3.4,6.8 4.5,10.9 c1.5,5.5 2.2,11.8 2.2,19.1 c0,17.4 -4.2,40 -13.5,68.6 l0,0 c-31.7,98.4 -85.3,216 -137.7,322.4 c-52.3,106.4 -103.4,201.7 -129.7,255 l0,-0.1 l0,0.1 l0,0 c-13.3,26.6 -30.7,58.6 -49.3,95 c-18.7,36.4 -38.6,77.1 -56.9,121.1 c-36.5,87.9 -66.4,188.8 -66.4,293.5 c0,50.3 6.9,101.5 23.2,152.7 c13.8,43.2 32.7,78.8 55.2,107.9 c22.5,29.1 48.6,51.7 77,68.9 c56.7,34.4 122.4,47.4 185.5,47.4 c61.2,0 120.1,-12.2 165.8,-28.7 c34.9,-12.5 68.3,-32.5 100.1,-58.8 c31.8,-26.3 62,-59.1 90.5,-97.1 c57,-76.1 107.2,-173.6 149.9,-283.7 c0.9,-3.2 1.9,-5.9 2.8,-8.2 c1,-2.3 1.9,-4 3.1,-5.4 c0.8,-0.9 1.7000000000000002,-1.7000000000000002 2.9,-2.2 c0.7000000000000006,-0.3000000000000003 1.4,-0.4 2.2,-0.4 c1.1,0 2.1,0.3000000000000003 2.9,0.8 c0.8,0.5 1.5,1.1 2.2,1.8 c1.3,1.4 2.4,3.2 3.5,5.4 c2.2,4.4 4.5,10.4 7,17.9 c5.1,15 11.1,36 19.1,60.1 c15.9,48.2 39.5,108.9 77.6,159.1 c25.4,33.5 57.2,62.4 97.5,80.1 c23,10.1 48.8,16.6 77.9,18.1 c8.6,0.3000000000000003 17.1,0.5 25.4,0.5 c49.9,0 93.3,-6.4 132.1,-21.9 c38.8,-15.5 73,-40 104.6,-76.6 c21,-24.4 40.9,-54.1 60,-90 c25.5,-47.9 49.6,-106.9 73.7,-178.8 l0,0 c41.6,-127.8 55.6,-268.3 73.7,-411.1 l0.5,-3.6 l3.4,1.1 c8.8,2.9 40.4,12.7 83.3,21.8 c42.9,9.1 97.2,17.4 151.6,17.4 c33.7,0 67.5,-3.2 98.4,-11.4 c31,-8.2 59.2,-21.4 82,-41.3 c15.2,-13.3 28.1,-29.5 37.9,-49.4 c13,-26.5 20.5,-59.4 20.5,-100.1 c0,-18.9 -1.6,-39.4 -5,-61.8 v0 c-30.2,-195.5 -124.9,-420.3 -293.6,-615 c-168.7,-194.7 -411.3,-359.3 -737.4,-434.9 l0,0 c-90.3,-20.8 -178.7,-30.5 -264.6,-30.5 c-267.2,0 -510.3,93.1 -710.7,231.8 c-200.4,138.6 -358.2,322.8 -454.7,504.6 c-80.8,162.7 -124.1,362.4 -124.1,568.7 c0,176.9 31.9,358.6 99.1,525.8 c67.3,167.2 169.9,320.1 311.5,439.4 l0,0 c296.4,250.6 600.5,353.5 883.9,353.5 c145.2,0 285,-27 415.6,-75.1 h0 c192.9,-70.8 370.9,-175.5 529.6,-337.1 c158.8,-161.6 298.4,-379.9 342.5,-682 L3158.6001198768618,2088.90016708374 zM2611.9001198768615,1736.6001670837402 l-0.7000000000000006,5.5 l-4.2,-3.7 c-36.7,-32.5 -71.4,-79.4 -110.4,-143.4 l0,0 c-60.3,-97.8 -88.5,-188 -88.5,-267.1 c0,-66.5 19.9,-125.1 57.3,-173.4 l0,0 l0,0 c8.9,-11.7 17.4,-21 25.6,-28.2 c8.2,-7.1 16,-12.1 23.6,-14.9 c5.1,-1.9 10,-2.8 14.9,-2.8 c5.8,0 11.4,1.4 16.7,4.1 c5.2,2.7 10.1,6.6 14.7,11.5 c9.1,10 17,24.2 23.9,42.1 c13.8,35.8 23.8,86.4 30.5,146.4 l0,0 c6.5,62.2 11.1,130.5 11.1,203.8 C2626.4001198768615,1585.7001670837403 2622.3001198768616,1659.4001670837401 2611.9001198768615,1736.6001670837402 " id="svg_7"/>
			<polyline class="st3" points="2122.30029296875,2328.1011962890625 2122.30029296875,2328.1011962890625 2122.30029296875,2328.1011962890625 2122.30029296875,2328.1011962890625 " id="svg_8"/>
			<path class="st4" d="M3535.4001198768615,1397.2001670837403 c-19.4,-68.2 -42.9,-134.7 -70.2,-199.2 c-131.4,-310.7 -350.5,-574.4 -626.5,-760.9 c-138,-93.2 -290.3,-167.1 -453,-217.7 c-162.6,-50.6 -335.6,-77.8 -514.3,-77.8 c-238.3,0 -466.3,48.4 -673.4,136 c-310.7,131.4 -574.4,350.5 -760.9,626.5 c-93.2,138 -167.1,290.3 -217.7,453 c-4.1,13.3 -8.1,26.7 -11.9,40.2 c-42.9,150.8 -65.9,310.1 -65.9,474.2 c0,13.3 0.2,26.6 0.5,39.9 c5.1,223.9 52.8,438 135.6,633.5 c131.4,310.7 350.5,574.4 626.5,760.9 c138,93.2 290.3,167.1 453,217.7 c162.6,50.6 335.6,77.8 514.3,77.8 c238.3,0 466.3,-48.4 673.4,-136 c310.7,-131.4 574.4,-350.5 760.9,-626.5 c93.2,-138 167.1,-290.3 217.7,-453 c46.8,-150.5 73.6,-309.8 77.3,-474.4 c0.3000000000000003,-13.3 0.5,-26.6 0.5,-39.9 C3601.2001198768617,1707.2001670837403 3578.3001198768616,1548.0001670837403 3535.4001198768615,1397.2001670837403 M3319.2001198768617,1611.5001670837403 c8.4,0.1 16.7,0.1 25.1,0.2 c15.4,0.1 30.8,0.2 46.2,0.3000000000000003 c2.3,-7.4 4.7,-14.7 7,-22.1 c4.8,-15.1 9.6,-30.2 14.4,-45.4 c0.1,-0.8 0.5,-1.4 1.2,-1.8 c0.4,-0.2 0.8,-0.3000000000000003 1.3,-0.4 c0,0 0,0 0.1,0 c0,0 0,0 0.1,0 c0.5,0 0.9,0.1 1.3,0.4 c0.6000000000000006,0.4 1.1,1 1.2,1.8 c2.5,7.8 5,15.7 7.5,23.5 c4.7,14.6 9.3,29.3 14,43.9 c7.8,0 15.5,-0.1 23.3,-0.1 c16,-0.1 32,-0.2 48,-0.3000000000000003 c2.7,0 3.2,3.3 1.3,4.6 c-6.8,4.9 -13.6,9.7 -20.4,14.6 c-12.4,8.9 -24.9,17.8 -37.3,26.8 c2.5,7.4 4.9,14.8 7.4,22.2 c5,15.2 10.1,30.4 15.1,45.6 c0.7000000000000006,2 -1.9,4.1 -3.7,2.8 c-6.7,-5 -13.5,-9.9 -20.2,-14.9 c-12.5,-9.2 -24.9,-18.4 -37.4,-27.5 c-6.3,4.6 -12.6,9.3 -19,14 c-12.9,9.5 -25.8,19 -38.7,28.5 c-1.8,1.3 -4.3,-0.8 -3.7,-2.8 c2.6,-7.9 5.3,-15.9 7.9,-23.8 c4.9,-14.7 9.7,-29.3 14.6,-44 c-6.2,-4.5 -12.5,-8.9 -18.7,-13.4 c-13,-9.3 -26,-18.6 -39,-28 C3316.0001198768614,1614.8001670837402 3316.5001198768614,1611.5001670837403 3319.2001198768617,1611.5001670837403 M255.30011987686157,1611.5001670837403 c8.4,0.1 16.7,0.1 25.1,0.2 c15.4,0.1 30.8,0.2 46.2,0.3000000000000003 c2.3,-7.4 4.7,-14.7 7,-22.1 c4.8,-15.1 9.6,-30.2 14.4,-45.4 c0.1,-0.8 0.5,-1.4 1.2,-1.8 c0.4,-0.2 0.8,-0.3000000000000003 1.3,-0.4 c0,0 0,0 0.1,0 c0,0 0,0 0.1,0 c0.5,0 0.9,0.1 1.3,0.4 c0.6000000000000006,0.4 1.1,1 1.2,1.8 c2.5,7.8 5,15.7 7.5,23.5 c4.7,14.6 9.3,29.3 14,43.9 c7.8,0 15.5,-0.1 23.3,-0.1 c16,-0.1 32,-0.2 48,-0.3000000000000003 c2.7,0 3.2,3.3 1.3,4.6 c-6.8,4.9 -13.6,9.7 -20.4,14.6 c-12.4,8.9 -24.9,17.8 -37.3,26.8 c2.5,7.4 4.9,14.8 7.4,22.2 c5,15.2 10.1,30.4 15.1,45.6 c0.7000000000000006,2 -1.9,4.1 -3.7,2.8 c-6.7,-5 -13.5,-9.9 -20.2,-14.9 c-12.5,-9.2 -24.9,-18.4 -37.4,-27.5 c-6.3,4.6 -12.6,9.3 -19,14 c-12.9,9.5 -25.8,19 -38.7,28.5 c-1.8,1.3 -4.3,-0.8 -3.7,-2.8 c2.6,-7.9 5.3,-15.9 7.9,-23.8 c4.9,-14.7 9.7,-29.3 14.6,-44 l-18.7,-13.4 c-13,-9.3 -26,-18.6 -39,-28 C252.10011987686153,1614.8001670837402 252.70011987686155,1611.5001670837403 255.30011987686157,1611.5001670837403 M3131.8001198768616,2403.7001670837403 c-103.7,245.2 -277.4,454.4 -495.8,602 c-109.2,73.8 -229.5,132.1 -357.8,172 c-128.4,39.9 -264.8,61.5 -406.8,61.5 c-189.4,0 -368.8,-38.3 -532.4,-107.4 c-245.2,-103.7 -454.4,-277.4 -602,-495.8 c-73.8,-109.2 -132.1,-229.5 -172,-357.8 c-36.2,-116.3 -57.2,-239.2 -60.9,-366.9 c-0.4,-13.3 -0.6000000000000006,-26.6 -0.6000000000000006,-39.9 c0,-167.1 29.8,-326.6 84.4,-474.2 c7.2,-19.6 14.9,-39 23,-58.2 c103.7,-245.2 277.4,-454.4 495.8,-602 c109.2,-73.8 229.5,-132.1 357.8,-172 c128.4,-39.9 264.8,-61.5 406.8,-61.5 c189.4,0 368.8,38.3 532.4,107.4 c245.2,103.7 454.4,277.4 602,495.8 c60.7,89.9 111,187.3 149.1,290.5 c8.2,22.2 15.8,44.6 22.9,67.3 c39.9,128.4 61.5,264.8 61.5,406.8 c0,13.4 -0.2,26.7 -0.6000000000000006,39.9 C3233.6001198768618,2085.90016708374 3196.1001198768618,2251.7001670837403 3131.8001198768616,2403.7001670837403 " id="svg_9"/>
		</g>
		<g id="svg_10">
			<path class="st0" d="M333.5001198768616,1247.7001670837403 c-5,-1 -6.9,-5.1 -4.6,-9.4 l18.6,-36.6 c1.3,-2.5 4.7,-3.9 7.2,-3.4 l119.6,27 l0.6000000000000006,-1.2 l-85.4,-104.3 c-1.4,-1.9 -2,-4.6 -0.7000000000000006,-7.1 l2.9,-5.6 c1.4,-2.8 3.9,-3.9 6.1,-3.6 l134.6,7.5 l0.6000000000000006,-1.3 l-92.3,-80.7 c-1.9,-1.7000000000000002 -2.8,-5.3 -1.5,-7.8 l18.6,-36.6 c2.2,-4.4 6.6,-5.3 10.4,-1.8 l180,165.8 c2.2,1.9 2.8,5.3 1.5,7.8 l-2.5,5 c-1.1,2.2 -3.8,3.6 -6.1,3.6 l-156.9,-7.8 l-0.5,0.9 l98.9,121.8 c1.4,1.9 1.8,4.9 0.7000000000000006,7.1 l-2.5,5 c-1.3,2.5 -4.4,4 -7.2,3.4 L333.5001198768616,1247.7001670837403 z" id="svg_11"/>
		</g>
		<g id="svg_12">
			<path class="st0" d="M662.4001198768615,722.5001670837403 c48.1,-51 127.6,-53.2 178.6,-5.1 c51,48.1 53.2,127.1 5.1,178.2 c-48.1,51 -126.9,53.4 -177.9,5.3 C617.2001198768615,852.8001670837402 614.3001198768616,773.6001670837402 662.4001198768615,722.5001670837403 zM805.3001198768616,857.1001670837402 c26.4,-28.1 25.1,-72.7 -2.7,-98.9 c-28.1,-26.4 -72.9,-25.3 -99.4,2.7 c-26.2,27.8 -24.6,72.7 3.5,99.1 C734.5001198768616,886.3001670837402 779.1001198768615,885.0001670837403 805.3001198768616,857.1001670837402 z" id="svg_13"/>
		</g>
		<g id="svg_14">
			<path class="st0" d="M925.4001198768615,499.80016708374023 c-1.8,-3 -0.6000000000000006,-7 2.4,-8.8 l4.5,-2.7 c3,-1.8 6.4,-1 10.2,0 l182.1,41.1 l0.3000000000000003,-0.2 l-64.4,-106.5 c-1.8,-3 -1,-7.2 2.3,-9.1 l36,-21.8 c3,-1.8 7.3,-0.7000000000000006 9.1,2.3 l122,201.9 c2.2,3.6 0.6000000000000006,7 -2.4,8.8 l-3,1.8 c-3,1.8 -5.6,2.2 -9.5,1.2 l-187.6,-46.8 l-0.3000000000000003,0.2 l67.6,111.9 c1.8,3 1,7.2 -2.3,9.1 l-35.7,21.6 c-3,1.8 -7.3,0.7000000000000006 -9.1,-2.3 L925.4001198768615,499.80016708374023 z" id="svg_15"/>
		</g>
		<g id="svg_16">
			<path class="st0" d="M1319.3001198768616,301.7001670837402 c-1,-3.4 0.8,-7.2 4.2,-8.2 l82.1,-23.9 c65,-18.9 133.5,18.5 152.3,83.1 c19,65.3 -18.8,133.6 -83.8,152.5 l-82.1,23.9 c-3.4,1 -6.9,-1.3 -7.9,-4.6 L1319.3001198768616,301.7001670837402 zM1459.3001198768616,455.6001670837402 c38,-11.1 53.9,-48.2 42.7,-86.5 c-11.1,-38 -44.3,-60.8 -82.4,-49.8 l-35.3,10.3 l39.6,136.3 L1459.3001198768616,455.6001670837402 z" id="svg_17"/>
		</g>
		<g id="svg_18">
			<path class="st0" d="M1738.6001198768618,212.2001670837402 c-0.1,-3.5 2.5,-6.8 6.4,-6.9 l145,-5.6 c3.9,-0.1 6.8,2.9 6.9,6.4 l1.5,38.2 c0.1,3.5 -2.5,6.8 -6.4,6.9 l-97,3.8 l1.7000000000000002,43.4 l79.9,-3.1 c3.5,-0.1 6.8,2.9 6.9,6.4 l1.5,38.2 c0.1,3.9 -2.9,6.8 -6.4,6.9 l-79.9,3.1 l1.8,47.3 l97,-3.8 c3.9,-0.1 6.8,2.9 6.9,6.4 l1.5,38.2 c0.1,3.5 -2.5,6.8 -6.4,6.9 l-145,5.6 c-3.9,0.1 -6.8,-2.9 -6.9,-6.4 L1738.6001198768618,212.2001670837402 z" id="svg_19"/>
		</g>
		<g id="svg_20">
			<path class="st0" d="M2112.3001198768616,222.60016708374025 c0.7000000000000006,-3.4 4,-6 7.8,-5.2 l102.8,20.4 c43.7,8.7 68.3,48.2 60.2,89.1 c-6.3,31.6 -30.2,53.3 -64.6,59 l29.8,96.7 c1.5,4.9 -2,10 -7.8,8.8 l-45.7,-9.1 c-2.8,-0.5 -4.5,-2.7 -4.9,-4.2 l-27.7,-100.2 l-23.7,-4.7 l-17.4,87.7 c-0.7000000000000006,3.4 -4.4,5.9 -7.8,5.2 l-40.9,-8.1 c-3.8,-0.8 -5.9,-4.4 -5.2,-7.8 L2112.3001198768616,222.60016708374025 zM2198.1001198768618,339.7001670837402 c14.1,2.8 28.4,-6.2 31.6,-22.3 c3.2,-16.2 -6.9,-28.5 -20.9,-31.3 l-50.9,-10.1 l-10.6,53.6 L2198.1001198768618,339.7001670837402 z" id="svg_21"/>
		</g>
		<g id="svg_22">
			<path class="st0" d="M2501.3001198768616,328.40016708374026 c1.5,-3.2 5.3,-4.9 8.8,-3.3 l76.8,35.2 c42.1,19.3 56.8,64.6 39.1,103.1 c-18.1,39.5 -62.2,58.3 -103.9,39.1 l-33.5,-15.3 l-34.3,74.9 c-1.5,3.2 -5.6,4.7 -8.8,3.3 l-37.6,-17.2 c-3.5,-1.6 -4.7,-5.6 -3.3,-8.8 L2501.3001198768616,328.40016708374026 zM2542.2001198768617,455.5001670837403 c13.7,6.3 28.2,-0.2 34.8,-14.5 c6.1,-13.4 1.2,-28 -12.5,-34.2 l-32.2,-14.8 l-22.3,48.8 L2542.2001198768617,455.5001670837403 z" id="svg_23"/>
		</g>
		<g id="svg_24">
			<path class="st0" d="M2928.1001198768618,570.0001670837403 c54.5,44.1 62.6,123.3 18.5,177.8 c-44.1,54.5 -122.8,62.5 -177.3,18.4 c-54.5,-44.1 -62.8,-122.5 -18.7,-177 C2794.8001198768616,534.7001670837402 2873.6001198768618,525.9001670837403 2928.1001198768618,570.0001670837403 zM2804.6001198768618,722.6001670837402 c30,24.3 74.3,19.6 98.4,-10.1 c24.3,-30 19.8,-74.6 -10.2,-98.9 c-29.7,-24 -74.3,-19.1 -98.6,10.9 C2770.2001198768617,654.2001670837402 2774.9001198768615,698.5001670837403 2804.6001198768618,722.6001670837402 z" id="svg_25"/>
		</g>
		<g id="svg_26">
			<path class="st0" d="M3147.2001198768617,870.2001670837403 l-30.2,-40 c-2.3,-3.1 -1.5,-7.2 1.3,-9.3 l30.5,-23 c2.8,-2.1 7,-1.8 9.3,1.3 l93.9,124.2 c2.3,3.1 1.5,7.2 -1.3,9.3 l-30.5,23 c-2.8,2.1 -7,1.8 -9.3,-1.3 l-30.2,-40 l-149.3,112.9 c-2.8,2.1 -7.2,1.5 -9.3,-1.3 l-25.4,-33.6 c-2.1,-2.8 -1.5,-7.2 1.3,-9.3 L3147.2001198768617,870.2001670837403 z" id="svg_27"/>
		</g>
		<g id="svg_28">
			<path class="st0" d="M3155.8001198768616,1192.5001670837403 c1.4,-3.7 3.8,-6 9,-5.7 l32.5,2.8 c5.3,0.6000000000000006 7.7,5.7 6.9,9.9 c-1.9,11.7 -5.9,33.2 3.3,53.3 c5.9,12.7 18.1,18.3 29.2,13.2 c13.4,-6.2 16.5,-21.9 17,-47.6 c0.7000000000000006,-37.8 3.7,-76.6 41.9,-94.2 c31.5,-14.5 74.7,-4.7 97.2,44.3 c15.3,33.1 10.1,66.4 7.5,79.1 c-0.5,4.8 -6.5,6.9 -9.3,6.6 l-32,-4.9 c-4.5,-0.6000000000000006 -9.6,-4.9 -8.7,-13 c1.7000000000000002,-9.7 5.2,-34 -2.6,-50.9 c-6.2,-13.4 -17.2,-15.6 -26.5,-11.4 c-10.5,4.8 -13.1,21.1 -13.6,48.3 c-0.8,34.3 0.3000000000000003,77.8 -42.9,97.8 c-32.8,15.1 -79,2 -100.5,-44.8 C3145.3001198768616,1234.0001670837403 3151.9001198768615,1203.2001670837403 3155.8001198768616,1192.5001670837403 z" id="svg_29"/>
		</g>
		<g id="svg_30">
			<path class="st0" d="M448.9001198768616,2014.00016708374 c3.5,-0.5 7,1.8 7.6,5.6 l21.3,143.9 c0.6000000000000006,3.8 -2.1,7.1 -5.6,7.6 l-37.9,5.6 c-3.5,0.5 -7,-1.8 -7.6,-5.6 l-14.3,-96.3 l-50.1,7.4 l11.8,79.3 c0.5,3.5 -2.1,7.1 -5.6,7.6 l-37.9,5.6 c-3.5,0.5 -7.1,-2.1 -7.6,-5.6 l-11.8,-79.3 l-84.5,12.5 c-3.5,0.5 -7.1,-2.1 -7.6,-5.6 l-6.1,-41 c-0.6000000000000006,-3.8 2.1,-7.1 5.6,-7.6 L448.9001198768616,2014.00016708374 z" id="svg_31"/>
		</g>
		<g id="svg_32">
			<path class="st0" d="M512.6001198768615,2320.50016708374 c3.3,-1.3 7.2,0.1 8.7,3.7 l39,97.6 c16.6,41.4 -3.2,83.8 -42.1,99.3 c-30,12 -61.3,3.7 -84.9,-22.1 l-65,77.8 c-3.3,4 -9.5,3.8 -11.7,-1.8 l-17.3,-43.4 c-1,-2.6 -0.2,-5.2 0.9,-6.4 l69.1,-78 l-9,-22.5 l-83.2,33.2 c-3.3,1.3 -7.4,-0.5 -8.7,-3.7 l-15.5,-38.8 c-1.4,-3.6 0.5,-7.4 3.7,-8.7 L512.6001198768615,2320.50016708374 zM461.0001198768616,2456.50016708374 c5.3,13.4 20.7,20.5 36,14.4 c15.3,-6.1 20.2,-21.3 14.9,-34.7 l-19.3,-48.3 l-50.9,20.3 L461.0001198768616,2456.50016708374 z" id="svg_33"/>
		</g>
		<g id="svg_34">
			<path class="st0" d="M733.7001198768617,2719.90016708374 c41.8,56.5 29.8,135.3 -26.7,177.2 c-56.5,41.8 -134.9,29.9 -176.7,-26.6 c-41.8,-56.5 -30.1,-134.6 26.3,-176.5 C613.2001198768615,2652.1001670837404 691.9001198768615,2663.40016708374 733.7001198768617,2719.90016708374 zM575.5001198768616,2837.00016708374 c23,31.1 67.2,37.7 98,14.9 c31.1,-23 38,-67.4 15,-98.5 c-22.8,-30.8 -67.3,-37.2 -98.4,-14.2 C559.4001198768616,2761.90016708374 552.7001198768615,2806.2001670837403 575.5001198768616,2837.00016708374 z" id="svg_35"/>
		</g>
		<g id="svg_36">
			<path class="st0" d="M750.6001198768615,3099.7001670837403 c2,-2.4 3.6,-3.8 7,-5.2 l182.5,-77.8 l0.4,-0.5 l-59.1,-48.7 c-2.7,-2.2 -3.1,-6.7 -0.9,-9.4 l24.4,-29.6 c2.2,-2.7 6.7,-3.1 9.4,-0.9 l115.3,94.9 c2.7,2.2 3.6,6.1 1.4,8.9 l-1.8,2.2 c-1.3,1.6 -2.3,2.2 -5.9,3.8 l-181.4,81.5 l-0.4,0.5 l59.1,48.7 c3,2.5 3.1,6.7 0.9,9.4 l-24.4,29.6 c-2.2,2.7 -6.4,3.4 -9.4,0.9 l-117.7,-97 c-2.7,-2.2 -3.1,-6.7 -0.9,-9.4 L750.6001198768615,3099.7001670837403 z" id="svg_37"/>
		</g>
		<g id="svg_38">
			<path class="st0" d="M1162.4001198768615,3116.40016708374 c1.6,-3.1 5.5,-4.7 9,-2.9 l129.9,65.6 c3.5,1.7000000000000002 4.5,5.8 2.9,9 l-17.3,34.2 c-1.6,3.1 -5.5,4.7 -9,2.9 l-86.9,-43.9 l-19.7,38.9 l71.5,36.1 c3.1,1.6 4.5,5.8 2.9,9 l-17.3,34.2 c-1.7000000000000002,3.4 -5.8,4.5 -9,2.9 l-71.5,-36.1 l-21.4,42.3 l86.9,43.9 c3.5,1.7000000000000002 4.5,5.8 2.9,9 l-17.3,34.2 c-1.6,3.1 -5.5,4.7 -9,2.9 l-129.9,-65.6 c-3.5,-1.7000000000000002 -4.5,-5.8 -2.9,-9 L1162.4001198768615,3116.40016708374 z" id="svg_39"/>
		</g>
		<g id="svg_40">
			<path class="st0" d="M1455.5001198768616,3241.2001670837403 c0.8,-3.4 4.5,-5.5 7.9,-4.7 l5.1,1.2 c3.4,0.8 5.3,3.7 7.4,7.1 l102.8,156.4 l0.3000000000000003,0.1 l27.7,-121.6 c0.8,-3.4 4.2,-5.9 8,-5 l41.1,9.4 c3.4,0.8 5.8,4.6 5,8 l-52.5,230.6 c-0.9,4.1 -4.5,5.5 -7.9,4.7 l-3.4,-0.8 c-3.4,-0.8 -5.6,-2.4 -7.7,-5.7 l-102.8,-164.3 l-0.3000000000000003,-0.1 l-29.1,127.8 c-0.8,3.4 -4.2,5.9 -8,5 l-40.8,-9.3 c-3.4,-0.8 -5.8,-4.6 -5,-8 L1455.5001198768616,3241.2001670837403 z" id="svg_41"/>
		</g>
		<g id="svg_42">
			<path class="st0" d="M2114.4001198768615,3406.7001670837403 l-96.8,-102.2 c-3.6,-4 -1.8,-10 3.8,-11 l45,-7.9 c2.8,-0.5 4.8,0.9 6.1,2.1 l60.6,62.5 l35.7,-79.4 c0.8,-1.6 1.9,-3.5 5,-4.1 l45,-7.9 c5.5,-1 9.3,4.1 7.3,9.1 l-57.3,128.9 l19.4,110.4 c0.6000000000000006,3.5 -2,7.1 -5.4,7.7 l-41.2,7.2 c-3.8,0.7000000000000006 -7.1,-2 -7.7,-5.4 L2114.4001198768615,3406.7001670837403 z" id="svg_43"/>
		</g>
		<g id="svg_44">
			<path class="st0" d="M2451.5001198768614,3171.1001670837404 c64.2,-28.6 138.6,0.1 167.2,64.3 c28.6,64.2 0,138.1 -64.2,166.8 c-64.2,28.6 -138,0.3000000000000003 -166.6,-63.8 C2359.3001198768616,3274.1001670837404 2387.3001198768616,3199.7001670837403 2451.5001198768614,3171.1001670837404 zM2531.6001198768618,3350.8001670837402 c35.3,-15.7 51.3,-57.5 35.7,-92.5 c-15.7,-35.3 -57.7,-51.6 -93,-35.9 c-35,15.6 -50.8,57.7 -35.1,93 C2454.9001198768615,3350.40016708374 2496.7001198768617,3366.40016708374 2531.6001198768618,3350.8001670837402 z" id="svg_45"/>
		</g>
		<g id="svg_46">
			<path class="st0" d="M2783.4001198768615,2965.50016708374 c22.9,-18.6 55.8,-29.5 87.4,-28.5 c4,-0.1 6.9,3 6.5,6.9 l-2.9,40.4 c-0.6000000000000006,3.7 -3.6,6.1 -7.1,6.3 c-18.1,-1.1 -33,5.1 -46.4,15.9 c-29.7,24.2 -33.3,68.8 -8.9,98.8 c24.2,29.7 68.4,34.5 98.1,10.4 c7.9,-6.4 15.2,-14.2 20.7,-24.1 l-12.9,-15.8 l-17.2,14 c-3,2.4 -7,2 -9.2,-0.7000000000000006 l-21.9,-27 c-2.4,-3 -2,-7 1,-9.4 l54.8,-44.6 c2.7,-2.2 6.9,-1.5 9.1,1.2 l59.9,73.1 c2,2.5 1.8,4.4 1.4,6.1 c0,0 -13.7,40.6 -53.2,72.7 c-54.3,44.1 -132.9,36.5 -177.3,-18 C2721.0001198768614,3088.7001670837403 2729.2001198768617,3009.6001670837404 2783.4001198768615,2965.50016708374 z" id="svg_47"/>
		</g>
		<g id="svg_48">
			<path class="st0" d="M2969.2001198768617,2799.7001670837403 c-2.8,-2.1 -3.5,-6.5 -1.4,-9.3 l25.5,-34.9 c2.3,-3.1 6.5,-3.5 9.3,-1.4 l118.3,86.5 c20.7,15.1 43.1,8.9 57.9,-11.3 c14.9,-20.4 14.3,-44 -6.4,-59.1 l-118.3,-86.5 c-2.8,-2.1 -3.7,-6.2 -1.4,-9.3 l25.5,-34.9 c2.1,-2.8 6.5,-3.5 9.3,-1.4 l120.6,88.1 c43.1,31.5 48.9,91.5 16.2,136.3 c-32.6,44.5 -91.2,56.9 -134.4,25.4 L2969.2001198768617,2799.7001670837403 z" id="svg_49"/>
		</g>
		<g id="svg_50">
			<path class="st0" d="M3168.3001198768616,2489.2001670837403 c-3.3,-1.3 -5.1,-5.1 -3.7,-8.7 l39.1,-97.5 c16.6,-41.4 60.2,-58.4 99,-42.8 c30,12 46.9,39.7 46.2,74.6 l100.8,-11.4 c5.2,-0.6000000000000006 9.5,3.8 7.2,9.3 l-17.4,43.4 c-1,2.6 -3.5,3.9 -5,4 l-103.8,8.7 l-9,22.5 l83.2,33.4 c3.3,1.3 5,5.4 3.7,8.7 l-15.6,38.8 c-1.4,3.6 -5.4,5 -8.7,3.7 L3168.3001198768616,2489.2001670837403 zM3299.6001198768618,2426.40016708374 c5.4,-13.4 -0.8,-29.1 -16.1,-35.3 c-15.3,-6.2 -29.4,1.5 -34.7,14.8 l-19.4,48.3 l50.9,20.4 L3299.6001198768618,2426.40016708374 z" id="svg_51"/>
		</g>
		<g id="svg_52">
			<path class="st0" d="M3328.3001198768616,2125.3001670837402 l-7.7,49.7 c-0.6000000000000006,3.8 -4.1,6.1 -7.6,5.6 l-37.9,-5.9 c-3.5,-0.5 -6.2,-3.8 -5.6,-7.6 l23.9,-154.2 c0.6000000000000006,-3.8 4.1,-6.1 7.6,-5.6 l37.9,5.9 c3.5,0.5 6.2,3.8 5.6,7.6 l-7.7,49.7 l185.5,28.7 c3.5,0.5 6.1,4.1 5.6,7.6 l-6.4,41.7 c-0.5,3.5 -4.1,6.1 -7.6,5.6 L3328.3001198768616,2125.3001670837402 z" id="svg_53"/>
		</g>
		<g id="svg_54">
			<defs transform="translate(-0.533203125,-4.1998291015625) translate(0,-3.3333332538604736) translate(0,-3.3333332538604736) translate(0,6.666666507720947) translate(0,-6.666666507720947) translate(0,-6.666666507720947) translate(0,-6.666666507720947) translate(0,-6.666666507720947) translate(0,6.666666507720947) translate(0,6.666666507720947) translate(0,6.666666507720947) translate(0,6.666666507720947) translate(0,6.666666507720947) translate(0,6.666666507720947) translate(0,6.666666507720947) translate(0,6.666666507720947) translate(0,6.666666507720947) translate(0,6.666666507720947) translate(0,6.666666507720947) translate(0,6.666666507720947) translate(0,-50) translate(-250,-150) translate(-126,-99) translate(146.66665649414062,226.66665649414062) translate(0,-80) translate(20,-99.99999237060547) translate(6.666666507720947,0) ">
				<rect id="SVGID_3_" x="156.89999389648438" y="156.8000030517578" width="3835.5" height="3835.5"/>
			</defs>
			<clipPath id="SVGID_4_" transform="translate(-0.533203125,-4.1998291015625) translate(0,-3.3333332538604736) translate(0,-3.3333332538604736) translate(0,6.666666507720947) translate(0,-6.666666507720947) translate(0,-6.666666507720947) translate(0,-6.666666507720947) translate(0,-6.666666507720947) translate(0,6.666666507720947) translate(0,6.666666507720947) translate(0,6.666666507720947) translate(0,6.666666507720947) translate(0,6.666666507720947) translate(0,6.666666507720947) translate(0,6.666666507720947) translate(0,6.666666507720947) translate(0,6.666666507720947) translate(0,6.666666507720947) translate(0,6.666666507720947) translate(0,6.666666507720947) translate(0,-50) translate(-250,-150) translate(-126,-99) translate(146.66665649414062,226.66665649414062) translate(0,-80) translate(20,-99.99999237060547) translate(6.666666507720947,0) ">
				<use xlink:href="#SVGID_3_" style="overflow:visible;" id="svg_55"/>
			</clipPath>
		</g>
	</g>
</g></g></svg>