<?xml version="1.0" encoding="utf-8"?>
<!-- Generator: Adobe Illustrator 19.0.1, SVG Export Plug-In . SVG Version: 6.00 Build 0)  -->
<svg preserveAspectRatio="none" version="1.1" xmlns="http://www.w3.org/2000/svg" xmlns:xlink="http://www.w3.org/1999/xlink" x="0px" y="0px"
	 viewBox="0 0 1920 186.4" style="enable-background:new 0 0 1920 186.4;" xml:space="preserve">
<style type="text/css">
	.st0{clip-path:url(#SVGID_2_);fill:#888888;}
</style>
<g id="Layer_2">
</g>
<g id="Layer_1">
	<g>
		<defs>
			<rect id="SVGID_1_" width="1920" height="186.4"/>
		</defs>
		<clipPath id="SVGID_2_">
			<use xlink:href="#SVGID_1_"  style="overflow:visible;"/>
		</clipPath>
		<path class="st0" d="M360.6,13.9c-2.1,1.2-4.3,1.1-6.5,0.1C356.2,13,358.4,13.2,360.6,13.9z M380,14.4c3.1,1.3,5.3,0.9,7.6,0
			C385.3,14.5,383.1,12.5,380,14.4z M1445.3,145.3c-1.9-1.2-3.4-3.2-6-2.7C1441.1,144.1,1442.9,145.4,1445.3,145.3z M374.9,13.8
			c-3.4-0.7-5.4-0.7-7.5,0.2C369.6,14.9,371.6,15.2,374.9,13.8z M1550.4,174c2.1,0.8,4.2,1.9,7.6,0.1
			C1554.6,173.1,1552.5,173.1,1550.4,174z M768.4,174.1c2,1.5,4.1,1.3,7.7,0.7C772.6,173.2,770.5,173,768.4,174.1z M1181.3,23.4
			c-3.5-1.5-5.7-1.1-7.8-0.4C1175.5,24,1177.6,24.3,1181.3,23.4z M1304.1,57.9c1.9,1,3.8,2.1,5.8,3.1
			C1308.7,58.9,1306.9,57.3,1304.1,57.9z M1299,54.1c-2.1-2-4.3-2.8-6.7-3.1C1294.1,52.6,1295.9,54.3,1299,54.1z M682.2,150.1
			c1.8,1.5,3.6,3.1,6.2,2.7C686.5,151.4,684.7,149.8,682.2,150.1z M1186.9,23.2c2,1.6,4.3,1,6.5,0.6
			C1191.2,22.8,1189.1,22.2,1186.9,23.2z M1808.5,109.7c-2.2,0.8-4.7,1.1-6,3.3C1805,112.5,1807.2,111.9,1808.5,109.7z M885.7,144.9
			c-2.2,0.1-4.1,1.1-5.6,2.9C882.3,147.7,884.3,146.9,885.7,144.9z M402.2,15c-3.5-1.1-5.7-1.7-8-0.6
			C396.4,15.5,398.6,15.4,402.2,15z M1910.3,49c-1.8,1.2-4.1,1.9-4.6,4.8c1.8-1.3,3.6-2.5,5.4-3.8
			C1910.8,49.6,1910.6,49.3,1910.3,49z M525.3,50c1.7,1.7,3.6,3.1,7.5,3.4C529.7,51.3,527.7,50.1,525.3,50z M-8.3,107.5
			c2.1-0.9,4.1-1.8,6.2-2.8C-4.9,104.1-7,105-8.3,107.5z M793.6,173.9c2.2,0.5,4.5,0.6,6.7-0.5C797.9,172.3,795.8,173.1,793.6,173.9
			z M1253.2,34.6c2.8,2.2,5.1,2.8,7.6,2.6C1258.9,35.7,1256.7,34.7,1253.2,34.6z M1831.9,97.2c-1.9,1.3-4.3,1.7-5.4,4.4
			c2.1-1.1,4.1-2.1,6.2-3.2C1832.5,98.1,1832.2,97.7,1831.9,97.2z M187.3,36.5c-2.1,0.9-4.6,0.2-7.3,3.3c3.4-0.9,5.5-1.4,7.7-2
			C187.5,37.3,187.4,36.9,187.3,36.5z M1085.8,36.2c-3.4,0.1-5.4,1-7.1,2.5C1080.9,38.6,1083.3,38.5,1085.8,36.2z M1131.6,25.9
			c2.8,0.7,5,0.6,7.7-1.3C1136.1,24,1134,24.6,1131.6,25.9z M1878.9,70.9c-3.3,1.2-5.3,2.3-6.6,4.4
			C1874.6,74.6,1876.8,73.8,1878.9,70.9z M1942.6,26c-2,1.3-4.6,1.9-6.1,5.7C1939.4,29.5,1941.9,28.7,1942.6,26z M1843.7,92.3
			c-0.2-0.4-0.5-0.7-0.7-1.1c-1.9,1.1-3.8,2.2-5.8,3.3C1840.2,95,1842,93.7,1843.7,92.3z M1022.4,63.4c-1.9,1-3.9,1.9-5.8,2.9
			C1019,66.9,1021.2,66.1,1022.4,63.4z M1570.8,173.4c-3.4,0-5.5,0-7.6,0C1565.3,175.3,1567.4,174.8,1570.8,173.4z M1434.1,138.3
			c-1.7-1.4-3.5-2.6-6.2-2.3c1.9,1.1,3.7,2.2,5.6,3.3C1433.7,139,1433.9,138.6,1434.1,138.3z M891.3,142.2c2.2-0.6,4.4-1.2,6.6-3.8
			C894.7,139.2,892.7,140.1,891.3,142.2z M676.9,146.5c-1.6-1.6-3.3-3-5.8-2.9C672.8,145,674.4,146.6,676.9,146.5z M299.6,16.9
			c2.3,0.2,4.6,1,7.5-1.1C303.9,15.4,301.7,16.1,299.6,16.9z M414.6,16.4c-2.2-0.2-4.4-0.3-6.6-0.5c0,0.4,0,0.9,0,1.3
			c2.2,0.1,4.4,0.3,6.6,0.4C414.6,17.2,414.6,16.8,414.6,16.4z M292.5,17.2c-2,0.4-4,0.8-6,1.2C288.9,19.1,291.1,19.7,292.5,17.2z
			 M421.7,18.1c2.1,0.3,4.2,0.7,6.3,1C426.1,16.9,423.9,17.2,421.7,18.1z M279.9,19.6c-2.6-0.6-4.5-0.1-7.5,1.6
			C275.8,21.3,277.9,21.5,279.9,19.6z M434.7,19.6c2.3,1.2,4.3,2,7.4,1.3C439.5,19.5,437.4,18.7,434.7,19.6z M266.3,21.6
			c-2.6-0.8-4.7-0.3-7.3,1.3C262,23.6,264,23,266.3,21.6z M448.4,22.8c1.9,1.8,4.1,1.8,7.6,2.2C452.9,22.8,450.6,22.9,448.4,22.8z
			 M1152.7,22.7c-2.3,0.2-4.5,0.5-6.8,0.7C1148.3,24.1,1150.6,24.8,1152.7,22.7z M1716.1,148.8c3.5-1,5.9-1.1,7.5-3.3
			C1721.4,145.8,1719,145.9,1716.1,148.8z M1469.4,156.3c-2.4-1.9-4.4-2.8-6.9-2.6C1464.4,155,1466.1,156.7,1469.4,156.3z
			 M863.2,156c-3.3,0-5.2,1-6.9,2.7C858.6,158.7,860.7,158,863.2,156z M233.4,28c2.3,0.6,4.1-0.8,6.2-1.3
			C235.8,26.2,235.8,26.2,233.4,28z M1686.1,157.1c-2.2,0.3-4.7-0.3-7,2.1C1682.2,159.2,1684.3,158.5,1686.1,157.1z M712.4,162.7
			c-1.8-1.3-3.7-2.4-6-2C708.2,162.2,710.1,163.1,712.4,162.7z M1220.8,27.1c-1.9-1-4-1-6.2,0c2,0.4,4,0.9,5.9,1.3
			C1220.5,27.9,1220.6,27.5,1220.8,27.1z M725.1,166.1c-2.3-1.8-4.5-2.3-6.9-2.1C720.1,165.4,722.1,166.6,725.1,166.1z
			 M1506.5,168.9c-2.6-2.1-4.9-2-7.1-2C1501.3,168.4,1503.4,169,1506.5,168.9z M736.9,168.9c-2.2-0.6-4.3-1.1-6.5-1.7
			C732.1,169.4,734.3,169.8,736.9,168.9z M819.5,170.1c2.3,0.7,4-1.1,6.1-1.4C821.7,168.3,821.7,168.3,819.5,170.1z M1635,167.7
			c-2.8-0.6-4.9-0.7-6.9,1.2C1630.7,169.7,1632.6,168.8,1635,167.7z M1614.7,171c3,0.4,5.2,0.6,7.4-1.3
			C1619.4,168.8,1617.4,169.7,1614.7,171z M1097.9,32.9c-2.4,0-4.7,0.1-7,2.1C1093.8,35.2,1096,34.6,1097.9,32.9z M193.9,36
			c2.8,0.5,4.8-0.6,6.8-1.8C198.4,34.2,196,33.8,193.9,36z M749.6,171.8c-1.9-2.2-4.3-1.5-6.7-1.3
			C744.9,171.2,746.9,172.8,749.6,171.8z M1925.7,38.7c3.4-0.5,4.9-2.3,6.2-4.2C1929.5,35,1927.9,36.5,1925.7,38.7z M500.4,38.8
			c2,1.1,3.7,2.9,6.4,2.1C504.7,40,503,38.2,500.4,38.8z M813.3,170.7c-2.7-0.9-4.8-0.3-7.6,1.2
			C808.9,172.6,810.9,171.9,813.3,170.7z M1608.5,170.2c-2,0.4-3.9,0.8-5.9,1.2c2.2,0.7,4.3,1.5,6.1,0.2
			C1608.7,171.1,1608.6,170.7,1608.5,170.2z M1064.7,44.5c3.6-0.6,5.7-1.4,7.4-2.9C1069.6,41.4,1067.5,42,1064.7,44.5z M1921.2,41.8
			c-1.8,1.3-4.2,1.9-4.6,4.9c1.8-1.3,3.6-2.6,5.4-4C1921.8,42.4,1921.5,42.1,1921.2,41.8z M154.5,46.2c3.1-0.3,5.4-0.5,8-2.8
			C159.3,43.7,157,43.9,154.5,46.2z M1537.1,174c2.1,0,4.1,0,6.2,0C1541.2,173,1539.2,172.3,1537.1,174z M1053.3,48.8
			c3.6-0.4,3.6-0.4,6.6-2.7C1056.1,46.6,1056.1,46.6,1053.3,48.8z M1039.6,54.4c3.4-0.2,5.3-1.5,7.1-3.2
			C1044.4,51.4,1042.2,52.1,1039.6,54.4z M542.9,59.6c-1.5-1.9-3.5-2.9-5.8-3.1C538.7,58.2,540.5,59.5,542.9,59.6z M549.3,63.4
			c1.2,2.2,3.3,3,6.5,4.4C553.7,64.6,551.5,64,549.3,63.4z M1322.8,67.8c-2.1-3.2-4.3-3.8-6.5-4.4
			C1317.5,65.6,1319.6,66.3,1322.8,67.8z M78.7,71.5c2-0.8,4-1.5,6.1-2.3C82.3,68.7,80,68.9,78.7,71.5z M559.6,69.5
			c2,2.3,4,3.3,6.2,3.6C564.3,71.4,562.7,69.8,559.6,69.5z M1004,74.1c3.3-1.6,5.4-2.2,6.6-4.4C1008.4,70.3,1006.3,71,1004,74.1z
			 M1327.8,70.3c1.4,2.2,3.1,3.8,6,3.2C1331.8,72.5,1329.8,71.4,1327.8,70.3z M73.4,73.1C70,73.2,68,74,64.6,76.1
			C68.4,76.1,70.4,75.1,73.4,73.1z M577.9,79.9c-1.8-1.2-3.7-2.4-5.5-3.7C573.4,78.8,575.2,80.2,577.9,79.9z M1000,76.3
			c-3.2,0.2-4.9,2-6.6,3.6C995.8,79.6,997.8,78.5,1000,76.3z M1866.4,78.7c-2.4,0.4-4.4,1.4-6.3,3.4
			C1863.3,82.1,1864.9,80.5,1866.4,78.7z M46.8,83.1c-2.3,0.4-4.6,0.8-6.2,2.8C43,85.6,45.3,85.2,46.8,83.1z M981,87.5
			c3.4-0.3,5.1-1.9,6.6-3.8C985.2,84.1,983.3,85.3,981,87.5z M1900.2,57.5c-2.5,0.2-4.2,1.9-5.8,3.6
			C1896.9,60.8,1898.7,59.4,1900.2,57.5z M594.2,91.9c1.3,2,3.1,3.3,5.5,3.9C598.3,93.7,596.6,92.3,594.2,91.9z M1368.1,95.1
			c-1.8-1.3-3.7-2.5-5.5-3.8C1363.5,93.9,1365.2,95.4,1368.1,95.1z M611.1,103.2c-1.8-1.3-3.7-2.6-5.5-3.8
			C606.5,101.9,608.3,103.3,611.1,103.2z M1379.6,104.4c-2.1-2.9-4.1-3.9-6.4-4.5C1374.7,101.8,1376.3,103.4,1379.6,104.4z
			 M622.4,112c-1.9-2.4-3.8-3.5-6.1-4.2C617.6,109.9,619.2,111.5,622.4,112z M633.8,119.4c-2.3-2.8-4.2-4-6.6-4.5
			C628.7,116.8,630.3,118.4,633.8,119.4z M1791,119.6c2-1,4-2.1,6-3.1c-0.2-0.3-0.4-0.7-0.6-1c-2,1-4.1,1.9-6.1,2.9
			C1790.6,118.8,1790.8,119.2,1791,119.6z M932.8,117.8c-3.6,1.2-5.5,2.4-7.8,4.6C928.4,122.1,930.1,120.6,932.8,117.8z M1404.9,121
			c2.3,2.9,4.4,3.9,6.8,4.5C1410.3,123.5,1408.4,122.2,1404.9,121z M1772.5,125.6c-2.2,0.7-4.6,1.1-5.9,3.8c2.1-0.9,4.2-1.8,6.3-2.7
			C1772.8,126.4,1772.7,126,1772.5,125.6z M1422.4,132.1c-1.6-1.7-3.3-3.2-5.9-3.4C1418.1,130.5,1419.9,132.1,1422.4,132.1z
			 M654.9,132.8c-1.9-1.2-3.7-2.4-5.6-3.6C650.3,131.8,652.1,133,654.9,132.8z M1754,134.1c3,0.1,5-1.1,6.7-2.9
			C1758.4,131.6,1756,131.8,1754,134.1z M908.6,132.8c-2.3,0.4-4.3,1.2-6.1,3.6C905.5,135.8,907.2,134.5,908.6,132.8z M167.3,43.1
			c2.8,0.2,4.9-0.4,6.7-2.2C171.7,41.3,169.3,40.8,167.3,43.1z M320.2,15.3c-2.7-0.8-4.6,0-6.5,0.6
			C315.7,16.2,317.8,16.9,320.2,15.3z M942.2,110.9c-2,1.2-3.9,2.5-5.9,3.7C939.2,114.7,941.2,113.6,942.2,110.9z M583.4,84.5
			c-0.2,0.3-0.5,0.7-0.7,1c1.9,1.2,3.7,2.5,5.6,3.7C587.3,86.7,585.5,85.4,583.4,84.5z M245.9,24.9c2.9,0.7,4.8-0.2,6.5-1.4
			C250.2,23.3,248.1,23.1,245.9,24.9z M1200.4,25.2c2.1,0.1,4.2,0.2,6.3,0.3c0-0.4,0.1-0.7,0.1-1.1c-2.1-0.2-4.2-0.4-6.3-0.6
			C1200.4,24.3,1200.4,24.7,1200.4,25.2z M460.2,25.3c2.9,2.5,5.2,2.8,8.1,2.8C466,25.8,463.6,26,460.2,25.3z M1124.4,26.4
			c-2.1,0.1-4.2-0.6-6.5,1.6C1120.7,28.6,1122.6,27.6,1124.4,26.4z M1356.7,89.6c-1.7-3.5-4-4.1-6.2-5
			C1351.6,86.9,1353.7,87.8,1356.7,89.6z M1450.7,148c1.7,1.6,3.5,2.8,5.9,2.8C1455,149,1453,148.1,1450.7,148z M1111.6,29.1
			c-2.1,0.4-4.5-0.4-6.9,2.2C1107.8,31.2,1109.9,30.8,1111.6,29.1z M1227.1,28.7c2.1,2,4.5,1.5,6.7,1.5
			C1231.7,29.6,1229.8,27.8,1227.1,28.7z M207.1,33c2.6,0.7,4.5-0.9,6.5-1.5C211.3,31.2,209,30.9,207.1,33z M1247.9,33.9
			c-2.2-1.9-4.5-1.7-6.7-1.8C1243.2,33.1,1245.1,34.6,1247.9,33.9z M1028.8,60.4c2.2-1,4.4-1.5,6.5-4.2
			C1030,58.1,1030,58.1,1028.8,60.4z M1273.5,41.8c-1.9-1.1-3.7-2.6-6.1-2C1269.3,40.7,1271,42.5,1273.5,41.8z M694,156.7
			c1.9,0.8,3.8,1.6,5.7,2.4c-1.2-2.6-3.3-3-5.3-3.7C694.2,155.9,694.1,156.3,694,156.7z M512.6,43.9c1.7,1.8,3.7,2.9,7,3.4
			C517.1,44.8,514.9,44.1,512.6,43.9z M977.7,90c-3.6,0.7-5.3,2.5-7.1,4C973.3,93.9,975.1,92.5,977.7,90z M1883.3,68.4
			c2-1,4.3-1.4,5.2-4C1886.6,65.3,1884.3,65.9,1883.3,68.4z M1814.4,106.9c2.4-0.4,4.5-1.3,7-3.7C1818,103.8,1816,105,1814.4,106.9z
			 M1749.4,136c-3.1,0.1-5.2,1.1-7,2.8C1744.8,138.7,1747.1,138.3,1749.4,136z M666.5,140.3c-2.4-2.2-4.2-3.6-6.7-3.6
			C661.5,138.2,663.2,139.9,666.5,140.3z M953.6,104.6c-2.2,0.6-4.2,1.6-5.3,3.7C950.5,107.5,952.6,106.8,953.6,104.6z
			 M1711.7,149.4c-2.8-0.1-4.6,0.9-6.5,2.2C1707.2,151.3,1709.6,151.8,1711.7,149.4z M1698.5,153.3c-2.4-0.3-4.7-0.4-5.9,2.2
			C1694.6,154.7,1696.6,154,1698.5,153.3z M1384.1,106.9c1.3,2.1,3.2,3.3,5.5,3.9C1388.4,108.6,1386.5,107.3,1384.1,106.9z
			 M867.3,154.2c2.9-0.1,4.8-1.4,6.5-3.1C871.6,151.6,869.2,151.9,867.3,154.2z M1673.8,160.9c-0.1-0.4-0.2-0.8-0.4-1.3
			c-2,0.9-4.4,0-7.1,3.1C1669.7,161.9,1671.8,161.4,1673.8,160.9z M1856.4,84.3c-3.4,0.3-5.2,2-6.9,3.6
			C1852,87.7,1853.9,86.5,1856.4,84.3z M1486.6,163.4c2.1,0.5,3.7,2.3,7.3,1.6C1491.1,163.6,1489.1,162.5,1486.6,163.4z M1401,118
			c-1.8-1.2-3.6-2.5-5.4-3.7C1396.5,116.8,1398.1,118.3,1401,118z M831.4,167.1c2.2-0.6,4.7-0.2,6.4-2.5
			C835.5,165.2,833,164.7,831.4,167.1z M1640.6,166.9c2.7,0.9,4.6-0.9,6.7-1.3C1645.1,165.6,1642.7,164.5,1640.6,166.9z
			 M1339.4,77.6c1.1,2.2,3.2,3.1,5.4,3.8C1343.7,79.2,1341.6,78.3,1339.4,77.6z M21.6,92.5c-1.8,0.8-3.7,1.6-5.5,2.4
			C18.5,95.8,20.4,94.9,21.6,92.5z M1778.4,124.2c3,0,4.7-1.4,6.4-3C1782.6,121.5,1780.4,121.9,1778.4,124.2z M9.5,98.4
			c-2.1,0.4-4.4,0.6-6,2.9C6.3,101,8.1,100,9.5,98.4z M1517.9,170.9c-2-1.9-4.1-1.8-7.4-1.2C1513.4,170.5,1515.3,171.9,1517.9,170.9
			z M637.7,123.4c1.9,1.3,3.5,3,6.4,2.6c-1.9-1.2-3.8-2.5-5.7-3.7C638.2,122.7,638,123.1,637.7,123.4z M914.4,128.9
			c2.4-0.4,4.3-1.4,5.5-3.4C917.6,126,915.7,127,914.4,128.9z M959.3,101.2c2.3-0.5,4.3-1.5,6.1-3.9
			C962.4,97.9,960.6,99.2,959.3,101.2z M1530.8,172.8c0-0.4,0.1-0.8,0.1-1.2c-2.1-0.5-4.3-0.7-6.5,0.4
			C1526.5,172.3,1528.6,172.6,1530.8,172.8z M59.9,78.9c-2.6-0.5-4.9,0-6.2,2.5C55.7,80.6,57.8,79.7,59.9,78.9z M28.5,91.3
			c2-0.8,4-1.6,6-2.4C31.8,88.1,29.7,88.8,28.5,91.3z M128.4,54.1c3.1-0.1,5.1-0.7,8.5-2.6C133.2,51.3,131.1,52,128.4,54.1z
			 M141.4,50.5c3.1-0.9,5.4-0.9,7-2.8C146.2,47.9,143.8,47.6,141.4,50.5z M1286.1,46.8c-2-0.6-3.5-2.4-6.2-1.1
			c1.9,0.8,3.8,1.6,5.8,2.4C1285.8,47.7,1285.9,47.3,1286.1,46.8z M851.1,160.3c-3-0.1-4.9,1-6.7,2.5
			C846.6,162.5,848.9,162.6,851.1,160.3z M487,34.5c2.1,1.7,4.2,2.2,6.6,2.4C491.9,35.2,489.9,34,487,34.5z M1654,164
			c2.6,0.7,4.5-0.4,6.4-1.3C1658.2,162,1656.2,162.3,1654,164z M1729.5,143.3c3.1-0.4,5.1-1.1,6.9-2.7
			C1734.1,140.6,1731.8,140.8,1729.5,143.3z M102.6,62.6c3.3-0.6,5.4-1.1,7.1-2.9C107.4,59.9,105.2,60.1,102.6,62.6z M98.2,64.5
			c-3.1-0.4-5.1,0.7-7.9,2.6C93.6,67,95.8,66.3,98.2,64.5z M755.4,173.1c2,0.1,4,0.2,6,0.3c0-0.3,0.1-0.7,0.1-1c-2-0.2-4-0.4-6-0.6
			C755.5,172.2,755.4,172.7,755.4,173.1z M1589.6,173.4c2-0.1,4-0.2,6-0.3C1593.5,172,1591.5,171.8,1589.6,173.4z M123.1,55.2
			c-2.9,0-4.8,1-6.6,2.5C118.5,57.2,121,57.7,123.1,55.2z M-15.4,109.6c-1.9,0.9-4.1,1.2-5.1,3.9c1.9-0.9,3.8-1.9,5.7-2.8
			C-15,110.3-15.2,110-15.4,109.6z M1481.7,161.1c-2.7-2-4.8-3.1-7.9-2.7C1476.2,160.1,1478.3,161,1481.7,161.1z M781.4,174.6
			c2-0.1,3.9-0.3,5.9-0.4c0-0.3-0.1-0.5-0.1-0.8c-1.9,0-3.8,0-5.7,0C781.4,173.8,781.4,174.2,781.4,174.6z M227,28.5
			c-2.9-0.5-4.9-0.2-6.9,1.4C222.7,30.7,224.6,29.9,227,28.5z M481.8,31c-2.5-1.4-4.4-2.2-7.9-2.3C476.8,30.8,478.7,31.7,481.8,31z
			 M339.4,14.2c2.9,0,4.9,0,7,0C344.2,13.4,342.2,12.8,339.4,14.2z M1159.3,23.5c2-0.1,4-0.2,6.1-0.3
			C1163.2,22.4,1161.2,21.8,1159.3,23.5z M333.3,14.7c-2.3-0.9-4.3-0.6-7.7,0.1C328.9,15.5,331,15.7,333.3,14.7z M1582.1,174
			c-1.9-0.9-3.7-1.1-5.8,0C1578.5,174,1580.3,174,1582.1,174z"/>
	</g>
</g>
</svg>
