<svg preserveAspectRatio="none" xmlns="http://www.w3.org/2000/svg" width="100%" height="100%" viewBox="0 0 1370 688"><defs><mask id="3qwrb" width="2.01" height="2.03" x="-1.01" y="-1.01"><path fill="#fff" d="M23 21h1313v627H23z"/><path d="M66.606 193.397l-6.73-.945c1.552-2.23 2.328-4.501 2.46-6.003.584.685 1.81 1.458 3.368 2.276 1.36 1.286 1.942 2.744.902 4.672zm807.65-164.352c2.108-.022 4.176-.022 6.251-.044 2.878 1.396 4.243 3.347.226 3.777l-1.068-.73C877.173 39.79 897.5 34.727 897.148 40c28.221-.492 55.74 3.689 82.186 3.926l-3.11-5.98 9.229.298c2.426 1.391 3.302 4.694-3.268 4.461 3.46 3.385 11.005-2.898 11.164-4.185 12.888 2.363-4.986 7.013-1.034 7.14l5.376-.47-1.233-.706c4.336-2.469 4.694-5.06 12.596-4.805 5.012 1.182 2.619 3.69 4.594 3.927-.033.425.65.619 3.01.17l11.622.449-4.694-4.717c5.04-2.325 10.775.122 5.725-4.925 8.377 7.936 43.166 2.59 48.008 5.118 7.153-3.495 14.28-3.451 23.084-3.087-2.201-.965-3.56-6.283 4.044-5.682-2.58 10.699 13.092 5.048 19.667 11.97-2.767-4.29 21.79-1.09 13.447-8.176 6.345.86.425 4.12 5.277 6.67 15.023-4.334 33.314 2.613 51.956 1.072.259-1.436-2.877-3.623 1.1-5.81l9.938 7.18c3.693-.729 3.302-8.36 10.104-3.364-.975-1.224-2.433-3.047.06-3.517 29.494 5.511 59.89-1.844 90.088 1.888-3.626 1.608-6.344 4.417-8.804-.149l-.225 5.252c-3.01 3.087-4.177 7.333-1.943 9.946-1.167 2.468 5.92 6.218 1.75 4.076l3.302 8.233-1.36.088c-.649 8.101 8.865 16.682-.781 25.942-.842-1.755-1.552-3.472-1.227-5.615 2.944-2.877 7.412-5.19 3.136-5.964-2.035 2.402-2.91 4.29-3.136 5.964-2.2 2.098-3.593 4.544 0 6.86.55-.388.776-.814 1.227-1.245 1.359 2.745 3.01 5.533 1.458 10.122l-4.594.9c1.617 3.514-4.66 10.505.192 12.006-12.463 3.817-2.718 17.026-4.952 23.2l6.086.214c-.358 4.247 1.359 8.322 3.785 13.596l5.31-.342c4.402 4.545-3.785 11.662-3.235 18.87-2.042-.475-1.491-2.32-.258-3.606-12.08 8.576 8.77 18.096-.034 25.904 1.943 1.927 1.293 3.34-.033 4.672a.808.808 0 0 0-.291-.47l-.067.812c-.934.86-1.975 1.717-2.844 2.701-4.408 2.745-11.237 5.836-5.927 5.49l5.145-.857.166.514c-2.108 2.187 2.718 1.76 7.054.602.94 1.115 2.041 2.142 3.434 2.96-9.262 1.755 3.135 5.83-6.736 8.233 4.439 1.39 3.766 9.804 11.687 11.993-1.155 2.418-2.272 4.882.584 7.09l-7.286 1.072 9.779 5.402c-4.435 3.302-6.994 4.633-12.63 1.374 8.646 7.891 3.276 6.39 11.788 13.121l-4.694-.342c.16 2.402 6.504 6.217 2.586 7.676-8.963 5.361-1.227 26.545-9.547 40.268 13.89-2.662-6.218 6.388 4.535 6.947-3.275.812-5.151 2.744-8.002.513 3.242 7.035-5.21 10.548 3.885 15.395-3.302.813-4.82-1.501-6.795-.816.71.602 2.884 2.23.908 3.004-1.976.685-2.751-1.028-4.21-2.143.584 7.162 10.714 7.891 20.2 8.405-4.501 3.645-3.851 5.445 2.394 8.062-3.136 1.286-6.378 3.385-7.512-1.071-.45 2.529-4.56 15.307 3.076 15.606-1.942.774-.55 3.474.292 4.12-.418 5.66-1.133 6.129-.418 11.662l1.26-1.545c9.195 2.186 2.042 4.588 3.143 9.05l-.909-.127c-6.636 10.205 3.143 4.417-4.402 14.49l5.695-.557c12.304.943-7.246 8.963-2.526 14.798l3.275-2.102c4.177 3.174-16.74 8.917-18.258 12.136-1.067.685-1.717-1.115-2.492-2.102-7.286 8.404 7.445 1.115 9.188 7.377-4.044 1.115-10.256-1.502-11.005 2.7-3.268 2.103 13.113 12.221 5.377 17.97 3.076-1.287 6.185-2.53 8.512.385 1.134 4.458-11.72 12.05-1.91 16.081-.874.558-1.683.773-2.459.773-.875-1.16-1.843-1.844-3.109-1.629.908 1.199 1.942 1.673 3.11 1.629 2.525 3.43 4.209 11.062 9.513 13.121-19.71 3.176 9.62 21.183-8.579 21.1l.975 10.504-1.843-.255c-1.167 6.688 3.202 9.046 7.57 11.404-1.226 1.546-2.91.43-3.884.303-3.627 9.776-2.845 10.72 6.31 18.953l-5.92.856c3.461 2.232-9.161 14.153-2.167 23.761-.683-.131-1.817-.302-2.659-1.076 7.028 10.808-16.083 25.86 5.476 29.808l5.37 7.118c1.585-9.221 9.355 1.37 12.882-2.445 1.299 3.644-6.371 9.393-7.538 4.931l1.067-.685c-11.204-1.629-3.818 11.448-11.462 11.233.165 3.003-.126 6.007-.292 8.963-.292.215-.61.386-.869.6a49.256 49.256 0 0 1-6.443.559c.517-1.028 2.041-2.828-1.784-2.745-2.718 1.414-5.628 1.546-8.996 1.756-2.168-.382-4.243-.9-6.219-1.456-1.359-1.073-4.17-2.658-4.66-1.802 1.392.69 2.983 1.247 4.66 1.802l.259.174-12.04 1.8c-2.876-.518-4.985-1.716-8.77-4.074-4.243 1.458-5.118 2.573-5.41 3.556h-.643l.517.602c-.066.475-.258.944-.65 1.414 0 0-22.01 0-27.479-5.357 4.511 6.34-17.578.302-12.956 5.854-5.212-5-9.27-2.05-16.247-7.097.232 1.541 2.592 2.955-3.885 2.187.358-.558.033-.9-2.426-.303l2.426.303c-.285.47-.968 1.027-1.419 1.37l-.424-.127c-1.034-.43-2.234-.73-3.56-.988-.517-.215-.743-.387-.617-.515 2.785-.214.458-.341 0 0l-3.851.173c1.584-.045 3.043.127 4.468.342.583.258 1.684.557 3.56.988l.358.17c-.292.216-.325.3.126.045 1.558.685 2.784 1.497 3.301 2.358-3.202 3.473-13.497 3.385-16.991 5.187-3.852-.73 1.618-1.714-.484-3.387l-5.21 2.745c-.525-3.39-10.197-5.66-1.168-7.632l-8.16-.171c-4.787-1.889-11.364-2.661-15.474-1.248-3.818-.685-9.679 3.777-6.344 1.116l-12.782 2.148-.1-.862c-12.59-.425-25.96 5.622-40.367-.513 2.685-.558 5.436-1.028 8.738-.813 4.468 1.884 8.061 4.716 9.261 2.011-3.725-1.282-6.669-1.839-9.261-2.01-3.302-1.375-7.087-2.275-10.713.039.65.303 1.299.474 1.975.773-4.27.856-8.645 1.888-15.732.944l-1.392-2.96c-5.47 1.028-16.382-2.916-18.708.127-5.894-7.89-26.446-1.712-36.065-3.13l-.351 3.86c-6.604-.255-12.922.86-21.109 2.402l.484 3.39c-7.054 2.788-18.125-2.446-29.33-2.06.783-1.33 3.627-.988 5.603-.171-13.332-7.676-28.162 5.572-40.235 0-3.01 1.199-5.21.773-7.319-.044.292-.044.517-.083.75-.215l-1.234-.04c-1.326-.557-2.718-1.247-4.21-1.805-4.269-2.784-9.095-7.118-8.578-3.728l1.332 3.258-.808.088c-3.368-1.33-2.725 1.757-.909 4.458-1.75.645-3.334 1.33-4.567 2.23-2.752-5.876-9.063 1.972-12.848-4.33-2.162 2.86-15.228 2.408-18.617 7.436-3.807-.72-7.61-1.412-11.037.368l-1.618-4.633-8.446 6.262c-5.118-2.828-7.22-4.501-2.141-8.063-12.265 5.489-9.938 2.06-20.36 7.505l.484-2.96c-3.719.088-9.679 4.12-11.913 1.63-8.347-5.7-41.269-.769-62.67-6.087 4.144 8.83-9.937-3.947-10.812 2.872-1.226-2.06-4.203-3.258-.742-5.058-10.906 2.055-16.408-3.303-23.953 2.441-1.266-2.055 2.327-3.043 1.227-4.286-.869.47-3.461 1.845-4.595.558-1.133-1.203 1.585-1.718 3.335-2.617-11.17.342-12.298 6.732-13.113 12.778-5.662-2.828-8.48-2.446-12.557 1.501-1.975-1.97-5.244-4.03 1.684-4.715-3.918-.303-23.826-2.916-24.21 1.927-1.234-1.242-5.477-.386-6.478.172-8.738-.255-9.546-.685-18.125-.255l2.393.813c-3.4 5.792-7.153 1.286-14.08 1.971l.191-.597c-15.89-4.203-6.861 2.016-22.527-2.789l.875 3.646c-1.491 7.803-13.889-4.59-22.984-1.63l3.268 2.06c-4.952 2.7-13.889-10.592-18.874-11.536-1.068-.69 1.717-1.115 3.242-1.629-13.08-4.589-1.684 4.76-11.43 5.871-1.783-2.57 2.3-6.516-4.243-6.987-3.268-2.06-19 8.317-27.936 3.386 1.975 2.015 3.95 3.948-.577 5.445-6.928.69-18.749-7.46-24.994-1.243-.875-.557-1.233-1.071-1.26-1.541 1.877-.558 2.911-1.203 2.52-2.015-1.777.596-2.552 1.286-2.52 2.015-5.31 1.585-17.223 2.657-20.398 6.047-4.886-12.524-32.916 6.086-32.823-5.489l-16.282.641.424-1.159c-10.428-.73-14.114 2.015-17.74 4.803-2.394-.772-.717-1.889-.458-2.446-15.208-2.313-16.766-1.839-29.521 3.948l-1.36-3.732c-3.427 2.187-21.943-5.788-36.9-1.37.127-.431.451-1.16 1.684-1.674-16.832 4.462-40.267-10.205-46.353 3.474l-11.072 3.386c14.307.988-2.141 5.963 3.753 8.194-5.635.813-14.565-4.032-7.637-4.76l1.1.641c2.526-7.118-17.873-2.402-17.482-7.246-28.229.514-55.741-3.258-82.16-3.39l3.043 5.533-9.189-.26c-2.4-1.28-3.241-4.285 3.368-4.114-3.567-3.13-11.071 2.701-11.27 3.905-12.881-2.148 4.985-6.522 1.04-6.605l-5.31.47 1.167.645c-4.342 2.27-4.667 4.672-12.629 4.457-4.985-1.07-2.526-3.385-4.528-3.6.06-.387-.65-.558-2.983-.128l-11.648-.386 4.66 4.33c-5.076 2.169-10.85-.09-5.632 4.642-8.576-7.377-79.139-2.297-84.039-4.599-3.56 1.63-7.186 2.446-11.005 2.79-1.942-10.338-4.143-20.886-3.56-31.609-8.996.259-.325-12.822-13.464-11.19l1.226.686c-1.36 4.457-10.355-1.287-8.864-4.932 4.144 3.817 13.332-6.776 15.208 2.442l6.345-7.119c25.318-3.899-1.876-18.996 6.344-29.759-.901.773-2.327.944-3.036 1.028 8.22-9.56-6.67-21.482-2.658-23.713l-6.928-.856c10.746-8.195 11.72-9.178 7.445-18.957-1.167.132-3.11 1.242-4.528-.3 5.111-2.313 10.289-4.715 8.87-11.408l-2.201.26 1.16-10.42c-21.36.043 13.147-17.97-10.097-21.1 6.279-2.06 8.287-9.692 11.198-13.122 1.359.044 2.592-.475 3.759-1.629-1.558-.259-2.719.426-3.76 1.629a5.301 5.301 0 0 1-2.843-.817c11.588-3.987-3.627-11.574-2.268-16.037 2.718-2.915 6.411-1.628 10.03-.386-9.121-5.748 10.17-15.866 6.352-17.925-.908-4.246-8.287-1.585-13.014-2.744 2.069-6.263 19.358 1.027 10.806-7.334-.901.944-1.677 2.745-2.91 2.06-1.81-3.22-26.412-8.919-21.427-12.138l3.819 2.143c5.502-5.872-17.482-13.85-2.977-14.794l6.663.558c-8.864-10.078 2.658-4.247-5.178-14.496l-1.1.176c1.359-4.461-7.054-6.907 3.759-9.05l1.418 1.5c.842-5.488.067-6.002-.45-11.622.974-.641 2.651-3.385.39-4.159 8.93-.259 4.144-13.038 3.56-15.567-1.299 4.462-5.117 2.359-8.803 1.072 7.312-2.613 8.088-4.419 2.784-8.062 11.197-.515 23.11-1.244 23.76-8.406-1.684 1.116-2.592 2.877-4.925 2.148-2.327-.734.258-2.403 1.04-2.96-2.267-.73-4.083 1.585-7.968.768 10.753-4.843.782-8.36 4.6-15.39-3.367 2.226-5.568.342-9.453-.475 12.623-.558-10.939-9.604 5.376-6.947-9.844-13.766-.715-34.906-11.27-40.267-4.66-1.415 2.851-5.274 3.043-7.633l-5.569.299c10.038-6.688 3.76-5.186 13.922-13.078-6.603 3.26-9.646 1.885-14.89-1.374l11.523-5.401-8.612-1.072c3.4-2.21 2.1-4.672.755-7.09 9.303-2.184 8.472-10.56 13.684-11.95-11.522-2.446 2.977-6.477-7.896-8.277 1.684-.773 2.977-1.801 4.077-2.917 5.112 1.16 10.813 1.586 8.287-.6l.193-.514 6.026.856c6.278.342-1.75-2.744-6.928-5.528-1.04-.945-2.267-1.805-3.368-2.662l-.066-.812c-.192.127-.325.298-.325.469-1.551-1.33-2.327-2.744-.066-4.672-10.356-7.807 14.247-17.284 0-25.86 1.425 1.287 2.075 3.087-.318 3.557.643-7.158-9.07-14.28-3.826-18.825l6.285.342c2.784-5.274 4.853-9.35 4.468-13.59l7.12-.216c-2.658-6.174 8.87-19.383-5.827-23.16 5.695-1.497-1.684-8.532.192-12.05l-5.37-.855c-1.882-4.589.06-7.378 1.678-10.122.523.43.842.86 1.425 1.243 4.276-2.314 2.659-4.757 0-6.86-.258-1.673-1.226-3.561-3.626-5.959-5.045.769.199 3.088 3.626 5.96.458 2.143-.384 3.86-1.425 5.616-11.33-9.262-.126-17.837-.902-25.944l-1.558-.066 3.302-7.118 1.3 2.854c5.435-1.093 16.374 3.193 18.708-.131 5.893 8.598 62.344 1.888 71.99 3.411l.325-4.18c6.603.233 12.888-.944 21.108-2.595l-.457-3.689c7.06-3.02 18.132 2.617 29.27 2.231-.783 1.414-3.568 1.05-5.57.194 13.332 8.317 28.163-6.048 40.202.021 3.11-1.352 5.244-.882 7.379.022-.319.018-.577.083-.776.19.325.044.776.065 1.3.065 1.292.624 2.651 1.375 4.143 1.95 4.335 3.026 9.122 7.742 8.545 4.096l-1.3-3.556c.26-.066.518-.044.776-.132 3.435 1.48 2.785-1.866.909-4.843 1.816-.646 3.367-1.419 4.6-2.38 2.778 6.389 9.123-2.148 12.882 4.65 2.154-3.057 15.185-2.585 18.552-8.041 3.786.787 7.633 1.55 11.102-.408l1.617 5.02 8.413-6.733c5.118 3.044 7.187 4.822 2.135 8.704 12.238-5.96 9.97-2.248 20.399-8.145l-.517 3.258c3.686-.128 9.705-4.484 11.907-1.801 8.353 6.174 41.242.856 62.675 6.605-4.143-9.587 9.964 4.286 10.806-3.132 1.233 2.253 4.21 3.54.783 5.49 10.872-2.21 16.375 3.6 23.919-2.661 1.26 2.274-2.334 3.323-1.233 4.676.875-.492 3.467-1.972 4.634-.623 1.1 1.352-1.618 1.888-3.335 2.876 11.131-.387 12.265-7.355 13.074-13.898 5.668 3.108 8.486 2.66 12.563-1.63 1.975 2.148 5.244 4.396-1.684 5.147 3.918.32 23.826 3.153 24.244-2.1 1.2 1.327 5.443.388 6.477-.214 8.738.32 9.514.773 18.092.276l-2.36-.834c3.368-6.345 7.12-1.414 14.048-2.187l-.192.641c15.89 4.567 6.861-2.186 22.527 3.026l-.842-3.926c1.458-8.466 13.889 4.997 22.985 1.76l-3.302-2.252c4.952-2.893 13.889 11.515 18.874 12.564 1.1.728-1.717 1.18-3.241 1.717 13.08 4.998 1.683-5.147 11.429-6.346 1.81 2.784-2.3 7.075 4.243 7.588 3.268 2.253 19-9.029 27.93-3.689-1.969-2.142-3.911-4.285.616-5.892 6.895-.773 18.716 8.102 24.994 1.326.875.601 1.193 1.16 1.226 1.695-1.843.602-2.91 1.287-2.526 2.164 1.817-.64 2.593-1.37 2.526-2.164 5.31-1.734 17.224-2.894 20.4-6.56 4.885 13.595 32.915-6.605 32.822 5.937l16.316-.686-.425 1.287c10.422.817 14.081-2.187 17.741-5.208 2.426.834.676 2.015.484 2.679 15.215 2.507 16.74 1.971 29.462-4.29l1.359 4.053c3.427-2.359 22.043 6.35 36.933 1.567-.133.47-.451 1.243-1.618 1.823 16.766-4.804 40.268 11.193 46.354-3.623l11.038-3.69c-11.946-.92-2.685-4.76-2.625-7.42zm-573.35 8.212l.119-.005-.016.026-.102-.021zm.119-.005c.263-.431.465-.9.598-1.41.188.903 1.118 1.334-.598 1.41zM48.21 217.666c-.156 1.084-.868.43-2.382.387a18.998 18.998 0 0 0 2.382-.387zm.01-.082l.04.07c-.016.005-.033.008-.05.012.004-.026.008-.054.01-.082zM151.034 634.15zm728.115-3.43l-.155.009.022-.033.133.025zm-.155.009c-.26.392-.46.817-.594 1.28-.09-.794-1.068-1.182.594-1.28zm339.986-5.154a9.341 9.341 0 0 1-.851-.878c.28.27.563.56.85.878zm94.424-395.898l.005.081a13.86 13.86 0 0 1-.039-.01l.034-.07zm.005.081c.622.17 1.297.301 2.03.388-1.293.043-1.943.655-2.03-.388zm-284.32-195.395zm153.793 587.694c2.008.773 1.266-3.944 2.4-2.657 2.2-3.947-13.306 4.717-2.4 2.657zm37.115-4.098l-5.36.884c2.884-.215 3.918.597 5.41 1.199-.114-.734-.986-1.751-.05-2.083zm.633-.105a2.24 2.24 0 0 0-.633.105zm23.853 3.088l.484-2.96-3.46 1.805zm14.373-3.816l-5.794 4.848 4.468-1.419zm46.811-6.174c-4.05.386-7.51 2.27-10.62 4.03 3.301-.987 6.828-.728 11.396 1.072 2.46-2.23-3.4-3.733-.776-5.102z"/></mask><filter id="3qwra" width="1436.5" height="754.5" x="-36" y="-38" filterUnits="userSpaceOnUse"><feOffset dx="5.5" dy="9.5" in="SourceGraphic" result="FeOffset1051Out"/><feGaussianBlur in="FeOffset1051Out" result="FeGaussianBlur1052Out" stdDeviation="19.6 19.6"/></filter></defs><g><g><g filter="url(#3qwra)"><path fill="none" stroke="#000" stroke-opacity=".07" stroke-width="16" d="M66.606 193.397l-6.73-.945c1.552-2.23 2.328-4.501 2.46-6.003.584.685 1.81 1.458 3.368 2.276 1.36 1.286 1.942 2.744.902 4.672zm807.65-164.352c2.108-.022 4.176-.022 6.251-.044 2.878 1.396 4.243 3.347.226 3.777l-1.068-.73C877.173 39.79 897.5 34.727 897.148 40c28.221-.492 55.74 3.689 82.186 3.926l-3.11-5.98 9.229.298c2.426 1.391 3.302 4.694-3.268 4.461 3.46 3.385 11.005-2.898 11.164-4.185 12.888 2.363-4.986 7.013-1.034 7.14l5.376-.47-1.233-.706c4.336-2.469 4.694-5.06 12.596-4.805 5.012 1.182 2.619 3.69 4.594 3.927-.033.425.65.619 3.01.17l11.622.449-4.694-4.717c5.04-2.325 10.775.122 5.725-4.925 8.377 7.936 43.166 2.59 48.008 5.118 7.153-3.495 14.28-3.451 23.084-3.087-2.201-.965-3.56-6.283 4.044-5.682-2.58 10.699 13.092 5.048 19.667 11.97-2.767-4.29 21.79-1.09 13.447-8.176 6.345.86.425 4.12 5.277 6.67 15.023-4.334 33.314 2.613 51.956 1.072.259-1.436-2.877-3.623 1.1-5.81l9.938 7.18c3.693-.729 3.302-8.36 10.104-3.364-.975-1.224-2.433-3.047.06-3.517 29.494 5.511 59.89-1.844 90.088 1.888-3.626 1.608-6.344 4.417-8.804-.149l-.225 5.252c-3.01 3.087-4.177 7.333-1.943 9.946-1.167 2.468 5.92 6.218 1.75 4.076l3.302 8.233-1.36.088c-.649 8.101 8.865 16.682-.781 25.942-.842-1.755-1.552-3.472-1.227-5.615 2.944-2.877 7.412-5.19 3.136-5.964-2.035 2.402-2.91 4.29-3.136 5.964-2.2 2.098-3.593 4.544 0 6.86.55-.388.776-.814 1.227-1.245 1.359 2.745 3.01 5.533 1.458 10.122l-4.594.9c1.617 3.514-4.66 10.505.192 12.006-12.463 3.817-2.718 17.026-4.952 23.2l6.086.214c-.358 4.247 1.359 8.322 3.785 13.596l5.31-.342c4.402 4.545-3.785 11.662-3.235 18.87-2.042-.475-1.491-2.32-.258-3.606-12.08 8.576 8.77 18.096-.034 25.904 1.943 1.927 1.293 3.34-.033 4.672a.808.808 0 0 0-.291-.47l-.067.812c-.934.86-1.975 1.717-2.844 2.701-4.408 2.745-11.237 5.836-5.927 5.49l5.145-.857.166.514c-2.108 2.187 2.718 1.76 7.054.602.94 1.115 2.041 2.142 3.434 2.96-9.262 1.755 3.135 5.83-6.736 8.233 4.439 1.39 3.766 9.804 11.687 11.993-1.155 2.418-2.272 4.882.584 7.09l-7.286 1.072 9.779 5.402c-4.435 3.302-6.994 4.633-12.63 1.374 8.646 7.891 3.276 6.39 11.788 13.121l-4.694-.342c.16 2.402 6.504 6.217 2.586 7.676-8.963 5.361-1.227 26.545-9.547 40.268 13.89-2.662-6.218 6.388 4.535 6.947-3.275.812-5.151 2.744-8.002.513 3.242 7.035-5.21 10.548 3.885 15.395-3.302.813-4.82-1.501-6.795-.816.71.602 2.884 2.23.908 3.004-1.976.685-2.751-1.028-4.21-2.143.584 7.162 10.714 7.891 20.2 8.405-4.501 3.645-3.851 5.445 2.394 8.062-3.136 1.286-6.378 3.385-7.512-1.071-.45 2.529-4.56 15.307 3.076 15.606-1.942.774-.55 3.474.292 4.12-.418 5.66-1.133 6.129-.418 11.662l1.26-1.545c9.195 2.186 2.042 4.588 3.143 9.05l-.909-.127c-6.636 10.205 3.143 4.417-4.402 14.49l5.695-.557c12.304.943-7.246 8.963-2.526 14.798l3.275-2.102c4.177 3.174-16.74 8.917-18.258 12.136-1.067.685-1.717-1.115-2.492-2.102-7.286 8.404 7.445 1.115 9.188 7.377-4.044 1.115-10.256-1.502-11.005 2.7-3.268 2.103 13.113 12.221 5.377 17.97 3.076-1.287 6.185-2.53 8.512.385 1.134 4.458-11.72 12.05-1.91 16.081-.874.558-1.683.773-2.459.773-.875-1.16-1.843-1.844-3.109-1.629.908 1.199 1.942 1.673 3.11 1.629 2.525 3.43 4.209 11.062 9.513 13.121-19.71 3.176 9.62 21.183-8.579 21.1l.975 10.504-1.843-.255c-1.167 6.688 3.202 9.046 7.57 11.404-1.226 1.546-2.91.43-3.884.303-3.627 9.776-2.845 10.72 6.31 18.953l-5.92.856c3.461 2.232-9.161 14.153-2.167 23.761-.683-.131-1.817-.302-2.659-1.076 7.028 10.808-16.083 25.86 5.476 29.808l5.37 7.118c1.585-9.221 9.355 1.37 12.882-2.445 1.299 3.644-6.371 9.393-7.538 4.931l1.067-.685c-11.204-1.629-3.818 11.448-11.462 11.233.165 3.003-.126 6.007-.292 8.963-.292.215-.61.386-.869.6a49.256 49.256 0 0 1-6.443.559c.517-1.028 2.041-2.828-1.784-2.745-2.718 1.414-5.628 1.546-8.996 1.756-2.168-.382-4.243-.9-6.219-1.456-1.359-1.073-4.17-2.658-4.66-1.802 1.392.69 2.983 1.247 4.66 1.802l.259.174-12.04 1.8c-2.876-.518-4.985-1.716-8.77-4.074-4.243 1.458-5.118 2.573-5.41 3.556h-.643l.517.602c-.066.475-.258.944-.65 1.414 0 0-22.01 0-27.479-5.357 4.511 6.34-17.578.302-12.956 5.854-5.212-5-9.27-2.05-16.247-7.097.232 1.541 2.592 2.955-3.885 2.187.358-.558.033-.9-2.426-.303l2.426.303c-.285.47-.968 1.027-1.419 1.37l-.424-.127c-1.034-.43-2.234-.73-3.56-.988-.517-.215-.743-.387-.617-.515 2.785-.214.458-.341 0 0l-3.851.173c1.584-.045 3.043.127 4.468.342.583.258 1.684.557 3.56.988l.358.17c-.292.216-.325.3.126.045 1.558.685 2.784 1.497 3.301 2.358-3.202 3.473-13.497 3.385-16.991 5.187-3.852-.73 1.618-1.714-.484-3.387l-5.21 2.745c-.525-3.39-10.197-5.66-1.168-7.632l-8.16-.171c-4.787-1.889-11.364-2.661-15.474-1.248-3.818-.685-9.679 3.777-6.344 1.116l-12.782 2.148-.1-.862c-12.59-.425-25.96 5.622-40.367-.513 2.685-.558 5.436-1.028 8.738-.813 4.468 1.884 8.061 4.716 9.261 2.011-3.725-1.282-6.669-1.839-9.261-2.01-3.302-1.375-7.087-2.275-10.713.039.65.303 1.299.474 1.975.773-4.27.856-8.645 1.888-15.732.944l-1.392-2.96c-5.47 1.028-16.382-2.916-18.708.127-5.894-7.89-26.446-1.712-36.065-3.13l-.351 3.86c-6.604-.255-12.922.86-21.109 2.402l.484 3.39c-7.054 2.788-18.125-2.446-29.33-2.06.783-1.33 3.627-.988 5.603-.171-13.332-7.676-28.162 5.572-40.235 0-3.01 1.199-5.21.773-7.319-.044.292-.044.517-.083.75-.215l-1.234-.04c-1.326-.557-2.718-1.247-4.21-1.805-4.269-2.784-9.095-7.118-8.578-3.728l1.332 3.258-.808.088c-3.368-1.33-2.725 1.757-.909 4.458-1.75.645-3.334 1.33-4.567 2.23-2.752-5.876-9.063 1.972-12.848-4.33-2.162 2.86-15.228 2.408-18.617 7.436-3.807-.72-7.61-1.412-11.037.368l-1.618-4.633-8.446 6.262c-5.118-2.828-7.22-4.501-2.141-8.063-12.265 5.489-9.938 2.06-20.36 7.505l.484-2.96c-3.719.088-9.679 4.12-11.913 1.63-8.347-5.7-41.269-.769-62.67-6.087 4.144 8.83-9.937-3.947-10.812 2.872-1.226-2.06-4.203-3.258-.742-5.058-10.906 2.055-16.408-3.303-23.953 2.441-1.266-2.055 2.327-3.043 1.227-4.286-.869.47-3.461 1.845-4.595.558-1.133-1.203 1.585-1.718 3.335-2.617-11.17.342-12.298 6.732-13.113 12.778-5.662-2.828-8.48-2.446-12.557 1.501-1.975-1.97-5.244-4.03 1.684-4.715-3.918-.303-23.826-2.916-24.21 1.927-1.234-1.242-5.477-.386-6.478.172-8.738-.255-9.546-.685-18.125-.255l2.393.813c-3.4 5.792-7.153 1.286-14.08 1.971l.191-.597c-15.89-4.203-6.861 2.016-22.527-2.789l.875 3.646c-1.491 7.803-13.889-4.59-22.984-1.63l3.268 2.06c-4.952 2.7-13.889-10.592-18.874-11.536-1.068-.69 1.717-1.115 3.242-1.629-13.08-4.589-1.684 4.76-11.43 5.871-1.783-2.57 2.3-6.516-4.243-6.987-3.268-2.06-19 8.317-27.936 3.386 1.975 2.015 3.95 3.948-.577 5.445-6.928.69-18.749-7.46-24.994-1.243-.875-.557-1.233-1.071-1.26-1.541 1.877-.558 2.911-1.203 2.52-2.015-1.777.596-2.552 1.286-2.52 2.015-5.31 1.585-17.223 2.657-20.398 6.047-4.886-12.524-32.916 6.086-32.823-5.489l-16.282.641.424-1.159c-10.428-.73-14.114 2.015-17.74 4.803-2.394-.772-.717-1.889-.458-2.446-15.208-2.313-16.766-1.839-29.521 3.948l-1.36-3.732c-3.427 2.187-21.943-5.788-36.9-1.37.127-.431.451-1.16 1.684-1.674-16.832 4.462-40.267-10.205-46.353 3.474l-11.072 3.386c14.307.988-2.141 5.963 3.753 8.194-5.635.813-14.565-4.032-7.637-4.76l1.1.641c2.526-7.118-17.873-2.402-17.482-7.246-28.229.514-55.741-3.258-82.16-3.39l3.043 5.533-9.189-.26c-2.4-1.28-3.241-4.285 3.368-4.114-3.567-3.13-11.071 2.701-11.27 3.905-12.881-2.148 4.985-6.522 1.04-6.605l-5.31.47 1.167.645c-4.342 2.27-4.667 4.672-12.629 4.457-4.985-1.07-2.526-3.385-4.528-3.6.06-.387-.65-.558-2.983-.128l-11.648-.386 4.66 4.33c-5.076 2.169-10.85-.09-5.632 4.642-8.576-7.377-79.139-2.297-84.039-4.599-3.56 1.63-7.186 2.446-11.005 2.79-1.942-10.338-4.143-20.886-3.56-31.609-8.996.259-.325-12.822-13.464-11.19l1.226.686c-1.36 4.457-10.355-1.287-8.864-4.932 4.144 3.817 13.332-6.776 15.208 2.442l6.345-7.119c25.318-3.899-1.876-18.996 6.344-29.759-.901.773-2.327.944-3.036 1.028 8.22-9.56-6.67-21.482-2.658-23.713l-6.928-.856c10.746-8.195 11.72-9.178 7.445-18.957-1.167.132-3.11 1.242-4.528-.3 5.111-2.313 10.289-4.715 8.87-11.408l-2.201.26 1.16-10.42c-21.36.043 13.147-17.97-10.097-21.1 6.279-2.06 8.287-9.692 11.198-13.122 1.359.044 2.592-.475 3.759-1.629-1.558-.259-2.719.426-3.76 1.629a5.301 5.301 0 0 1-2.843-.817c11.588-3.987-3.627-11.574-2.268-16.037 2.718-2.915 6.411-1.628 10.03-.386-9.121-5.748 10.17-15.866 6.352-17.925-.908-4.246-8.287-1.585-13.014-2.744 2.069-6.263 19.358 1.027 10.806-7.334-.901.944-1.677 2.745-2.91 2.06-1.81-3.22-26.412-8.919-21.427-12.138l3.819 2.143c5.502-5.872-17.482-13.85-2.977-14.794l6.663.558c-8.864-10.078 2.658-4.247-5.178-14.496l-1.1.176c1.359-4.461-7.054-6.907 3.759-9.05l1.418 1.5c.842-5.488.067-6.002-.45-11.622.974-.641 2.651-3.385.39-4.159 8.93-.259 4.144-13.038 3.56-15.567-1.299 4.462-5.117 2.359-8.803 1.072 7.312-2.613 8.088-4.419 2.784-8.062 11.197-.515 23.11-1.244 23.76-8.406-1.684 1.116-2.592 2.877-4.925 2.148-2.327-.734.258-2.403 1.04-2.96-2.267-.73-4.083 1.585-7.968.768 10.753-4.843.782-8.36 4.6-15.39-3.367 2.226-5.568.342-9.453-.475 12.623-.558-10.939-9.604 5.376-6.947-9.844-13.766-.715-34.906-11.27-40.267-4.66-1.415 2.851-5.274 3.043-7.633l-5.569.299c10.038-6.688 3.76-5.186 13.922-13.078-6.603 3.26-9.646 1.885-14.89-1.374l11.523-5.401-8.612-1.072c3.4-2.21 2.1-4.672.755-7.09 9.303-2.184 8.472-10.56 13.684-11.95-11.522-2.446 2.977-6.477-7.896-8.277 1.684-.773 2.977-1.801 4.077-2.917 5.112 1.16 10.813 1.586 8.287-.6l.193-.514 6.026.856c6.278.342-1.75-2.744-6.928-5.528-1.04-.945-2.267-1.805-3.368-2.662l-.066-.812c-.192.127-.325.298-.325.469-1.551-1.33-2.327-2.744-.066-4.672-10.356-7.807 14.247-17.284 0-25.86 1.425 1.287 2.075 3.087-.318 3.557.643-7.158-9.07-14.28-3.826-18.825l6.285.342c2.784-5.274 4.853-9.35 4.468-13.59l7.12-.216c-2.658-6.174 8.87-19.383-5.827-23.16 5.695-1.497-1.684-8.532.192-12.05l-5.37-.855c-1.882-4.589.06-7.378 1.678-10.122.523.43.842.86 1.425 1.243 4.276-2.314 2.659-4.757 0-6.86-.258-1.673-1.226-3.561-3.626-5.959-5.045.769.199 3.088 3.626 5.96.458 2.143-.384 3.86-1.425 5.616-11.33-9.262-.126-17.837-.902-25.944l-1.558-.066 3.302-7.118 1.3 2.854c5.435-1.093 16.374 3.193 18.708-.131 5.893 8.598 62.344 1.888 71.99 3.411l.325-4.18c6.603.233 12.888-.944 21.108-2.595l-.457-3.689c7.06-3.02 18.132 2.617 29.27 2.231-.783 1.414-3.568 1.05-5.57.194 13.332 8.317 28.163-6.048 40.202.021 3.11-1.352 5.244-.882 7.379.022-.319.018-.577.083-.776.19.325.044.776.065 1.3.065 1.292.624 2.651 1.375 4.143 1.95 4.335 3.026 9.122 7.742 8.545 4.096l-1.3-3.556c.26-.066.518-.044.776-.132 3.435 1.48 2.785-1.866.909-4.843 1.816-.646 3.367-1.419 4.6-2.38 2.778 6.389 9.123-2.148 12.882 4.65 2.154-3.057 15.185-2.585 18.552-8.041 3.786.787 7.633 1.55 11.102-.408l1.617 5.02 8.413-6.733c5.118 3.044 7.187 4.822 2.135 8.704 12.238-5.96 9.97-2.248 20.399-8.145l-.517 3.258c3.686-.128 9.705-4.484 11.907-1.801 8.353 6.174 41.242.856 62.675 6.605-4.143-9.587 9.964 4.286 10.806-3.132 1.233 2.253 4.21 3.54.783 5.49 10.872-2.21 16.375 3.6 23.919-2.661 1.26 2.274-2.334 3.323-1.233 4.676.875-.492 3.467-1.972 4.634-.623 1.1 1.352-1.618 1.888-3.335 2.876 11.131-.387 12.265-7.355 13.074-13.898 5.668 3.108 8.486 2.66 12.563-1.63 1.975 2.148 5.244 4.396-1.684 5.147 3.918.32 23.826 3.153 24.244-2.1 1.2 1.327 5.443.388 6.477-.214 8.738.32 9.514.773 18.092.276l-2.36-.834c3.368-6.345 7.12-1.414 14.048-2.187l-.192.641c15.89 4.567 6.861-2.186 22.527 3.026l-.842-3.926c1.458-8.466 13.889 4.997 22.985 1.76l-3.302-2.252c4.952-2.893 13.889 11.515 18.874 12.564 1.1.728-1.717 1.18-3.241 1.717 13.08 4.998 1.683-5.147 11.429-6.346 1.81 2.784-2.3 7.075 4.243 7.588 3.268 2.253 19-9.029 27.93-3.689-1.969-2.142-3.911-4.285.616-5.892 6.895-.773 18.716 8.102 24.994 1.326.875.601 1.193 1.16 1.226 1.695-1.843.602-2.91 1.287-2.526 2.164 1.817-.64 2.593-1.37 2.526-2.164 5.31-1.734 17.224-2.894 20.4-6.56 4.885 13.595 32.915-6.605 32.822 5.937l16.316-.686-.425 1.287c10.422.817 14.081-2.187 17.741-5.208 2.426.834.676 2.015.484 2.679 15.215 2.507 16.74 1.971 29.462-4.29l1.359 4.053c3.427-2.359 22.043 6.35 36.933 1.567-.133.47-.451 1.243-1.618 1.823 16.766-4.804 40.268 11.193 46.354-3.623l11.038-3.69c-11.946-.92-2.685-4.76-2.625-7.42zm-573.35 8.212l.119-.005-.016.026-.102-.021zm.119-.005c.263-.431.465-.9.598-1.41.188.903 1.118 1.334-.598 1.41zM48.21 217.666c-.156 1.084-.868.43-2.382.387a18.998 18.998 0 0 0 2.382-.387zm.01-.082l.04.07c-.016.005-.033.008-.05.012.004-.026.008-.054.01-.082zM151.034 634.15a35.637 35.637 0 0 1 0 0zm728.115-3.43l-.155.009.022-.033.133.025zm-.155.009c-.26.392-.46.817-.594 1.28-.09-.794-1.068-1.182.594-1.28zm339.986-5.154a9.341 9.341 0 0 1-.851-.878c.28.27.563.56.85.878zm94.424-395.898l.005.081a13.86 13.86 0 0 1-.039-.01l.034-.07zm.005.081c.622.17 1.297.301 2.03.388-1.293.043-1.943.655-2.03-.388zm-284.32-195.395a35.795 35.795 0 0 1 0 0zm153.793 587.694c2.008.773 1.266-3.944 2.4-2.657 2.2-3.947-13.306 4.717-2.4 2.657zm37.115-4.098l-5.36.884c2.884-.215 3.918.597 5.41 1.199-.114-.734-.986-1.751-.05-2.083zm.633-.105a2.24 2.24 0 0 0-.633.105zm23.853 3.088l.484-2.96-3.46 1.805zm14.373-3.816l-5.794 4.848 4.468-1.419zm46.811-6.174c-4.05.386-7.51 2.27-10.62 4.03 3.301-.987 6.828-.728 11.396 1.072 2.46-2.23-3.4-3.733-.776-5.102z" mask="url(&quot;#3qwrb&quot;)"/><path fill-opacity=".07" d="M66.606 193.397l-6.73-.945c1.552-2.23 2.328-4.501 2.46-6.003.584.685 1.81 1.458 3.368 2.276 1.36 1.286 1.942 2.744.902 4.672zm807.65-164.352c2.108-.022 4.176-.022 6.251-.044 2.878 1.396 4.243 3.347.226 3.777l-1.068-.73C877.173 39.79 897.5 34.727 897.148 40c28.221-.492 55.74 3.689 82.186 3.926l-3.11-5.98 9.229.298c2.426 1.391 3.302 4.694-3.268 4.461 3.46 3.385 11.005-2.898 11.164-4.185 12.888 2.363-4.986 7.013-1.034 7.14l5.376-.47-1.233-.706c4.336-2.469 4.694-5.06 12.596-4.805 5.012 1.182 2.619 3.69 4.594 3.927-.033.425.65.619 3.01.17l11.622.449-4.694-4.717c5.04-2.325 10.775.122 5.725-4.925 8.377 7.936 43.166 2.59 48.008 5.118 7.153-3.495 14.28-3.451 23.084-3.087-2.201-.965-3.56-6.283 4.044-5.682-2.58 10.699 13.092 5.048 19.667 11.97-2.767-4.29 21.79-1.09 13.447-8.176 6.345.86.425 4.12 5.277 6.67 15.023-4.334 33.314 2.613 51.956 1.072.259-1.436-2.877-3.623 1.1-5.81l9.938 7.18c3.693-.729 3.302-8.36 10.104-3.364-.975-1.224-2.433-3.047.06-3.517 29.494 5.511 59.89-1.844 90.088 1.888-3.626 1.608-6.344 4.417-8.804-.149l-.225 5.252c-3.01 3.087-4.177 7.333-1.943 9.946-1.167 2.468 5.92 6.218 1.75 4.076l3.302 8.233-1.36.088c-.649 8.101 8.865 16.682-.781 25.942-.842-1.755-1.552-3.472-1.227-5.615 2.944-2.877 7.412-5.19 3.136-5.964-2.035 2.402-2.91 4.29-3.136 5.964-2.2 2.098-3.593 4.544 0 6.86.55-.388.776-.814 1.227-1.245 1.359 2.745 3.01 5.533 1.458 10.122l-4.594.9c1.617 3.514-4.66 10.505.192 12.006-12.463 3.817-2.718 17.026-4.952 23.2l6.086.214c-.358 4.247 1.359 8.322 3.785 13.596l5.31-.342c4.402 4.545-3.785 11.662-3.235 18.87-2.042-.475-1.491-2.32-.258-3.606-12.08 8.576 8.77 18.096-.034 25.904 1.943 1.927 1.293 3.34-.033 4.672a.808.808 0 0 0-.291-.47l-.067.812c-.934.86-1.975 1.717-2.844 2.701-4.408 2.745-11.237 5.836-5.927 5.49l5.145-.857.166.514c-2.108 2.187 2.718 1.76 7.054.602.94 1.115 2.041 2.142 3.434 2.96-9.262 1.755 3.135 5.83-6.736 8.233 4.439 1.39 3.766 9.804 11.687 11.993-1.155 2.418-2.272 4.882.584 7.09l-7.286 1.072 9.779 5.402c-4.435 3.302-6.994 4.633-12.63 1.374 8.646 7.891 3.276 6.39 11.788 13.121l-4.694-.342c.16 2.402 6.504 6.217 2.586 7.676-8.963 5.361-1.227 26.545-9.547 40.268 13.89-2.662-6.218 6.388 4.535 6.947-3.275.812-5.151 2.744-8.002.513 3.242 7.035-5.21 10.548 3.885 15.395-3.302.813-4.82-1.501-6.795-.816.71.602 2.884 2.23.908 3.004-1.976.685-2.751-1.028-4.21-2.143.584 7.162 10.714 7.891 20.2 8.405-4.501 3.645-3.851 5.445 2.394 8.062-3.136 1.286-6.378 3.385-7.512-1.071-.45 2.529-4.56 15.307 3.076 15.606-1.942.774-.55 3.474.292 4.12-.418 5.66-1.133 6.129-.418 11.662l1.26-1.545c9.195 2.186 2.042 4.588 3.143 9.05l-.909-.127c-6.636 10.205 3.143 4.417-4.402 14.49l5.695-.557c12.304.943-7.246 8.963-2.526 14.798l3.275-2.102c4.177 3.174-16.74 8.917-18.258 12.136-1.067.685-1.717-1.115-2.492-2.102-7.286 8.404 7.445 1.115 9.188 7.377-4.044 1.115-10.256-1.502-11.005 2.7-3.268 2.103 13.113 12.221 5.377 17.97 3.076-1.287 6.185-2.53 8.512.385 1.134 4.458-11.72 12.05-1.91 16.081-.874.558-1.683.773-2.459.773-.875-1.16-1.843-1.844-3.109-1.629.908 1.199 1.942 1.673 3.11 1.629 2.525 3.43 4.209 11.062 9.513 13.121-19.71 3.176 9.62 21.183-8.579 21.1l.975 10.504-1.843-.255c-1.167 6.688 3.202 9.046 7.57 11.404-1.226 1.546-2.91.43-3.884.303-3.627 9.776-2.845 10.72 6.31 18.953l-5.92.856c3.461 2.232-9.161 14.153-2.167 23.761-.683-.131-1.817-.302-2.659-1.076 7.028 10.808-16.083 25.86 5.476 29.808l5.37 7.118c1.585-9.221 9.355 1.37 12.882-2.445 1.299 3.644-6.371 9.393-7.538 4.931l1.067-.685c-11.204-1.629-3.818 11.448-11.462 11.233.165 3.003-.126 6.007-.292 8.963-.292.215-.61.386-.869.6a49.256 49.256 0 0 1-6.443.559c.517-1.028 2.041-2.828-1.784-2.745-2.718 1.414-5.628 1.546-8.996 1.756-2.168-.382-4.243-.9-6.219-1.456-1.359-1.073-4.17-2.658-4.66-1.802 1.392.69 2.983 1.247 4.66 1.802l.259.174-12.04 1.8c-2.876-.518-4.985-1.716-8.77-4.074-4.243 1.458-5.118 2.573-5.41 3.556h-.643l.517.602c-.066.475-.258.944-.65 1.414 0 0-22.01 0-27.479-5.357 4.511 6.34-17.578.302-12.956 5.854-5.212-5-9.27-2.05-16.247-7.097.232 1.541 2.592 2.955-3.885 2.187.358-.558.033-.9-2.426-.303l2.426.303c-.285.47-.968 1.027-1.419 1.37l-.424-.127c-1.034-.43-2.234-.73-3.56-.988-.517-.215-.743-.387-.617-.515 2.785-.214.458-.341 0 0l-3.851.173c1.584-.045 3.043.127 4.468.342.583.258 1.684.557 3.56.988l.358.17c-.292.216-.325.3.126.045 1.558.685 2.784 1.497 3.301 2.358-3.202 3.473-13.497 3.385-16.991 5.187-3.852-.73 1.618-1.714-.484-3.387l-5.21 2.745c-.525-3.39-10.197-5.66-1.168-7.632l-8.16-.171c-4.787-1.889-11.364-2.661-15.474-1.248-3.818-.685-9.679 3.777-6.344 1.116l-12.782 2.148-.1-.862c-12.59-.425-25.96 5.622-40.367-.513 2.685-.558 5.436-1.028 8.738-.813 4.468 1.884 8.061 4.716 9.261 2.011-3.725-1.282-6.669-1.839-9.261-2.01-3.302-1.375-7.087-2.275-10.713.039.65.303 1.299.474 1.975.773-4.27.856-8.645 1.888-15.732.944l-1.392-2.96c-5.47 1.028-16.382-2.916-18.708.127-5.894-7.89-26.446-1.712-36.065-3.13l-.351 3.86c-6.604-.255-12.922.86-21.109 2.402l.484 3.39c-7.054 2.788-18.125-2.446-29.33-2.06.783-1.33 3.627-.988 5.603-.171-13.332-7.676-28.162 5.572-40.235 0-3.01 1.199-5.21.773-7.319-.044.292-.044.517-.083.75-.215l-1.234-.04c-1.326-.557-2.718-1.247-4.21-1.805-4.269-2.784-9.095-7.118-8.578-3.728l1.332 3.258-.808.088c-3.368-1.33-2.725 1.757-.909 4.458-1.75.645-3.334 1.33-4.567 2.23-2.752-5.876-9.063 1.972-12.848-4.33-2.162 2.86-15.228 2.408-18.617 7.436-3.807-.72-7.61-1.412-11.037.368l-1.618-4.633-8.446 6.262c-5.118-2.828-7.22-4.501-2.141-8.063-12.265 5.489-9.938 2.06-20.36 7.505l.484-2.96c-3.719.088-9.679 4.12-11.913 1.63-8.347-5.7-41.269-.769-62.67-6.087 4.144 8.83-9.937-3.947-10.812 2.872-1.226-2.06-4.203-3.258-.742-5.058-10.906 2.055-16.408-3.303-23.953 2.441-1.266-2.055 2.327-3.043 1.227-4.286-.869.47-3.461 1.845-4.595.558-1.133-1.203 1.585-1.718 3.335-2.617-11.17.342-12.298 6.732-13.113 12.778-5.662-2.828-8.48-2.446-12.557 1.501-1.975-1.97-5.244-4.03 1.684-4.715-3.918-.303-23.826-2.916-24.21 1.927-1.234-1.242-5.477-.386-6.478.172-8.738-.255-9.546-.685-18.125-.255l2.393.813c-3.4 5.792-7.153 1.286-14.08 1.971l.191-.597c-15.89-4.203-6.861 2.016-22.527-2.789l.875 3.646c-1.491 7.803-13.889-4.59-22.984-1.63l3.268 2.06c-4.952 2.7-13.889-10.592-18.874-11.536-1.068-.69 1.717-1.115 3.242-1.629-13.08-4.589-1.684 4.76-11.43 5.871-1.783-2.57 2.3-6.516-4.243-6.987-3.268-2.06-19 8.317-27.936 3.386 1.975 2.015 3.95 3.948-.577 5.445-6.928.69-18.749-7.46-24.994-1.243-.875-.557-1.233-1.071-1.26-1.541 1.877-.558 2.911-1.203 2.52-2.015-1.777.596-2.552 1.286-2.52 2.015-5.31 1.585-17.223 2.657-20.398 6.047-4.886-12.524-32.916 6.086-32.823-5.489l-16.282.641.424-1.159c-10.428-.73-14.114 2.015-17.74 4.803-2.394-.772-.717-1.889-.458-2.446-15.208-2.313-16.766-1.839-29.521 3.948l-1.36-3.732c-3.427 2.187-21.943-5.788-36.9-1.37.127-.431.451-1.16 1.684-1.674-16.832 4.462-40.267-10.205-46.353 3.474l-11.072 3.386c14.307.988-2.141 5.963 3.753 8.194-5.635.813-14.565-4.032-7.637-4.76l1.1.641c2.526-7.118-17.873-2.402-17.482-7.246-28.229.514-55.741-3.258-82.16-3.39l3.043 5.533-9.189-.26c-2.4-1.28-3.241-4.285 3.368-4.114-3.567-3.13-11.071 2.701-11.27 3.905-12.881-2.148 4.985-6.522 1.04-6.605l-5.31.47 1.167.645c-4.342 2.27-4.667 4.672-12.629 4.457-4.985-1.07-2.526-3.385-4.528-3.6.06-.387-.65-.558-2.983-.128l-11.648-.386 4.66 4.33c-5.076 2.169-10.85-.09-5.632 4.642-8.576-7.377-79.139-2.297-84.039-4.599-3.56 1.63-7.186 2.446-11.005 2.79-1.942-10.338-4.143-20.886-3.56-31.609-8.996.259-.325-12.822-13.464-11.19l1.226.686c-1.36 4.457-10.355-1.287-8.864-4.932 4.144 3.817 13.332-6.776 15.208 2.442l6.345-7.119c25.318-3.899-1.876-18.996 6.344-29.759-.901.773-2.327.944-3.036 1.028 8.22-9.56-6.67-21.482-2.658-23.713l-6.928-.856c10.746-8.195 11.72-9.178 7.445-18.957-1.167.132-3.11 1.242-4.528-.3 5.111-2.313 10.289-4.715 8.87-11.408l-2.201.26 1.16-10.42c-21.36.043 13.147-17.97-10.097-21.1 6.279-2.06 8.287-9.692 11.198-13.122 1.359.044 2.592-.475 3.759-1.629-1.558-.259-2.719.426-3.76 1.629a5.301 5.301 0 0 1-2.843-.817c11.588-3.987-3.627-11.574-2.268-16.037 2.718-2.915 6.411-1.628 10.03-.386-9.121-5.748 10.17-15.866 6.352-17.925-.908-4.246-8.287-1.585-13.014-2.744 2.069-6.263 19.358 1.027 10.806-7.334-.901.944-1.677 2.745-2.91 2.06-1.81-3.22-26.412-8.919-21.427-12.138l3.819 2.143c5.502-5.872-17.482-13.85-2.977-14.794l6.663.558c-8.864-10.078 2.658-4.247-5.178-14.496l-1.1.176c1.359-4.461-7.054-6.907 3.759-9.05l1.418 1.5c.842-5.488.067-6.002-.45-11.622.974-.641 2.651-3.385.39-4.159 8.93-.259 4.144-13.038 3.56-15.567-1.299 4.462-5.117 2.359-8.803 1.072 7.312-2.613 8.088-4.419 2.784-8.062 11.197-.515 23.11-1.244 23.76-8.406-1.684 1.116-2.592 2.877-4.925 2.148-2.327-.734.258-2.403 1.04-2.96-2.267-.73-4.083 1.585-7.968.768 10.753-4.843.782-8.36 4.6-15.39-3.367 2.226-5.568.342-9.453-.475 12.623-.558-10.939-9.604 5.376-6.947-9.844-13.766-.715-34.906-11.27-40.267-4.66-1.415 2.851-5.274 3.043-7.633l-5.569.299c10.038-6.688 3.76-5.186 13.922-13.078-6.603 3.26-9.646 1.885-14.89-1.374l11.523-5.401-8.612-1.072c3.4-2.21 2.1-4.672.755-7.09 9.303-2.184 8.472-10.56 13.684-11.95-11.522-2.446 2.977-6.477-7.896-8.277 1.684-.773 2.977-1.801 4.077-2.917 5.112 1.16 10.813 1.586 8.287-.6l.193-.514 6.026.856c6.278.342-1.75-2.744-6.928-5.528-1.04-.945-2.267-1.805-3.368-2.662l-.066-.812c-.192.127-.325.298-.325.469-1.551-1.33-2.327-2.744-.066-4.672-10.356-7.807 14.247-17.284 0-25.86 1.425 1.287 2.075 3.087-.318 3.557.643-7.158-9.07-14.28-3.826-18.825l6.285.342c2.784-5.274 4.853-9.35 4.468-13.59l7.12-.216c-2.658-6.174 8.87-19.383-5.827-23.16 5.695-1.497-1.684-8.532.192-12.05l-5.37-.855c-1.882-4.589.06-7.378 1.678-10.122.523.43.842.86 1.425 1.243 4.276-2.314 2.659-4.757 0-6.86-.258-1.673-1.226-3.561-3.626-5.959-5.045.769.199 3.088 3.626 5.96.458 2.143-.384 3.86-1.425 5.616-11.33-9.262-.126-17.837-.902-25.944l-1.558-.066 3.302-7.118 1.3 2.854c5.435-1.093 16.374 3.193 18.708-.131 5.893 8.598 62.344 1.888 71.99 3.411l.325-4.18c6.603.233 12.888-.944 21.108-2.595l-.457-3.689c7.06-3.02 18.132 2.617 29.27 2.231-.783 1.414-3.568 1.05-5.57.194 13.332 8.317 28.163-6.048 40.202.021 3.11-1.352 5.244-.882 7.379.022-.319.018-.577.083-.776.19.325.044.776.065 1.3.065 1.292.624 2.651 1.375 4.143 1.95 4.335 3.026 9.122 7.742 8.545 4.096l-1.3-3.556c.26-.066.518-.044.776-.132 3.435 1.48 2.785-1.866.909-4.843 1.816-.646 3.367-1.419 4.6-2.38 2.778 6.389 9.123-2.148 12.882 4.65 2.154-3.057 15.185-2.585 18.552-8.041 3.786.787 7.633 1.55 11.102-.408l1.617 5.02 8.413-6.733c5.118 3.044 7.187 4.822 2.135 8.704 12.238-5.96 9.97-2.248 20.399-8.145l-.517 3.258c3.686-.128 9.705-4.484 11.907-1.801 8.353 6.174 41.242.856 62.675 6.605-4.143-9.587 9.964 4.286 10.806-3.132 1.233 2.253 4.21 3.54.783 5.49 10.872-2.21 16.375 3.6 23.919-2.661 1.26 2.274-2.334 3.323-1.233 4.676.875-.492 3.467-1.972 4.634-.623 1.1 1.352-1.618 1.888-3.335 2.876 11.131-.387 12.265-7.355 13.074-13.898 5.668 3.108 8.486 2.66 12.563-1.63 1.975 2.148 5.244 4.396-1.684 5.147 3.918.32 23.826 3.153 24.244-2.1 1.2 1.327 5.443.388 6.477-.214 8.738.32 9.514.773 18.092.276l-2.36-.834c3.368-6.345 7.12-1.414 14.048-2.187l-.192.641c15.89 4.567 6.861-2.186 22.527 3.026l-.842-3.926c1.458-8.466 13.889 4.997 22.985 1.76l-3.302-2.252c4.952-2.893 13.889 11.515 18.874 12.564 1.1.728-1.717 1.18-3.241 1.717 13.08 4.998 1.683-5.147 11.429-6.346 1.81 2.784-2.3 7.075 4.243 7.588 3.268 2.253 19-9.029 27.93-3.689-1.969-2.142-3.911-4.285.616-5.892 6.895-.773 18.716 8.102 24.994 1.326.875.601 1.193 1.16 1.226 1.695-1.843.602-2.91 1.287-2.526 2.164 1.817-.64 2.593-1.37 2.526-2.164 5.31-1.734 17.224-2.894 20.4-6.56 4.885 13.595 32.915-6.605 32.822 5.937l16.316-.686-.425 1.287c10.422.817 14.081-2.187 17.741-5.208 2.426.834.676 2.015.484 2.679 15.215 2.507 16.74 1.971 29.462-4.29l1.359 4.053c3.427-2.359 22.043 6.35 36.933 1.567-.133.47-.451 1.243-1.618 1.823 16.766-4.804 40.268 11.193 46.354-3.623l11.038-3.69c-11.946-.92-2.685-4.76-2.625-7.42zm-573.35 8.212l.119-.005-.016.026-.102-.021zm.119-.005c.263-.431.465-.9.598-1.41.188.903 1.118 1.334-.598 1.41zM48.21 217.666c-.156 1.084-.868.43-2.382.387a18.998 18.998 0 0 0 2.382-.387zm.01-.082l.04.07c-.016.005-.033.008-.05.012.004-.026.008-.054.01-.082zM151.034 634.15zm728.115-3.43l-.155.009.022-.033.133.025zm-.155.009c-.26.392-.46.817-.594 1.28-.09-.794-1.068-1.182.594-1.28zm339.986-5.154a9.341 9.341 0 0 1-.851-.878c.28.27.563.56.85.878zm94.424-395.898l.005.081a13.86 13.86 0 0 1-.039-.01l.034-.07zm.005.081c.622.17 1.297.301 2.03.388-1.293.043-1.943.655-2.03-.388zm-284.32-195.395zm153.793 587.694c2.008.773 1.266-3.944 2.4-2.657 2.2-3.947-13.306 4.717-2.4 2.657zm37.115-4.098l-5.36.884c2.884-.215 3.918.597 5.41 1.199-.114-.734-.986-1.751-.05-2.083zm.633-.105a2.24 2.24 0 0 0-.633.105zm23.853 3.088l.484-2.96-3.46 1.805zm14.373-3.816l-5.794 4.848 4.468-1.419zm46.811-6.174c-4.05.386-7.51 2.27-10.62 4.03 3.301-.987 6.828-.728 11.396 1.072 2.46-2.23-3.4-3.733-.776-5.102z"/></g><path fill="#fff" d="M66.606 193.397l-6.73-.945c1.552-2.23 2.328-4.501 2.46-6.003.584.685 1.81 1.458 3.368 2.276 1.36 1.286 1.942 2.744.902 4.672zm807.65-164.352c2.108-.022 4.176-.022 6.251-.044 2.878 1.396 4.243 3.347.226 3.777l-1.068-.73C877.173 39.79 897.5 34.727 897.148 40c28.221-.492 55.74 3.689 82.186 3.926l-3.11-5.98 9.229.298c2.426 1.391 3.302 4.694-3.268 4.461 3.46 3.385 11.005-2.898 11.164-4.185 12.888 2.363-4.986 7.013-1.034 7.14l5.376-.47-1.233-.706c4.336-2.469 4.694-5.06 12.596-4.805 5.012 1.182 2.619 3.69 4.594 3.927-.033.425.65.619 3.01.17l11.622.449-4.694-4.717c5.04-2.325 10.775.122 5.725-4.925 8.377 7.936 43.166 2.59 48.008 5.118 7.153-3.495 14.28-3.451 23.084-3.087-2.201-.965-3.56-6.283 4.044-5.682-2.58 10.699 13.092 5.048 19.667 11.97-2.767-4.29 21.79-1.09 13.447-8.176 6.345.86.425 4.12 5.277 6.67 15.023-4.334 33.314 2.613 51.956 1.072.259-1.436-2.877-3.623 1.1-5.81l9.938 7.18c3.693-.729 3.302-8.36 10.104-3.364-.975-1.224-2.433-3.047.06-3.517 29.494 5.511 59.89-1.844 90.088 1.888-3.626 1.608-6.344 4.417-8.804-.149l-.225 5.252c-3.01 3.087-4.177 7.333-1.943 9.946-1.167 2.468 5.92 6.218 1.75 4.076l3.302 8.233-1.36.088c-.649 8.101 8.865 16.682-.781 25.942-.842-1.755-1.552-3.472-1.227-5.615 2.944-2.877 7.412-5.19 3.136-5.964-2.035 2.402-2.91 4.29-3.136 5.964-2.2 2.098-3.593 4.544 0 6.86.55-.388.776-.814 1.227-1.245 1.359 2.745 3.01 5.533 1.458 10.122l-4.594.9c1.617 3.514-4.66 10.505.192 12.006-12.463 3.817-2.718 17.026-4.952 23.2l6.086.214c-.358 4.247 1.359 8.322 3.785 13.596l5.31-.342c4.402 4.545-3.785 11.662-3.235 18.87-2.042-.475-1.491-2.32-.258-3.606-12.08 8.576 8.77 18.096-.034 25.904 1.943 1.927 1.293 3.34-.033 4.672a.808.808 0 0 0-.291-.47l-.067.812c-.934.86-1.975 1.717-2.844 2.701-4.408 2.745-11.237 5.836-5.927 5.49l5.145-.857.166.514c-2.108 2.187 2.718 1.76 7.054.602.94 1.115 2.041 2.142 3.434 2.96-9.262 1.755 3.135 5.83-6.736 8.233 4.439 1.39 3.766 9.804 11.687 11.993-1.155 2.418-2.272 4.882.584 7.09l-7.286 1.072 9.779 5.402c-4.435 3.302-6.994 4.633-12.63 1.374 8.646 7.891 3.276 6.39 11.788 13.121l-4.694-.342c.16 2.402 6.504 6.217 2.586 7.676-8.963 5.361-1.227 26.545-9.547 40.268 13.89-2.662-6.218 6.388 4.535 6.947-3.275.812-5.151 2.744-8.002.513 3.242 7.035-5.21 10.548 3.885 15.395-3.302.813-4.82-1.501-6.795-.816.71.602 2.884 2.23.908 3.004-1.976.685-2.751-1.028-4.21-2.143.584 7.162 10.714 7.891 20.2 8.405-4.501 3.645-3.851 5.445 2.394 8.062-3.136 1.286-6.378 3.385-7.512-1.071-.45 2.529-4.56 15.307 3.076 15.606-1.942.774-.55 3.474.292 4.12-.418 5.66-1.133 6.129-.418 11.662l1.26-1.545c9.195 2.186 2.042 4.588 3.143 9.05l-.909-.127c-6.636 10.205 3.143 4.417-4.402 14.49l5.695-.557c12.304.943-7.246 8.963-2.526 14.798l3.275-2.102c4.177 3.174-16.74 8.917-18.258 12.136-1.067.685-1.717-1.115-2.492-2.102-7.286 8.404 7.445 1.115 9.188 7.377-4.044 1.115-10.256-1.502-11.005 2.7-3.268 2.103 13.113 12.221 5.377 17.97 3.076-1.287 6.185-2.53 8.512.385 1.134 4.458-11.72 12.05-1.91 16.081-.874.558-1.683.773-2.459.773-.875-1.16-1.843-1.844-3.109-1.629.908 1.199 1.942 1.673 3.11 1.629 2.525 3.43 4.209 11.062 9.513 13.121-19.71 3.176 9.62 21.183-8.579 21.1l.975 10.504-1.843-.255c-1.167 6.688 3.202 9.046 7.57 11.404-1.226 1.546-2.91.43-3.884.303-3.627 9.776-2.845 10.72 6.31 18.953l-5.92.856c3.461 2.232-9.161 14.153-2.167 23.761-.683-.131-1.817-.302-2.659-1.076 7.028 10.808-16.083 25.86 5.476 29.808l5.37 7.118c1.585-9.221 9.355 1.37 12.882-2.445 1.299 3.644-6.371 9.393-7.538 4.931l1.067-.685c-11.204-1.629-3.818 11.448-11.462 11.233.165 3.003-.126 6.007-.292 8.963-.292.215-.61.386-.869.6a49.256 49.256 0 0 1-6.443.559c.517-1.028 2.041-2.828-1.784-2.745-2.718 1.414-5.628 1.546-8.996 1.756-2.168-.382-4.243-.9-6.219-1.456-1.359-1.073-4.17-2.658-4.66-1.802 1.392.69 2.983 1.247 4.66 1.802l.259.174-12.04 1.8c-2.876-.518-4.985-1.716-8.77-4.074-4.243 1.458-5.118 2.573-5.41 3.556h-.643l.517.602c-.066.475-.258.944-.65 1.414 0 0-22.01 0-27.479-5.357 4.511 6.34-17.578.302-12.956 5.854-5.212-5-9.27-2.05-16.247-7.097.232 1.541 2.592 2.955-3.885 2.187.358-.558.033-.9-2.426-.303l2.426.303c-.285.47-.968 1.027-1.419 1.37l-.424-.127c-1.034-.43-2.234-.73-3.56-.988-.517-.215-.743-.387-.617-.515 2.785-.214.458-.341 0 0l-3.851.173c1.584-.045 3.043.127 4.468.342.583.258 1.684.557 3.56.988l.358.17c-.292.216-.325.3.126.045 1.558.685 2.784 1.497 3.301 2.358-3.202 3.473-13.497 3.385-16.991 5.187-3.852-.73 1.618-1.714-.484-3.387l-5.21 2.745c-.525-3.39-10.197-5.66-1.168-7.632l-8.16-.171c-4.787-1.889-11.364-2.661-15.474-1.248-3.818-.685-9.679 3.777-6.344 1.116l-12.782 2.148-.1-.862c-12.59-.425-25.96 5.622-40.367-.513 2.685-.558 5.436-1.028 8.738-.813 4.468 1.884 8.061 4.716 9.261 2.011-3.725-1.282-6.669-1.839-9.261-2.01-3.302-1.375-7.087-2.275-10.713.039.65.303 1.299.474 1.975.773-4.27.856-8.645 1.888-15.732.944l-1.392-2.96c-5.47 1.028-16.382-2.916-18.708.127-5.894-7.89-26.446-1.712-36.065-3.13l-.351 3.86c-6.604-.255-12.922.86-21.109 2.402l.484 3.39c-7.054 2.788-18.125-2.446-29.33-2.06.783-1.33 3.627-.988 5.603-.171-13.332-7.676-28.162 5.572-40.235 0-3.01 1.199-5.21.773-7.319-.044.292-.044.517-.083.75-.215l-1.234-.04c-1.326-.557-2.718-1.247-4.21-1.805-4.269-2.784-9.095-7.118-8.578-3.728l1.332 3.258-.808.088c-3.368-1.33-2.725 1.757-.909 4.458-1.75.645-3.334 1.33-4.567 2.23-2.752-5.876-9.063 1.972-12.848-4.33-2.162 2.86-15.228 2.408-18.617 7.436-3.807-.72-7.61-1.412-11.037.368l-1.618-4.633-8.446 6.262c-5.118-2.828-7.22-4.501-2.141-8.063-12.265 5.489-9.938 2.06-20.36 7.505l.484-2.96c-3.719.088-9.679 4.12-11.913 1.63-8.347-5.7-41.269-.769-62.67-6.087 4.144 8.83-9.937-3.947-10.812 2.872-1.226-2.06-4.203-3.258-.742-5.058-10.906 2.055-16.408-3.303-23.953 2.441-1.266-2.055 2.327-3.043 1.227-4.286-.869.47-3.461 1.845-4.595.558-1.133-1.203 1.585-1.718 3.335-2.617-11.17.342-12.298 6.732-13.113 12.778-5.662-2.828-8.48-2.446-12.557 1.501-1.975-1.97-5.244-4.03 1.684-4.715-3.918-.303-23.826-2.916-24.21 1.927-1.234-1.242-5.477-.386-6.478.172-8.738-.255-9.546-.685-18.125-.255l2.393.813c-3.4 5.792-7.153 1.286-14.08 1.971l.191-.597c-15.89-4.203-6.861 2.016-22.527-2.789l.875 3.646c-1.491 7.803-13.889-4.59-22.984-1.63l3.268 2.06c-4.952 2.7-13.889-10.592-18.874-11.536-1.068-.69 1.717-1.115 3.242-1.629-13.08-4.589-1.684 4.76-11.43 5.871-1.783-2.57 2.3-6.516-4.243-6.987-3.268-2.06-19 8.317-27.936 3.386 1.975 2.015 3.95 3.948-.577 5.445-6.928.69-18.749-7.46-24.994-1.243-.875-.557-1.233-1.071-1.26-1.541 1.877-.558 2.911-1.203 2.52-2.015-1.777.596-2.552 1.286-2.52 2.015-5.31 1.585-17.223 2.657-20.398 6.047-4.886-12.524-32.916 6.086-32.823-5.489l-16.282.641.424-1.159c-10.428-.73-14.114 2.015-17.74 4.803-2.394-.772-.717-1.889-.458-2.446-15.208-2.313-16.766-1.839-29.521 3.948l-1.36-3.732c-3.427 2.187-21.943-5.788-36.9-1.37.127-.431.451-1.16 1.684-1.674-16.832 4.462-40.267-10.205-46.353 3.474l-11.072 3.386c14.307.988-2.141 5.963 3.753 8.194-5.635.813-14.565-4.032-7.637-4.76l1.1.641c2.526-7.118-17.873-2.402-17.482-7.246-28.229.514-55.741-3.258-82.16-3.39l3.043 5.533-9.189-.26c-2.4-1.28-3.241-4.285 3.368-4.114-3.567-3.13-11.071 2.701-11.27 3.905-12.881-2.148 4.985-6.522 1.04-6.605l-5.31.47 1.167.645c-4.342 2.27-4.667 4.672-12.629 4.457-4.985-1.07-2.526-3.385-4.528-3.6.06-.387-.65-.558-2.983-.128l-11.648-.386 4.66 4.33c-5.076 2.169-10.85-.09-5.632 4.642-8.576-7.377-79.139-2.297-84.039-4.599-3.56 1.63-7.186 2.446-11.005 2.79-1.942-10.338-4.143-20.886-3.56-31.609-8.996.259-.325-12.822-13.464-11.19l1.226.686c-1.36 4.457-10.355-1.287-8.864-4.932 4.144 3.817 13.332-6.776 15.208 2.442l6.345-7.119c25.318-3.899-1.876-18.996 6.344-29.759-.901.773-2.327.944-3.036 1.028 8.22-9.56-6.67-21.482-2.658-23.713l-6.928-.856c10.746-8.195 11.72-9.178 7.445-18.957-1.167.132-3.11 1.242-4.528-.3 5.111-2.313 10.289-4.715 8.87-11.408l-2.201.26 1.16-10.42c-21.36.043 13.147-17.97-10.097-21.1 6.279-2.06 8.287-9.692 11.198-13.122 1.359.044 2.592-.475 3.759-1.629-1.558-.259-2.719.426-3.76 1.629a5.301 5.301 0 0 1-2.843-.817c11.588-3.987-3.627-11.574-2.268-16.037 2.718-2.915 6.411-1.628 10.03-.386-9.121-5.748 10.17-15.866 6.352-17.925-.908-4.246-8.287-1.585-13.014-2.744 2.069-6.263 19.358 1.027 10.806-7.334-.901.944-1.677 2.745-2.91 2.06-1.81-3.22-26.412-8.919-21.427-12.138l3.819 2.143c5.502-5.872-17.482-13.85-2.977-14.794l6.663.558c-8.864-10.078 2.658-4.247-5.178-14.496l-1.1.176c1.359-4.461-7.054-6.907 3.759-9.05l1.418 1.5c.842-5.488.067-6.002-.45-11.622.974-.641 2.651-3.385.39-4.159 8.93-.259 4.144-13.038 3.56-15.567-1.299 4.462-5.117 2.359-8.803 1.072 7.312-2.613 8.088-4.419 2.784-8.062 11.197-.515 23.11-1.244 23.76-8.406-1.684 1.116-2.592 2.877-4.925 2.148-2.327-.734.258-2.403 1.04-2.96-2.267-.73-4.083 1.585-7.968.768 10.753-4.843.782-8.36 4.6-15.39-3.367 2.226-5.568.342-9.453-.475 12.623-.558-10.939-9.604 5.376-6.947-9.844-13.766-.715-34.906-11.27-40.267-4.66-1.415 2.851-5.274 3.043-7.633l-5.569.299c10.038-6.688 3.76-5.186 13.922-13.078-6.603 3.26-9.646 1.885-14.89-1.374l11.523-5.401-8.612-1.072c3.4-2.21 2.1-4.672.755-7.09 9.303-2.184 8.472-10.56 13.684-11.95-11.522-2.446 2.977-6.477-7.896-8.277 1.684-.773 2.977-1.801 4.077-2.917 5.112 1.16 10.813 1.586 8.287-.6l.193-.514 6.026.856c6.278.342-1.75-2.744-6.928-5.528-1.04-.945-2.267-1.805-3.368-2.662l-.066-.812c-.192.127-.325.298-.325.469-1.551-1.33-2.327-2.744-.066-4.672-10.356-7.807 14.247-17.284 0-25.86 1.425 1.287 2.075 3.087-.318 3.557.643-7.158-9.07-14.28-3.826-18.825l6.285.342c2.784-5.274 4.853-9.35 4.468-13.59l7.12-.216c-2.658-6.174 8.87-19.383-5.827-23.16 5.695-1.497-1.684-8.532.192-12.05l-5.37-.855c-1.882-4.589.06-7.378 1.678-10.122.523.43.842.86 1.425 1.243 4.276-2.314 2.659-4.757 0-6.86-.258-1.673-1.226-3.561-3.626-5.959-5.045.769.199 3.088 3.626 5.96.458 2.143-.384 3.86-1.425 5.616-11.33-9.262-.126-17.837-.902-25.944l-1.558-.066 3.302-7.118 1.3 2.854c5.435-1.093 16.374 3.193 18.708-.131 5.893 8.598 62.344 1.888 71.99 3.411l.325-4.18c6.603.233 12.888-.944 21.108-2.595l-.457-3.689c7.06-3.02 18.132 2.617 29.27 2.231-.783 1.414-3.568 1.05-5.57.194 13.332 8.317 28.163-6.048 40.202.021 3.11-1.352 5.244-.882 7.379.022-.319.018-.577.083-.776.19.325.044.776.065 1.3.065 1.292.624 2.651 1.375 4.143 1.95 4.335 3.026 9.122 7.742 8.545 4.096l-1.3-3.556c.26-.066.518-.044.776-.132 3.435 1.48 2.785-1.866.909-4.843 1.816-.646 3.367-1.419 4.6-2.38 2.778 6.389 9.123-2.148 12.882 4.65 2.154-3.057 15.185-2.585 18.552-8.041 3.786.787 7.633 1.55 11.102-.408l1.617 5.02 8.413-6.733c5.118 3.044 7.187 4.822 2.135 8.704 12.238-5.96 9.97-2.248 20.399-8.145l-.517 3.258c3.686-.128 9.705-4.484 11.907-1.801 8.353 6.174 41.242.856 62.675 6.605-4.143-9.587 9.964 4.286 10.806-3.132 1.233 2.253 4.21 3.54.783 5.49 10.872-2.21 16.375 3.6 23.919-2.661 1.26 2.274-2.334 3.323-1.233 4.676.875-.492 3.467-1.972 4.634-.623 1.1 1.352-1.618 1.888-3.335 2.876 11.131-.387 12.265-7.355 13.074-13.898 5.668 3.108 8.486 2.66 12.563-1.63 1.975 2.148 5.244 4.396-1.684 5.147 3.918.32 23.826 3.153 24.244-2.1 1.2 1.327 5.443.388 6.477-.214 8.738.32 9.514.773 18.092.276l-2.36-.834c3.368-6.345 7.12-1.414 14.048-2.187l-.192.641c15.89 4.567 6.861-2.186 22.527 3.026l-.842-3.926c1.458-8.466 13.889 4.997 22.985 1.76l-3.302-2.252c4.952-2.893 13.889 11.515 18.874 12.564 1.1.728-1.717 1.18-3.241 1.717 13.08 4.998 1.683-5.147 11.429-6.346 1.81 2.784-2.3 7.075 4.243 7.588 3.268 2.253 19-9.029 27.93-3.689-1.969-2.142-3.911-4.285.616-5.892 6.895-.773 18.716 8.102 24.994 1.326.875.601 1.193 1.16 1.226 1.695-1.843.602-2.91 1.287-2.526 2.164 1.817-.64 2.593-1.37 2.526-2.164 5.31-1.734 17.224-2.894 20.4-6.56 4.885 13.595 32.915-6.605 32.822 5.937l16.316-.686-.425 1.287c10.422.817 14.081-2.187 17.741-5.208 2.426.834.676 2.015.484 2.679 15.215 2.507 16.74 1.971 29.462-4.29l1.359 4.053c3.427-2.359 22.043 6.35 36.933 1.567-.133.47-.451 1.243-1.618 1.823 16.766-4.804 40.268 11.193 46.354-3.623l11.038-3.69c-11.946-.92-2.685-4.76-2.625-7.42zm-573.35 8.212l.119-.005-.016.026-.102-.021zm.119-.005c.263-.431.465-.9.598-1.41.188.903 1.118 1.334-.598 1.41zM48.21 217.666c-.156 1.084-.868.43-2.382.387a18.998 18.998 0 0 0 2.382-.387zm.01-.082l.04.07c-.016.005-.033.008-.05.012.004-.026.008-.054.01-.082zM151.034 634.15zm728.115-3.43l-.155.009.022-.033.133.025zm-.155.009c-.26.392-.46.817-.594 1.28-.09-.794-1.068-1.182.594-1.28zm339.986-5.154a9.341 9.341 0 0 1-.851-.878c.28.27.563.56.85.878zm94.424-395.898l.005.081a13.86 13.86 0 0 1-.039-.01l.034-.07zm.005.081c.622.17 1.297.301 2.03.388-1.293.043-1.943.655-2.03-.388zm-284.32-195.395zm153.793 587.694c2.008.773 1.266-3.944 2.4-2.657 2.2-3.947-13.306 4.717-2.4 2.657zm37.115-4.098l-5.36.884c2.884-.215 3.918.597 5.41 1.199-.114-.734-.986-1.751-.05-2.083zm.633-.105a2.24 2.24 0 0 0-.633.105zm23.853 3.088l.484-2.96-3.46 1.805zm14.373-3.816l-5.794 4.848 4.468-1.419zm46.811-6.174c-4.05.386-7.51 2.27-10.62 4.03 3.301-.987 6.828-.728 11.396 1.072 2.46-2.23-3.4-3.733-.776-5.102z"/></g></g></svg>