<?xml version="1.0" encoding="utf-8"?>
<!-- Generator: Adobe Illustrator 19.0.1, SVG Export Plug-In . SVG Version: 6.00 Build 0)  -->
<svg version="1.1" xmlns="http://www.w3.org/2000/svg" xmlns:xlink="http://www.w3.org/1999/xlink" x="0px" y="0px"
	 viewBox="230 -101 1072 994" style="enable-background:new 230 -101 1072 994;" xml:space="preserve">
<style type="text/css">
	.st0{fill:#B6E4F2;}
	.st1{fill-rule:evenodd;clip-rule:evenodd;fill:#B6E4F2;}
</style>
<g id="Layer_1">
	<g>
		<g>
			<g>
				<path class="st0" d="M1166.1,178.2c3.9,1,4.7,4.4,5.7,7.6c0.8,2.5,1.4,5.1,2.2,7.6c0.4,1.3,1.3,1.4,2.3,0.8
					c0.7-0.4,1.3-1.1,2-1.6c1.5-1,2.9-2.2,4.6-3c2.3-1.1,4.7-2,7.1-2.8c1.2-0.4,2.7-0.4,3.8,0c7.7,2.6,11.5,13.3,6.9,19.6
					c-1.7,2.3-4.1,4.2-6.5,5.8c-5.1,3.3-10.5,6.3-15.8,9.5c-1.7,1-3.5,1.8-5,3c-4.2,3.2-6.8,7.3-7.7,12.6c-0.4,2.2-1.4,3.3-2.6,3.3
					c-1.3,0-2.5-1.4-2.9-3.3c-0.6-3-1.2-5.9-1.6-8.9c-0.8-5.1-2.4-10-4.1-14.9c-0.8-2.4-1.2-4.8-1.7-7.3c-0.4-1.9-0.7-3.8-1.3-5.7
					c-1.3-4.3-0.3-8.4,1.2-12.4c0.3-0.9,0.8-1.7,1.1-2.5c1.4-3.8,4.3-6,7.8-7.4c1.3-0.5,2.9-0.3,4.4-0.5
					C1166.1,177.9,1166.1,178,1166.1,178.2L1166.1,178.2z M1163.9,224.5c0.9-0.4,1.8-0.4,2.2-0.9c2.4-3.3,5.6-5.4,9.1-7.3
					c3.4-1.9,6.8-3.8,10.2-5.7c0.8-0.5,1.7-0.9,2.6-1.4c2.1-1.3,4.2-2.4,6.2-3.9c1.8-1.3,2.6-3.3,2.2-5.6c-0.3-2.4-1.5-4.3-3.2-5.9
					c-1.2-1.2-2.9-1.5-4.4-0.9c-4.5,1.7-8.3,4.4-11,8.5c-1.8,2.7-3.5,5.4-5.2,8.1c-0.7,1.1-1.8,1.4-3,1.1c-1.2-0.3-1.8-1.3-1.8-2.5
					c0-2.9,0-5.8,0.1-8.7c0.1-4-0.1-8-1.5-11.9c-0.5-1.4-1-3.2-2.9-3.1c-1.9,0-2.9,1.6-3.6,3c-1.6,3-2.6,6.3-2.3,9.6
					c0.5,4.8,1.4,9.7,2.5,14.4c0.6,2.9,2,5.6,2.9,8.4C1163.4,221.2,1163.5,222.7,1163.9,224.5L1163.9,224.5z"/>
			</g>
			<g>
				<path class="st0" d="M742.3,486.1c1.1-0.3,2.2-0.9,3.3-0.9c2.9,0,5.7,0.7,7.8,3c0.5,0.5,1,1,1.5,1.5c2.2,2.5,4.1,5.1,4.5,8.6
					c0.1,1.5,0.5,3,0.7,4.5c0.3,1.9,0.8,3.8,0.9,5.7c0.2,4,0.5,8,1.4,11.9c0.5,2.3,1,4.6,1.4,6.9c0.3,1.5-0.2,2.8-1.1,3.2
					c-0.9,0.4-1.9-0.2-2.8-1.6c-2.1-3.5-5.2-5.7-9.2-6.8c-1.5-0.4-3-0.5-4.5-0.7c-4.7-0.7-9.4-1.3-14.1-2.2
					c-2.2-0.4-4.5-1.1-6.4-2.3c-5.2-3.2-5.5-12.1-0.7-16.2c0.7-0.6,1.8-1,2.7-1.1c2-0.2,4-0.2,5.9-0.1c1.4,0.1,2.8,0.5,4.2,0.8
					c0.6,0.2,1.3,0.5,1.9,0.5c0.9,0.1,1.5-0.2,1.4-1.3c-0.2-2-0.5-4.1-0.6-6.1c-0.2-2.6-0.6-5.2,1.9-7.1
					C742.4,486.3,742.4,486.2,742.3,486.1L742.3,486.1z M756.8,515.4c-0.2-2.3,0-4.6-0.4-6.9c-0.6-3.7-1.4-7.5-2.4-11.1
					c-0.7-2.5-2.4-4.5-4.4-6.2c-0.9-0.8-2.1-1.6-3.4-1.1c-1.4,0.5-1.2,2-1.2,3.1c0,3.2,1.1,6.1,2.3,9c0.9,2.1,1.8,4.2,2.6,6.3
					c0.3,0.9,0.2,1.7-0.6,2.3c-0.8,0.6-1.6,0.7-2.5,0.1c-2-1.4-4-2.9-6.1-4.3c-3.1-2.2-6.7-3-10.4-2.9c-1.3,0-2.4,0.7-2.9,1.9
					c-0.8,1.6-1,3.4-0.6,5.2c0.4,1.8,1.5,2.9,3.2,3.4c1.8,0.5,3.7,0.7,5.6,1c0.8,0.1,1.5,0.2,2.3,0.3c3,0.4,6,0.8,9,1.1
					c3,0.3,6,1,8.6,2.6c0.4,0.3,1.1,0,1.8,0C757.2,517.7,756.9,516.5,756.8,515.4L756.8,515.4z"/>
			</g>
			<g>
				
					<image style="overflow:visible;enable-background:new    ;" width="51" height="71" xlink:href="ED026411.png"  transform="matrix(1 0 0 0.9705 550 224.1017)">
				</image>
			</g>
			<g>
				
					<image style="overflow:visible;enable-background:new    ;" width="48" height="30" xlink:href="ED026413.png"  transform="matrix(1 0 0 1 1254 84)">
				</image>
			</g>
			<g>
				<path class="st0" d="M603.3,699c-0.1,0.3-0.2,0.7-0.3,1.2c0.4,0.1,0.7,0.1,0.9,0.2c0.3,0.7,0.5,1.2,0.8,1.9
					c0.3-0.6,0.4-0.9,0.6-1.4c0.8,0.4,1.6,0.9,2.5,1.1c0.6,0.1,1.3-0.2,2-0.3c0-0.1,0-0.2,0-0.3c0.2,0.2,0.3,0.4,0.5,0.5
					c0.6-0.1,1.2-0.2,1.8-0.3c0.2,0,0.5-0.1,0.7,0c0.7,0.4,1.3,1,2,1.4c0.6,0.3,1.2,0.4,2,0.6c0,0.1,0.1,0.4,0.2,0.8l-1.1,0.6
					c0.4,0.1,0.6,0.1,0.9,0.1c-0.2,0.2-0.4,0.6-0.5,0.6c-1.2,0.1-1.9,0.7-2,1.9c0,0.1-0.1,0.2-0.1,0.3c-0.3-0.1-0.7-0.4-0.7-0.4
					c-0.3,0.3-0.5,0.7-0.7,1.1h-1.7c0.1,1.3,0.1,1.3-1.4,1.5c-0.4,0-0.8,0.2-1.1,0.2c-0.9-0.1-0.9-0.2-1.2-1c-0.4,0.7-0.7,1.3-1,1.9
					c-0.9,0.2-1.7,0.3-2.6,0.4c-0.3,0-0.8-0.1-0.8-0.3c-0.2-0.7-0.9-0.8-1.3-0.8c-0.5,0.1-1,0.3-1.3,1c-0.2,0.7-0.8,1.2-1.2,1.8
					c-0.1-0.1-0.2-0.2-0.1-0.1c-0.5,0.3-1,0.6-1.4,0.9c-0.2,0.1-0.6,0.2-0.7,0.4c-0.5,0.7-1,0.1-1.5,0c-0.3,0-0.6-0.3-0.8-0.2
					c-1.2,0.2-1.6-0.1-2-1.2c-0.1-0.2-0.2-0.5-0.4-0.7c0,0.1-0.1,0.2-0.1,0.2c-0.6-0.2-1.3-0.4-1.9-0.5c-0.7-0.2-1.3-0.3-2.1-0.5
					c-0.1,0.4-0.9,0.8-0.3,1.7c0.1,0.2-0.1,0.7-0.3,0.9c-0.1,0.2-0.5,0.2-0.8,0.1c-0.4-0.1-0.7-0.4-1.1-0.6c-0.1,0.8-0.4,1.3-1.3,1
					c-0.6-0.1-1,1.2-0.5,1.7c0.5,0.5,0.2,0.8-0.1,1c-0.6,0.5-1.3,1-2.1,1.3c-0.5,0.1-0.9,0.4-1.5,0.7c-0.1-0.1-0.2-0.1-0.3-0.1
					c-0.4,0.6-1,0.2-1.5,0.3c-1.2,0.2-2.3,0.7-3.3,1.4c-1.2,0.9-2.7,0.9-4.1,1c-0.9,0.1-2-0.2-2.8-0.6c-0.4-0.3-1-0.4-1.4-0.7
					c-0.6-0.4-0.7-0.9-0.2-2.1c-0.5,0.3-0.8,0.5-1.1,0.7c-0.1-0.1-0.3-0.3-0.5-0.6h0.9c-0.1-0.1-0.1-0.3-0.2-0.3
					c-1.2-0.2-1.2-1.2-1.4-2.1c-0.2-1,0-2-1.3-2.5c-0.2-0.1-0.2-0.5-0.4-1c-0.4,0.5-0.6,0.9-1,1.3c-0.1-0.9-0.7-1.1-1.4-1.1
					l-0.2,0.3c0.4,0.2,0.8,0.4,1.2,0.6c-0.1,0.1-0.2,0.2-0.3,0.3c-0.5-0.1-1-0.3-1.6-0.4c-0.5,0.2-1,0.4-1.6,0.6l0.1,0.2l-1-0.2
					c0,0.3,0,0.6,0,0.7c-1.6,0.5-3.3,0.2-4.8,0.8c-0.3,0.1-0.7,0.1-0.8,0.2c-0.4,0.7-0.9,0.8-1.6,0.9c-0.7,0.1-1.3,0.4-2,0.6
					c-0.1,0-0.2,0.1-0.3,0.1c-0.9-0.2-1.9-0.4-2.8-0.6c-0.2-0.1-0.5-0.1-0.6-0.2l-0.6-1.1c-0.2,0.3-0.3,0.4-0.4,0.5
					c-0.7-0.2-1.3-0.4-2-0.5c-1-0.2-1.9-0.4-2.9-0.7c-0.3-0.1-0.7-0.1-0.9-0.3c-1.4-0.7-2.6-0.2-3.9,0.3c-0.2,0.1-0.2,0.4-0.4,0.7
					l-1.6,0.5l0,0.3c-0.7-0.3-1.3-0.5-2-0.8c-0.2-0.1-0.4-0.5-0.6-0.9c-0.1,0.1-0.3,0.3-0.5,0.4c-0.6-0.6-1.1-0.7-1.5-0.1
					c-0.4,0-0.7,0-1-0.1c-0.4-0.1-0.8-0.3-1.2-0.4c-0.1-0.1-0.3-0.1-0.4-0.1c-0.3,0-0.6-0.1-0.9-0.1c-0.4,0-0.8,0-1.2,0
					c-0.2,0-0.5,0-0.6,0l-1.6,0.5v1.3c-1.4,0.3-3.7-0.8-4.4-2.2c-0.5,0.3-0.9,0.8-1.4,0.9c-1,0.3-2,0.7-3,0c0,0-0.3,0.3-0.6,0.6
					c-0.2-0.1-0.5-0.3-0.9-0.5c-0.1-0.1-0.2-0.3-0.2-0.3c-0.8,0.4-1.2-0.5-1.9-0.5c-0.3,0-0.7-0.5-1.1-0.8c-0.1,0.1-0.2,0.3-0.3,0.5
					c-0.4-0.4-0.7-0.8-1-1.2c-0.3-0.4-0.7-0.7-1.2-1.2c-0.1,0-0.2,0.1-0.3,0.1l-0.4-1.2c0.3,0.3,0.4,0.4,0.5,0.6l0.2-0.1
					c-0.1-0.3-0.1-0.7-0.4-0.9c-0.2-0.2-0.6,0-1,0c-0.4-1-0.6-2.1,0-3.2c0.1-0.2,0.5-0.3,0.7-0.2c0.6,0.2,1.2-0.2,1.1-0.9
					c-1.7,0.4-0.3-1-0.8-1.2c0.6-0.6,1.3-1.1,1.8-1.7c0.7-0.8,2.6-1.2,3.5-0.6c0.4-0.8,1.2-0.4,1.4-0.1c0.7,0.8,1.8,0.3,2.5,1
					c0,0.1-0.1,0.2-0.1,0.5c0.4,0,0.7,0,1,0c0.4,0,1,0.2,1.3,0c0.4-0.2,0.7-0.6,1-1c0.8-0.9,1.7-1.6,2.6-2.3c0.6-0.4,1.1-1.1,2-0.9
					c0,0,0.3-0.4,0.3-0.6c-0.2-0.7,0.2-0.8,0.8-0.6c0-0.2,0-0.4,0.1-0.6c0,0,0.1,0,0.1,0v0.9c0.8-1.3,0.8-1.3,1.5-1.6
					c0.1-0.4,0.1-0.9,0.3-0.9c0.4-0.2,0.9-0.6,1.5-0.3c0.1,0.1,0.5,0,0.6-0.2c0.3-0.6,0.8-0.6,1.3-0.7c0.9-0.1,1.6,0,2.4,0.4
					c0.4,0.2,0.9,0,1.1,0c0.5-0.5,0.8-0.9,1.3-1.1c0.2-0.1,0.7,0.1,1,0.3c0.9-0.2,0.9-1.9,2.5-1.4l-0.6-0.6c1.7,0.4,1.6-1.4,2.6-1.9
					c-0.6-0.2-0.9-0.4-0.4-0.9c0.2-0.2,0.3-0.5,0.4-0.7c0.1,0,0.3,0.1,0.4,0.1c0-0.1,0.1-0.1,0.1-0.2c-0.4-1,0.4-1.6,0.7-2.3
					c0.2-0.4,0.4-0.8,0.7-1.2c0.6,0.3,1.1,0,1.3-0.8c0-0.1,0.2-0.2,0.3-0.3c0.7-0.2,1.3-0.4,1.6-1.1c0.1-0.3,0.7-0.4,1-0.6
					c0.1,0.1,0.1,0.2,0.3,0.4c0.1-0.3,0.2-0.5,0.2-0.6l2-0.5v0.8c0.1,0,0.2,0,0.4,0c-0.1-0.6-0.3-1.2-0.1-1.7c0.3-1.1,0.1-2.4,1-3.4
					c0.1-0.1,0-0.4,0-0.6c0-0.1-0.1-0.2-0.1-0.3c0.5-1,0.6-2.3,1.9-2.9c0.5-0.2,0.7-0.8,1.1-1.3c0.3-0.3,0.5-0.7,0.7-0.9
					c0.4,0.3,0.7,0.4,1.1,0.7c-0.1-1.2,0.2-1.4,1.2-1.3c0.3,0,0.7,0,0.9-0.1c0.8-0.7,1.8-0.7,2.7-0.9c0.3-0.1,0.5-0.3,0.9-0.6
					l0.3,0.2c0.8-0.3,1.4-0.5,2.1-0.7c0,0.1,0,0.1,0.1,0.2c-0.2,0.2-0.5,0.4-0.7,0.6c0.7-0.1,1.3,0,1.8-0.6c0.2-0.3,0.9-0.2,1.4-0.1
					c0.9,0.2,1.7,0.6,2.6,0.9c0.1,0,0.2,0,0.3,0c1-0.1,1.9-0.2,3-0.3v0.9l0.2,0.1c0.1-0.2,0.1-0.4,0.2-0.7c0.3,0.1,0.3,1.1,0.8,0.3
					c-0.1,0.5-0.1,1-0.2,1.7c0.3-0.1,0.6-0.1,0.8-0.2c0.9-0.9,1.5-0.2,2.1,0.4c0.2,0.2,0.5,0.2,0.7,0.4c0.3,0.2,0.6,0.5,0.9,0.6
					c0.6,0.2,0.8,0.5,1,1.5c1.3,0.1,1.6,0.4,1.6,1.7c0,0.3,0.2,0.6,0.4,0.8c0.3,0.5,1,1,0.9,1.5c-0.2,1.4,1.2,2,1.2,3.2
					c0,0.2,0.1,0.4,0.2,0.6c0.2,0.3,0.3,0.6,0.4,0.7c0.5-0.3,0.7-0.5,1-0.5c0.7,0,1.4,0.2,2.1,0.2c0.9,0,1.8,0,2.8,0
					c0.4,0.9,0.2,1.1,1.7,0.4c-0.1,0.2-0.1,0.4-0.2,0.7c0.2,0.1,0.5,0.2,0.7,0.3c0-0.1,0-0.2,0-0.3c0-0.2,0-0.4,0.1-0.5
					c0.3-0.2,1.3,0.3,1.4,0.6c0.1,0.5,0.4,0.6,0.9,0.6c0.7,0,1.7-0.2,1.9,1c0,0.2,0.4,0.4,0.5,0.6c0.2,0.2,0.3,0.4,0.5,0.7
					c0.1,0.1,0.1,0.3,0.1,0.3c0.9,0.1,0.4,1.1,1,1.4c0.1,0,0,0.4,0,0.6c0,0.3-0.1,0.5-0.1,0.8c0.3,0.9,0.3,0.9-0.1,1.2
					c0.3,0.9,0.6,1.6,0.8,2.4c0.1,0.3,0.2,0.5,0.2,0.8c0,0.2-0.1,0.4-0.1,0.5c-0.2-0.1-0.3-0.1-0.4-0.2l-0.4,0.9
					c0.3-0.1,0.6-0.2,0.9-0.2c-0.2,1,0.8,1.2,1.2,1.7c-0.2,0.1-0.5,0.2-0.7,0.3c0,0.1,0,0.2-0.1,0.3c1.1-0.4,1.7,0.3,2.4,0.9
					c-0.1-0.2-0.2-0.4-0.3-0.8c0.5,0,0.9,0.1,1.5,0.1l0.3-1.6c0.2,0.5,0.3,0.9,0.4,1.3l2.3,0.2C602.3,698.1,602.8,698.5,603.3,699
					L603.3,699z M580,719.4L580,719.4C580,719.4,580,719.4,580,719.4z M569.1,675.3c-1-0.5-1.9-0.8-2.7-1.2
					c-1.2-0.6-2.3-1.4-3.5-1.7c-2.1-0.5-4.2-0.9-6.3-0.3c-1.5,0.4-1.5,0.4-1.5,1.8c-0.5-0.8-1-0.4-1.3,0.1c-0.5,1-0.9,2-1.3,3
					c1.6,0.3,1.1-1.6,2.3-1.9c-0.3,0.4-0.5,0.7-0.8,1.2c0.5-0.1,0.8-0.1,1-0.2c0.6-0.2,1.2-0.5,1.9-0.7c0.7-0.2,1.4-0.3,2.2-0.4
					c0.8-0.1,1.6-0.2,2.3-0.2c0.1,0,0.3,0.3,0.5,0.5c1-0.3,2-0.3,3,0.3c0.7,0.5,1.5,0.9,2.3,1.3c0.1,0.1,0.4,0,0.6-0.1l0-0.8
					C568.1,675.8,568.6,675.6,569.1,675.3L569.1,675.3z M596.7,707.9c-0.1,0.3-0.3,0.8-0.4,0.8c-1.1,0-1.6,0.7-1.7,1.5
					c-0.2-0.1-0.4-0.2-0.5-0.4c-0.1,0.2-0.1,0.3-0.2,0.5c-0.1,0.2-0.1,0.4-0.2,0.5c-0.5,0.5-0.6,0.8,0.2,0.9c0.2,0,0.3,0.2,0.5,0.3
					c1,0.6,2.1,0.6,3.3,0.4c0.9-0.2,0.7-0.9,1-1.3c0.3-0.5-0.3-1.8-0.8-2.1C597.4,708.8,597,708.3,596.7,707.9L596.7,707.9z
					 M572.7,718.6c-1.9-0.7-3.7-1.3-5.4-1.9c0.7,1.2,1.5,2.4,2.7,3.3c0.5,0.3,1.2,0.5,1.8,0.6c0.5,0.1,1.1,0,1.6-0.2
					c0.6-0.2,1.1-0.4,1.7-0.7C574.5,718.7,572.9,719.7,572.7,718.6L572.7,718.6z M550.8,674.8c-2.3,1.7-2.7,4.3-2.3,7.2
					c0.2,0.1,0.5,0.1,0.7,0.2c0.2-0.3,0.6-0.6,0.6-0.9c0-0.7,0.8-1.3,0.1-2c-0.1-0.1,0.1-0.4,0.2-0.5c0.1-0.2,0.3-0.3,0.5-0.5
					c0.2-0.2,0.3-0.5,0.5-0.8c0.1-0.1,0-0.3,0-0.7c-0.3,0.3-0.4,0.5-0.5,0.6c-0.1,0.1-0.3,0.1-0.5,0c-0.1,0-0.1-0.3-0.1-0.4
					c0.3-0.3,0.7-0.6,1-0.8C550.9,675.8,550.9,675.3,550.8,674.8z M588.3,685.6c-0.1,0.1-0.2,0.3-0.3,0.4c0.5,0.6,1.2,1.2,1.5,1.9
					c0.3,0.7,1.3,1.3,0.6,2.3c0,0.1,0.2,0.4,0.4,0.5c0.2,0.1,0.5,0.1,0.8,0.2c0.9,0.2,1.5-0.2,1.2-1.1c-0.5-1.2-1-2.5-2.3-3.1
					C589.5,686.3,588.9,686,588.3,685.6L588.3,685.6z M575.2,683.7c0.1,0.1,0.2,0.1,0.3,0.2c0.2-0.3,0.6-0.5,0.6-0.8
					c0-0.9,0-1.8-0.3-2.6c-0.5-1.6-1.1-3.3-2.4-4.6c-0.2-0.2-0.2-0.5-0.2-0.6c-0.5-0.1-0.8-0.2-1.2-0.3l-0.2,0.1
					c0.7,1,1.3,2.1,2,3.2l-0.5,0.3l0.1,0.2c0.3-0.1,0.5-0.1,0.8-0.2c0.3,0.8,0.6,1.6,0.8,2.5C575.2,681.9,575.2,682.8,575.2,683.7
					L575.2,683.7z M597.7,703.5c0.9,1.6,1.9,3.2,2.8,4.7c-0.1,0-0.3,0.1-0.6,0.2c0.1,0.1,0.2,0.2,0.2,0.3c0.3-0.1,0.6-0.1,0.7-0.2
					c0.5-1.4,0.1-2.5-0.9-3.6c-0.5,0-0.5-0.5-0.4-0.9l-1-1.3C598.3,703,598.1,703.3,597.7,703.5z M532.6,701.9
					c0.7-0.9,1.6-1.7,1-2.9c-2-0.2-2.9,1.4-4,2.5l0.1,0.3c0.7-0.2,1.4-0.3,2.2-0.5C532.1,701.4,532.3,701.6,532.6,701.9L532.6,701.9
					z M546.2,685c-1.7-0.9-3.5-0.7-4.8,0.6c-0.4,0.4-0.8,0.9-1.1,1.4c-0.1,0.2-0.1,0.5-0.1,0.7l2.9-1.5
					C543.4,684.5,545.1,685.4,546.2,685z M540.8,712.5c-0.6,0.2-1.1,0.3-2,0.5c0.3-0.5,0.5-0.7,0.6-1c-0.9-0.2-1.6-0.3-2.4-0.4
					c-0.1,0.5-0.2,1-0.3,1.5c1.6,0.1,3,0.9,4.6,0.4C541.1,713.2,540.9,712.9,540.8,712.5L540.8,712.5z M571.7,698.1
					c-0.2,0-0.4,0.1-0.5,0.1c-0.8,0.1-0.6,0.8-0.7,1.2c-0.1,0.5,0.4,0.4,0.7,0.4c0.4,0,0.8,0,1.2,0c1.6,0,1.9-0.2,1.8-1.7l-2.3,0.8
					C571.8,698.6,571.7,698.4,571.7,698.1L571.7,698.1z M517.5,707.1c0.2,1.1,0.5,2,0.7,3c0.1,0.3,0.2,0.7,0.4,1.2l-0.1,0.8
					c0.8-0.7-0.3-2,1.3-2.5c-0.6-0.8-1.1-1.5-1.7-2.2c-0.1-0.1-0.2-0.2-0.3-0.3C517.7,707.1,517.6,707.1,517.5,707.1L517.5,707.1z
					 M510.5,707.2c-0.3,0.2-0.5,0.3-0.6,0.4c-0.3,0.9-0.6,1.9-0.9,2.8c-0.2,0.6,0.3,0.8,0.7,0.7c0.2,0,0.5-0.4,0.6-0.6
					C510.4,709.5,510.4,708.5,510.5,707.2L510.5,707.2z M583.4,684.7c-0.2,0.6-0.3,1.1-0.4,1.5c1.1,0.4,2.1,0.7,3,1.1
					C585.6,686.1,584.6,685.5,583.4,684.7z M593,700.5l-0.6,0.1c0,0.2,0,0.5,0,0.5c-0.8,0.1-1.1,0.9-1.6,1.3
					c-0.6,0.5-0.7,1.1-0.8,1.7c0.1,0,0.1,0.1,0.2,0.1l0.7-1.7c0.6,0.6,0.9,0.6,1-0.2c0.1-0.2,0.4-0.4,0.6-0.6l0.1,0.1
					C592.8,701.4,592.9,701,593,700.5L593,700.5z M571.2,715c0.6,0.6,1,1.3,1.7,1.6c0.7,0.3,1.5,0.2,2.2,0.3c0-0.1,0-0.2,0-0.2
					c-1.1-0.5-2.2-1-3.3-1.5c0-0.1,0.1-0.2,0.1-0.3L571.2,715L571.2,715z M567.6,677.4l1.4-0.3c0.1,0.3,0.3,0.7,0.5,1.2
					c0.1,0,0.1,0,0.2-0.1v-0.8l0.9,0.5c0.1-0.1,0.1-0.1,0.2-0.2c-0.5-0.5-1.1-0.9-1.7-1.5c0.1-0.1,0.3-0.2,0.5-0.4
					C568.3,675.6,568.2,676.8,567.6,677.4L567.6,677.4z M585.4,704.1c-0.1,0-0.2,0.1-0.3,0.1c-0.1,0.4-0.3,0.8-0.2,1.2
					c0.1,0.4,0.5,0.9,0.9,1c0.6,0.2,0.6-0.5,0.5-0.8C586.2,705.1,585.8,704.6,585.4,704.1L585.4,704.1z M574.3,710.6
					c-0.7-0.1-1.3-0.2-1.8-0.1c-0.4,0.1-0.6,0.7-0.9,1l0.1,0.2c0.7-0.2,1.4-0.3,2-0.5l0.2,0.7c0.1,0,0.2,0,0.2-0.1
					C574.1,711.4,574.2,711,574.3,710.6L574.3,710.6z M542.1,690.8c0.5-0.2,0.9-0.4,1.3-0.5c-0.1-0.7-0.3-1.2-1.2-1.1
					c-1,0.1-0.7,0.8-0.7,1.2l1-0.5L542.1,690.8z M512.7,708c-1.4-0.1,0,1.2-0.8,1.3c-0.1-0.2-0.1-0.3-0.2-0.5c-0.1,0-0.1,0-0.2,0.1
					c0.2,0.6,0.5,1.2,0.8,1.9c0.1-0.1,0.4-0.2,0.4-0.4C512.7,709.6,512.7,708.8,512.7,708L512.7,708z M506.2,705
					c0.2-0.4,0.4-0.8,0.6-1.2c0.1-0.2,0.1-0.7,0-0.7c-0.3-0.1-0.7-0.2-1.1-0.2c-0.1,0-0.2,0.6-0.1,0.9
					C505.7,704.2,505.9,704.6,506.2,705L506.2,705z M539.8,690.1c-1.1,0.1-1.7,1.4-1.1,3C539.1,692.1,539.5,691,539.8,690.1z
					 M579.9,686.1c0.1,0,0.1,0.1,0.2,0.1l1-0.2c0.5-0.4,1-0.7,1.4-1c-0.5-0.6-1.1-0.2-1.6,0C580.5,685.2,580.3,685.7,579.9,686.1
					L579.9,686.1z M612.8,703.8c-0.4-0.3-0.7-0.6-0.9-0.6c-0.4,0.1-0.8,0.4-1.2,0.6c-0.1,0.1-0.1,0.5,0,0.5c0.2,0.1,0.5,0.2,0.6,0.1
					C611.8,704.3,612.2,704.1,612.8,703.8L612.8,703.8z M558.2,680.2c-0.4,0.8-0.9,1.3-0.3,1.8c0.1,0.1,0.7-0.2,1.1-0.3
					C558.7,681.1,558.5,680.8,558.2,680.2L558.2,680.2z M556.7,699.5c-0.6-0.5-1.9-0.2-2,0.4l0.4,0.4c0.2-0.4,0.5-0.7,0.7-1l0.2,0.1
					c-0.1,0.3-0.2,0.6-0.2,0.8l0.2,0.1C556.1,700.1,556.4,699.8,556.7,699.5L556.7,699.5z M559.1,705.5c-0.4,0-0.8-0.1-1.2-0.1
					c-0.2,0-0.4,0-0.6,0.1c0,0,0,0.3,0,0.3c0.2,0.1,0.4,0.1,0.6,0.2c0.1,0,0.3-0.1,0.4-0.1c0.2,0.3,0.3,0.5,0.6,0.9L559.1,705.5
					L559.1,705.5z M591.8,699.4c-0.4-0.6-0.5-0.6-1.6-0.2l0.5,0.8L591.8,699.4z M507.5,707.6c0-0.1,0-0.2,0-0.3
					c-0.6,0-1.3,0.1-1.9,0.1C505.8,708,506.5,708.1,507.5,707.6L507.5,707.6z M604.5,709.3c0.1-0.2,0.2-0.4,0.2-0.5
					c0-0.3,0-0.6-0.2-0.8c-0.2-0.2-0.5-0.1-0.8-0.2c0.1,0.3,0.2,0.6,0.3,0.9C604.1,708.9,604.3,709,604.5,709.3z M590.9,691.8
					c0,0.1,0.1,0.3,0.1,0.4c0.4,0,0.9-0.1,1.4-0.1c-0.1-0.4-0.2-0.6-0.3-0.8C591.7,691.4,591.3,691.6,590.9,691.8z M545.1,694
					c-1.1-0.4-1.2-0.4-2.1,0.4c0.8-0.3,1.4-0.7,1.8,0.6L545.1,694z M585.6,688.7c0.6,0.3,1,0.5,1.5,0.9l-0.1-1
					C586.6,688.6,586.2,688.6,585.6,688.7L585.6,688.7z M509.1,704.5c0-0.8-0.6-0.9-1.8-0.3C507.9,704.3,508.5,704.4,509.1,704.5
					L509.1,704.5z M563,694.7c-0.3,0.1-0.7,0.2-1.3,0.5l1.4,0.5C563,695.3,563,695,563,694.7z M602.1,703.3c0-0.1,0-0.2,0.1-0.3
					c-0.3-0.3-0.7-0.5-1.2-0.9c0,0.4-0.2,0.7-0.1,0.8C601.3,703.1,601.7,703.2,602.1,703.3L602.1,703.3z"/>
			</g>
			<g>
				<path class="st0" d="M1288.3,361.3c-0.1,0.3-0.2,0.7-0.3,1.1c0.4,0.1,0.7,0.1,0.9,0.2c0.3,0.7,0.5,1.2,0.8,1.9
					c0.3-0.6,0.4-0.9,0.6-1.4c0.8,0.4,1.6,0.9,2.5,1.1c0.6,0.1,1.3-0.2,2-0.3c0-0.1,0-0.2,0-0.3c0.2,0.2,0.3,0.4,0.5,0.5
					c0.6-0.1,1.2-0.2,1.8-0.3c0.2,0,0.6-0.1,0.7,0c0.7,0.4,1.3,1,2,1.4c0.6,0.3,1.2,0.4,2,0.6c0,0.1,0.1,0.4,0.2,0.8l-1.1,0.6
					c0.4,0.1,0.6,0.1,0.9,0.1c-0.2,0.2-0.4,0.6-0.5,0.6c-1.2,0.1-1.9,0.7-2,1.9c0,0.1-0.1,0.2-0.1,0.3c-0.3-0.1-0.7-0.4-0.7-0.4
					c-0.3,0.3-0.5,0.7-0.7,1.1h-1.7c0.1,1.3,0.1,1.3-1.4,1.5c-0.4,0-0.8,0.2-1.1,0.2c-0.9-0.1-0.9-0.2-1.2-1l-1,1.9
					c-0.9,0.1-1.7,0.3-2.6,0.4c-0.3,0-0.8-0.1-0.8-0.3c-0.2-0.7-0.9-0.8-1.3-0.7c-0.5,0.1-1,0.3-1.3,1c-0.2,0.7-0.8,1.2-1.2,1.8
					c-0.1-0.1-0.2-0.2-0.1-0.1c-0.5,0.3-1,0.6-1.4,0.9c-0.2,0.1-0.6,0.2-0.7,0.4c-0.5,0.7-1,0.1-1.5,0c-0.3,0-0.6-0.3-0.8-0.2
					c-1.2,0.1-1.6-0.1-2-1.2c-0.1-0.2-0.2-0.5-0.4-0.7l-0.1,0.2c-0.6-0.2-1.3-0.4-1.9-0.5c-0.7-0.2-1.3-0.3-2.1-0.5
					c-0.1,0.4-0.9,0.8-0.3,1.7c0.1,0.2-0.1,0.7-0.3,0.9c-0.1,0.2-0.5,0.2-0.8,0.1c-0.4-0.1-0.7-0.4-1.1-0.6c-0.1,0.8-0.4,1.3-1.3,1
					c-0.6-0.1-1,1.2-0.5,1.7c0.5,0.5,0.2,0.8-0.1,1c-0.6,0.5-1.3,1-2.1,1.3c-0.5,0.1-0.9,0.4-1.5,0.7c-0.1-0.1-0.2-0.1-0.3-0.1
					c-0.4,0.6-1,0.2-1.5,0.3c-1.2,0.2-2.3,0.7-3.3,1.4c-1.2,0.9-2.7,0.9-4.1,1c-0.9,0.1-2-0.2-2.8-0.6c-0.4-0.3-1-0.4-1.4-0.7
					c-0.6-0.4-0.7-0.9-0.2-2.1l-1.1,0.7c-0.1-0.1-0.3-0.3-0.5-0.6h0.9c-0.1-0.1-0.1-0.3-0.2-0.3c-1.2-0.2-1.2-1.2-1.4-2.1
					c-0.2-0.9,0-2-1.3-2.4c-0.2-0.1-0.2-0.5-0.4-1c-0.4,0.5-0.6,0.9-1,1.3c-0.1-0.9-0.7-1.1-1.4-1.1l-0.2,0.3
					c0.4,0.2,0.8,0.4,1.2,0.6c-0.1,0.1-0.2,0.2-0.3,0.3c-0.5-0.1-1-0.3-1.6-0.4c-0.5,0.2-1,0.4-1.6,0.6l0.1,0.2l-1-0.2
					c0,0.3,0,0.6,0.1,0.7c-1.6,0.5-3.3,0.2-4.8,0.8c-0.3,0.1-0.7,0.1-0.8,0.2c-0.4,0.7-0.9,0.8-1.6,0.9c-0.7,0.1-1.3,0.4-2,0.6
					c-0.1,0-0.2,0.1-0.3,0.1c-0.9-0.2-1.9-0.4-2.8-0.6c-0.2-0.1-0.5-0.1-0.6-0.2c-0.2-0.4-0.4-0.7-0.6-1.1c-0.2,0.3-0.3,0.4-0.4,0.5
					c-0.7-0.2-1.3-0.4-2-0.5c-1-0.2-1.9-0.4-2.9-0.7c-0.3-0.1-0.7-0.1-0.9-0.3c-1.4-0.7-2.6-0.2-3.9,0.3c-0.2,0.1-0.2,0.4-0.4,0.7
					l-1.6,0.5l0,0.3c-0.7-0.3-1.3-0.5-2-0.8c-0.2-0.1-0.4-0.5-0.6-0.9c-0.1,0.1-0.3,0.3-0.5,0.4c-0.6-0.6-1.1-0.7-1.5-0.1
					c-0.4,0-0.7,0-1-0.1c-0.4-0.1-0.8-0.3-1.2-0.4c-0.1-0.1-0.3-0.1-0.4-0.1c-0.3,0-0.6-0.1-0.9-0.1c-0.4,0-0.8,0-1.2,0
					c-0.2,0-0.5,0-0.6,0l-1.6,0.5v1.3c-1.4,0.3-3.7-0.8-4.4-2.2c-0.5,0.3-0.9,0.7-1.4,0.9c-1,0.3-2,0.7-3,0c0,0-0.3,0.3-0.6,0.6
					c-0.2-0.1-0.5-0.3-0.9-0.5c-0.1-0.1-0.2-0.3-0.2-0.3c-0.8,0.4-1.2-0.5-1.9-0.5c-0.3,0-0.7-0.5-1.1-0.8c-0.1,0.1-0.2,0.3-0.3,0.5
					c-0.4-0.4-0.7-0.8-1-1.2c-0.3-0.4-0.7-0.7-1.2-1.2c-0.1,0-0.2,0.1-0.3,0.1l-0.4-1.2c0.3,0.3,0.4,0.4,0.5,0.6l0.2-0.1
					c-0.1-0.3-0.1-0.7-0.4-0.9c-0.2-0.2-0.6,0-1,0c-0.4-1-0.6-2,0-3.2c0.1-0.2,0.5-0.3,0.7-0.2c0.6,0.2,1.2-0.2,1.1-0.9
					c-1.7,0.4-0.3-1-0.8-1.2c0.6-0.6,1.3-1.1,1.8-1.7c0.7-0.8,2.6-1.2,3.5-0.6c0.4-0.8,1.2-0.4,1.4-0.1c0.7,0.8,1.8,0.3,2.5,1
					c0,0.1-0.1,0.2-0.1,0.5c0.4,0,0.7,0,1,0c0.4,0,1,0.2,1.3,0c0.4-0.2,0.7-0.6,1-1c0.8-0.9,1.7-1.6,2.6-2.3c0.6-0.4,1.1-1.1,2-0.9
					c0,0,0.3-0.4,0.3-0.5c-0.2-0.7,0.2-0.7,0.8-0.6c0-0.2,0-0.4,0.1-0.6c0,0,0.1,0,0.1,0v0.9c0.8-1.3,0.8-1.3,1.5-1.6
					c0.1-0.4,0.1-0.9,0.3-0.9c0.4-0.2,0.9-0.6,1.5-0.3c0.1,0.1,0.5,0,0.6-0.2c0.3-0.6,0.8-0.6,1.3-0.7c0.9-0.1,1.6,0,2.4,0.4
					c0.4,0.2,0.9,0,1.1,0c0.5-0.5,0.8-0.9,1.3-1.1c0.2-0.1,0.7,0.1,1,0.3c0.9-0.2,0.9-1.9,2.5-1.4l-0.6-0.6c1.7,0.4,1.6-1.4,2.6-1.9
					c-0.6-0.2-0.9-0.4-0.4-0.9c0.2-0.2,0.3-0.5,0.4-0.7c0.1,0,0.3,0.1,0.4,0.1c0-0.1,0.1-0.1,0.1-0.2c-0.4-1,0.4-1.6,0.7-2.3
					c0.2-0.4,0.4-0.8,0.7-1.2c0.6,0.3,1.1,0,1.3-0.8c0-0.1,0.2-0.2,0.3-0.3c0.7-0.2,1.3-0.4,1.6-1.1c0.1-0.3,0.7-0.4,1.1-0.6
					c0.1,0.1,0.1,0.2,0.3,0.4c0.1-0.3,0.2-0.5,0.2-0.6l2-0.5v0.8l0.4,0c-0.1-0.6-0.3-1.2-0.1-1.7c0.3-1.1,0.1-2.4,1-3.4
					c0.1-0.1,0-0.4,0-0.6c0-0.1-0.1-0.2-0.1-0.3c0.5-1,0.6-2.3,1.9-2.9c0.5-0.2,0.7-0.8,1.1-1.3c0.3-0.4,0.5-0.7,0.7-0.9
					c0.4,0.3,0.7,0.4,1.1,0.7c-0.1-1.2,0.2-1.4,1.2-1.3c0.3,0,0.7,0,0.9-0.1c0.8-0.7,1.8-0.7,2.7-0.9c0.3-0.1,0.5-0.3,0.9-0.6
					l0.3,0.2c0.8-0.3,1.4-0.5,2.1-0.7c0,0.1,0,0.1,0.1,0.2l-0.7,0.6c0.7-0.1,1.3,0,1.8-0.6c0.2-0.3,0.9-0.2,1.4-0.1
					c0.9,0.2,1.7,0.6,2.6,0.9c0.1,0,0.2,0,0.3,0c1-0.1,1.9-0.2,3-0.3v0.9l0.2,0.1c0.1-0.2,0.1-0.4,0.2-0.7c0.3,0.1,0.3,1.1,0.8,0.3
					c-0.1,0.5-0.1,1-0.2,1.7c0.3-0.1,0.6-0.1,0.8-0.2c0.9-0.9,1.5-0.2,2.1,0.4c0.2,0.2,0.5,0.2,0.7,0.4c0.3,0.2,0.6,0.5,0.9,0.6
					c0.6,0.2,0.8,0.5,1,1.5c1.3,0.1,1.6,0.4,1.6,1.7c0,0.3,0.2,0.5,0.4,0.8c0.3,0.5,1,1,0.9,1.5c-0.2,1.4,1.2,2,1.2,3.2
					c0,0.2,0.1,0.4,0.2,0.6c0.2,0.3,0.3,0.6,0.4,0.7c0.5-0.3,0.7-0.5,1-0.5c0.7,0,1.4,0.1,2.1,0.2c0.9,0,1.8,0,2.8,0
					c0.4,0.9,0.2,1.1,1.7,0.4c-0.1,0.2-0.1,0.4-0.2,0.7c0.2,0.1,0.5,0.2,0.7,0.3c0-0.1,0-0.2,0-0.3c0-0.2,0-0.4,0.1-0.5
					c0.3-0.2,1.3,0.3,1.4,0.6c0.1,0.5,0.4,0.5,0.9,0.6c0.7,0,1.7-0.2,1.9,1c0,0.2,0.4,0.4,0.5,0.6c0.2,0.2,0.3,0.4,0.5,0.7
					c0.1,0.1,0.1,0.3,0.1,0.3c0.9,0.1,0.4,1.1,1,1.4c0.1,0,0,0.4,0,0.6c0,0.3-0.1,0.5-0.1,0.8c0.3,0.9,0.3,0.9-0.1,1.2
					c0.3,0.9,0.6,1.6,0.8,2.4c0.1,0.3,0.2,0.5,0.2,0.8c0,0.2-0.1,0.4-0.1,0.5l-0.4-0.2l-0.4,0.9c0.3-0.1,0.6-0.2,0.9-0.2
					c-0.2,1,0.8,1.2,1.2,1.7c-0.2,0.1-0.5,0.2-0.7,0.3c0,0.1,0,0.2-0.1,0.3c1.1-0.4,1.7,0.3,2.4,0.9l-0.3-0.8c0.5,0,0.9,0.1,1.5,0.1
					c0.1-0.4,0.2-0.9,0.3-1.6c0.2,0.5,0.3,0.9,0.4,1.3c0.8,0.1,1.5,0.1,2.3,0.2C1287.3,360.4,1287.8,360.8,1288.3,361.3
					L1288.3,361.3z M1265,381.6C1265,381.6,1265,381.6,1265,381.6z M1254,337.7c-1-0.5-1.9-0.8-2.7-1.2c-1.2-0.6-2.3-1.4-3.5-1.6
					c-2.1-0.5-4.2-0.9-6.3-0.3c-1.5,0.4-1.5,0.4-1.5,1.8c-0.5-0.8-1-0.4-1.3,0.1c-0.5,1-0.9,2-1.3,3c1.6,0.2,1.1-1.6,2.3-1.9
					c-0.3,0.4-0.5,0.7-0.8,1.2c0.5-0.1,0.8-0.1,1-0.2c0.6-0.2,1.2-0.5,1.9-0.7c0.7-0.2,1.5-0.3,2.2-0.4c0.8-0.1,1.6-0.2,2.3-0.2
					c0.1,0,0.3,0.3,0.5,0.5c1-0.3,2-0.3,3,0.3c0.7,0.5,1.5,0.9,2.3,1.3c0.1,0.1,0.4,0,0.6-0.1l0-0.8L1254,337.7L1254,337.7z
					 M1281.6,370.2c-0.1,0.3-0.3,0.8-0.4,0.8c-1.1,0-1.6,0.7-1.7,1.5c-0.2-0.1-0.3-0.2-0.5-0.4c-0.1,0.2-0.1,0.3-0.2,0.5
					c-0.1,0.2-0.1,0.4-0.2,0.5c-0.5,0.5-0.6,0.8,0.2,0.9c0.2,0,0.3,0.2,0.5,0.3c1,0.6,2.1,0.6,3.3,0.4c0.9-0.2,0.7-0.9,1-1.3
					c0.3-0.5-0.3-1.7-0.8-2.1C1282.4,371,1282,370.5,1281.6,370.2L1281.6,370.2z M1257.7,380.8c-1.9-0.7-3.7-1.3-5.4-1.9
					c0.7,1.2,1.5,2.4,2.7,3.2c0.5,0.3,1.2,0.5,1.8,0.6c0.5,0.1,1.1,0,1.6-0.1c0.6-0.2,1.1-0.4,1.7-0.7
					C1259.4,381,1257.9,382,1257.7,380.8L1257.7,380.8z M1235.7,337.1c-2.3,1.7-2.7,4.3-2.3,7.2c0.2,0.1,0.5,0.1,0.7,0.2
					c0.2-0.3,0.6-0.6,0.6-0.9c0-0.7,0.8-1.3,0.1-2c-0.1-0.1,0.1-0.4,0.2-0.5c0.1-0.2,0.3-0.3,0.5-0.5c0.2-0.2,0.3-0.5,0.5-0.8
					c0.1-0.1,0-0.3,0-0.7c-0.3,0.3-0.4,0.5-0.5,0.6c-0.1,0.1-0.3,0.1-0.5,0c-0.1,0-0.1-0.3-0.1-0.4c0.3-0.3,0.7-0.6,1-0.8
					L1235.7,337.1L1235.7,337.1z M1273.3,348c-0.1,0.1-0.2,0.2-0.3,0.4c0.5,0.6,1.2,1.2,1.5,1.9c0.3,0.7,1.3,1.3,0.6,2.2
					c0,0.1,0.2,0.4,0.4,0.5c0.2,0.1,0.5,0.1,0.8,0.2c0.9,0.2,1.5-0.2,1.2-1.1c-0.4-1.2-1-2.4-2.3-3.1
					C1274.5,348.6,1273.9,348.3,1273.3,348L1273.3,348z M1260.2,346.1l0.3,0.2c0.2-0.3,0.6-0.5,0.6-0.8c0-0.9,0-1.8-0.3-2.6
					c-0.5-1.6-1.1-3.3-2.4-4.5c-0.2-0.1-0.2-0.5-0.2-0.6c-0.5-0.1-0.8-0.2-1.2-0.3l-0.2,0.1c0.7,1,1.3,2.1,2,3.1l-0.5,0.3
					c0,0.1,0.1,0.1,0.1,0.2c0.3-0.1,0.5-0.1,0.8-0.2c0.3,0.8,0.6,1.6,0.8,2.5C1260.2,344.2,1260.1,345.2,1260.2,346.1L1260.2,346.1z
					 M1282.7,365.8l2.8,4.7c-0.1,0-0.3,0.1-0.6,0.2c0.1,0.1,0.2,0.2,0.2,0.3c0.3-0.1,0.6-0.1,0.7-0.2c0.5-1.4,0.1-2.5-0.9-3.6
					c-0.5,0-0.5-0.4-0.4-0.9l-1.1-1.3C1283.3,365.3,1283.1,365.5,1282.7,365.8L1282.7,365.8z M1217.5,364.2c0.7-0.9,1.6-1.7,1-2.9
					c-2.1-0.2-2.9,1.4-4,2.5l0.1,0.3c0.7-0.2,1.4-0.3,2.2-0.5C1217,363.7,1217.2,363.9,1217.5,364.2L1217.5,364.2z M1231.2,347.3
					c-1.7-0.9-3.5-0.7-4.8,0.6c-0.4,0.4-0.8,0.9-1.1,1.4c-0.1,0.2-0.1,0.5-0.1,0.7c1-0.5,1.9-1,2.9-1.5
					C1228.3,346.8,1230,347.7,1231.2,347.3L1231.2,347.3z M1225.7,374.8l-2,0.5c0.3-0.5,0.5-0.7,0.6-1l-2.4-0.4
					c-0.1,0.5-0.2,1-0.3,1.5c1.6,0.1,3,0.9,4.6,0.4C1226,375.4,1225.9,375.1,1225.7,374.8L1225.7,374.8z M1256.6,360.4
					c-0.2,0-0.4,0.1-0.5,0.1c-0.8,0.1-0.6,0.8-0.7,1.2c-0.1,0.5,0.4,0.4,0.7,0.4c0.4,0,0.8,0,1.2,0c1.6,0,1.9-0.2,1.8-1.7l-2.3,0.8
					C1256.8,360.9,1256.7,360.7,1256.6,360.4L1256.6,360.4z M1202.4,369.4c0.2,1.1,0.5,2,0.7,3c0.1,0.3,0.2,0.7,0.4,1.2l-0.1,0.7
					c0.8-0.7-0.3-2,1.3-2.5c-0.6-0.8-1.1-1.5-1.7-2.2c-0.1-0.1-0.2-0.2-0.3-0.3C1202.6,369.4,1202.5,369.4,1202.4,369.4
					L1202.4,369.4z M1195.3,369.5c-0.3,0.2-0.5,0.3-0.6,0.4c-0.3,0.9-0.6,1.9-0.9,2.8c-0.2,0.6,0.3,0.8,0.7,0.7
					c0.2,0,0.5-0.4,0.6-0.6C1195.3,371.8,1195.3,370.8,1195.3,369.5L1195.3,369.5z M1268.4,347.1c-0.2,0.6-0.3,1.1-0.4,1.5
					c1.1,0.4,2.1,0.7,3,1.1C1270.6,348.5,1269.6,347.8,1268.4,347.1z M1278,362.8l-0.6,0.1c0,0.2,0,0.5,0,0.5
					c-0.8,0.1-1.1,0.9-1.6,1.3c-0.6,0.5-0.7,1.1-0.8,1.7l0.2,0.1l0.7-1.7c0.6,0.6,0.9,0.6,1-0.2c0.1-0.2,0.4-0.4,0.7-0.6l0.1,0.1
					C1277.8,363.7,1277.9,363.3,1278,362.8L1278,362.8z M1256.1,377.2c0.6,0.6,1,1.3,1.7,1.6c0.7,0.3,1.5,0.2,2.2,0.3
					c0-0.1,0-0.2,0-0.2c-1.1-0.5-2.2-1-3.3-1.5c0-0.1,0.1-0.2,0.1-0.3C1256.7,377.1,1256.5,377.1,1256.1,377.2L1256.1,377.2z
					 M1252.6,339.8l1.4-0.3c0.1,0.3,0.3,0.7,0.5,1.2c0.1,0,0.1,0,0.2-0.1v-0.7l0.9,0.5c0.1-0.1,0.1-0.1,0.2-0.2
					c-0.5-0.5-1.1-0.9-1.7-1.5c0.1-0.1,0.3-0.2,0.5-0.4C1253.3,338,1253.2,339.2,1252.6,339.8L1252.6,339.8z M1270.4,366.4
					c-0.1,0-0.2,0.1-0.3,0.1c-0.1,0.4-0.3,0.8-0.2,1.2c0.1,0.4,0.5,0.9,0.9,1c0.6,0.2,0.6-0.5,0.5-0.8
					C1271.1,367.3,1270.7,366.9,1270.4,366.4L1270.4,366.4z M1259.2,372.8c-0.7-0.1-1.3-0.2-1.8-0.1c-0.4,0.1-0.6,0.7-0.9,1l0.1,0.2
					c0.7-0.2,1.4-0.3,2-0.5l0.2,0.7c0.1,0,0.2,0,0.2-0.1C1259.1,373.7,1259.2,373.2,1259.2,372.8L1259.2,372.8z M1227.1,353.1
					c0.5-0.2,0.9-0.4,1.3-0.5c-0.1-0.7-0.3-1.2-1.2-1.1c-1,0.1-0.7,0.8-0.7,1.2l1-0.5L1227.1,353.1L1227.1,353.1z M1197.6,370.2
					c-1.4-0.1,0,1.2-0.8,1.3c-0.1-0.2-0.1-0.3-0.2-0.5l-0.2,0.1c0.2,0.6,0.5,1.2,0.8,1.9c0.1-0.1,0.4-0.2,0.4-0.4
					C1197.6,371.9,1197.6,371.1,1197.6,370.2L1197.6,370.2z M1191.1,367.3c0.2-0.4,0.4-0.8,0.6-1.2c0.1-0.2,0.1-0.7,0-0.7
					c-0.3-0.1-0.7-0.2-1.1-0.2c-0.1,0-0.2,0.6-0.1,0.9C1190.6,366.5,1190.8,366.8,1191.1,367.3L1191.1,367.3z M1224.7,352.5
					c-1.1,0.1-1.7,1.4-1.1,3C1224,354.4,1224.4,353.4,1224.7,352.5z M1264.9,348.4c0.1,0,0.1,0.1,0.2,0.1l1-0.2c0.5-0.4,1-0.7,1.4-1
					c-0.5-0.6-1.1-0.2-1.6,0C1265.5,347.6,1265.2,348.1,1264.9,348.4L1264.9,348.4z M1297.8,366c-0.4-0.3-0.7-0.6-0.9-0.6
					c-0.4,0.1-0.8,0.4-1.2,0.6c-0.1,0.1-0.1,0.5,0,0.5c0.2,0.1,0.5,0.2,0.6,0.1C1296.8,366.6,1297.2,366.3,1297.8,366z
					 M1243.1,342.5c-0.4,0.8-0.9,1.3-0.3,1.8c0.1,0.1,0.7-0.2,1.1-0.3C1243.6,343.5,1243.4,343.1,1243.1,342.5z M1241.6,361.8
					c-0.6-0.5-1.9-0.2-2,0.4c0.1,0.1,0.3,0.3,0.4,0.4c0.2-0.4,0.5-0.7,0.7-1l0.2,0.1c-0.1,0.3-0.2,0.6-0.2,0.8
					c0.1,0,0.1,0.1,0.2,0.1L1241.6,361.8z M1244.1,367.7c-0.4,0-0.8-0.1-1.2-0.1c-0.2,0-0.4,0-0.6,0.1c0,0,0,0.3,0,0.3
					c0.2,0.1,0.4,0.1,0.6,0.2c0.1,0,0.3-0.1,0.4-0.1c0.2,0.3,0.3,0.5,0.6,0.9L1244.1,367.7L1244.1,367.7z M1276.7,361.7
					c-0.4-0.6-0.5-0.6-1.6-0.2l0.6,0.8L1276.7,361.7L1276.7,361.7z M1192.4,369.8c0-0.1,0-0.2,0-0.3c-0.6,0-1.3,0.1-1.9,0.1
					C1190.7,370.3,1191.4,370.3,1192.4,369.8L1192.4,369.8z M1289.5,371.5c0.1-0.2,0.2-0.4,0.2-0.5c0-0.3,0-0.6-0.2-0.8
					c-0.2-0.2-0.5-0.1-0.8-0.2c0.1,0.3,0.2,0.6,0.3,0.9C1289.1,371.1,1289.3,371.3,1289.5,371.5L1289.5,371.5z M1275.9,354.1
					c0,0.1,0.1,0.3,0.1,0.4c0.4,0,0.9-0.1,1.4-0.1c-0.1-0.4-0.2-0.6-0.3-0.8C1276.7,353.7,1276.3,353.9,1275.9,354.1L1275.9,354.1z
					 M1230,356.3c-1.1-0.4-1.2-0.4-2.1,0.4c0.8-0.3,1.4-0.7,1.8,0.6L1230,356.3L1230,356.3z M1270.6,351l1.5,0.9
					c-0.1-0.5-0.1-0.8-0.1-1C1271.5,350.9,1271.2,350.9,1270.6,351L1270.6,351z M1194,366.8c0-0.8-0.6-0.9-1.8-0.3
					C1192.8,366.6,1193.4,366.7,1194,366.8z M1247.9,357c-0.3,0.1-0.7,0.2-1.3,0.5c0.6,0.2,1,0.4,1.4,0.5
					C1248,357.6,1247.9,357.3,1247.9,357L1247.9,357z M1287.1,365.6c0-0.1,0-0.2,0.1-0.3c-0.3-0.3-0.7-0.5-1.2-0.9
					c0,0.4-0.2,0.7-0.1,0.8C1286.3,365.4,1286.7,365.5,1287.1,365.6L1287.1,365.6z"/>
			</g>
			<g>
				<path class="st0" d="M1268.3-71.1c-0.1,0.3-0.2,0.7-0.3,1.1c0.4,0.1,0.7,0.1,0.9,0.2c0.3,0.7,0.5,1.2,0.8,1.9
					c0.3-0.6,0.4-0.9,0.6-1.4c0.8,0.4,1.6,0.9,2.5,1.1c0.6,0.1,1.3-0.2,2-0.3c0-0.1,0-0.2,0-0.3c0.2,0.2,0.3,0.4,0.5,0.5
					c0.6-0.1,1.2-0.2,1.8-0.3c0.2,0,0.6-0.1,0.7,0c0.7,0.4,1.3,1,2,1.4c0.6,0.3,1.2,0.4,2,0.6c0,0.1,0.1,0.4,0.2,0.8l-1.1,0.6
					c0.4,0.1,0.6,0.1,0.9,0.1c-0.2,0.2-0.4,0.6-0.5,0.6c-1.2,0.1-1.9,0.7-2,1.9c0,0.1-0.1,0.2-0.1,0.3c-0.3-0.1-0.7-0.4-0.7-0.4
					c-0.3,0.3-0.5,0.7-0.7,1.1h-1.7c0.1,1.3,0.1,1.3-1.4,1.5c-0.4,0-0.8,0.2-1.1,0.2c-0.9-0.1-0.9-0.2-1.2-1l-1,1.9
					c-0.9,0.1-1.7,0.3-2.6,0.4c-0.3,0-0.8-0.1-0.8-0.3c-0.2-0.7-0.9-0.8-1.3-0.7c-0.5,0.1-1,0.3-1.3,1c-0.2,0.7-0.8,1.2-1.2,1.8
					c-0.1-0.1-0.2-0.2-0.1-0.1c-0.5,0.3-1,0.6-1.4,0.9c-0.2,0.1-0.6,0.2-0.7,0.4c-0.5,0.7-1,0.1-1.5,0c-0.3,0-0.6-0.3-0.8-0.2
					c-1.2,0.1-1.6-0.1-2-1.2c-0.1-0.2-0.2-0.5-0.4-0.7l-0.1,0.2c-0.6-0.2-1.3-0.4-1.9-0.5c-0.7-0.2-1.3-0.3-2.1-0.5
					c-0.1,0.4-0.9,0.8-0.3,1.7c0.1,0.2-0.1,0.7-0.3,0.9c-0.1,0.2-0.5,0.2-0.8,0.1c-0.4-0.1-0.7-0.4-1.1-0.6c-0.1,0.8-0.4,1.3-1.3,1
					c-0.6-0.1-1,1.2-0.5,1.7c0.5,0.5,0.2,0.8-0.1,1c-0.6,0.5-1.3,1-2.1,1.3c-0.5,0.1-0.9,0.4-1.5,0.7c-0.1-0.1-0.2-0.1-0.3-0.1
					c-0.4,0.6-1,0.2-1.5,0.3c-1.2,0.2-2.3,0.7-3.3,1.4c-1.2,0.9-2.7,0.9-4.1,1c-0.9,0.1-2-0.2-2.8-0.6c-0.4-0.3-1-0.4-1.4-0.7
					c-0.6-0.4-0.7-0.9-0.2-2.1l-1.1,0.7c-0.1-0.1-0.3-0.3-0.5-0.6h0.9c-0.1-0.1-0.1-0.3-0.2-0.3c-1.2-0.2-1.2-1.2-1.4-2.1
					c-0.2-0.9,0-2-1.3-2.4c-0.2-0.1-0.2-0.5-0.4-1c-0.4,0.5-0.6,0.9-1,1.3c-0.1-0.9-0.7-1.1-1.4-1.1l-0.2,0.3
					c0.4,0.2,0.8,0.4,1.2,0.6c-0.1,0.1-0.2,0.2-0.3,0.3c-0.5-0.1-1-0.3-1.6-0.4c-0.5,0.2-1,0.4-1.6,0.6l0.1,0.2l-1-0.2
					c0,0.3,0,0.6,0,0.7c-1.6,0.5-3.3,0.2-4.8,0.8c-0.3,0.1-0.7,0.1-0.8,0.2c-0.4,0.7-0.9,0.8-1.6,0.9c-0.7,0.1-1.3,0.4-2,0.6
					c-0.1,0-0.2,0.1-0.3,0.1c-0.9-0.2-1.9-0.4-2.8-0.6c-0.2-0.1-0.5-0.1-0.6-0.2c-0.2-0.4-0.4-0.7-0.6-1.1c-0.2,0.3-0.3,0.4-0.4,0.5
					c-0.7-0.2-1.3-0.4-2-0.5c-1-0.2-1.9-0.4-2.9-0.7c-0.3-0.1-0.7-0.1-0.9-0.3c-1.4-0.7-2.6-0.2-3.9,0.3c-0.2,0.1-0.2,0.4-0.4,0.7
					l-1.6,0.5l0,0.3c-0.7-0.3-1.3-0.5-2-0.8c-0.2-0.1-0.4-0.5-0.6-0.9c-0.1,0.1-0.3,0.3-0.5,0.4c-0.6-0.6-1.1-0.7-1.5-0.1
					c-0.4,0-0.7,0-1-0.1c-0.4-0.1-0.8-0.3-1.2-0.4c-0.1-0.1-0.3-0.1-0.4-0.1c-0.3,0-0.6-0.1-0.9-0.1c-0.4,0-0.8,0-1.2,0
					c-0.2,0-0.5,0-0.6,0l-1.6,0.5v1.3c-1.4,0.3-3.7-0.8-4.4-2.2c-0.5,0.3-0.9,0.7-1.4,0.9c-1,0.3-2,0.7-3,0c0,0-0.3,0.3-0.6,0.6
					c-0.2-0.1-0.5-0.3-0.9-0.5c-0.1-0.1-0.2-0.3-0.2-0.3c-0.8,0.4-1.2-0.5-1.9-0.5c-0.3,0-0.7-0.5-1.1-0.8c-0.1,0.1-0.2,0.3-0.3,0.5
					c-0.4-0.4-0.7-0.8-1-1.2c-0.3-0.4-0.7-0.7-1.2-1.2c-0.1,0-0.2,0.1-0.3,0.1l-0.4-1.2c0.3,0.3,0.4,0.4,0.5,0.6l0.2-0.1
					c-0.1-0.3-0.1-0.7-0.4-0.9c-0.2-0.2-0.6,0-1,0c-0.4-1-0.6-2,0-3.2c0.1-0.2,0.5-0.3,0.7-0.2c0.6,0.2,1.2-0.2,1.1-0.9
					c-1.7,0.4-0.3-1-0.8-1.2c0.6-0.6,1.3-1.1,1.8-1.7c0.7-0.8,2.6-1.2,3.5-0.6c0.4-0.8,1.2-0.4,1.4-0.1c0.7,0.8,1.8,0.3,2.5,1
					c0,0.1-0.1,0.2-0.1,0.5c0.4,0,0.7,0,1,0c0.4,0,1,0.2,1.3,0c0.4-0.2,0.7-0.6,1-1c0.8-0.9,1.7-1.6,2.6-2.3c0.6-0.4,1.1-1.1,2-0.9
					c0,0,0.3-0.4,0.3-0.5c-0.2-0.7,0.2-0.7,0.8-0.6c0-0.2,0-0.4,0.1-0.6c0,0,0.1,0,0.1,0v0.9c0.8-1.3,0.8-1.3,1.5-1.6
					c0.1-0.4,0.1-0.9,0.3-0.9c0.4-0.2,0.9-0.6,1.5-0.3c0.1,0.1,0.5,0,0.6-0.2c0.3-0.6,0.8-0.6,1.3-0.7c0.9-0.1,1.6,0,2.4,0.4
					c0.4,0.2,0.9,0,1.1,0c0.5-0.5,0.8-0.9,1.3-1.1c0.2-0.1,0.7,0.1,1,0.3c0.9-0.2,0.9-1.9,2.5-1.4l-0.6-0.6c1.7,0.4,1.6-1.4,2.6-1.9
					c-0.6-0.2-0.9-0.4-0.4-0.9c0.2-0.2,0.3-0.5,0.4-0.7c0.1,0,0.3,0.1,0.4,0.1c0-0.1,0.1-0.1,0.1-0.2c-0.4-1,0.4-1.6,0.7-2.3
					c0.2-0.4,0.4-0.8,0.7-1.2c0.6,0.3,1.1,0,1.3-0.8c0-0.1,0.2-0.2,0.3-0.3c0.7-0.2,1.3-0.4,1.6-1.1c0.1-0.3,0.7-0.4,1.1-0.6
					c0.1,0.1,0.1,0.2,0.3,0.4c0.1-0.3,0.2-0.5,0.2-0.6l2-0.5v0.8l0.4,0c-0.1-0.6-0.3-1.2-0.1-1.7c0.3-1.1,0.1-2.4,1-3.4
					c0.1-0.1,0-0.4,0-0.6c0-0.1-0.1-0.2-0.1-0.3c0.5-1,0.6-2.3,1.9-2.9c0.5-0.2,0.7-0.8,1.1-1.3c0.3-0.4,0.5-0.7,0.7-0.9
					c0.4,0.3,0.7,0.4,1.1,0.7c-0.1-1.2,0.2-1.4,1.2-1.3c0.3,0,0.7,0,0.9-0.1c0.8-0.7,1.8-0.7,2.7-0.9c0.3-0.1,0.5-0.3,0.9-0.6
					l0.3,0.2c0.8-0.3,1.4-0.5,2.1-0.7c0,0.1,0,0.1,0.1,0.2l-0.7,0.6c0.7-0.1,1.3,0,1.8-0.6c0.2-0.3,0.9-0.2,1.4-0.1
					c0.9,0.2,1.7,0.6,2.6,0.9c0.1,0,0.2,0,0.3,0c1-0.1,1.9-0.2,3-0.3v0.9l0.2,0.1c0.1-0.2,0.1-0.4,0.2-0.7c0.3,0.1,0.3,1.1,0.8,0.3
					c-0.1,0.5-0.1,1-0.2,1.7c0.3-0.1,0.6-0.1,0.8-0.2c0.9-0.9,1.5-0.2,2.1,0.4c0.2,0.2,0.5,0.2,0.7,0.4c0.3,0.2,0.6,0.5,0.9,0.6
					c0.6,0.2,0.8,0.5,1,1.5c1.3,0.1,1.6,0.4,1.6,1.7c0,0.3,0.2,0.5,0.4,0.8c0.3,0.5,1,1,0.9,1.5c-0.2,1.4,1.2,2,1.2,3.2
					c0,0.2,0.1,0.4,0.2,0.6c0.2,0.3,0.3,0.6,0.4,0.7c0.5-0.3,0.7-0.5,1-0.5c0.7,0,1.4,0.1,2.1,0.2c0.9,0,1.8,0,2.8,0
					c0.4,0.9,0.2,1.1,1.7,0.4c-0.1,0.2-0.1,0.4-0.2,0.7c0.2,0.1,0.5,0.2,0.7,0.3c0-0.1,0-0.2,0-0.3c0-0.2,0-0.4,0.1-0.5
					c0.3-0.2,1.3,0.3,1.4,0.6c0.1,0.5,0.4,0.5,0.9,0.6c0.7,0,1.7-0.2,1.9,1c0,0.2,0.4,0.4,0.5,0.6c0.2,0.2,0.3,0.4,0.5,0.7
					c0.1,0.1,0.1,0.3,0.1,0.3c0.9,0.1,0.4,1.1,1,1.4c0.1,0,0,0.4,0,0.6c0,0.3-0.1,0.5-0.1,0.8c0.3,0.9,0.3,0.9-0.1,1.2
					c0.3,0.9,0.6,1.6,0.8,2.4c0.1,0.3,0.2,0.5,0.2,0.8c0,0.2-0.1,0.4-0.1,0.5l-0.4-0.2l-0.4,0.9c0.3-0.1,0.6-0.2,0.9-0.2
					c-0.2,1,0.8,1.2,1.2,1.7c-0.2,0.1-0.5,0.2-0.7,0.3c0,0.1,0,0.2-0.1,0.3c1.1-0.4,1.7,0.3,2.4,0.9l-0.3-0.8c0.5,0,0.9,0.1,1.5,0.1
					c0.1-0.4,0.2-0.9,0.3-1.6c0.2,0.5,0.3,0.9,0.4,1.3c0.8,0.1,1.5,0.1,2.3,0.2C1267.3-72,1267.8-71.6,1268.3-71.1L1268.3-71.1z
					 M1245-50.8C1245-50.8,1245-50.8,1245-50.8z M1234-94.7c-1-0.5-1.9-0.8-2.7-1.2c-1.2-0.6-2.3-1.4-3.5-1.6
					c-2.1-0.5-4.2-0.9-6.3-0.3c-1.5,0.4-1.5,0.4-1.5,1.8c-0.5-0.8-1-0.4-1.3,0.1c-0.5,1-0.9,2-1.4,3c1.6,0.2,1.1-1.6,2.3-1.9
					c-0.3,0.4-0.5,0.7-0.8,1.2c0.5-0.1,0.8-0.1,1-0.2c0.6-0.2,1.2-0.5,1.9-0.7c0.7-0.2,1.4-0.3,2.2-0.4c0.8-0.1,1.6-0.2,2.3-0.2
					c0.1,0,0.3,0.3,0.5,0.5c1-0.3,2-0.3,3,0.3c0.7,0.5,1.5,0.9,2.3,1.3c0.1,0.1,0.4,0,0.6-0.1l0-0.8L1234-94.7L1234-94.7z
					 M1261.6-62.2c-0.1,0.3-0.3,0.8-0.4,0.8c-1.1,0-1.6,0.7-1.7,1.5c-0.2-0.1-0.3-0.2-0.5-0.4c-0.1,0.2-0.1,0.3-0.2,0.5
					c-0.1,0.2-0.1,0.4-0.2,0.5c-0.5,0.5-0.6,0.8,0.2,0.9c0.2,0,0.3,0.2,0.5,0.3c1,0.6,2.1,0.6,3.3,0.4c0.9-0.2,0.7-0.9,1-1.3
					c0.3-0.5-0.3-1.7-0.8-2.1C1262.4-61.4,1262-61.9,1261.6-62.2L1261.6-62.2z M1237.7-51.6c-1.9-0.7-3.7-1.3-5.4-1.9
					c0.7,1.2,1.5,2.4,2.7,3.2c0.5,0.3,1.2,0.5,1.8,0.6c0.5,0.1,1.1,0,1.6-0.1c0.6-0.2,1.1-0.4,1.7-0.7
					C1239.4-51.4,1237.9-50.4,1237.7-51.6L1237.7-51.6z M1215.7-95.3c-2.3,1.7-2.7,4.3-2.3,7.2c0.2,0.1,0.5,0.1,0.7,0.2
					c0.2-0.3,0.6-0.6,0.6-0.9c0-0.7,0.9-1.3,0.1-2c-0.1-0.1,0.1-0.4,0.2-0.5c0.1-0.2,0.3-0.3,0.5-0.5c0.2-0.2,0.3-0.5,0.5-0.8
					c0.1-0.1,0-0.3,0-0.7c-0.3,0.3-0.4,0.5-0.5,0.6c-0.1,0.1-0.3,0.1-0.5,0c-0.1,0-0.1-0.3-0.1-0.4c0.3-0.3,0.7-0.6,1-0.8
					L1215.7-95.3L1215.7-95.3z M1253.3-84.4c-0.1,0.1-0.2,0.2-0.3,0.4c0.5,0.6,1.2,1.2,1.5,1.9c0.3,0.7,1.3,1.3,0.6,2.2
					c0,0.1,0.2,0.4,0.4,0.5c0.2,0.1,0.5,0.1,0.8,0.2c0.9,0.2,1.5-0.2,1.2-1.1c-0.4-1.2-1-2.4-2.3-3.1
					C1254.5-83.8,1253.9-84.1,1253.3-84.4L1253.3-84.4z M1240.2-86.3l0.3,0.2c0.2-0.3,0.6-0.5,0.6-0.8c0-0.9,0-1.8-0.3-2.6
					c-0.5-1.6-1.1-3.3-2.4-4.5c-0.2-0.1-0.2-0.5-0.2-0.6c-0.5-0.1-0.8-0.2-1.2-0.3l-0.2,0.1c0.7,1,1.3,2.1,2,3.1l-0.5,0.3
					c0,0.1,0.1,0.1,0.1,0.2c0.3-0.1,0.5-0.1,0.8-0.2c0.3,0.8,0.6,1.6,0.8,2.5C1240.2-88.2,1240.1-87.2,1240.2-86.3L1240.2-86.3z
					 M1262.7-66.6l2.8,4.7c-0.1,0-0.3,0.1-0.6,0.2c0.1,0.1,0.2,0.2,0.2,0.3c0.3-0.1,0.6-0.1,0.7-0.2c0.5-1.4,0.1-2.5-0.9-3.6
					c-0.5,0-0.5-0.4-0.4-0.9l-1.1-1.3C1263.3-67.1,1263.1-66.9,1262.7-66.6L1262.7-66.6z M1197.5-68.2c0.7-0.9,1.6-1.7,1-2.9
					c-2.1-0.2-2.9,1.4-4,2.5l0.1,0.3c0.7-0.2,1.4-0.3,2.2-0.5C1197-68.7,1197.2-68.5,1197.5-68.2L1197.5-68.2z M1211.2-85.1
					c-1.7-0.9-3.5-0.7-4.8,0.6c-0.4,0.4-0.8,0.9-1.1,1.4c-0.1,0.2-0.1,0.5-0.1,0.7c1-0.5,1.9-1,2.9-1.5
					C1208.3-85.6,1210-84.7,1211.2-85.1L1211.2-85.1z M1205.7-57.6l-2,0.5c0.3-0.5,0.5-0.7,0.6-1l-2.4-0.4c-0.1,0.5-0.2,1-0.3,1.5
					c1.6,0.1,3,0.9,4.6,0.4C1206-57,1205.9-57.3,1205.7-57.6L1205.7-57.6z M1236.6-72c-0.2,0-0.4,0.1-0.5,0.1
					c-0.8,0.1-0.6,0.8-0.7,1.2c-0.1,0.5,0.4,0.4,0.7,0.4c0.4,0,0.8,0,1.2,0c1.6,0,1.9-0.2,1.8-1.7l-2.3,0.8
					C1236.8-71.5,1236.7-71.7,1236.6-72L1236.6-72z M1182.4-63c0.2,1.1,0.5,2,0.7,3c0.1,0.3,0.2,0.7,0.4,1.2l-0.1,0.7
					c0.8-0.7-0.3-2,1.3-2.5c-0.6-0.8-1.1-1.5-1.7-2.2c-0.1-0.1-0.2-0.2-0.3-0.3C1182.6-63,1182.5-63,1182.4-63L1182.4-63z
					 M1175.3-62.9c-0.3,0.2-0.5,0.3-0.6,0.4c-0.3,0.9-0.6,1.9-0.9,2.8c-0.2,0.6,0.3,0.8,0.7,0.7c0.2,0,0.5-0.4,0.6-0.6
					C1175.3-60.6,1175.3-61.6,1175.3-62.9L1175.3-62.9z M1248.4-85.3c-0.2,0.6-0.3,1.1-0.4,1.5c1.1,0.4,2.1,0.7,3,1.1
					C1250.6-83.9,1249.6-84.6,1248.4-85.3z M1258-69.6l-0.6,0.1c0,0.2,0,0.5,0,0.5c-0.8,0.1-1.1,0.9-1.6,1.3
					c-0.6,0.5-0.7,1.1-0.8,1.7l0.2,0.1l0.7-1.7c0.6,0.6,0.9,0.6,1-0.2c0.1-0.2,0.4-0.4,0.7-0.6l0.1,0.1
					C1257.8-68.7,1257.9-69.1,1258-69.6L1258-69.6z M1236.1-55.2c0.6,0.6,1,1.3,1.7,1.6c0.7,0.3,1.5,0.2,2.2,0.3c0-0.1,0-0.2,0-0.2
					c-1.1-0.5-2.2-1-3.3-1.5c0-0.1,0.1-0.2,0.1-0.3C1236.7-55.3,1236.5-55.3,1236.1-55.2L1236.1-55.2z M1232.6-92.6l1.4-0.3
					c0.1,0.3,0.3,0.7,0.5,1.2c0.1,0,0.1,0,0.2-0.1v-0.7l0.9,0.5c0.1-0.1,0.1-0.1,0.2-0.2c-0.5-0.5-1.1-0.9-1.7-1.5
					c0.1-0.1,0.3-0.2,0.5-0.4C1233.3-94.4,1233.2-93.2,1232.6-92.6L1232.6-92.6z M1250.4-66c-0.1,0-0.2,0.1-0.3,0.1
					c-0.1,0.4-0.3,0.8-0.2,1.2c0.1,0.4,0.5,0.9,0.9,1c0.6,0.2,0.6-0.5,0.5-0.8C1251.1-65.1,1250.7-65.5,1250.4-66L1250.4-66z
					 M1239.2-59.6c-0.7-0.1-1.3-0.2-1.8-0.1c-0.4,0.1-0.6,0.7-0.9,1l0.1,0.2c0.7-0.2,1.4-0.3,2-0.5l0.2,0.7c0.1,0,0.2,0,0.2-0.1
					C1239.1-58.7,1239.2-59.2,1239.2-59.6L1239.2-59.6z M1207.1-79.3c0.5-0.2,0.9-0.4,1.3-0.5c-0.1-0.7-0.3-1.2-1.2-1.1
					c-1,0.1-0.7,0.8-0.7,1.2l1-0.5L1207.1-79.3L1207.1-79.3z M1177.6-62.2c-1.4-0.1,0,1.2-0.8,1.3c-0.1-0.2-0.1-0.3-0.2-0.5
					l-0.2,0.1c0.2,0.6,0.5,1.2,0.8,1.9c0.1-0.1,0.4-0.2,0.4-0.4C1177.6-60.5,1177.6-61.3,1177.6-62.2L1177.6-62.2z M1171.1-65.1
					c0.2-0.4,0.4-0.8,0.6-1.2c0.1-0.2,0.1-0.7,0-0.7c-0.3-0.1-0.7-0.2-1.1-0.2c-0.1,0-0.2,0.6-0.1,0.9
					C1170.6-65.9,1170.8-65.6,1171.1-65.1L1171.1-65.1z M1204.7-79.9c-1.1,0.1-1.7,1.4-1.1,3C1204-78,1204.4-79,1204.7-79.9z
					 M1244.9-84c0.1,0,0.1,0.1,0.2,0.1l1-0.2c0.5-0.4,1-0.7,1.4-1c-0.5-0.6-1.1-0.2-1.6,0C1245.5-84.8,1245.2-84.3,1244.9-84
					L1244.9-84z M1277.8-66.4c-0.4-0.3-0.7-0.6-0.9-0.6c-0.4,0.1-0.8,0.4-1.2,0.6c-0.1,0.1-0.1,0.5,0,0.5c0.2,0.1,0.5,0.2,0.6,0.1
					C1276.8-65.8,1277.2-66.1,1277.8-66.4z M1223.1-89.9c-0.4,0.8-0.9,1.3-0.3,1.8c0.1,0.1,0.7-0.2,1.1-0.3
					C1223.6-88.9,1223.4-89.3,1223.1-89.9z M1221.6-70.6c-0.6-0.5-1.9-0.2-2,0.4c0.1,0.1,0.3,0.3,0.4,0.4c0.2-0.4,0.5-0.7,0.7-1
					l0.2,0.1c-0.1,0.3-0.2,0.6-0.2,0.8c0.1,0,0.1,0.1,0.2,0.1L1221.6-70.6z M1224.1-64.7c-0.4,0-0.8-0.1-1.2-0.1
					c-0.2,0-0.4,0-0.6,0.1c0,0,0,0.3,0,0.3c0.2,0.1,0.4,0.1,0.6,0.2c0.1,0,0.3-0.1,0.4-0.1c0.2,0.3,0.3,0.5,0.6,0.9L1224.1-64.7
					L1224.1-64.7z M1256.7-70.7c-0.4-0.6-0.5-0.6-1.6-0.2l0.6,0.8L1256.7-70.7L1256.7-70.7z M1172.4-62.6c0-0.1,0-0.2,0-0.3
					c-0.6,0-1.3,0.1-1.9,0.1C1170.7-62.1,1171.4-62.1,1172.4-62.6L1172.4-62.6z M1269.5-60.9c0.1-0.2,0.2-0.4,0.2-0.5
					c0-0.3,0-0.6-0.2-0.8c-0.2-0.2-0.5-0.1-0.8-0.2c0.1,0.3,0.2,0.6,0.3,0.9C1269.1-61.3,1269.3-61.1,1269.5-60.9L1269.5-60.9z
					 M1255.9-78.3c0,0.1,0.1,0.3,0.1,0.4c0.4,0,0.9-0.1,1.4-0.1c-0.1-0.4-0.2-0.6-0.3-0.8C1256.7-78.7,1256.3-78.5,1255.9-78.3
					L1255.9-78.3z M1210-76.1c-1.1-0.4-1.2-0.4-2.1,0.4c0.8-0.3,1.4-0.7,1.8,0.6L1210-76.1L1210-76.1z M1250.6-81.4l1.5,0.9
					c-0.1-0.5-0.1-0.8-0.1-1C1251.5-81.5,1251.2-81.5,1250.6-81.4L1250.6-81.4z M1174-65.6c0-0.8-0.6-0.9-1.8-0.3
					C1172.8-65.8,1173.4-65.7,1174-65.6z M1227.9-75.4c-0.3,0.1-0.7,0.2-1.3,0.5c0.6,0.2,1,0.4,1.4,0.5
					C1228-74.8,1227.9-75.1,1227.9-75.4L1227.9-75.4z M1267.1-66.8c0-0.1,0-0.2,0.1-0.3c-0.3-0.3-0.7-0.5-1.2-0.9
					c0,0.4-0.2,0.7-0.1,0.8C1266.3-67,1266.7-66.9,1267.1-66.8L1267.1-66.8z"/>
			</g>
			<g>
				<path class="st0" d="M282.1,354.9c3.2,0.3,4.3,2.8,5.5,5.1c1,1.9,1.8,3.8,2.8,5.6c0.5,1,1.2,0.9,1.9,0.3c0.5-0.4,0.9-1,1.4-1.5
					c1-1,2-2.2,3.2-3c1.7-1.2,3.4-2.2,5.2-3.1c0.9-0.4,2-0.7,3-0.5c6.4,1,10.9,8.8,8.2,14.4c-1,2-2.6,3.9-4.3,5.4
					c-3.6,3.3-7.3,6.4-11,9.6c-1.2,1-2.5,1.9-3.5,3c-2.8,3.1-4.3,6.7-4.3,10.9c0,1.7-0.6,2.8-1.6,2.9c-1,0.1-2.2-0.7-2.7-2.2
					c-0.9-2.2-1.7-4.5-2.5-6.7c-1.3-3.9-3.3-7.4-5.3-11c-0.9-1.7-1.6-3.6-2.4-5.4c-0.6-1.4-1.1-2.9-1.8-4.3
					c-1.6-3.2-1.4-6.5-0.8-9.8c0.1-0.7,0.4-1.4,0.5-2.1c0.5-3.1,2.5-5.2,5.1-6.8c1-0.6,2.2-0.7,3.4-1
					C282.1,354.6,282.1,354.8,282.1,354.9L282.1,354.9z M286.9,391.3c0.6-0.4,1.4-0.6,1.6-1c1.4-2.9,3.6-5,6.1-6.9
					c2.4-1.9,4.8-3.9,7.2-5.9c0.6-0.5,1.2-0.9,1.8-1.5c1.5-1.3,3-2.5,4.3-3.9c1.2-1.3,1.5-2.9,1-4.7c-0.6-1.8-1.8-3.2-3.3-4.2
					c-1.1-0.7-2.5-0.8-3.6-0.1c-3.3,2-5.9,4.6-7.5,8.2c-1,2.3-2,4.7-3,7c-0.4,1-1.2,1.3-2.2,1.3c-1-0.1-1.6-0.7-1.7-1.7
					c-0.4-2.3-0.8-4.6-1.1-6.8c-0.5-3.2-1.2-6.3-2.9-9c-0.6-1-1.2-2.3-2.7-2.1c-1.4,0.3-2,1.6-2.4,2.8c-0.8,2.5-1.2,5.2-0.4,7.8
					c1.1,3.7,2.5,7.3,4,10.9c0.9,2.2,2.3,4.1,3.4,6.2C286,388.8,286.4,389.9,286.9,391.3L286.9,391.3z"/>
			</g>
			<g>
				<path class="st0" d="M289.4-97.6c2.1-0.5,3.3,0.8,4.5,2c1,0.9,2,2,3,2.9c0.5,0.5,1,0.3,1.3-0.2c0.2-0.4,0.3-0.8,0.5-1.3
					c0.4-0.9,0.8-1.8,1.3-2.6c0.8-1.1,1.6-2.1,2.6-3.1c0.4-0.5,1.1-0.9,1.7-1c4.2-0.8,8.7,3.1,8.2,7.2c-0.2,1.5-0.8,3-1.5,4.3
					c-1.5,2.9-3.2,5.6-4.8,8.4c-0.5,0.9-1.1,1.7-1.5,2.7c-1.1,2.5-1.2,5.1-0.3,7.7c0.4,1.1,0.2,1.9-0.3,2.2c-0.6,0.3-1.5,0-2.2-0.8
					c-1-1.2-2.1-2.4-3-3.7c-1.7-2.1-3.7-3.9-5.7-5.7c-1-0.9-1.8-1.9-2.7-2.9c-0.7-0.8-1.3-1.6-2.1-2.3c-1.7-1.6-2.3-3.7-2.7-6
					c-0.1-0.5-0.1-1-0.2-1.4c-0.4-2.1,0.4-3.8,1.7-5.4c0.5-0.6,1.3-0.9,1.9-1.4C289.4-97.8,289.4-97.7,289.4-97.6L289.4-97.6z
					 M300.4-75.9c0.3-0.4,0.7-0.7,0.8-1c0.2-2.1,1.2-3.9,2.3-5.7c1.1-1.7,2.1-3.5,3.2-5.3c0.3-0.4,0.6-0.9,0.8-1.3
					c0.6-1.1,1.3-2.2,1.8-3.4c0.5-1.1,0.3-2.2-0.4-3.1c-0.8-1-1.8-1.6-3-1.9c-0.9-0.2-1.7,0.1-2.3,0.7c-1.6,2-2.7,4.2-2.9,6.8
					c-0.1,1.7-0.2,3.4-0.3,5c0,0.7-0.5,1.1-1.1,1.3c-0.6,0.2-1.1-0.1-1.5-0.7c-0.8-1.3-1.5-2.7-2.2-4c-1-1.9-2.1-3.7-3.8-5
					c-0.6-0.5-1.3-1.2-2.1-0.7c-0.8,0.5-0.9,1.5-0.9,2.3c0.1,1.8,0.4,3.5,1.4,4.9c1.5,2.1,3.1,4,4.9,5.9c1,1.1,2.3,2,3.5,3.1
					C299.3-77.3,299.8-76.7,300.4-75.9z"/>
			</g>
			<g>
				<path class="st0" d="M259.9,248.2c0.4,0.2,0.7,0.4,1.1,0.6c0.2,0.1,0.5,0.1,0.8,0.1c0-0.2,0.1-0.5,0-0.7
					c-0.1-0.4-0.3-0.8-0.5-1.3c-0.1-0.2-0.1-0.6,0-0.7c0.8-0.5,0.4-1.3,0.5-2.1l1-0.1c0-0.9,0.1-1.8,0.1-2.7c0.9-1.1,0.7-2.7,1.5-4
					c-0.1,0,0.1,0,0.2,0c-0.3-1-0.1-1.3,1-2c0.1-0.1,0.4-0.2,0.3-0.2c-0.3-1.3,0.8-2.4,0.3-3.7c0.4,0.1,0.7,0.1,0.9,0.2
					c0.6-0.9,0.9-2.3,2.5-2.3c0.5,0,1.1-0.4,0.9-1.2c-0.3,0.3-0.6,0.6-1,1c-0.1-0.1-0.2-0.2-0.3-0.3c0.4-0.4,1-1.2,1.1-1.1
					c0.7,0.4,0.9-0.2,1.2-0.4c0.1,0,0-0.2,0.1-0.4c-0.3,0.1-0.6,0.2-0.9,0.3c0.3-0.5,0.5-1,0.9-1.5l0.2,1.4c0.9-0.5,0.1-1.2,0.5-1.6
					c-0.3,0-0.6,0-1-0.1c0.2-0.4,0.3-0.8,0.5-1c0.4-0.5,1.2-0.3,2.1,0.5c-0.3,0.2-0.7,0.3-1,0.5c0,0.1,0.1,0.2,0.1,0.3
					c0.4-0.1,0.8-0.1,1-0.3c0.5-0.4,0.8-0.8,1.5-0.4c0.2,0.1,0.6-0.2,0.9-0.1c0.4,0.1,0.8,0.2,1.2,0.2c0.9,0.1,1.9,0.3,2.8,0.3
					c0.5,0,1-0.4,1.5-0.6c0.1,0.2,0.2,0.4,0.3,0.7c0.2-0.3,0.3-0.5,0.4-0.7l0.8,0.7l0.3,2.9c0.5-0.4,1-0.7,1.5-1.1
					c0.1,0.3,0.3,0.6,0.6,1.1c-0.2-0.9,0.1-1.2,0.8-1.1c-0.2,1-0.2,1,1.3,1.6c0-0.2-0.1-0.4-0.1-0.6c0.1,0,0.1-0.1,0.2-0.1
					c0.8,0.9,1.5,1.8,2.3,2.7c0.2-0.2,0.4-0.6,0.6-0.9c0.7,0.3-0.4,1.8,1.1,1.4c-0.1,0.4-0.2,0.7-0.3,1c0.1,0,0.1,0.1,0.2,0.1
					c0.2-0.2,0.4-0.3,0.6-0.5c0.3,0.4,0.5,0.8,0.8,1.3c0,0-0.1,0.2-0.3,0.6c0.5-0.2,0.8-0.3,1-0.4c1.1,1,1.2,1.6,0.3,2.4
					c0.2,0.3,0.4,0.5,0.7,0.9c-0.1,0.1-0.4,0.3-0.7,0.5c0.4,0.2,0.6,0.3,0.8,0.4c0.2,0.1,0.5,0.2,0.8,0.2c0.4,1.1,0,2-1.1,2.6
					c-0.3,0.1-0.4,0.5-0.7,0.7c0.1,0.1,0.1,0.1,0.2,0.2c0.7-0.5,1.4-0.9,2.4-1.5c-0.4,0.6-0.7,1.1-1.1,1.6c0.1,0.1,0.3,0.1,0.4,0.2
					c0.7,0.4,0.8,1.1,0.3,1.7c-0.6,0.8-0.6,0.8,0.4,1c-0.9,1-0.4,1.8,0.5,3.2c-0.6,0.1-1.1,0.3-1.7,0.4c0.4,0.4,0.7,0.6,1.1,1
					c0.1-0.1,0.2-0.4,0.5-0.5c0.2-0.1,0.6-0.3,0.7-0.3c0.7,0.6,1.1,0,1.6-0.3c0.6,0.2,1.1,0.3,1.7,0.5c0.1-0.1,0.3-0.3,0.5-0.5
					c0.2,0.2,0.3,0.3,0.4,0.5c0.6,0.6,1.2,0.6,1.7-0.1c0.5-0.6,0.7-0.1,1,0.2l-0.5,0.6c0.2,0.5,0.4,1,0.6,1.5
					c0.6,0.1,0.6-0.3,0.5-0.7c0.5-0.2,0.9-0.4,1.3-0.6l0.1,1.2c0.1,0,0.2,0.1,0.3,0.1c0.3-0.3,0.5-0.6,0.8-0.9l1.3,0.7
					c-0.5,0.2-0.9,0.3-1.1,0.4c0,0.5,0,0.7,0,1c0.1,0,0.1,0.1,0.2,0.1c0.1-0.2,0.3-0.4,0.4-0.6c0.2-0.2,0.4-0.4,0.6-0.5
					c0.1,0,0.3,0.3,0.5,0.5c0.2,0.2,0.3,0.3,0.5,0.5c-0.2,0.2-0.3,0.5-0.5,0.7c0.6,0.3,1.8-0.2,2.3-0.8c1-0.2,1.8-0.4,2.5-0.6
					c1.4-0.5,3.1,0.1,3.8,1.3c0.1,0,0.2-0.1,0.3-0.1c0.1-0.1,0.2-0.2,0.2-0.2c0.5,0.3,0.9,0.6,1.4,0.9c0.4,0.2,1,0.3,1.4,0.4l-1,0.4
					c0,0.1,0,0.2,0,0.3c0.6-0.6,1.2,0.7,1.8-0.2c0.3,0.2,0.6,0.3,0.9,0.5c0.6-0.7,1.2-1.4,1.9-2.2c0.1,0,0.3,0.1,0.5,0.2
					c-0.1-0.3-0.2-0.6-0.4-1.1c0.4,0.2,0.6,0.3,0.7,0.4c0-0.1,0-0.1,0-0.2c0.3-0.1,0.6-0.2,0.9-0.3c0.5-0.1,1,0.1,1.4-0.1
					c0.6-0.3,1.1,0.2,1.1,0.5c0.2,0.9,1.2,1.2,1.6,1.9c0.3,0.5,0.5,1.2,0.8,1.7c0.3,0.4,0.7,0.8,1.1,1.3c-0.1,0.3-0.4,0.6-0.6,1.1
					c0.3,0.5,0.7,1.1,0.6,1.9c-0.1,0.5,0.4,1.1,0.6,1.6c0.1,0.2,0.1,0.4,0.2,0.5c-0.1,0-0.2-0.1-0.3-0.1c-0.2,0.2-0.5,0.5-0.7,0.7
					c-0.1,0.1-0.2,0.4-0.3,0.4c-0.8,0.2-1.1,0.8-1.5,1.5c-0.1,0.3-0.4,0.4-0.8,0.5c0.2-0.3,0.3-0.5,0.6-1c-0.6,0.4-1,0.8-1.5,0.8
					c-0.4,0-0.8-0.5-1.2-0.8c-0.1,0.1-0.3,0.3-0.4,0.5c-1.1-0.5-2.4-0.4-2.6,0.1c-0.6,0.1-1,0.2-1.4,0.3c-0.1,0-0.3,0.2-0.4,0.2
					c-1.6-0.5-2,0.9-2.7,1.8c-0.4-0.2-0.8-0.3-1.3-0.6c0.1,0.3,0.1,0.5,0.2,0.7c-0.3,0-0.9-0.3-0.7,0.5c-0.4-0.2-0.6-0.3-1-0.5
					c0,0.3,0,0.5,0,0.6c-0.2,0-0.4-0.2-0.6-0.2c-0.9,0.3-1.8,0.3-2.8,0c-0.6-0.2-1.4,0-2.1,0.1c-1.8,0.1-3.6-0.1-5.1-1.3
					c-0.3-0.3-0.8-0.6-1.1-0.8c-0.3-0.2-0.9-0.2-1.4-0.1c-0.8,0.2-1.6,0.5-2.4,0.8c0.8,0.9,1.4,0.4,2,0.1c-0.6,1-1.7,0.8-2.7,1
					c0.1-0.3,0.1-0.5,0.2-0.7c-1.2-0.5-1.2,1.2-2.2,1.1c0-0.3,0.1-0.5,0.1-1c-0.9,1-1.6,1.8-2.4,2.7c-0.2-0.4-0.3-0.6-0.4-1.1
					c-0.3,0.5-0.5,0.8-0.7,1.1c-0.8-0.9-1.7,0-2.4,0c-0.3-0.3-0.6-0.5-0.9-0.7c-0.1,0.3-0.2,0.5-0.2,0.7c-0.9-0.5-1.9,0.2-2.8-0.6
					c-0.4-0.3-1.4-0.1-2,0.1c-1.1,0.4-1.3,0.4-1.6-0.8c-0.1,0-0.3,0-0.4,0.1c-0.1,0.1-0.2,0.1-0.3,0.2c0,0,0,0.1,0,0.1
					c0,0.3,0.1,0.6,0.1,1c-0.4-0.2-0.8-0.5-1.3-0.5c-0.7-0.1-1.2-0.6-1.9-0.5c-0.4,0.1-0.8-0.1-1.3-0.2c0.1-0.6,0.2-1.2,0.3-2
					c-0.3-0.5-0.8,0.1-1.1,0.1c-0.8-0.6-1.5-1.3-2.3-1.6c-1.5-0.6-2-0.4-2.4,0.2c-0.5,0.2-0.9,0.3-1.2,0.5c0.1,0.2,0.3,0.4,0.5,0.7
					c-0.3,0.2-0.7,0.4-1.1,0.6c0,0,0.1,0.1,0.1,0.1c-0.4,0.4-0.9,0.7-1.3,1.1c-0.3,0.3-0.6,0.7-1,1c0.1,0,0.2,0,0.3,0
					c0.3,0.4,0.7,0.8,0.7,1.2c0.1,1.1-1,2.1-2.5,2.1c0.4-0.2,0.6-0.3,0.8-0.4l0-0.2c-0.4,0-0.9,0-1.4,0c0-0.1,0.1-0.4,0.1-0.9
					c-0.4,0.2-0.7,0.3-1,0.4c0.2,0.4,0.4,0.8,0.6,1.1c-1.3,1-1.2-1-2.1-0.9c0,0.2,0.1,0.4,0.2,0.8c-0.2-0.1-0.3-0.1-0.4-0.2
					c-0.7-0.6-1.3-1.1-2-1.7c-0.1,0.1-0.2,0.3-0.3,0.5c-0.6-0.5-1.1-0.9-1.6-1.3c0.1-0.1,0.1-0.2,0.2-0.2c0.2,0.1,0.4,0.3,0.6,0.4
					c0-0.1,0.1-0.2,0.1-0.2c-0.4-0.2-0.8-0.4-1.2-0.6c-0.1-1.2-1.5-1-2-1.9c-0.1,0.2-0.2,0.5-0.3,0.5c-1.7-0.1-0.8,1.5-1.4,2
					c-0.4,0-0.9-0.1-0.9,0c-0.3,0.8-0.8,0.9-1.5,0.2l0,1.2c-0.1,0-0.2,0-0.3,0l-0.1-0.5c-1.4,0.4-2.7,0.5-4-0.2
					c-0.1-0.1-0.3,0-0.5,0c-1,0.4-1.7,0.2-2.3-0.6c-0.3-0.4-0.9-0.5-1.1-0.9c-0.6-1.2-1.7-0.5-2.5-0.7c0-0.2,0-0.4,0-0.6
					c0,0-0.1,0-0.1-0.1c-0.3,0.4-0.6,0.8-0.8,1.3c-0.2,0.5-0.4,1-0.6,1.5c-0.2-0.4-0.4-0.7-0.6-1c-0.1,0.2-0.1,0.4-0.2,0.6
					c-0.3,0-0.6,0.1-0.9,0.1c0,0.1,0,0.2,0,0.2c0.2,0.3,0.3,0.5,0.5,0.8c-0.3,0.1-0.6,0.3-0.9,0.4c-0.8,0.2-1.6,0.4-2.4,0.5
					c-0.4,0.1-0.8,0.1-1.4,0.2c-0.1,0.2-0.2,0.6-0.4,1.2c-0.1-0.2-0.3-0.5-0.4-0.7c-0.3-0.1-0.4,1.2-0.9,0.2c-0.3,0.3-0.7,0.5-1,0.7
					c-0.2-0.3-0.3-0.5-0.4-0.8c-0.6,0.3-1.2,0.9-1.9,0.3c-0.1-0.1-0.5,0-0.9,0.1c-0.1,0-0.3-0.1-0.5-0.2c-0.7-0.5-1.4-0.9-1.9-1.5
					c-0.1-0.2,0-0.8-0.4-1.2c-0.2-0.2-0.3-0.5-0.4-0.9c0.2-0.3,0.4-0.6,0.7-1.2c-0.4,0-0.6,0-0.7,0c0.4-0.7,0.7-1.5,1.2-2.3
					c0.1,0.2,0.2,0.4,0.3,0.7c-0.2-1,0.2-1.8,0.7-2.6c0.2-0.4,0.1-1,0.2-1.5c0.7-2,2.1-2.9,4.1-3.3c1.5-0.3,2.9-0.7,4.3-1.1
					c0.3-0.1,0.7-0.2,0.8-0.4c0.2-0.4,0.2-0.9,0.3-1.4c-0.4,0-0.7-0.1-1.2-0.1c0.7-0.4,1.4-0.7,0.3-1.2c-0.3-0.1-0.4-0.7-0.4-1.1
					c-0.1-1.1-0.1-2.2-0.1-3.3c0-0.4,0.3-0.8,0.4-1.2c0.1-0.2,0.1-0.6,0-0.7c-1.2-1,0.3-1.8,0.1-2.7c0.5,1.2,0.5,1.2,1.8,0.7
					c-0.3-0.1-0.6-0.2-0.8-0.3l0-0.2c0.6-0.1,1.3-0.3,1.9-0.2c0.6,0.1,0.9-0.3,0.9-0.6c-0.1-0.8,0.3-1,0.9-1.3
					c0.3-0.2,0.6-0.5,0.9-0.8c0.2,0.1,0.5,0.3,1,0.5c-0.2-0.4-0.3-0.7-0.3-0.7c0.5-0.1,1-0.2,1.5-0.4c0.7-0.3,1.5,0,1.8,0.8
					c0.3-0.7,0.5-0.9,1.1-0.3c0.3,0.3,0.9,0.3,1.2,0.4c0.6,0.4,1.2,0.9,1.8,1.1c0.7,0.2,1,0.9,1.6,1.1c0.2,0.1,0.3,0.3,0.4,0.2
					c0.9-0.3,1.1,0.3,1.4,0.9C258.7,247,259.3,247.6,259.9,248.2L259.9,248.2z M297.2,255L297.2,255L297.2,255L297.2,255L297.2,255z
					 M297.1,256.7c0.4,0.5,0.9,1,1.2,1.4c0,0.4,0,0.7,0,1c0.3-0.3,0.6-0.6,1-1c0.1,0.3,0.1,0.6,0.2,0.8c0,0.1,0,0.4,0.1,0.4
					c0.5,0.2,0.9,0.4,1.5,0.6c0,0.2-0.1,0.5-0.1,0.7c-0.3-0.2-0.6-0.3-1.2-0.6c0,0.5-0.2,0.9,0,1.1c0.2,0.2,0.7,0.3,1,0.3
					c0.4,0,0.8-0.1,1.1-0.1c0.3-0.9,0.5-1.8,0.7-2.7c-0.3,0.1-0.6,0.3-1.1,0.5l0.1-3c-0.2,0.3-0.4,0.5-0.5,0.7
					c-1.5-0.1-1.1-1.7-1.8-2.3c-0.3,0.4-0.6,0.6-0.9,0.9l-0.2-0.2c0.1-0.2,0.2-0.3,0.3-0.5c-0.1-0.1-0.1-0.2-0.2-0.2
					c-0.4,0.2-0.8,0.3-1.2,0.5C297.2,255.6,297.1,256.2,297.1,256.7L297.1,256.7z M312.3,261.4c0.9,0,1.7,0,2.6,0
					c1,0,1.2-0.5,0.9-1.4c-0.1-0.3,0-0.6,0-0.9c0.1-0.6,0.1-1.2,0.2-2.1c-0.6,0.3-0.9,0.7-1.2,0.7c-1.5,0.2-2.3,1.1-2.3,2.6
					C312.4,260.7,312.3,260.9,312.3,261.4L312.3,261.4z M289.3,245.4c0.1,0,0.2,0,0.4,0c-0.5-1.5,0.9-1.6,1.5-2.2l-0.4-0.8
					c-0.3,0.3-0.5,0.5-0.8,0.8c-0.1-0.4-0.2-0.6-0.3-0.9c-0.4,0.1-0.7,0.2-1,0.2c0-0.1,0-0.1-0.1-0.2c0.2-0.1,0.5-0.2,0.9-0.4
					c-0.9-0.1-1.5,0-2,0.6c-0.2,0.2-0.5,0.3-0.7,0.5c-0.1,0.1-0.3,0.2-0.3,0.3c0,0.2,0.1,0.4,0.3,0.5c0.3,0.4,0.7,0.7,1.1,1.1
					c0.2-0.1,0.6-0.3,0.9-0.4C289,244.8,289.1,245.1,289.3,245.4z M268.6,247.1c0,0.6,0,0.9-0.1,1.2c0.2,0,0.3,0.1,0.4,0.1
					c-0.2,0.3-0.6,0.6-0.6,0.9c0,0.7,1.5,1.2,2.1,0.7c-0.3-0.3-0.6-0.6-1-0.9c0.4,0,0.6,0,0.8-0.1c0-0.5,0-1,0-1.5
					c-0.3,0.2-0.4,0.3-0.5,0.3C269.3,247.5,269,247.3,268.6,247.1L268.6,247.1z M255.7,250.7c0.3,0.6,0.6,1,0.9,1.5
					c0.7-1.2-0.3-3.4-1.5-3.8c0,0.1-0.1,0.2-0.1,0.2c0,0.1,0,0.2,0,0.3c0.3,0.4,0.4,1.4,0.1,1.8c-0.1,0.1-0.2,0.4-0.2,0.5
					c0,0,0.2,0.2,0.3,0.2C255.3,251.3,255.4,251.1,255.7,250.7z M279.7,238.7c-0.4,0.4-0.9,0.8-0.9,1.1c-0.1,0.6,0.1,1.3,0.3,2
					c0,0.1,0.2,0.2,0.3,0.1c0.1,0,0.2-0.1,0.3-0.2c0.4-0.8,0.7-1.6,1.1-2.4C280.4,239.1,280,238.9,279.7,238.7L279.7,238.7z
					 M272.9,244.8c1,1.3,2.2,0.4,3.2,0.6c-0.2-0.5-0.4-0.9-0.5-1.4C274.7,244.3,273.9,244.5,272.9,244.8z M283.8,260.3
					c-1,0.5-1.2,1.3-0.9,2c0.3,0.6,0.9,1,1.4,1.5c0-0.7-0.1-1.4-0.1-1.8c-0.3-0.3-0.5-0.5-0.6-0.7
					C283.7,261.1,283.8,260.8,283.8,260.3L283.8,260.3z M252.9,253.3c0.1-0.1,0.1-0.1,0.2-0.1c-0.1-0.2-0.3-0.3-0.4-0.5
					c-0.2-0.2-0.5-0.3-0.7-0.5c-0.6-0.8-0.7-0.9-1.2,0c-0.3,0.4-0.4,1-0.6,1.4C250.8,253,252.3,252.8,252.9,253.3z M236.7,264.4
					c-1.1,0.8-1.4,2.2-0.7,3.5c0.3-0.3,0.5-0.5,0.8-0.8c-0.2-0.1-0.4-0.2-0.8-0.3c0.4-0.5,0.7-0.9,1.1-1.5
					C237,265.1,236.9,264.8,236.7,264.4L236.7,264.4z M267.5,260.8c0.1-0.1,0.1-0.2,0.2-0.2c0-0.5-0.8-1-0.1-1.5
					c-0.2-0.1-0.4-0.4-0.5-0.4c-0.4,0.2-0.8,0.5-1.4,0.9C266.4,260.1,267,260.4,267.5,260.8z M252.5,262.3l1.8,1.4
					C254.4,262,254.4,262,252.5,262.3z M268.3,261.8c0,0.1,0.1,0.3,0.1,0.4c0.5-0.2,1-0.3,1.6-0.5c-0.4-0.5-0.7-1-1-1.5
					c-0.3,0.4-0.4,0.6-0.7,0.9c0.4,0.1,0.7,0.2,1,0.4C269,261.6,268.7,261.7,268.3,261.8L268.3,261.8z M266.3,268.1
					c0.2-0.2,0.8-0.4,0.8-0.6c-0.1-0.5-0.4-1-0.6-1.5c0-0.1-0.3,0-0.4,0L266.3,268.1L266.3,268.1z M279.6,264.7c0.9-1,0-0.8-0.2-0.9
					c0.1-0.3,0.2-0.5,0.2-0.7c-0.1,0-0.3-0.1-0.4-0.1c0,0.2-0.2,0.4-0.1,0.6C279.2,264,279.4,264.3,279.6,264.7L279.6,264.7z
					 M280.8,233.8c-0.2,0-0.3-0.1-0.5-0.1c-0.1,0.5-0.1,1-0.2,1.5c0.2,0,0.3,0.1,0.5,0.1C280.6,234.8,280.7,234.3,280.8,233.8
					L280.8,233.8z M293.9,234.4c0,0.3,0,0.6-0.1,0.8c0.1,0,0.3,0,0.3,0c0.1-0.3,0.2-0.5,0.2-0.8c0-0.1-0.1-0.4-0.2-0.4
					c-0.2-0.1-0.5,0-0.7,0c0,0.1,0,0.1,0,0.2C293.7,234.2,293.8,234.3,293.9,234.4L293.9,234.4z M301.9,257c0,0.1-0.1,0.2-0.1,0.2
					c0.2,0.3,0.5,0.5,0.8,0.9c0.2-0.3,0.4-0.6,0.6-1C302.6,257.1,302.2,257,301.9,257z M268.1,267.8c0.2,0.7,0.6,0.7,1.1,0.4
					c0.2-0.1,0.3-0.3,0.6-0.6L268.1,267.8z"/>
			</g>
			<g>
				
					<image style="overflow:visible;enable-background:new    ;" width="49" height="54" xlink:href="ED026416.png"  transform="matrix(1 0 0 1 1123 474)">
				</image>
			</g>
			<g>
				
					<image style="overflow:visible;enable-background:new    ;" width="37" height="39" xlink:href="ED026417.png"  transform="matrix(1 0 0 1 402 76)">
				</image>
			</g>
			<g>
				
					<image style="overflow:visible;enable-background:new    ;" width="37" height="39" xlink:href="ED026412.png"  transform="matrix(1 0 0 1 329 547)">
				</image>
			</g>
		</g>
	</g>
	<path class="st1" d="M844.1,114.2c-0.2,0-0.4,0-0.7,0c-0.4-1-0.7-2.1-1.2-3.2c-0.5-1-1.2-1.9-1.6-3c-0.3,0-0.6,0.2-0.6,0.6
		c0,0.3,0.3,0.6,0.5,0.9c0.1,0.1,0.2,0.3,0.3,0.4c-0.2,0-0.4,0.1-0.5,0.1c-1.1-0.4-2.1-1.7-2-3.3c0-0.4,0.1-0.8,0.2-1.2
		c0.1-0.7-0.2-1-0.9-1.2c-0.7-0.2-1.3-0.5-1.8-1.1c-0.1-0.1-0.3-0.2-0.5-0.3c0,0,0.1-0.2,0.2-0.3l0,0c0.7,0.4,1.4,0.7,2.2,1.1
		c0.3,0.1,0.5,0.3,0.8,0.4c0.2,0.1,0.3,0.3,0.5,0.5c0.2-0.2,0.4-0.4,0.5-0.7c0.2-0.4,0.5-0.5,0.9-0.2c0.4,0.3,0.8,0.5,1.2,0.8
		c0.2,0.2,0.3,0.5,0.4,0.7c0,0.1,0.1,0.2,0.1,0.3c0.3,0.2,0.5,0.5,0.3,0.9c-0.2,0.3-0.5,0.7-0.8,0.7c-0.5,0-0.4,0.3-0.3,0.5
		c0.3,0.7,0.7,1.4,1.1,2.1c0.2,0.3,0.4,0.7,0.5,1.1c0.3,0.8,0.7,1.6,1.1,2.4c0.1,0.2,0.4,0.3,0.7,0.4c0.6,0.2,1.3,0.4,1.9,0.5
		c0.4,0.1,0.5,0.4,0.4,0.8c-0.1,0.4-0.2,0.8-0.3,1.2c0,0.1,0,0.2-0.1,0.3c-0.6,0.5-0.7,1.3-1,2c-0.3,0.8-0.8,1.5-1.1,2.3
		c-0.3,0.9-0.5,1.9-0.7,2.8c-0.1,0.2-0.1,0.4-0.2,0.5c-0.3,0.5-0.4,1-0.4,1.6c0,0.4-0.3,0.8-0.4,1.3c-0.2,0.6-0.5,1.1-0.7,1.7
		c-0.1,0.2-0.1,0.4-0.2,0.5c-0.4,0.5-0.4,1.1-0.7,1.5c-0.3,0.6-0.1,1.5-0.8,2c-0.2,0.1-0.1,0.5-0.2,0.8c-0.1,0.3-0.3,0.7-0.4,1
		c-0.1,0.3-0.1,0.6-0.1,0.9c-0.5,0.2-0.9,0.7-0.8,1.2c-0.2-0.1-0.4-0.1-0.5-0.2c0,0.3,0,0.5-0.4,0.5c-0.1,0-0.2,0.2-0.3,0.3
		c-0.1,0.1-0.2,0.2-0.3,0.2c-0.7,0-1.2,0.5-1.9,0.8c0,0-0.1,0-0.1,0c-1.2,0.1-2.4,0.2-3.6,0.2c-0.8,0-1.5-0.1-2.2-0.4
		c-0.6-0.2-1.2-0.3-1.8-0.4c-1.1-0.3-2.3-0.6-3.4-0.8c-0.3-0.1-0.7-0.1-1-0.2c-0.7-0.2-1.5-0.5-2.2-0.8c0,0,0,0.1,0,0.2
		c-0.4-0.2-0.8-0.4-1.2-0.6c-0.1,0-0.2,0.2-0.3,0.2c-0.8-0.3-1.6-0.7-2.1-1.5c0.1,0,0.2,0.1,0.3,0.1c0-0.1,0.1-0.1,0.1-0.2
		c-0.5-0.2-0.9-0.5-1.4-0.7c-0.5-0.2-0.6-0.9-1.3-0.7c0-1.1,0-2.1,0-3.2c0-0.4-0.1-0.8-0.1-1.2c0-0.1-0.2-0.2-0.3-0.3
		c0.1-0.1,0.2-0.2,0.3-0.3c-0.4-0.3-0.5-1.8-0.1-2.3c-0.3-0.2-0.2-0.5,0.2-0.9c-0.3-0.6-0.5-1.3-0.4-2.1c0.1-1-0.1-2-0.1-3
		c0.4,0,0.3-0.2,0.3-0.5c-0.1-0.9-0.1-1.9-0.1-2.8c0-0.3-0.1-0.7-0.1-1c-0.1-1.2-0.1-2.5-0.3-3.7c0-0.5-0.2-1.1,0.3-1.3
		c0.7-0.3,1.4-1,2.3-0.7c0.2,0.1,0.5,0,0.7-0.1c0.9-0.5,1.9-1.1,2.8-1.7c0,0,0.1-0.1,0.1-0.3c-0.5-0.1-1-0.2-1.4-0.2
		c-1-0.1-1.3-0.7-1-1.6c0.1-0.6,0.4-1,0.8-1.4c0.4-0.5,0.9-0.6,1.5-0.6c0.3,0,0.5,0,0.8,0c0.1,0,0.3-0.4,0.2-0.4
		c-0.4-0.4,0-0.7,0.1-1.1c0.1-0.4,0.3-0.7,0.4-1.1c0.3-0.8,1-1.1,1.7-1.3c0.5-0.2,0.5-0.4,0.3-0.7c-0.5-0.8-1-1.5-1.6-2.2
		c-0.2-0.2-0.6-0.3-0.8-0.6c-0.1-0.1-0.2-0.3-0.2-0.5c0.1-0.3,0.2-0.5,0.4-0.8c0.6,0.3,1.3,0.7,2,1.1c0,0,0,0,0,0
		c0.6,0.2,1.3,0.5,1.9,0.7c0.6,0.2,1.3,0.4,1.9,0.4c0.6,0.1,1.2,0,1.7,0c0.2,0,0.4,0,0.5,0.1c1,0.5,1.6,1.3,2,2.3
		c0.1,0.1,0.1,0.3,0.2,0.4c0,0,0.1,0,0.1,0c0-0.1,0-0.2,0-0.3c0.1-0.2,0.3-0.3,0.5-0.5c0,0,0.2,0,0.2,0.1c0,0.2,0,0.4,0,0.6
		c-0.1,0.3-0.3,0.6-0.5,0.9c-0.4,0.5-0.8,0.9-1.1,1.4c-0.3,0.4-0.6,0.8-0.9,1.2c0.5,0.5,1,0.4,1.6,0.3c0.3,0,0.6,0.1,0.6,0.4
		c-0.5,0.1-1,0.2-1.5,0.2c-0.5,0-1-0.2-1.5-0.3c0.1-0.1,0.3-0.3,0.3-0.4c0-0.1-0.1-0.3-0.2-0.5c1-0.5,1.3-1.7,2.3-2.3
		c-0.3-1.1-0.8-2.2-1.9-2.8c-0.5-0.3-1.3-0.2-1.9-0.1c-1.3,0.2-2.4-0.1-3.5-0.6c-0.2-0.1-0.4-0.2-0.6-0.2c0,0-0.1,0.1-0.1,0.1
		c0.4,1,0.7,2,1.1,3c0.1,0.2,0.4,0.3,0.7,0.4c0.4,0.4-0.4,0.9,0.2,1.3c0-0.1,0.1-0.3,0.1-0.4c0,0,0.1,0,0.1,0c0,0.3,0,0.5,0,0.8
		c0,0.4,0,0.9-0.1,1.3c0,0.1,0,0.2-0.1,0.3c-0.4,0.5-0.4,0.5,0.3,0.8c-0.4,0.1-0.6,0.3-0.9,0.3c-0.2,0-0.4-0.1-0.6-0.2
		c-0.2,0-0.4,0-0.6,0c0.1,0.2,0.1,0.4,0.2,0.5c0.6,0.6,0.5,1.3,0.6,2c0.1,0.6-0.1,1.2-0.1,1.6c-0.7,0.2-1.4,0.5-2,0.7
		c-0.4,0.1-0.7-0.2-0.9-0.4c-0.1-0.1-0.1-0.3-0.2-0.4c-0.6-0.8-0.9-0.8-1.6-0.2c-0.5,0.4-1,0.7-1.5,1.1c-0.4,0.3-0.7,0.5-1.1,0.8
		c-0.3,0.2-0.2,0.4,0.1,0.5c1,0.3,2,0.6,3,0.7c1.4,0.1,2.7,0.5,4,0.7c0.4,0.1,0.8,0.1,1.2,0.1c0.2,0,0.3,0.2,0.6,0.3
		c0,0,0.1-0.1,0.1-0.2c0.4,0.4,0.8,0.4,1.3,0.2c0.3-0.1,0.6,0,0.9,0.1c1,0.2,1.9,0.5,2.9,0.6c0.8,0.1,1.5,0.2,2.3,0.6
		c0.3,0.2,0.8,0,1.2,0.1c1.3,0.4,2.7,0.4,4,0.6c1,0.1,2.1,0.4,3.1,0.4c0.4,0,1,0.2,1.3-0.3c0-0.1,0.2,0,0.4,0
		C844.1,114.5,844.1,114.3,844.1,114.2c0.1,0.1,0.2,0.2,0.3,0.4c0.3,0.3,0.7,0.3,1.1-0.1C845,114.5,844.7,113.9,844.1,114.2z
		 M819.8,123.1c0.1,0.6,0.1,1.1,0.3,1.6c0.5,1.6,1.3,3.1,2.9,4c0.6,0.3,1.2,0.6,1.8,0.8c1.2,0.3,2.5,0.7,3.7,0.9
		c0.9,0.2,1.8,0.4,2.7,0c0,0,0.1,0,0.1,0c0.6,0.3,1.2,0.1,1.8,0c1.2-0.2,2.3-0.5,3-1.6c0.1-0.1,0.2-0.1,0.3-0.2
		c0.9-0.5,1.5-1.8,1.3-2.8c-0.2-1.1-0.8-2-1.4-2.9c-0.3-0.5-0.6-1-1.1-1.3c-0.9-0.6-1.9-1.1-3-1.5c-1.5-0.5-3-0.6-4.5-0.5
		c-1.6,0-3.1,0.4-4.6,0.8c-0.7,0.2-1.3,0.6-1.9,1C820.4,121.8,820,122.3,819.8,123.1z M824.4,108.1c0-0.3,0-0.7,0-1
		c0-0.3-0.1-0.7-0.1-1c-0.1-0.8-1.3-1.9-2.1-1.9c-0.6,0-1.2,0-1.8,0c-1.1,0.1-1.5,0.6-1.3,1.7c0,0.2,0,0.3,0,0.5
		c0,0.5,0.6,0.4,0.8,0.6c0,0.1,0.3-0.1,0.5-0.2c0.6,0.3,1.2,0.6,1.9,1c0-0.1,0,0,0,0c0.1,0.9,0.4,1.1,1.2,0.6
		C823.8,108.3,824.1,108.2,824.4,108.1z M822.4,101.9c-0.1,0-0.1,0-0.2,0c0.3,0.4,0.7,0.8,0.9,1.1c0.9,0.1,1.6,0.3,2.1,0.9
		c0.1-0.8,0.2-1.5,0.4-2.3c-0.1-0.3-0.2-0.8-0.6-1.1c-0.3-0.2-1.1-0.5-1.4-0.3c-0.4,0.2-0.9,0.9-0.9,1.3
		C822.7,101.6,822.5,101.7,822.4,101.9z M841.7,106.3c0-0.5-0.6-1.5-1.1-1.9c-0.4-0.3-0.6-0.2-0.9,0.1c-0.7,1-0.9,2.2-0.5,3.4
		c0,0.1,0.1,0.2,0.2,0.3c0.1-0.1,0.2-0.1,0.3-0.2c0.3-0.4,0.7-0.8,1.2-1C841.2,106.8,841.4,106.5,841.7,106.3z M818.8,105.5
		c-0.1,0-0.1,0-0.2,0c0,0.3,0,0.7,0,1c0.1,0,0.1,0,0.2,0C818.8,106.1,818.8,105.8,818.8,105.5z M862.9,164.9c0.2,0,0.3,0,0.4,0
		c0,0.2,0.1,0.4,0.2,0.8c-0.2,0-0.3-0.1-0.5-0.1c0.1,0.2,0.2,0.4,0.2,0.5c-0.2,0.3-0.4,0.5-0.7,0.7c-0.1,0.1-0.2,0.3-0.4,0.3
		c-0.3,0.1-0.7,0.2-1.1,0.4c-0.2-0.6-0.4-1.2-0.6-1.9c-0.6-0.1-0.6-0.1-1,0.6c-0.1,0.1-0.2,0.2-0.3,0.3c-0.4,0.1-0.7,0.2-1.3,0.4
		c0-0.3,0.1-0.6,0.1-0.8c0-0.1,0-0.3,0-0.4c-0.1-0.3-0.1-0.6-0.2-1c0.3,0.1,0.4,0.1,0.4,0.2c-0.1-0.2,0-0.7-0.2-0.8
		c-0.4-0.2-0.4-0.5-0.3-0.9c0-0.2,0-0.4-0.1-0.6c0,0.1-0.1,0.2-0.1,0.3c-0.1,0.2-0.3,0.5-0.4,0.7c-0.2,0.5-0.5,0.9-1.2,1
		c-0.1,0-0.1,0.2-0.2,0.3c-1-0.2-1.5-1.4-1.1-2.1c-0.1,0-0.2,0-0.3-0.1c0.1-0.1,0.2-0.2,0.4-0.4c-0.1-0.1-0.3-0.1-0.5-0.2
		c0.1-0.3,0.2-0.6,0.3-1c0,0-0.1,0-0.1,0c0-0.3-0.1-0.6-0.1-0.9c0-0.6,0.1-1.2,0.2-1.9c-0.4,0.1-0.4,0.2-0.5,0.5
		c0,0.3-0.3,0.7-0.5,1c0,0.1-0.2,0-0.4,0c0,0.6-0.1,0.6-0.8,1.1c-0.1,0.1-0.1,0.3-0.1,0.5c0,0.1,0,0.2-0.1,0.4
		c-0.1-0.5-0.4-0.5-0.9-0.1c-0.1-0.4-0.1-0.7-0.2-1.1c-0.2-0.2-0.6-0.3-0.5-0.9c0.1-0.6,0-1.2-0.1-1.9c0-0.2-0.2-0.5-0.3-0.5
		c-0.3,0-0.7,0.1-0.8,0.2c-0.4,0.6-1,1.2-1.2,1.9c-0.1,0.3-0.5,0.6-0.8,0.9c-0.3,0.2-0.7,0-0.8-0.4c-0.1-0.5-0.3-0.9-0.4-1.4
		c-0.1-0.3-0.1-0.5-0.1-0.8c0-0.7,0.1-1.4,0.2-2.1c0.1-0.9,0.3-1.8,0.4-2.7c0,0,0-0.1-0.1-0.3c-0.3,0.9-1,1.2-1.7,1.4
		c0,0,0.1,0.1,0.1,0.1c0.1,0,0.2,0,0.4,0.1c0,0.1,0.1,0.1,0,0.1c-0.3,0.4-0.7,0.9-1,1.4c-0.3,0.6-0.7,0.1-1,0.1
		c-0.5,0-0.8-0.4-1-0.9c-0.1-0.2-0.3-0.5,0.2-0.7c0,0,0.1-0.3,0-0.4c-0.8-0.4-0.4-1.1-0.4-1.6c0.2-1.4,0.6-2.9,0.9-4.3
		c0.1-0.4,0.2-0.9,0.3-1.3c-0.1,0-0.2,0-0.2,0.1c-0.4,0.9-0.8,1.8-1.2,2.6c0,0.1,0,0.2,0,0.3c0,0.3,0,0.7-0.1,1
		c-0.2,0.5-0.4,1-0.7,1.5c-0.3,0.5-0.7,0.9-1.1,1.3c-0.1,0.1-0.3,0.1-0.4,0.1c-0.1,0-0.1-0.2-0.1-0.3c-0.1-0.3-0.1-0.6-0.2-0.9
		c0-0.2-0.1-0.4-0.2-0.6c-0.5-0.2-0.3-0.5-0.2-0.8c0.1-0.3,0.3-0.6,0.3-1c-0.1,0.2-0.3,0.4-0.4,0.6c0,0-0.1-0.1-0.2-0.1
		c0.2-0.3,0.5-0.6,0.7-1c0.1-0.1,0.1-0.4,0-0.5c-0.2-0.2-0.2-0.4,0-0.7c0.1-0.1,0.1-0.3,0.1-0.5c0.1-0.9,0-1.9,0.4-2.7
		c0.1-0.3,0.1-0.8,0.2-1c0.5-0.6,0.4-1.4,0.8-2.1c0.3-0.6,0.3-1.3,0.5-1.8c0.3-0.7,0.3-1.6,1.1-2.1c0.1,0,0-0.3,0-0.5
		c0-0.1-0.2-0.3-0.2-0.4c0.1-0.6-0.1-1.1-0.4-1.5c-0.1-0.1,0-0.4,0-0.7c-0.1,0-0.2,0.1-0.4,0.2c-0.1-0.5,0.3-0.6,0.6-0.8
		c0.7-0.5,1.5-0.7,2.4-0.7c0.2,0,0.4,0.2,0.6,0.4c0.3,0.3,0.6,0.6,0.9,0.9c0.3,0.4,0.6,0.8,0.9,1.2c0.6,0.7,1.2,1.4,1.8,2.2
		c0.5,0.7,1,1.4,1.5,2c0.5,0.6,1,1.1,1.5,1.7c0.6,0.7,1.1,1.5,1.7,2.2c0.1,0.1,0.2,0.1,0.2,0.2c0.4,0.2,0.5,0.5,0.4,0.9
		c0.2,0.2,0.4,0.3,0.5,0.5c-0.4,0.3-0.1,0.4,0.1,0.6c0.4,0.4,0.8,0.9,1.2,1.5c0.6,0.8,1.1,1.7,1.7,2.5c0.2,0.3,0.5,0.6,0.7,0.9
		c0.1,0.2,0.1,0.4,0.2,0.7c0.6,0.5,0.9,1.2,0.7,2.1c0,0.2-0.1,0.4,0,0.5c0.2,0.3,0.5,0.5,0.8,0.8c0.2,0.2,0.4,0.4,0.7,0.6
		c0.6-0.6,0.8-0.6,1.1-0.1c-1.1,0.6-1.1,0.6-0.8,1.1c-0.2,0.1-0.4,0.2-0.6,0.3c0,0,0,0.1,0,0.1c0.1,0,0.2,0,0.2,0
		c0.3-0.1,0.3-0.1,0.3,0.2c0,0.1,0.1,0.2,0.2,0.3c0.3,0.6,0.6,1.1,0.9,1.7c0.1,0.1,0.2,0.3,0.2,0.4c0,0.1,0,0.3,0.1,0.4
		c0.5,0.4,0.5,0.4-0.1,0.7c0.6,0.6,0.5,1.3,0.4,2.1C863,163.6,863.2,164.4,862.9,164.9z M853.1,147.3c0.1-0.1,0.2-0.1,0.3-0.2
		c-0.1-0.3-0.3-0.5-0.4-0.8c0,0-0.2,0.1-0.3,0.1C852.8,146.8,852.9,147,853.1,147.3z M855,164.5c0,0,0.1,0,0.1,0
		c0.2-0.1,0.3-0.2,0.5-0.4c0,0,0-0.1,0-0.2c-0.2,0-0.4-0.1-0.5,0C855,164.1,855,164.3,855,164.5z M785.4,144.2
		c-0.4-0.1-0.4-0.4-0.3-0.8c0.1-0.6,0.6-1.2,0.4-1.8c0-0.1-0.1-0.2-0.2-0.4c-0.2,0.2-0.4,0.3-0.5,0.4c-0.3,0.4-0.5,0.8-0.7,1.2
		c-0.5,0.7-0.9,1.5-1.1,2.3c-0.1,0.2-0.3,0.4-0.5,0.4c-0.1,0-0.3-0.2-0.4-0.4c-0.1-0.1-0.1-0.1-0.1-0.1c-0.3,0.1-0.5,0.3-0.7,0.2
		c-0.3,0-0.6-0.2-0.7-0.6c-0.2-0.9,0-1.8,0.5-2.6c0.4-0.6,0.8-1.3,1.2-1.9c0-0.1,0.1-0.1,0.2-0.2c0.7-0.5,1.3-1.1,1.7-1.8
		c0.2-0.3,0.6-0.5,0.9-0.7c0.6-0.3,1.2-0.7,1.7-1c0.1,0,0.1-0.1,0.2-0.2c0.2-0.2,0.5-0.6,0.7-0.7c0.5-0.3,1-0.5,1.5-0.7
		c0.7-0.4,1.5-0.8,2.2-1.2c0.4-0.2,0.7-0.6,1.1-0.9c0.9-0.5,1.8-0.9,2.6-1.3c0.6-0.3,1.3-0.4,1.8-0.8c0.4-0.3,0.8-0.3,1.4-0.4
		c-0.2-0.3-0.4-0.5-0.5-0.7c0.9,0.2,1.6-0.1,2.3-0.3c0.5-0.2,1-0.4,1.5-0.6c0,0,0,0,0,0c0.5,0.3,0.8,0.1,1.1-0.3
		c0.1,0.1,0.2,0.1,0.3,0.2c0.4-0.6,0.5-0.7,0.8-0.3c0.3-0.1,0.5-0.1,0.7-0.2c0.3-0.1,0.6-0.3,0.9-0.5c0.6-0.3,0.9-0.3,1.3-0.1
		c0.3-0.1,0.5-0.2,0.6-0.3c0.5-0.2,1-0.4,1.5-0.5c0.3-0.1,0.6-0.1,0.9-0.1c0.3,0,0.7,0.2,0.8-0.4c0.1,0,0.1,0,0.2,0
		c0,0.1,0.1,0.3,0.2,0.5c0.2-0.1,0.3-0.2,0.4-0.3c0.3,0.1,0.5,0.2,0.7,0.3c0.1,0.1,0.2,0.3,0.2,0.4c0,0.2-0.2,0.4-0.3,0.6
		c-0.1,0.2-0.1,0.6-0.6,0.5c-0.1,0-0.2,0.3-0.3,0.4c-0.1,0.1-0.1,0.2-0.1,0.3c-0.2,0.7-0.5,1.4-0.7,2.2c0,0,0.1,0,0.1,0.1
		c0.1-0.1,0.2-0.1,0.3-0.2c0,0.2,0,0.4,0,0.5c-0.4,0.5-0.4,0.7,0.3,0.9c0,0.5,0,0.9,0.1,1.4c0,0,0,0.1,0,0.1
		c0.2,0.4,0.4,0.9,0.6,1.3c0.1,0.3,0,0.6,0.1,0.8c0.1,0.5,0.2,1,0.4,1.5c-0.1,0.3-0.2,0.7,0.1,1c0.1,0.1,0,0.4-0.1,0.4
		c-0.4,0.3-0.3,0.6,0.1,0.7c-0.2,0.5-0.4,1.1-0.6,1.6c-0.2,0.3-0.4,0.6-0.7,0.8c-0.4,0.3-0.6-0.2-0.7-0.4c-0.2-0.3-0.2-0.7-0.4-1.2
		c-0.2,0.1-0.4,0.2-0.6,0.4c-0.5,0.5-0.8,1.2-1.6,1.4c0,0.1,0,0.3,0.1,0.4c-2.1-0.3-3.3-1.4-3.9-3.3c-0.1,0-0.1,0-0.2,0
		c-0.2,0.5-0.4,0.9-0.6,1.4c-0.2,0.4-0.5,0.7-0.8,1.1c-0.1,0-0.2-0.1-0.4-0.2c-0.1,0.3-0.2,0.5-0.3,0.8c0,0-0.1-0.1-0.1-0.1
		c-0.2,0.1-0.4,0.2-0.5,0.3c-0.2,0.2-0.2,0.4-0.6,0.3c-0.3-0.1-0.7,0-1.1,0c-0.5-0.1-1.1-0.2-1.5-0.5c-0.4-0.3-0.7-0.8-1-1.3
		c-0.1-0.1-0.1-0.2-0.2-0.3c-0.1-0.1-0.2-0.2-0.2-0.2c-0.1,0-0.2,0.1-0.2,0.2c-0.1,0.3-0.1,0.6-0.2,0.9c-0.1,0-0.3,0.1-0.4,0.1
		c0,0,0.1,0,0.1,0.1c-0.2,0.6-0.5,1.1-0.7,1.8c0,0-0.2,0-0.3,0c-0.1,0.4-0.1,0.8-0.4,1.2c-0.2,0.2-0.3,0.5-0.5,0.7
		c-0.1,0.1-0.1,0.2-0.2,0.3c-0.5,0.2-0.9,0.5-1.5,0.1c0,0-0.1,0-0.2,0c-0.5,0-1-0.1-1.3-0.6c-0.3-0.5-0.5-0.9-0.3-1.5
		c0-0.1-0.1-0.3-0.1-0.5c-0.4,0.3-0.7,0.5-1,0.7c-0.6,0.6-1.2,1.1-1.7,1.7c-0.4,0.4-1.2,0.5-1.7,0.1
		C785.3,145.5,785.2,144.9,785.4,144.2z M797.7,139.9c0.2,0.3,0.4,0.6,0.6,0.9c0.1,0,0.1,0,0.2,0c0-0.3,0-0.6,0-0.8
		c0.1-0.1,0.2-0.3,0.3-0.4c-0.2,0-0.3,0-0.5-0.1c0-0.2-0.1-0.4-0.2-0.6c-0.1,0-0.1,0-0.2,0C798,139.2,797.9,139.5,797.7,139.9z
		 M798.7,134.4c0-0.3,0-0.5,0-0.7c-0.3,0.1-0.4,0.1-0.7,0.2c0,0.1,0,0.1,0,0.1C798.2,134.1,798.4,134.2,798.7,134.4z M804.6,136.1
		c0-0.3-0.1-0.6-0.1-0.8C804,135.7,804,135.8,804.6,136.1z M837.4,110.1c-0.1,0.6-0.1,1.2-0.2,1.7c0,0.1-0.4,0.2-0.5,0.2
		c-1.1-0.4-2.2-0.8-3.3-1.1c-0.6-0.2-1.2-0.1-1.8-0.2c-0.5-0.1-1.5-1.2-1.5-1.7c0-0.5,0.7-1.4,1.2-1.5c0.1,0,0.2,0,0.3-0.1
		c1.3-0.5,1.2-0.2,1.2-1.5c0-0.2,0.2-0.4,0.4-0.5c0.7-0.3,2.1,0.2,2.5,0.9c0.1,0.1,0.2,0.2,0.3,0.3c1,0.8,1.4,1.8,1.6,3
		c0,0.1,0,0.2,0,0.3C837.5,109.9,837.5,110,837.4,110.1C837.4,110.1,837.4,110.1,837.4,110.1z M836.4,111.1c0.3-0.6,0.5-1.3,0.3-2
		c-0.3-0.6-0.5-1.3-0.9-1.8c-0.4-0.7-0.9-1.2-1.7-1.4c-0.7-0.1-0.9,0-0.8,0.6c0,0.5-0.1,0.9-0.5,1.1c-0.4,0.2-0.9,0.3-1.3,0.4
		c-0.1,0-0.3,0.1-0.3,0.1c-0.3,0.4-0.9,0.9-0.2,1.5c0,0,0,0.1,0,0.1c0.2,0.1,0.4,0.1,0.5,0.2c0.2,0.1,0.4,0.3,0.7,0.3
		c0.7,0.1,1.4,0.1,2.1,0.4C834.9,110.9,835.7,110.9,836.4,111.1z M811,93.1c0.5,0.8,1.6,1,2.5,0.6c0.6-0.3,1.2-0.4,1.8-0.6
		c0.3-0.1,0.6-0.2,0.9-0.3c-0.7-1-2.1-0.7-2.9-1.4c0.5-0.5,0.8-0.4,1,0.1c0.5,0.1,0.9,0.1,1.3,0.2c0.4,0.1,0.8,0.4,1.2,0.6
		c0.2,0.1,0.5,0.3,0.7,0.3c1,0,1.9,0.2,2.5,1.1c0.1,0.1,0.2,0.2,0.3,0.4c0.4,0.4,0.4,0.7,0.1,1.1c-0.1,0.1-0.4,0-0.5,0.1
		c-0.2,0.2-0.5,0.5-0.8,0.3c-0.4-0.2-0.8-0.5-1.1-0.8c-0.3-0.3-0.6-0.8-1-1.1c-0.1-0.1-0.4-0.2-0.6-0.2c-1,0.2-1.9,0.5-2.9,0.7
		c-0.8,0.2-1.5,0.4-2.3-0.1C811.1,93.7,810.9,93.5,811,93.1z M818.1,93.1c0.3,0.8,0.6,1.4,1.4,1.7c0.1,0,0.2,0,0.3,0
		c0,0,0.1-0.2,0-0.2c-0.2-0.2-0.3-0.4-0.5-0.6c-0.3-0.3-0.6-0.6-0.9-0.9C818.3,93.1,818.2,93.1,818.1,93.1z M835.4,102.7
		c-0.4-0.5-0.4-0.6,0.1-1.1c0.2-0.2,0.3-0.5,0.1-0.7c-0.3,0-0.3,0-0.7,0.5c-0.4,0.5-0.8,0.9-1.1,1.4c-0.2,0.3-0.3,0.5-0.7,0.5
		c-0.1,0-0.3,0.1-0.4,0.1c0.1,0.2,0.2,0.3,0.2,0.4c0.3,0,0.5,0,0.7,0c0.3,0,0.5,0,0.6-0.4C834.5,102.5,834.5,102.5,835.4,102.7
		L835.4,102.7z M835.9,99.6c-0.1-0.3-0.3-0.6-0.5-0.8c-0.1-0.1-0.4-0.1-0.6-0.1c-0.6-0.1-1.1-0.3-1.7-0.4c-0.1,0-0.2,0.1-0.3,0.2
		c0.1,0.1,0.1,0.2,0.2,0.3c0.3,0.1,0.6,0.2,0.9,0.2c0.9,0.1,1.3,0.5,1.4,1.4c0,0.4,0.2,0.5,0.5,0.4C835.9,100.2,836,99.9,835.9,99.6
		z M820.1,124.8c0.5,1.6,1.3,3.1,2.9,4c0.6,0.3,1.2,0.6,1.8,0.8c1.2,0.3,2.5,0.7,3.7,0.9c0.9,0.2,1.8,0.4,2.7,0c0,0,0.1,0,0.1,0
		c0.6,0.3,1.2,0.1,1.8,0c1.2-0.2,2.3-0.5,3-1.6c0.1-0.1,0.2-0.1,0.3-0.2c0.9-0.5,1.5-1.8,1.3-2.8c-0.2-1.1-0.8-2-1.4-2.9
		c-0.3-0.5-0.6-1-1.1-1.3c-0.9-0.6-1.9-1.1-3-1.5c-1.5-0.5-3-0.6-4.5-0.5c-1.6,0-3.1,0.4-4.6,0.8c-0.7,0.2-1.3,0.6-1.9,1
		c-0.7,0.4-1.1,0.9-1.2,1.7C819.9,123.7,819.9,124.3,820.1,124.8z M824.3,107.1c0-0.3-0.1-0.7-0.1-1c-0.1-0.8-1.3-1.9-2.1-1.9
		c-0.6,0-1.2,0-1.8,0c-1.1,0.1-1.5,0.6-1.3,1.7c0,0.2,0,0.3,0,0.5c0,0.5,0.6,0.4,0.8,0.6c0,0.1,0.3-0.1,0.5-0.2
		c0.6,0.3,1.2,0.6,1.9,1c0-0.1,0,0,0,0c0.1,0.9,0.4,1.1,1.2,0.6c0.2-0.1,0.5-0.2,0.8-0.3C824.4,107.8,824.4,107.4,824.3,107.1z
		 M822.2,101.9c0.3,0.4,0.7,0.8,0.9,1.1c0.9,0.1,1.6,0.3,2.1,0.9c0.1-0.8,0.2-1.5,0.4-2.3c-0.1-0.3-0.2-0.8-0.6-1.1
		c-0.3-0.2-1.1-0.5-1.4-0.3c-0.4,0.2-0.9,0.9-0.9,1.3c0,0.1-0.2,0.3-0.3,0.4C822.3,101.9,822.3,101.9,822.2,101.9z M840.6,104.3
		c-0.4-0.3-0.6-0.2-0.9,0.1c-0.7,1-0.9,2.2-0.5,3.4c0,0.1,0.1,0.2,0.2,0.3c0.1-0.1,0.2-0.1,0.3-0.2c0.3-0.4,0.7-0.8,1.2-1
		c0.3-0.1,0.5-0.4,0.8-0.7C841.7,105.8,841.1,104.8,840.6,104.3z M844.1,114.2c0.1,0.1,0.2,0.3,0.3,0.4c0.3,0.3,0.7,0.3,1.1-0.1
		C845,114.5,844.7,113.9,844.1,114.2L844.1,114.2z M818.6,105.4c0,0.3,0,0.7,0,1c0.1,0,0.1,0,0.2,0c0-0.3,0-0.7,0-1
		C818.8,105.5,818.7,105.5,818.6,105.4z M836.7,109.1c-0.3-0.6-0.5-1.3-0.9-1.8c-0.4-0.7-0.9-1.2-1.7-1.4c-0.7-0.1-0.9,0-0.8,0.6
		c0,0.5-0.1,0.9-0.5,1.1c-0.4,0.2-0.9,0.3-1.3,0.4c-0.1,0-0.3,0.1-0.3,0.1c-0.3,0.4-0.9,0.9-0.2,1.5c0,0,0,0.1,0,0.1
		c0.2,0.1,0.4,0.1,0.5,0.2c0.2,0.1,0.4,0.3,0.7,0.3c0.7,0.1,1.4,0.1,2.1,0.4c0.7,0.3,1.5,0.3,2.2,0.5
		C836.7,110.5,837,109.8,836.7,109.1z M819.4,94.8c0.1,0,0.2,0,0.3,0c0,0,0.1-0.2,0-0.2c-0.2-0.2-0.3-0.4-0.5-0.6
		c-0.3-0.3-0.6-0.6-0.9-0.9c0,0-0.1,0-0.3,0.1C818.3,93.9,818.7,94.5,819.4,94.8z M836.6,127.4c0-0.3-0.4-0.5-0.6-0.6
		c-0.1-0.1-0.3-0.2-0.2-0.3c0,0,0.1-0.1,0.4,0c0.2,0.1,0.1,0.3,0.3,0.3c0.2,0.1,0.3-0.2,0.2-0.3c-0.1-0.1-0.3-0.3-0.7-0.3
		c-0.2,0-0.3,0.1-0.4,0.2c-0.1,0.2-0.1,0.3-0.2,0.5c0,0,0,0,0,0.1c-0.1-0.1-0.3,0-0.4,0.1c0,0.1,0,0.1,0,0.2c0,0,0,0-0.1,0
		c-0.2,0.1-0.4-0.1-0.3-0.3c0.1-0.2,0.2-0.6,0.3-0.8c0.1,0,0.1-0.1,0.2-0.1c0.1,0,0.1-0.1,0.2-0.1c0.3,0,0.5,0.1,0.5,0.1
		c0.1,0,0.3,0.1,0.4-0.1c0-0.1-0.1-0.1-0.3-0.2c-0.1,0-0.2,0-0.4-0.1c0-0.1,0.1-0.1,0.1-0.2c0.1-0.3,0-0.5-0.2-0.6
		c-0.2,0-0.4,0.2-0.6,0.6c0,0,0,0,0,0c-0.5-0.1-1-0.2-1-0.2c-0.1,0-0.1,0-0.2,0c0,0.1,0,0.1,0.1,0.1c0.1,0,0.1,0,0.2,0.1
		c0,0,0.1,0.1,0.2,0.1c0,0,0.3,0,0.5,0.1c-0.1,0.1-0.2,0.3-0.2,0.4c-0.2,0-0.2,0-0.3,0.1c0-0.3-0.1-0.5-0.4-0.6c0,0-0.3-0.1-0.6,0.1
		c-0.2,0-0.3,0-0.5,0.1c0-0.2-0.1-0.4-0.3-0.4c-0.2,0-0.3,0-0.4,0.1c0,0,0-0.1,0-0.1c0,0,0,0,0,0h0l0,0c0,0-0.1,0-0.1-0.1
		c-0.2-0.1-0.5,0.5-0.6,0.9c0,0.1-0.1,0.1-0.1,0.2c-0.2,0.1-0.4,0.2-0.6,0.1c-0.4,0-0.3-0.3-0.2-0.5c0.1-0.2,0.2-0.4,0.3-0.5
		c0.1-0.1,0.2,0.1,0.3,0.2c0.1,0.1,0.3,0,0.3-0.2c0-0.2-0.2-0.3-0.3-0.3c-0.1,0-0.2,0-0.3,0c0,0,0,0,0,0c0-0.1,0-0.1-0.1-0.1
		c-0.1,0-0.1,0.1-0.2,0.2c0,0,0,0,0,0.1c-0.1,0.1-0.2,0.3-0.3,0.6c0,0,0,0,0,0c-0.3,0.2-0.4,0.2-0.6,0.2c-0.1,0-0.2-0.1-0.2-0.1v0v0
		c0,0,0.1,0,0.1-0.1c0.2-0.1,0.6-0.4,0.7-0.6c0.1-0.2,0.2-0.3-0.1-0.4c-0.2-0.1-0.5-0.1-0.8,0.2c-0.2,0.3-0.5,0.6-0.4,0.9l0,0
		c-0.1,0.1-0.2,0.1-0.3,0c-0.2-0.1,0-0.4,0.1-0.6c0.1-0.2,0.5-0.7,0.6-1c0.1-0.3,0.2-0.6,0.1-0.7c-0.2-0.1-0.3,0-0.4,0.1
		c-0.1,0.1-0.4,0.7-0.4,0.9c0,0-0.1-0.3-0.6-0.1c-0.5,0.2-0.7,0.7-0.7,1c0,0.1,0,0.1,0,0.2c-0.1,0-0.2,0-0.3,0c-0.3,0,0-0.4,0.1-0.6
		c0.1-0.2,0.4-0.6,0.2-0.7c-0.2-0.2-0.4-0.1-0.5-0.1c-0.1,0-0.2,0-0.2,0c0.1-0.5-0.5-0.1-0.8,0c0,0-0.1,0-0.1,0
		c0-0.2-0.1-0.3-0.4-0.4c0,0-0.5-0.1-0.9,0.3c-0.1,0-0.2-0.1-0.2-0.1l0,0l0,0l0,0c0.1-0.2,0.2-0.4,0.3-0.5c0.2-0.5,0.2-0.8-0.2-0.9
		c-0.4-0.1-0.5,0.3-0.5,0.4c-0.1,0.3,0,0.7,0.2,1c0,0,0,0,0,0.1c-0.1,0.1-0.1,0.2-0.2,0.3c-0.3,0.4-0.6,0.4-0.8,0.2
		c-0.2-0.1-0.1-0.5,0.1-0.8c0.2-0.3,0.4-0.4,0.2-0.5c-0.2-0.1-0.4,0.4-0.5,0.6c-0.1,0.2-0.2,0.5-0.5,0.6c-0.3,0.1-0.5-0.2-0.4-0.5
		c0.2-0.3,0.4-0.5,0.6-0.7c0.2-0.2,0.7-0.6,0.5-0.9c-0.2-0.2-0.5-0.1-0.8,0c-0.2,0.1-0.5,0.2-0.5,0.5c0,0.2,0.1,0.2,0.2,0.1
		c0.1-0.1,0.3-0.2,0.3-0.2c0.3-0.1,0.6-0.2,0.4,0c-0.2,0.3-0.6,0.5-0.7,0.6c-0.2,0.2-0.6,0.5-0.6,0.9c0,0.4,0.4,0.6,0.5,0.6
		c0.1,0,0.5,0,0.6-0.3c0.1-0.1,0.1-0.1,0.1-0.1c-0.1,0.2,0.2,0.4,0.3,0.5c0.2,0.1,0.5,0.1,0.9-0.3c0.1-0.2,0.2-0.4,0.4-0.6l0,0l0,0
		l0,0c0.1,0,0.1,0.1,0.2,0.1c0,0.1-0.1,0.1-0.1,0.2c-0.3,0.8,0.7,1.1,1.1,0.5c0.2-0.2,0.3-0.5,0.3-0.7c0.1,0,0.2,0,0.3-0.1
		c0.2-0.1,0.1,0.1,0,0.3c-0.1,0.2-0.3,0.5-0.5,0.7c-0.2,0.2,0,0.2,0.2,0.3c0.2,0,0.2,0,0.3-0.1c0-0.1,0.1-0.2,0.1-0.3
		c0.1-0.1,0.1-0.3,0.2-0.4c0.1-0.2,0.2-0.3,0.4-0.3c0.2,0,0.1,0.2-0.1,0.4c-0.2,0.3-0.3,0.6,0,0.7c0.2,0.1,0.4,0.1,0.6,0
		c0.1,0.1,0.2,0.2,0.3,0.2c0.2,0,0.3,0,0.4,0c0.1,0,0,0,0.1,0c0,0,0,0.1,0.1,0.1c0,0,0.2,0.1,0.5,0.1c0,0,0.2-0.1,0.2-0.1l0.1,0l0,0
		c0,0,0.1,0.1,0.1,0.1c0.3,0.2,0.6,0.2,1.1-0.1c0,0,0,0.1,0,0.1c0,0.4,0.5,0.5,1,0.3c0,0,0.1,0,0.1,0c-0.3,0.2-0.4,0.5-0.5,0.6
		c-0.1,0.2-0.1,0.7,0.1,0.7c0.2,0,0.3-0.1,0.4-0.4c0.1-0.2,0.2-0.5,0.3-0.7c0-0.1,0.1-0.2,0.1-0.3c0.2,0.4,0.5,0.5,0.8,0.3
		c0.2-0.1,0.4-0.4,0.5-0.7c0-0.1,0-0.2,0-0.2h0c0.2,0,0.3-0.1,0.4-0.1c-0.1,0.1-0.2,0.2-0.3,0.5c-0.3,0.8,0.7,1.1,1.1,0.5
		c0.1-0.2,0.2-0.4,0.2-0.5c0.1,0,0.2,0,0.3,0c-0.1,0.2-0.2,0.4-0.2,0.6c-0.1,0.4,0.4,0.8,0.9,0.5c0.1,0.1,0.3,0.3,0.6,0.4
		C836.4,128,836.6,127.6,836.6,127.4 M835.4,125.4c0.1-0.2,0.2,0,0.1,0.2c0,0.1-0.1,0.1-0.1,0.2c-0.1,0-0.1,0-0.2,0
		C835.3,125.6,835.3,125.5,835.4,125.4 M835.1,125.9l0.1,0c-0.1,0-0.1,0.1-0.2,0.1C835,126,835,126,835.1,125.9 M828.6,125.1
		C828.6,125.1,828.6,125.1,828.6,125.1c0.1-0.1,0.2-0.4,0.2-0.5c0.1-0.1,0.2-0.4,0.2-0.5c0-0.1,0.1-0.1,0.1,0c0,0.1-0.1,0.4-0.3,0.7
		C828.7,125,828.6,125.1,828.6,125.1 M824,124.1L824,124.1L824,124.1L824,124.1c0-0.1-0.1-0.2-0.1-0.3c-0.1-0.3,0-0.6,0.2-0.7
		c0.2-0.1,0.2,0.1,0.1,0.3C824.2,123.7,824.1,123.9,824,124.1 M825,124.2c0.1,0,0.1,0,0.1,0c0,0,0,0,0,0c0,0,0,0,0.1,0.1
		c0,0,0,0.1,0,0.1C825.1,124.4,825.1,124.3,825,124.2C825,124.2,825,124.2,825,124.2 M824.9,124.2c0,0.1,0.1,0.1,0.2,0.2
		c0,0-0.1,0-0.1,0c-0.1,0-0.3,0.1-0.4,0C824.7,124.3,824.8,124.3,824.9,124.2 M825.3,124.8c-0.1,0.4-0.4,0.5-0.6,0.4
		c-0.2-0.1-0.3-0.3-0.1-0.6c0,0,0.1,0,0.1,0c0.2,0,0.5,0,0.6-0.1c0,0,0,0,0,0C825.4,124.6,825.4,124.7,825.3,124.8 M827.9,125.8
		c0,0-0.3,0.1-0.4-0.1c0,0,0,0,0,0c0.2-0.1,0.4-0.2,0.6-0.3C827.9,125.6,827.9,125.7,827.9,125.8 M828.1,125.1
		c-0.1,0.1-0.2,0.2-0.4,0.3c-0.1,0.1-0.2,0.1-0.3,0.2c0,0,0-0.1,0-0.1c0.1-0.4,0.5-0.9,0.7-0.6c0,0,0,0.1,0,0.1
		C828.2,125,828.1,125.1,828.1,125.1 M829,125.9L829,125.9c0-0.1,0-0.1,0-0.2c0.1-0.2,0.2-0.4,0.3-0.5c0.2-0.2,0.4,0,0.3,0.2
		C829.5,125.6,829.4,125.7,829,125.9 M831.9,125.8C831.9,125.8,831.9,125.8,831.9,125.8c0.3-0.1,0.4,0.1,0.4,0.2c0,0,0,0,0,0.1
		c-0.2,0-0.4,0.1-0.6,0.2c0,0-0.1,0-0.1,0C831.7,126.2,831.8,126,831.9,125.8 M831.8,125.8C831.8,125.8,831.8,125.8,831.8,125.8
		c0,0.1,0,0.2-0.2,0.4C831.6,126.1,831.7,125.9,831.8,125.8 M830.5,127.5C830.4,127.5,830.5,127.5,830.5,127.5
		c-0.1-0.1,0.1-0.4,0.4-0.7C830.7,127.1,830.5,127.4,830.5,127.5 M832,126.6c-0.2,0.2-0.5,0.2-0.5-0.2c0.2-0.1,0.5-0.2,0.8-0.3
		C832.2,126.3,832.2,126.4,832,126.6 M833.9,126c0,0,0.1,0.1,0.1,0.1C833.9,126,833.9,126,833.9,126C833.8,126,833.8,126,833.9,126
		 M833.9,126.5c-0.1,0.4-0.4,0.5-0.6,0.4c-0.2-0.1-0.3-0.3-0.1-0.7c0.1-0.2,0.2-0.3,0.3-0.3c-0.1,0.1-0.1,0.2,0.1,0.4
		C833.8,126.4,833.9,126.4,833.9,126.5C834,126.5,833.9,126.5,833.9,126.5 M833.7,126c0.1,0.1,0.2,0.2,0.3,0.3c0,0,0,0.1,0,0.1
		C833.7,126.3,833.5,126.1,833.7,126 M836,127.5c-0.2,0.2-0.6,0.1-0.6-0.3c0-0.1,0-0.1,0-0.2c0-0.1,0.1-0.2,0.1-0.3
		c0,0.1,0.1,0.1,0.1,0.2C835.8,127.1,836.2,127.4,836,127.5"/>
	<path class="st1" d="M306.6,809.8c0.5,0.6,1.2,0.6,1.6,0.1c0.1-0.2,0.3-0.4,0.5-0.6c0,0.2,0,0.4,0,0.5c0.2,0,0.5-0.1,0.6,0
		c0.5,0.8,1.3,0.5,1.9,0.5c1.5-0.1,3-0.5,4.6-0.7c2-0.3,3.9-0.3,5.9-0.8c0.6-0.2,1.3,0.1,1.8-0.2c1-0.6,2.2-0.8,3.3-0.9
		c1.4-0.2,2.8-0.6,4.2-0.9c0.4-0.1,1-0.2,1.4-0.1c0.7,0.3,1.3,0.3,1.9-0.3c0.1,0.1,0.2,0.3,0.2,0.3c0.3-0.2,0.6-0.4,0.8-0.5
		c0.6-0.1,1.2-0.1,1.7-0.2c2-0.3,3.9-0.9,5.9-1c1.6-0.1,3-0.6,4.4-1c0.5-0.1,0.6-0.4,0.2-0.8c-0.5-0.4-1-0.7-1.6-1.1
		c-0.8-0.5-1.6-1-2.3-1.6c-1.1-0.9-1.6-0.9-2.4,0.2c-0.1,0.2-0.2,0.4-0.3,0.6c-0.4,0.4-0.7,0.9-1.4,0.7c-1-0.3-1.9-0.6-3-1
		c-0.1-0.7-0.3-1.6-0.2-2.4c0.1-1,0-2.1,0.9-2.9c0.2-0.2,0.2-0.5,0.3-0.8c-0.3,0-0.6,0-0.8,0.1c-0.3,0.1-0.6,0.3-0.9,0.3
		c-0.4,0-0.7-0.2-1.3-0.4c1-0.5,1-0.5,0.4-1.2c-0.1-0.1-0.1-0.3-0.1-0.4c0-0.6-0.1-1.3-0.1-1.9c0-0.4,0-0.7,0-1.1c0.1,0,0.1,0,0.1,0
		c0.1,0.2,0.1,0.4,0.2,0.6c0.9-0.6-0.3-1.4,0.3-1.9c0.4-0.1,0.9-0.2,1.1-0.6c0.6-1.4,1.1-2.9,1.7-4.3c0-0.1-0.1-0.1-0.1-0.2
		c-0.3,0.1-0.6,0.2-0.9,0.3c-1.6,0.8-3.3,1.2-5.1,0.9c-0.9-0.1-2-0.2-2.7,0.2c-1.6,0.9-2.3,2.5-2.7,4c1.5,0.9,2,2.7,3.4,3.4
		c-0.2,0.3-0.4,0.5-0.4,0.7c0,0.2,0.3,0.4,0.4,0.6c-0.8,0.2-1.5,0.5-2.2,0.5c-0.7,0-1.4-0.2-2.2-0.3c0.1-0.4,0.4-0.6,1-0.5
		c0.8,0.1,1.6,0.3,2.3-0.5c-0.4-0.6-0.9-1.2-1.3-1.7c-0.5-0.7-1.1-1.4-1.7-2.1c-0.3-0.4-0.6-0.8-0.8-1.3c-0.1-0.3-0.1-0.6-0.1-0.9
		c0,0,0.3-0.1,0.3-0.1c0.3,0.2,0.5,0.4,0.7,0.7c0.1,0.1,0,0.3,0,0.4c0.1,0,0.1,0,0.2,0.1c0.1-0.2,0.2-0.4,0.3-0.6
		c0.6-1.5,1.5-2.7,3-3.4c0.2-0.1,0.5-0.1,0.8-0.1c0.8,0,1.7,0.1,2.5,0.1c1-0.1,1.9-0.4,2.8-0.6c0.9-0.3,1.9-0.7,2.8-1c0,0,0,0,0-0.1
		c1-0.5,2-1.1,2.9-1.6c0.2,0.5,0.5,0.9,0.6,1.2c0,0.2-0.1,0.6-0.3,0.7c-0.4,0.3-0.9,0.4-1.2,0.8c-0.8,1-1.6,2.1-2.3,3.3
		c-0.3,0.4-0.2,0.8,0.5,1c1,0.3,2,0.8,2.4,1.9c0.2,0.5,0.4,1.1,0.6,1.6c0.1,0.5,0.7,1,0.1,1.6c0,0.1,0.2,0.6,0.4,0.6
		c0.4,0.1,0.8,0,1.1,0c0.8,0.1,1.7,0.2,2.2,0.9c0.5,0.6,0.9,1.2,1.1,2c0.3,1.4-0.1,2.2-1.5,2.4c-0.7,0.1-1.4,0.2-2.1,0.3
		c0.1,0.2,0.1,0.4,0.2,0.4c1.4,0.8,2.7,1.7,4.1,2.5c0.3,0.2,0.8,0.2,1,0.1c1.4-0.5,2.4,0.5,3.4,1c0.7,0.4,0.5,1.2,0.4,1.9
		c-0.2,1.8-0.3,3.6-0.4,5.4c0,0.5-0.1,1-0.1,1.4c-0.1,1.4-0.1,2.8-0.1,4.1c0,0.4-0.1,0.7,0.5,0.7c-0.1,1.4-0.2,2.9-0.1,4.3
		c0,1.1-0.1,2.1-0.6,3c0.6,0.6,0.7,1.1,0.3,1.3c0.5,0.7,0.4,2.9-0.2,3.4c0.2,0.1,0.3,0.3,0.5,0.5c-0.2,0.2-0.4,0.3-0.4,0.5
		c-0.1,0.6-0.2,1.2-0.2,1.7c0,1.6,0,3.1,0,4.7c-1.1-0.3-1.3,0.8-1.9,1.1c-0.7,0.3-1.3,0.7-2,1c0,0.1,0.1,0.2,0.1,0.2
		c0.2-0.1,0.3-0.1,0.5-0.2c-0.7,1.2-1.9,1.7-3.1,2.1c-0.1,0-0.4-0.2-0.4-0.3c-0.6,0.3-1.2,0.6-1.8,0.9c0-0.1,0-0.2,0-0.3
		c-1.1,0.4-2.2,0.8-3.2,1.1c-0.5,0.2-0.9,0.2-1.4,0.3c-1.7,0.4-3.4,0.8-5,1.2c-0.9,0.2-1.8,0.3-2.6,0.6c-1,0.4-2.1,0.7-3.2,0.7
		c-1.7,0-3.5-0.2-5.2-0.4c0,0-0.1,0-0.1-0.1c-0.9-0.4-1.7-1.1-2.7-1.1c-0.1,0-0.3-0.2-0.4-0.3c-0.1-0.1-0.3-0.4-0.4-0.4
		c-0.6,0-0.7-0.4-0.6-0.7c-0.2,0.1-0.5,0.2-0.8,0.3c0.2-0.7-0.4-1.5-1.1-1.7c-0.1-0.4-0.1-0.9-0.2-1.3c-0.2-0.5-0.5-1-0.7-1.5
		c-0.1-0.4,0-0.9-0.3-1.1c-1-0.7-0.7-2-1.2-2.9c-0.4-0.6-0.5-1.5-1-2.2c-0.2-0.2-0.2-0.5-0.3-0.8c-0.3-0.8-0.7-1.7-1-2.5
		c-0.2-0.6-0.7-1.2-0.6-1.8c0-0.9-0.1-1.7-0.6-2.4c-0.2-0.2-0.2-0.5-0.3-0.8c-0.4-1.4-0.6-2.8-1.1-4.2c-0.4-1.2-1.1-2.2-1.6-3.4
		c-0.4-1-0.6-2.2-1.5-3c-0.1-0.1-0.1-0.3-0.1-0.4c-0.1-0.6-0.3-1.2-0.4-1.7c-0.1-0.6,0-1,0.6-1.2c0.9-0.3,1.9-0.5,2.8-0.8
		c0.4-0.1,0.8-0.3,1-0.6c0.6-1.1,1-2.3,1.6-3.5c0.2-0.5,0.5-1,0.8-1.5c0.5-1.1,1.1-2.1,1.6-3.1c0.2-0.3,0.2-0.7-0.5-0.7
		c-0.4,0-0.8-0.6-1.1-1c-0.3-0.5,0-0.9,0.4-1.3c0.1-0.1,0.1-0.3,0.2-0.4c0.2-0.4,0.3-0.8,0.6-1c0.5-0.4,1.1-0.8,1.7-1.2
		c0.6-0.4,1-0.2,1.3,0.3c0.3,0.4,0.6,0.7,0.8,1c0.3-0.3,0.4-0.6,0.7-0.8c0.4-0.3,0.8-0.4,1.1-0.6c1.1-0.5,2.1-1.1,3.2-1.6l0,0
		c0.1,0.2,0.2,0.4,0.2,0.4c-0.3,0.2-0.6,0.3-0.8,0.5c-0.6,0.9-1.6,1.3-2.6,1.6c-1,0.2-1.4,0.6-1.3,1.7c0.1,0.6,0.2,1.1,0.2,1.7
		c0.1,2.3-1.2,4.3-2.9,4.8c-0.2,0.1-0.5-0.1-0.8-0.1c0.1-0.2,0.3-0.4,0.4-0.6c0.3-0.4,0.6-0.8,0.7-1.3c0-0.6-0.5-0.8-0.9-0.9
		c-0.5,1.7-1.6,3-2.3,4.5c-0.7,1.5-1.2,3.2-1.8,4.7c-0.3,0-0.7,0-1-0.1C307.8,808.8,307.4,809.8,306.6,809.8z M342.4,819.9
		c-0.9-0.5-1.8-1.2-2.8-1.4c-2.2-0.5-4.5-1.1-6.8-1.2c-2.2-0.1-4.5,0-6.7,0.8c-1.6,0.5-3,1.2-4.3,2.2c-0.7,0.5-1.2,1.3-1.6,2
		c-0.9,1.3-1.7,2.6-2.1,4.2c-0.3,1.5,0.5,3.4,1.8,4.2c0.1,0.1,0.3,0.1,0.4,0.2c1.1,1.6,2.7,2,4.5,2.3c0.9,0.2,1.8,0.4,2.7,0
		c0.1,0,0.1,0,0.2,0c1.3,0.5,2.6,0.2,3.9,0c1.8-0.3,3.7-0.8,5.5-1.3c0.9-0.3,1.8-0.6,2.6-1.1c2.3-1.3,3.4-3.5,4.2-5.9
		c0.3-0.8,0.3-1.6,0.4-2.4C343.9,821.3,343.4,820.4,342.4,819.9z M338.7,800.8c1.2,0.6,1.7,0.4,1.8-0.9c0-0.1,0-0.1,0,0
		c1.1-0.5,2-1,2.8-1.5c0.3,0.1,0.7,0.3,0.8,0.3c0.4-0.4,1.2-0.2,1.2-0.9c0-0.2,0-0.5,0.1-0.7c0.2-1.6-0.3-2.3-1.9-2.5
		c-0.9-0.1-1.8-0.1-2.6-0.1c-1.2,0.1-2.8,1.7-3,2.8c-0.1,0.5-0.1,1-0.2,1.5c0,0.5,0,1-0.1,1.5C338,800.6,338.4,800.6,338.7,800.8z
		 M340.1,790.7c0-0.6-0.7-1.7-1.3-1.9c-0.5-0.2-1.6,0.1-2.1,0.5c-0.6,0.5-0.7,1.2-0.9,1.6c0.2,1.2,0.3,2.3,0.5,3.4
		c0.8-1,1.8-1.1,3.1-1.3c0.3-0.4,0.8-1,1.3-1.6c-0.1,0-0.2,0-0.3,0C340.3,791.1,340.1,790.9,340.1,790.7z M313.3,798.6
		c0.8,0.2,1.3,0.8,1.8,1.5c0.1,0.1,0.3,0.2,0.4,0.3c0.1-0.1,0.2-0.3,0.3-0.4c0.5-1.8,0.2-3.4-0.8-4.9c-0.3-0.5-0.7-0.7-1.3-0.2
		c-0.7,0.6-1.5,2.1-1.5,2.8C312.6,798,312.9,798.5,313.3,798.6z M345.7,798c0.1,0,0.2,0,0.3,0c0-0.5,0-1,0-1.5c-0.1,0-0.2,0-0.3,0
		C345.7,797,345.7,797.5,345.7,798z M281.7,881.4c-0.1-1.1-0.2-2.2,0.6-3c-0.8-0.5-0.8-0.4-0.1-1c0.1-0.1,0.1-0.4,0.1-0.6
		c0-0.2,0.2-0.4,0.3-0.6c0.4-0.8,0.8-1.7,1.3-2.5c0.1-0.2,0.3-0.3,0.3-0.4c0.1-0.5,0.1-0.5,0.5-0.3c0.1,0,0.2,0,0.3,0.1
		c0-0.1,0.1-0.1,0.1-0.2c-0.3-0.2-0.6-0.3-0.9-0.5c0.4-0.8,0.4-0.8-1.2-1.6c0.5-0.6,0.6-0.6,1.6,0.2c0.3-0.3,0.7-0.6,1-0.8
		c0.4-0.4,0.9-0.7,1.2-1.2c0.1-0.2,0.1-0.5,0-0.8c-0.3-1.3,0.1-2.3,1-3c0.1-0.5,0.1-0.8,0.3-1c0.3-0.5,0.7-0.9,1.1-1.4
		c0.8-1.2,1.6-2.5,2.4-3.7c0.5-0.7,1.1-1.5,1.8-2.1c0.3-0.3,0.7-0.4,0.1-0.9c0.3-0.2,0.5-0.5,0.8-0.7c-0.2-0.6,0-1,0.6-1.4
		c0.1-0.1,0.2-0.2,0.3-0.3c0.8-1.1,1.6-2.2,2.5-3.3c0.7-0.9,1.5-1.7,2.2-2.5c0.8-1,1.5-2,2.2-3c0.9-1.1,1.8-2.1,2.7-3.2
		c0.5-0.6,0.9-1.2,1.4-1.8c0.4-0.5,0.8-0.9,1.3-1.4c0.2-0.2,0.5-0.5,0.8-0.5c1.3-0.1,2.5,0.2,3.5,1c0.4,0.3,1,0.5,0.8,1.2
		c-0.2-0.1-0.5-0.2-0.6-0.2c0,0.4,0.1,0.8,0,1c-0.5,0.7-0.7,1.4-0.6,2.2c0,0.2-0.3,0.4-0.3,0.6c-0.1,0.2-0.1,0.6-0.1,0.7
		c1.1,0.7,1.1,2,1.6,3c0.4,0.8,0.3,1.8,0.8,2.7c0.5,1,0.5,2.1,1.1,3c0.3,0.4,0.2,1.1,0.4,1.5c0.5,1.3,0.5,2.7,0.6,4
		c0,0.2,0,0.5,0.2,0.7c0.3,0.4,0.3,0.6,0,1c-0.1,0.2-0.2,0.5-0.1,0.7c0.3,0.5,0.7,1,1,1.5c-0.1,0.1-0.2,0.1-0.2,0.2
		c-0.2-0.3-0.4-0.5-0.6-0.8c0.1,0.5,0.3,1,0.5,1.4c0.2,0.4,0.5,0.9-0.2,1.1c-0.1,0.3-0.2,0.6-0.2,0.9c-0.1,0.4-0.2,0.9-0.3,1.3
		c0,0.2-0.1,0.4-0.2,0.5c-0.2,0.1-0.5,0-0.6-0.1c-0.5-0.6-1.1-1.2-1.5-1.9c-0.4-0.7-0.7-1.4-1-2.2c-0.1-0.5-0.1-1-0.1-1.5
		c0-0.1,0-0.3,0-0.4c-0.6-1.3-1.2-2.6-1.8-3.9c0-0.1-0.1-0.1-0.3-0.1c0.2,0.7,0.3,1.3,0.4,2c0.4,2.1,0.9,4.2,1.3,6.3
		c0.1,0.8,0.6,1.8-0.6,2.4c-0.1,0-0.1,0.5,0,0.5c0.6,0.2,0.4,0.7,0.2,1c-0.3,0.7-0.7,1.3-1.5,1.3c-0.5,0-1.1,0.6-1.5-0.2
		c-0.4-0.7-0.9-1.3-1.4-2c0,0,0-0.1,0.1-0.2c0.2,0,0.3,0,0.5-0.1c0-0.1,0.1-0.1,0.1-0.2c-1.1-0.4-2.1-0.8-2.5-2
		c-0.1,0.3-0.2,0.3-0.1,0.4c0.2,1.3,0.4,2.6,0.6,3.9c0.1,1,0.2,2.1,0.3,3.1c0,0.4-0.1,0.8-0.2,1.2c-0.2,0.7-0.4,1.4-0.6,2.1
		c-0.1,0.5-0.8,0.8-1.2,0.5c-0.5-0.3-1.1-0.8-1.2-1.3c-0.3-1.1-1.1-1.9-1.7-2.9c-0.2-0.3-0.8-0.3-1.2-0.4c-0.1,0-0.4,0.5-0.4,0.7
		c-0.1,0.9-0.2,1.8-0.1,2.7c0.1,0.8-0.4,1.1-0.7,1.3c-0.1,0.6-0.2,1.1-0.2,1.7c-0.8-0.6-1.1-0.6-1.3,0.1c-0.1-0.2-0.1-0.3-0.1-0.5
		c-0.1-0.2-0.1-0.6-0.2-0.7c-1.1-0.7-1.1-0.7-1.2-1.5c-0.2,0-0.5,0.1-0.5,0c-0.3-0.5-0.7-0.9-0.7-1.4c0-0.5-0.1-0.7-0.7-0.8
		c0.1,0.9,0.3,1.8,0.3,2.7c0,0.4-0.1,0.9-0.1,1.3c-0.1,0-0.1,0-0.2,0c0.2,0.5,0.4,0.9,0.5,1.4c-0.2,0.1-0.5,0.2-0.7,0.3
		c0.2,0.2,0.4,0.4,0.6,0.6c-0.1,0-0.3,0.1-0.4,0.1c0.7,1.1-0.1,2.8-1.6,3.1c-0.1-0.2-0.2-0.5-0.3-0.5c-0.9,0-1.4-0.7-1.7-1.4
		c-0.2-0.4-0.4-0.7-0.6-1.1c-0.1-0.2-0.1-0.3-0.2-0.5c-0.2,0.3-0.2,0.6-0.2,0.9c0.1,0.5,0.1,0.9-0.5,1.3c-0.2,0.2-0.2,0.8-0.3,1.1
		c0.1,0,0.2-0.1,0.6-0.2c-0.1,0.6-0.2,1.1-0.3,1.5c0,0.2,0,0.4,0,0.6c0,0.4,0.1,0.7,0.1,1.2c-0.8-0.2-1.3-0.3-1.9-0.5
		c-0.2-0.1-0.4-0.2-0.5-0.4c-0.5-1-0.5-1-1.4-0.9c-0.3,1-0.6,2-0.8,2.8c-0.7-0.2-1.2-0.4-1.7-0.6c-0.2-0.1-0.4-0.3-0.6-0.5
		c-0.3-0.3-0.6-0.7-1-1.1c0-0.1,0.2-0.4,0.3-0.7c-0.3,0-0.5,0.1-0.7,0.1c0.1-0.4,0.2-0.8,0.2-1.1c0.1,0,0.3,0,0.5,0
		C280.6,882.9,280.9,881.7,281.7,881.4z M296.2,856.7c-0.2-0.1-0.5-0.2-0.5-0.2c-0.2,0.4-0.4,0.7-0.6,1.1c0.2,0.1,0.3,0.2,0.5,0.3
		C295.7,857.5,296,857.1,296.2,856.7z M292.5,882.3c-0.1-0.1-0.5,0-0.7,0c0,0.1,0,0.2,0,0.2c0.2,0.2,0.4,0.3,0.7,0.5
		c0.1,0,0.1,0,0.2,0C292.6,882.8,292.6,882.4,292.5,882.3z M393.9,855.9c-0.6,0.6-1.9,0.5-2.5-0.2c-0.8-0.9-1.7-1.7-2.6-2.5
		c-0.4-0.4-0.9-0.7-1.5-1.1c-0.1,0.3-0.2,0.5-0.2,0.7c0.2,0.8,0,1.4-0.5,2.2c-0.5,0.8-1.1,1-1.9,0.9c-0.1,0-0.2,0-0.2,0
		c-0.8,0.5-1.4,0.1-2.1-0.2c-0.1,0-0.2-0.2-0.3-0.4c-0.2-0.3-0.4-0.7-0.7-1c-0.5-0.5-0.6-1.1-0.6-1.7c-0.2,0-0.4,0-0.4,0
		c-0.4-0.9-0.7-1.8-1.1-2.6c0.1,0,0.1-0.1,0.2-0.1c-0.2-0.1-0.4-0.1-0.6-0.2c-0.1-0.4-0.1-0.9-0.2-1.3c0-0.1-0.2-0.3-0.4-0.3
		c-0.1,0-0.2,0.1-0.3,0.2c-0.1,0.1-0.2,0.3-0.3,0.5c-0.5,0.6-0.8,1.4-1.4,1.9c-0.6,0.4-1.4,0.5-2.1,0.7c-0.5,0.1-1.1-0.1-1.5,0
		c-0.5,0.1-0.6-0.1-0.9-0.4c-0.2-0.2-0.5-0.3-0.7-0.5c0,0.1-0.1,0.1-0.1,0.2c-0.1-0.4-0.3-0.7-0.4-1.2c-0.2,0.1-0.4,0.2-0.6,0.2
		c-0.4-0.6-0.8-1.1-1.2-1.7c-0.3-0.6-0.6-1.3-0.9-2c-0.1,0-0.2,0-0.3,0c-0.9,2.9-2.7,4.5-5.7,4.9c0-0.3,0.1-0.5,0.1-0.7
		c-1.1-0.4-1.6-1.3-2.3-2.1c-0.2-0.2-0.5-0.4-0.8-0.6c-0.2,0.7-0.3,1.3-0.6,1.8c-0.2,0.3-0.4,0.9-1,0.6c-0.4-0.3-0.8-0.7-1-1.1
		c-0.4-0.7-0.6-1.5-0.9-2.3c0.6-0.2,0.8-0.6,0.2-1.1c-0.1-0.1-0.2-0.6-0.1-0.7c0.5-0.5,0.3-1,0.2-1.5c0.2-0.7,0.4-1.5,0.5-2.3
		c0.1-0.4,0-0.8,0.1-1.2c0.2-0.7,0.6-1.3,0.9-2c0,0,0-0.1,0-0.2c0-0.7,0.1-1.4,0.1-2.1c1-0.3,1.1-0.5,0.5-1.3
		c-0.1-0.1,0-0.4-0.1-0.7c0.2,0.2,0.3,0.3,0.4,0.4c0.1,0,0.1-0.1,0.2-0.1c-0.3-1-0.7-2.1-1-3.2c0-0.2-0.1-0.3-0.2-0.5
		c-0.1-0.2-0.3-0.6-0.4-0.6c-0.6,0.1-0.7-0.4-0.8-0.7c-0.1-0.3-0.3-0.6-0.4-0.9c0-0.2,0.1-0.5,0.2-0.6c0.3-0.2,0.7-0.3,1-0.5
		c0.2,0.1,0.4,0.3,0.6,0.5c0.1-0.2,0.2-0.5,0.2-0.7c0.1,0,0.2,0,0.2,0c0.1,0.9,0.7,0.6,1.2,0.6c0.4,0,0.9,0.1,1.3,0.2
		c0.8,0.2,1.5,0.5,2.2,0.7c0.3,0.1,0.5,0.2,0.9,0.4c0.7-0.3,1.1-0.3,1.9,0.2c0.4,0.2,0.8,0.5,1.3,0.7c0.3,0.1,0.6,0.2,1,0.3
		c0.5-0.5,0.7-0.4,1.2,0.5c0.1-0.1,0.3-0.2,0.4-0.3c0.4,0.6,0.9,0.8,1.6,0.4c0,0,0,0,0.1,0c0.7,0.3,1.5,0.6,2.2,0.8
		c1.1,0.3,2.2,0.7,3.4,0.5c-0.3,0.4-0.5,0.7-0.8,1.1c0.8,0.1,1.4,0.2,2,0.6c0.8,0.5,1.8,0.7,2.6,1.1c1.3,0.6,2.6,1.2,3.9,1.8
		c0.6,0.3,1.1,0.9,1.7,1.3c1,0.6,2.1,1.2,3.2,1.8c0.7,0.4,1.5,0.6,2.2,1c0.4,0.3,0.7,0.7,1.1,1.1c0.1,0.1,0.1,0.2,0.2,0.3
		c0.8,0.5,1.7,0.9,2.5,1.4c0.5,0.3,1.1,0.6,1.4,1.1c0.7,1.1,1.5,1.9,2.5,2.6c0.1,0.1,0.2,0.2,0.3,0.3c0.6,0.9,1.2,1.8,1.8,2.8
		c0.7,1.2,1,2.4,0.7,3.8c-0.2,0.6-0.5,0.9-1,0.9c-0.3,0-0.7-0.2-1.1-0.4c0,0,0,0.1-0.1,0.2c-0.2,0.2-0.5,0.6-0.7,0.6
		c-0.3,0-0.7-0.3-0.8-0.6c-0.4-1.2-1-2.3-1.6-3.4c-0.4-0.6-0.7-1.2-1-1.7c-0.2-0.2-0.5-0.4-0.8-0.6c-0.1,0.3-0.2,0.4-0.2,0.6
		c-0.3,1,0.4,1.8,0.6,2.7c0.1,0.6,0.1,0.9-0.5,1.1C395,854.4,394.8,855.2,393.9,855.9z M376,845.6c-0.1,0-0.2,0-0.2,0
		c-0.1,0.3-0.2,0.6-0.2,0.8c-0.3,0-0.5,0.1-0.7,0.1c0.1,0.2,0.3,0.3,0.5,0.6c0,0.3,0.1,0.7,0.1,1.2c0.1,0,0.2,0,0.2,0.1
		c0.3-0.5,0.6-0.9,0.9-1.4C376.4,846.5,376.2,846,376,845.6z M376.2,838.3c0-0.1,0-0.1,0-0.2c-0.3-0.1-0.6-0.1-1-0.2
		c0,0.3,0,0.5,0,1C375.6,838.7,375.9,838.5,376.2,838.3z M366.8,840.2c-0.1,0.4-0.1,0.7-0.2,1.2C367.4,841,367.4,840.8,366.8,840.2z
		 M318.4,803.3c0-0.1,0-0.2,0-0.3c0-0.1,0-0.3,0-0.4c0.2-1.8,0.8-3.3,2.3-4.5c0.2-0.1,0.3-0.3,0.4-0.5c0.6-1,2.6-1.8,3.7-1.4
		c0.3,0.1,0.6,0.5,0.6,0.8c0,2-0.1,1.5,1.8,2.3c0.1,0.1,0.3,0,0.5,0.1c0.7,0.1,1.8,1.5,1.8,2.2c0,0.7-1.5,2.4-2.2,2.5
		c-0.9,0.1-1.8,0-2.6,0.3c-1.7,0.5-3.3,1.1-4.9,1.7c-0.2,0.1-0.7-0.1-0.8-0.2c-0.1-0.8-0.2-1.7-0.3-2.5
		C318.4,803.3,318.4,803.3,318.4,803.3z M323.2,804c1-0.4,2.1-0.4,3.1-0.5c0.3,0,0.6-0.3,1-0.5c0.2-0.1,0.5-0.2,0.8-0.3
		c0,0,0-0.1,0.1-0.1c1-0.9,0-1.5-0.4-2.1c-0.1-0.1-0.3-0.2-0.5-0.2c-0.6-0.2-1.3-0.3-1.9-0.6c-0.6-0.3-0.8-0.8-0.8-1.6
		c0.1-1-0.2-1.1-1.2-0.9c-1.2,0.2-1.9,1.1-2.5,2c-0.5,0.8-0.9,1.8-1.3,2.7c-0.4,1.1,0,2,0.4,2.9C321,804.5,322.1,804.4,323.2,804z
		 M356.6,779.6c-1.1,0.7-2.2,0.5-3.3,0.2c-1.4-0.4-2.8-0.8-4.2-1.1c-0.2,0-0.6,0.1-0.8,0.3c-0.5,0.5-0.9,1.2-1.4,1.7
		c-0.5,0.5-1,0.9-1.6,1.2c-0.5,0.3-0.8-0.1-1.2-0.4c-0.2-0.1-0.6,0-0.7-0.1c-0.5-0.6-0.5-1,0.1-1.6c0.2-0.2,0.3-0.3,0.5-0.5
		c0.9-1.4,2.2-1.6,3.6-1.6c0.3,0,0.7-0.2,1-0.4c0.6-0.3,1.2-0.7,1.8-0.9c0.6-0.2,1.3-0.2,2-0.3c0.3-0.8,0.8-0.9,1.5-0.2
		c-1.3,1-3.2,0.6-4.3,2.1c0.5,0.2,0.9,0.3,1.3,0.5c0.9,0.3,1.8,0.5,2.7,0.9c1.3,0.6,2.9,0.3,3.6-0.9
		C357.3,779,357,779.4,356.6,779.6z M346.4,778.4c-0.5,0.5-0.9,0.9-1.3,1.3c-0.3,0.3-0.5,0.6-0.7,0.9c0,0.1,0,0.3,0.1,0.3
		c0.1,0,0.3,0,0.4,0c1.1-0.4,1.6-1.3,2-2.5C346.6,778.4,346.4,778.4,346.4,778.4z M321.4,792.4c1.3-0.2,1.4-0.2,1.8,1
		c0.2,0.5,0.5,0.6,0.9,0.6c0.3,0,0.6,0,1,0c0-0.1,0.2-0.3,0.3-0.5c-0.2-0.1-0.4-0.2-0.6-0.2c-0.5,0-0.7-0.3-1-0.8
		c-0.4-0.7-1.1-1.4-1.6-2c-0.6-0.7-0.6-0.7-1.1-0.7c-0.3,0.4-0.2,0.7,0.2,1.1C322.1,791.6,322,791.7,321.4,792.4L321.4,792.4z
		 M320.7,789.4c0.5,0.2,0.7,0,0.8-0.5c0.1-1.3,0.8-1.9,2.1-2c0.4,0,0.9-0.2,1.3-0.3c0.1,0,0.2-0.2,0.3-0.4c-0.2-0.1-0.3-0.3-0.5-0.3
		c-0.8,0.2-1.6,0.4-2.5,0.7c-0.3,0.1-0.7,0-0.9,0.2c-0.3,0.3-0.6,0.8-0.7,1.2C320.6,788.4,320.7,788.9,320.7,789.4z M344.2,822.4
		c-0.2-1.2-0.8-2-1.8-2.5c-0.9-0.5-1.8-1.2-2.8-1.4c-2.2-0.5-4.5-1.1-6.8-1.2c-2.2-0.1-4.5,0-6.7,0.8c-1.6,0.5-3,1.2-4.3,2.2
		c-0.7,0.5-1.2,1.3-1.6,2c-0.9,1.3-1.7,2.6-2.1,4.2c-0.3,1.5,0.5,3.4,1.8,4.2c0.1,0.1,0.3,0.1,0.4,0.2c1.1,1.6,2.7,2,4.5,2.3
		c0.9,0.2,1.8,0.4,2.7,0c0.1,0,0.1,0,0.2,0c1.3,0.5,2.6,0.2,3.9,0c1.8-0.3,3.7-0.8,5.5-1.3c0.9-0.3,1.8-0.6,2.6-1.1
		c2.3-1.3,3.4-3.5,4.2-5.9C344.1,824.1,344.1,823.2,344.2,822.4z M337.6,800.4c0.5,0.2,0.8,0.3,1.1,0.4c1.2,0.6,1.7,0.4,1.8-0.9
		c0-0.1,0-0.1,0,0c1.1-0.5,2-1,2.8-1.5c0.3,0.1,0.7,0.3,0.8,0.3c0.4-0.4,1.2-0.2,1.2-0.9c0-0.2,0-0.5,0.1-0.7
		c0.2-1.6-0.3-2.3-1.9-2.5c-0.9-0.1-1.8-0.1-2.6-0.1c-1.2,0.1-2.8,1.7-3,2.8c-0.1,0.5-0.1,1-0.2,1.5
		C337.6,799.4,337.6,799.9,337.6,800.4z M340.5,791.3c-0.1-0.2-0.4-0.4-0.4-0.6c0-0.6-0.7-1.7-1.3-1.9c-0.5-0.2-1.6,0.1-2.1,0.5
		c-0.6,0.5-0.7,1.2-0.9,1.6c0.2,1.2,0.3,2.3,0.5,3.4c0.8-1,1.8-1.1,3.1-1.3c0.3-0.4,0.8-1,1.3-1.6
		C340.7,791.3,340.6,791.3,340.5,791.3z M312.2,797.7c0.4,0.3,0.7,0.8,1.1,1c0.8,0.2,1.3,0.8,1.8,1.5c0.1,0.1,0.3,0.2,0.4,0.3
		c0.1-0.1,0.2-0.3,0.3-0.4c0.5-1.8,0.2-3.4-0.8-4.9c-0.3-0.5-0.7-0.7-1.3-0.2C313,795.5,312.2,797,312.2,797.7z M308.7,809.4
		c-0.9-0.6-1.3,0.4-2.1,0.4c0.5,0.6,1.2,0.6,1.6,0.1C308.3,809.7,308.5,809.6,308.7,809.4L308.7,809.4z M345.7,796.5
		c0,0.5,0,1,0,1.5c0.1,0,0.2,0,0.3,0c0-0.5,0-1,0-1.5C345.9,796.5,345.8,796.5,345.7,796.5z M319.9,804.8c1.1-0.2,2.3-0.3,3.3-0.7
		c1-0.4,2.1-0.4,3.1-0.5c0.3,0,0.6-0.3,1-0.5c0.2-0.1,0.5-0.2,0.8-0.3c0,0,0-0.1,0.1-0.1c1-0.9,0-1.5-0.4-2.1
		c-0.1-0.1-0.3-0.2-0.5-0.2c-0.6-0.2-1.3-0.3-1.9-0.6c-0.6-0.3-0.8-0.8-0.8-1.6c0.1-1-0.2-1.1-1.2-0.9c-1.2,0.2-1.9,1.1-2.5,2
		c-0.5,0.8-0.9,1.8-1.3,2.7C319.1,802.9,319.5,803.9,319.9,804.8z M346.8,778.5c-0.2-0.1-0.4-0.1-0.4-0.1c-0.5,0.5-0.9,0.9-1.3,1.3
		c-0.3,0.3-0.5,0.6-0.7,0.9c0,0.1,0,0.3,0.1,0.3c0.1,0,0.3,0,0.4,0C345.9,780.5,346.4,779.6,346.8,778.5z M319.7,828.7
		c0,0.3,0.3,0.8,1.3,0.6c0.5-0.1,0.8-0.3,0.9-0.5c0.7,0.4,1.4,0,1.3-0.7c-0.1-0.3-0.2-0.6-0.3-0.8c0.1,0,0.2,0,0.4,0.1
		c0,0.2,0.2,0.5,0.4,0.8c0.6,0.8,2.1,0.4,1.7-0.8c-0.1-0.3-0.3-0.5-0.5-0.7c0.2,0,0.4,0.1,0.6,0.1h0c0,0.1,0,0.2,0.1,0.3
		c0.1,0.4,0.4,0.8,0.7,1c0.4,0.2,0.9,0,1.2-0.5c0.1,0.2,0.2,0.3,0.2,0.4c0.1,0.3,0.3,0.7,0.5,1c0.2,0.4,0.2,0.6,0.5,0.5
		c0.4,0,0.3-0.8,0.2-1.1c-0.1-0.2-0.3-0.5-0.7-0.9c0.1,0,0.1,0,0.2,0.1c0.7,0.2,1.5,0.1,1.4-0.5c0,0,0-0.1,0-0.2
		c0.6,0.5,1.2,0.4,1.6,0.1c0,0,0.1-0.1,0.1-0.1l0,0l0.1,0c0,0,0.2,0.1,0.3,0.1c0.5,0.1,0.7-0.1,0.7-0.1c0.1,0,0.1-0.1,0.1-0.2
		c0-0.1,0,0,0.1,0c0.1,0,0.2,0.1,0.5,0c0.2,0,0.4-0.2,0.5-0.3c0.3,0.1,0.7,0.2,0.9,0c0.4-0.2,0.2-0.7-0.1-1.1
		c-0.2-0.4-0.4-0.6-0.1-0.7c0.3-0.1,0.4,0.1,0.6,0.4c0.2,0.2,0.3,0.5,0.4,0.7c0.1,0.2,0.1,0.3,0.2,0.4c0,0.1,0.2,0.1,0.4,0.1
		c0.3-0.1,0.5-0.1,0.3-0.4c-0.2-0.3-0.6-0.7-0.7-1c-0.2-0.3-0.3-0.5,0-0.4c0.2,0.1,0.3,0.1,0.5,0.1c0,0.3,0.1,0.7,0.4,1
		c0.6,0.9,2.1,0.4,1.7-0.8c0-0.1-0.1-0.2-0.2-0.3c0.1,0,0.2-0.1,0.3-0.2l0,0l0,0l0,0c0.2,0.3,0.3,0.6,0.5,0.8
		c0.5,0.6,0.9,0.6,1.3,0.4c0.3-0.1,0.6-0.5,0.5-0.8c0,0,0-0.1,0.1,0.1c0.2,0.3,0.7,0.4,0.9,0.4c0.2,0,0.8-0.2,0.8-0.9
		c0-0.7-0.6-1.1-0.9-1.3c-0.2-0.2-0.8-0.5-1.1-0.9c-0.2-0.3,0.2-0.3,0.6-0.1c0,0,0.2,0.1,0.4,0.2c0.2,0.1,0.3,0.2,0.4-0.2
		c0-0.3-0.3-0.5-0.7-0.7c-0.3-0.2-0.8-0.3-1.1,0c-0.3,0.4,0.4,0.9,0.7,1.3c0.3,0.3,0.6,0.7,0.9,1.1c0.2,0.4-0.1,0.9-0.6,0.7
		c-0.4-0.1-0.6-0.6-0.8-0.9c-0.1-0.3-0.4-1-0.7-0.9c-0.4,0.1,0,0.3,0.3,0.8c0.3,0.5,0.4,0.9,0.1,1.1c-0.3,0.3-0.7,0.2-1.2-0.3
		c-0.1-0.1-0.2-0.2-0.3-0.4c0,0,0-0.1,0.1-0.1c0.3-0.4,0.3-1,0.2-1.4c0-0.1-0.2-0.7-0.7-0.5c-0.5,0.1-0.5,0.5-0.2,1.3
		c0.1,0.2,0.2,0.5,0.4,0.8l0,0l0,0l0,0c-0.1,0.1-0.2,0.1-0.3,0.2c-0.5-0.7-1.3-0.5-1.3-0.5c-0.3,0.1-0.5,0.3-0.5,0.6
		c0,0-0.1,0-0.1,0c-0.4-0.1-1.3-0.7-1.2,0c0,0-0.1,0-0.3-0.1c-0.1,0-0.4-0.2-0.7,0.1c-0.3,0.2,0.2,0.8,0.3,1.1
		c0.2,0.3,0.5,0.9,0.1,0.9c-0.1,0-0.2,0-0.4-0.1c0-0.1,0-0.2,0-0.2c0-0.3-0.2-1.1-1-1.4c-0.7-0.3-0.9,0.2-0.9,0.2
		c-0.1-0.2-0.5-1.1-0.6-1.3c-0.1-0.2-0.3-0.4-0.6-0.2c-0.2,0.2-0.1,0.6,0.1,1.1c0.2,0.4,0.8,1.2,0.9,1.5c0.2,0.3,0.4,0.8,0.2,0.9
		c-0.1,0-0.3,0.1-0.5-0.1l0,0c0.2-0.4-0.2-0.9-0.5-1.3c-0.4-0.5-0.9-0.5-1.2-0.3c-0.4,0.1-0.3,0.4-0.1,0.6c0.2,0.2,0.8,0.6,1.1,0.8
		c0,0,0.1,0,0.1,0.1v0v0c-0.1,0.1-0.2,0.2-0.4,0.2c-0.3,0.1-0.5,0-0.9-0.3c0,0,0,0-0.1,0c-0.2-0.3-0.4-0.6-0.5-0.8c0,0,0-0.1,0-0.1
		c-0.1-0.2-0.1-0.3-0.3-0.2c-0.1,0-0.1,0-0.1,0.1c0,0.1,0,0.1-0.1,0c0,0-0.3-0.1-0.4,0c-0.2,0-0.5,0.1-0.4,0.5
		c0,0.3,0.3,0.4,0.5,0.3c0.1-0.1,0.3-0.4,0.5-0.2c0.1,0.2,0.3,0.4,0.4,0.7c0.2,0.3,0.3,0.7-0.3,0.7c-0.3,0-0.5,0-0.8-0.2
		c-0.1-0.1-0.1-0.2-0.1-0.3c-0.2-0.4-0.6-1.3-0.9-1.2c-0.1,0-0.1,0-0.1,0.1l0,0h0c0,0,0,0,0,0c0,0.1-0.1,0.1-0.1,0.2
		c-0.2-0.1-0.4-0.2-0.6-0.1c-0.4,0-0.5,0.3-0.5,0.6c-0.3-0.1-0.5-0.1-0.7-0.1c-0.4-0.2-0.9-0.1-0.9-0.1c-0.5,0.1-0.6,0.5-0.5,0.8
		c-0.1,0-0.2,0-0.4-0.1c-0.1-0.2-0.2-0.4-0.3-0.6c0.4-0.1,0.7-0.1,0.7-0.1c0.2,0,0.3-0.1,0.4-0.2c0.1-0.1,0.1-0.1,0.3-0.1
		c0.1,0,0.2,0,0.2-0.1c0-0.1-0.2,0-0.2,0c0,0-0.7,0.1-1.4,0.3c0,0,0,0,0,0c-0.3-0.7-0.7-1-0.9-0.9c-0.3,0.1-0.5,0.3-0.3,0.8
		c0.1,0.1,0.1,0.2,0.2,0.3c-0.3,0-0.5,0.1-0.6,0.1c-0.3,0-0.5,0.1-0.5,0.3c0,0.2,0.4,0.1,0.5,0.1c0,0,0.4-0.1,0.8-0.2
		c0.1,0.1,0.2,0.1,0.3,0.2c0.1,0,0.2,0.1,0.3,0.1c0.2,0.4,0.3,0.9,0.4,1.2c0.1,0.4-0.1,0.7-0.5,0.5c0,0-0.1,0-0.1-0.1
		c0-0.1,0.1-0.2,0-0.3c0-0.2-0.3-0.4-0.5-0.2c0,0,0-0.1,0-0.1c-0.1-0.3-0.1-0.4-0.3-0.7c-0.1-0.1-0.3-0.3-0.6-0.3
		c-0.7-0.1-1,0.3-1.1,0.5c-0.1,0.2,0,0.5,0.3,0.4c0.3-0.1,0.2-0.4,0.5-0.5c0.3-0.3,0.5-0.1,0.5-0.1c0.2,0.2-0.1,0.3-0.2,0.5
		C320.3,827.9,319.6,828.4,319.7,828.7 M321.4,825.7c0.1,0.1,0.2,0.3,0.3,0.5c-0.1,0-0.2,0-0.3,0.1c-0.1-0.1-0.1-0.2-0.2-0.3
		C321.1,825.7,321.2,825.5,321.4,825.7 M321.9,826.5c0,0.1,0.1,0.1,0.1,0.2c-0.1-0.1-0.2-0.1-0.3-0.2L321.9,826.5 M331.4,825.3
		c0,0-0.1-0.1-0.3-0.4c-0.3-0.5-0.4-0.9-0.5-1.1c0-0.1,0.1-0.1,0.1,0.1c0,0.1,0.3,0.6,0.3,0.8C331.2,824.8,331.3,825.2,331.4,825.3
		C331.4,825.3,331.4,825.3,331.4,825.3 M338.1,823.9c-0.2-0.3-0.3-0.6-0.4-0.9c-0.1-0.4-0.1-0.6,0.2-0.5c0.3,0.2,0.4,0.5,0.3,1
		C338.2,823.7,338.1,823.8,338.1,823.9L338.1,823.9L338.1,823.9L338.1,823.9 M336.6,824c0,0,0,0.1,0,0.1c0,0.1-0.1,0.1-0.2,0.2
		c-0.1-0.1-0.1-0.1-0.1-0.2c0,0,0,0,0.1-0.1c0,0,0,0,0,0C336.4,824,336.5,824,336.6,824 M336.7,824c0.1,0.1,0.3,0.2,0.4,0.4
		c-0.2,0-0.3,0-0.6-0.1c0,0-0.1,0-0.1,0C336.6,824.3,336.7,824.1,336.7,824 M336.2,824.8c-0.1-0.1-0.1-0.2-0.1-0.3c0,0,0,0,0.1,0
		c0.2,0,0.6,0.1,0.9,0.1c0,0,0.1,0,0.1,0c0.3,0.5,0.1,0.8-0.2,0.9C336.8,825.6,336.4,825.4,336.2,824.8 M332.4,826.3
		c0-0.1-0.1-0.3-0.2-0.6c0.2,0.2,0.5,0.4,0.8,0.5c0,0,0,0,0,0C332.9,826.5,332.4,826.3,332.4,826.3 M332.1,825.3
		c0-0.1-0.1-0.2-0.1-0.2c0-0.1,0-0.1,0-0.2c0.4-0.4,0.9,0.3,1,0.9c0,0.1,0,0.2,0,0.2c-0.1-0.1-0.3-0.2-0.5-0.3
		C332.4,825.7,332.2,825.5,332.1,825.3 M330.8,826.5c-0.5-0.3-0.8-0.5-0.9-0.8c-0.2-0.2,0.2-0.6,0.5-0.3c0.3,0.3,0.4,0.5,0.5,0.8
		C330.8,826.3,330.8,826.4,330.8,826.5L330.8,826.5 M326.5,826.3c0.1,0.3,0.3,0.6,0.5,0.7c-0.1,0-0.1,0-0.1,0
		c-0.4-0.1-0.6-0.2-0.9-0.3c0,0,0-0.1,0-0.1C326,826.4,326.1,826.2,326.5,826.3C326.5,826.3,326.5,826.3,326.5,826.3 M326.7,826.4
		c0.1,0.1,0.2,0.3,0.3,0.5C326.8,826.7,326.7,826.5,326.7,826.4C326.7,826.4,326.7,826.4,326.7,826.4 M328.6,828.8
		c0-0.1-0.3-0.5-0.5-1C328.5,828.1,328.7,828.6,328.6,828.8C328.6,828.8,328.6,828.9,328.6,828.8 M326.3,827.5
		c-0.2-0.3-0.3-0.5-0.3-0.7c0.4,0.1,0.8,0.3,1.1,0.4C327.1,827.7,326.6,827.9,326.3,827.5 M323.7,826.6
		C323.7,826.6,323.7,826.6,323.7,826.6c0,0-0.1,0.1-0.2,0.2C323.5,826.7,323.6,826.6,323.7,826.6 M323.5,827.4c0,0,0-0.1,0-0.1
		c0.1,0,0.3-0.1,0.4-0.2c0.3-0.2,0.3-0.4,0.2-0.5c0.1,0.1,0.3,0.2,0.5,0.4c0.3,0.6,0.1,0.9-0.1,1
		C324.1,828.1,323.8,827.9,323.5,827.4 M323.8,826.6c0.3,0.1,0,0.5-0.4,0.5c0,0,0-0.1,0-0.2C323.5,826.8,323.6,826.7,323.8,826.6
		 M320.5,828.9c-0.2-0.2,0.2-0.6,0.6-0.8c0.1-0.1,0.1-0.2,0.2-0.2c0.1,0.1,0.1,0.3,0.2,0.4c0,0.1,0,0.1,0,0.2
		C321.3,829,320.8,829.1,320.5,828.9"/>
</g>
<g id="Layer_2">
</g>
</svg>
